<?xml version="1.0" encoding="UTF-8"?><svg id="a" xmlns="http://www.w3.org/2000/svg" viewBox="0 0 348 160"><defs><style>.b{fill:#fff;}</style></defs><g/><g><g><rect class="b" x="64.11" y="40.94" width="222.07" height="33.09" rx="15.6" ry="15.6"/><path d="M272.77,75.67H77.53c-8.3,0-15.05-6.75-15.05-15.05v-6.26c0-8.3,6.75-15.05,15.05-15.05h195.24c8.3,0,15.05,6.75,15.05,15.05v6.26c0,8.3-6.75,15.05-15.05,15.05ZM77.53,42.58c-6.49,0-11.78,5.28-11.78,11.78v6.26c0,6.49,5.28,11.78,11.78,11.78h195.24c6.49,0,11.78-5.28,11.78-11.78v-6.26c0-6.49-5.28-11.78-11.78-11.78H77.53Z"/></g><g><rect class="b" x="142.28" y="29.4" width="12.66" height="29.98" rx="5.97" ry="5.97"/><path d="M150.2,61.01h-3.18c-3.52,0-6.38-2.86-6.38-6.38v-20.5c0-3.52,2.86-6.38,6.38-6.38h3.18c3.52,0,6.38,2.86,6.38,6.38v20.5c0,3.52-2.86,6.38-6.38,6.38Zm-3.18-29.98c-1.71,0-3.1,1.39-3.1,3.1v20.5c0,1.71,1.39,3.1,3.1,3.1h3.18c1.71,0,3.1-1.39,3.1-3.1v-20.5c0-1.71-1.39-3.1-3.1-3.1h-3.18Z"/></g><g><rect class="b" x="172.02" y="29.58" width="12.66" height="29.98" rx="5.97" ry="5.97"/><path d="M179.94,61.19h-3.18c-3.52,0-6.38-2.86-6.38-6.38v-20.5c0-3.52,2.86-6.38,6.38-6.38h3.18c3.52,0,6.38,2.86,6.38,6.38v20.5c0,3.52-2.86,6.38-6.38,6.38Zm-3.18-29.98c-1.71,0-3.1,1.39-3.1,3.1v20.5c0,1.71,1.39,3.1,3.1,3.1h3.18c1.71,0,3.1-1.39,3.1-3.1v-20.5c0-1.71-1.39-3.1-3.1-3.1h-3.18Z"/></g><g><rect class="b" x="157.36" y="26.47" width="12.66" height="26.91" rx="5.97" ry="5.97"/><path d="M165.53,55.02h-3.68c-3.38,0-6.13-2.75-6.13-6.13V30.96c0-3.38,2.75-6.13,6.13-6.13h3.68c3.38,0,6.13,2.75,6.13,6.13v17.93c0,3.38-2.75,6.13-6.13,6.13Zm-3.68-26.91c-1.57,0-2.85,1.28-2.85,2.85v17.93c0,1.57,1.28,2.85,2.85,2.85h3.68c1.57,0,2.85-1.28,2.85-2.85V30.96c0-1.57-1.28-2.85-2.85-2.85h-3.68Z"/></g><g><rect class="b" x="186.68" y="27.81" width="12.66" height="31.35" rx="5.97" ry="5.97"/><path d="M194.49,60.79h-2.96c-3.58,0-6.48-2.91-6.48-6.48v-21.65c0-3.58,2.91-6.48,6.48-6.48h2.96c3.58,0,6.48,2.91,6.48,6.48v21.65c0,3.58-2.91,6.48-6.48,6.48Zm-2.96-31.35c-1.77,0-3.21,1.44-3.21,3.21v21.65c0,1.77,1.44,3.21,3.21,3.21h2.96c1.77,0,3.21-1.44,3.21-3.21v-21.65c0-1.77-1.44-3.21-3.21-3.21h-2.96Z"/></g><g><path class="b" d="M197.08,50.71l17.27,20.87-9.77,20.87s-11.99,4.89-12.44,16.43l-2.22,47.97h-39.2v-47.49s7.11,4.41,9.77,1.75c0,0-21.2-4.44-17.21-35.53h51.52s-6.56-27.54,2.27-24.87Z"/><path d="M191.48,158.5h-42.4v-52.07l1.11,.69c-.33-.31-.66-.63-.99-.97-4.63-4.82-9.69-14.06-7.55-30.77l.18-1.43h50.91c-1.27-5.92-3.78-20.06,.33-23.93,.82-.77,2.25-1.54,4.46-.88l.47,.14,18.25,22.05-10.48,22.39-.59,.24c-.11,.04-11.02,4.65-11.42,14.98l-2.29,49.54Zm-39.13-3.27h36l2.15-46.41c.42-11.03,10.25-16.38,12.85-17.6l9.07-19.38-16.26-19.65c-.53-.07-.73,.12-.84,.22-1.48,1.39-2.13,9.39,1.07,22.8l.48,2.02h-52.14c-2.96,27.97,15.89,32.25,16.08,32.29l2.96,.62-2.14,2.14c-2.39,2.39-6.55,1.1-9.29-.17v43.12Z"/></g><g><rect class="b" x="218.67" y="2.3" width="25.76" height="110.15" rx="7.21" ry="7.21"/><path d="M239.72,114.09h-16.32c-3.5,0-6.36-2.85-6.36-6.36V7.02c0-3.5,2.85-6.36,6.36-6.36h16.32c3.5,0,6.36,2.85,6.36,6.36V107.73c0,3.5-2.85,6.36-6.36,6.36ZM223.39,3.94c-1.7,0-3.08,1.38-3.08,3.08V107.73c0,1.7,1.38,3.08,3.08,3.08h16.32c1.7,0,3.08-1.38,3.08-3.08V7.02c0-1.7-1.38-3.08-3.08-3.08h-16.32Z"/></g><g><rect class="b" x="244.43" y="13.85" width="25.76" height="87.49" rx="6.42" ry="6.42"/><path d="M265.99,102.98h-17.35c-3.22,0-5.84-2.62-5.84-5.84V18.06c0-3.22,2.62-5.84,5.84-5.84h17.35c3.22,0,5.84,2.62,5.84,5.84V97.14c0,3.22-2.62,5.84-5.84,5.84ZM248.64,15.49c-1.42,0-2.57,1.15-2.57,2.57V97.14c0,1.42,1.15,2.57,2.57,2.57h17.35c1.42,0,2.57-1.15,2.57-2.57V18.06c0-1.42-1.15-2.57-2.57-2.57h-17.35Z"/></g><g><rect class="b" x="106.94" y="2.14" width="25.76" height="110.15" rx="7.21" ry="7.21" transform="translate(239.63 114.42) rotate(-180)"/><path d="M127.98,113.92h-16.32c-3.5,0-6.36-2.85-6.36-6.36V6.86c0-3.5,2.85-6.36,6.36-6.36h16.32c3.5,0,6.36,2.85,6.36,6.36V107.56c0,3.5-2.85,6.36-6.36,6.36ZM111.66,3.77c-1.7,0-3.08,1.38-3.08,3.08V107.56c0,1.7,1.38,3.08,3.08,3.08h16.32c1.7,0,3.08-1.38,3.08-3.08V6.86c0-1.7-1.38-3.08-3.08-3.08h-16.32Z"/></g><g><rect class="b" x="81.18" y="13.68" width="25.76" height="87.49" rx="6.42" ry="6.42" transform="translate(188.11 114.86) rotate(-180)"/><path d="M102.73,102.82h-17.35c-3.22,0-5.84-2.62-5.84-5.84V17.89c0-3.22,2.62-5.84,5.84-5.84h17.35c3.22,0,5.84,2.62,5.84,5.84V96.97c0,3.22-2.62,5.84-5.84,5.84ZM85.38,15.32c-1.42,0-2.57,1.15-2.57,2.57V96.97c0,1.42,1.15,2.57,2.57,2.57h17.35c1.42,0,2.57-1.15,2.57-2.57V17.89c0-1.42-1.15-2.57-2.57-2.57h-17.35Z"/></g><path d="M87.43,58.79c-.9,0-1.64-.73-1.64-1.64V18.52c0-.9,.73-1.64,1.64-1.64s1.64,.73,1.64,1.64V57.15c0,.9-.73,1.64-1.64,1.64Z"/><path d="M224.67,58.79c-.9,0-1.64-.73-1.64-1.64V7.86c0-.9,.73-1.64,1.64-1.64s1.64,.73,1.64,1.64V57.15c0,.9-.73,1.64-1.64,1.64Z"/><path d="M224.67,104.98c-.9,0-1.64-.73-1.64-1.64v-3.11c0-.9,.73-1.64,1.64-1.64s1.64,.73,1.64,1.64v3.11c0,.9-.73,1.64-1.64,1.64Zm0-7.55c-.9,0-1.64-.73-1.64-1.64v-4.44c0-.9,.73-1.64,1.64-1.64s1.64,.73,1.64,1.64v4.44c0,.9-.73,1.64-1.64,1.64Zm0-8.88c-.9,0-1.64-.73-1.64-1.64v-4.44c0-.9,.73-1.64,1.64-1.64s1.64,.73,1.64,1.64v4.44c0,.9-.73,1.64-1.64,1.64Zm0-8.88c-.9,0-1.64-.73-1.64-1.64v-4.44c0-.9,.73-1.64,1.64-1.64s1.64,.73,1.64,1.64v4.44c0,.9-.73,1.64-1.64,1.64Zm0-8.88c-.9,0-1.64-.73-1.64-1.64v-4.44c0-.9,.73-1.64,1.64-1.64s1.64,.73,1.64,1.64v4.44c0,.9-.73,1.64-1.64,1.64Z"/><path d="M87.43,91.66c-.9,0-1.64-.73-1.64-1.64v-2.22c0-.9,.73-1.64,1.64-1.64s1.64,.73,1.64,1.64v2.22c0,.9-.73,1.64-1.64,1.64Zm0-6.66c-.9,0-1.64-.73-1.64-1.64v-4.44c0-.9,.73-1.64,1.64-1.64s1.64,.73,1.64,1.64v4.44c0,.9-.73,1.64-1.64,1.64Zm0-8.88c-.9,0-1.64-.73-1.64-1.64v-4.44c0-.9,.73-1.64,1.64-1.64s1.64,.73,1.64,1.64v4.44c0,.9-.73,1.64-1.64,1.64Zm0-8.88c-.9,0-1.64-.73-1.64-1.64v-4.44c0-.9,.73-1.64,1.64-1.64s1.64,.73,1.64,1.64v4.44c0,.9-.73,1.64-1.64,1.64Z"/></g></svg>