<?xml version="1.0" encoding="UTF-8"?><svg id="a" xmlns="http://www.w3.org/2000/svg" viewBox="0 0 348 160"><defs><style>.b{fill:#fff;}</style></defs><path d="M129.42,154.35h-10.9c-.39,0-.76-.16-1.04-.43-.27-.28-.43-.65-.43-1.04l.07-12.97h-7.48l-.05,12.98c0,.81-.66,1.46-1.46,1.46h-10.5c-2.23,0-4.04-1.81-4.04-4.04v-17.97l-2.81,.03h-.02c-.61,0-1.16-.38-1.37-.96-.21-.58-.04-1.23,.44-1.63l22.7-18.87c.52-.43,1.28-.45,1.82-.04l8.61,6.5c.21-.55,.74-.94,1.37-.94h3.38c.81,0,1.46,.65,1.46,1.46v4.28l7.96,7c.41,.36,.57,.89,.47,1.38,.02,.09,.03,.19,.03,.29,0,.81-.65,1.46-1.46,1.46h-2.71v17.99c0,2.23-1.81,4.04-4.04,4.04Zm-9.43-2.93h9.43c.62,0,1.12-.5,1.12-1.12v-19.45c0-.81,.65-1.46,1.46-1.46h.94l-6.2-5.45c-.32-.28-.5-.68-.5-1.1v-3.48h-.46v.88c0,.55-.31,1.06-.81,1.31-.5,.25-1.09,.19-1.53-.14l-9.93-7.5-18.63,15.49h.17c.38,0,.77,.15,1.05,.42,.28,.27,.43,.65,.43,1.04v19.45c0,.62,.5,1.12,1.12,1.12h9.04l.05-12.98c0-.81,.66-1.46,1.46-1.46h10.4c.39,0,.76,.16,1.04,.43,.27,.28,.43,.65,.43,1.04l-.07,12.97Z"/><path d="M98.97,147.91c-.81,0-1.46-.65-1.46-1.46v-1.17c0-.81,.65-1.46,1.46-1.46s1.46,.65,1.46,1.46v1.17c0,.81-.65,1.46-1.46,1.46Zm0-7.02c-.81,0-1.46-.65-1.46-1.46v-1.17c0-.81,.65-1.46,1.46-1.46s1.46,.65,1.46,1.46v1.17c0,.81-.65,1.46-1.46,1.46Zm0-7.02c-.81,0-1.46-.65-1.46-1.46v-1.17c0-.81,.65-1.46,1.46-1.46s1.46,.65,1.46,1.46v1.17c0,.81-.65,1.46-1.46,1.46Z"/><g><path d="M133.89,42.15h-33.65c-2.52,0-4.57-2.05-4.57-4.57V15.58c0-2.52,2.05-4.57,4.57-4.57h33.65c2.52,0,4.57,2.05,4.57,4.57v22c0,2.52-2.05,4.57-4.57,4.57ZM100.24,13.94c-.91,0-1.64,.74-1.64,1.64v22c0,.91,.74,1.64,1.64,1.64h33.65c.91,0,1.64-.74,1.64-1.64V15.58c0-.91-.74-1.64-1.64-1.64h-33.65Z"/><path d="M120.95,33.61h-7.51c-1.52,0-2.76-1.24-2.76-2.76v-4.14c0-1.52,1.24-2.76,2.76-2.76h7.51c1.52,0,2.76,1.24,2.76,2.76v4.14c0,1.52-1.24,2.76-2.76,2.76Zm-7.34-2.93h7.17v-3.8h-7.17v3.8Z"/><path d="M111.7,30.18c-1.21-.39-7.35-2.41-9.15-4.26-2.44-2.51-5.09-11.54-5.38-12.56l2.81-.81c1.03,3.58,3.21,9.83,4.67,11.33,.95,.98,5.21,2.64,7.94,3.51l-.89,2.79Z"/><path d="M125.52,13.94h-16.9v-4.44c0-2.45,1.99-4.44,4.44-4.44h8.02c2.45,0,4.44,1.99,4.44,4.44v4.44Zm-13.98-2.93h11.05v-1.51c0-.84-.68-1.51-1.51-1.51h-8.02c-.83,0-1.51,.68-1.51,1.51v1.51Z"/><path d="M122.43,30.16l-.89-2.79c2.72-.87,6.99-2.53,7.94-3.51,1.46-1.5,3.64-7.74,4.67-11.33l2.81,.81c-.29,1.02-2.94,10.04-5.38,12.56-1.8,1.85-7.94,3.87-9.15,4.26Z"/></g><path d="M101.37,37.53c-.81,0-1.46-.65-1.46-1.46v-1.17c0-.81,.65-1.46,1.46-1.46s1.46,.65,1.46,1.46v1.17c0,.81-.65,1.46-1.46,1.46Zm0-7.02c-.81,0-1.46-.65-1.46-1.46v-1.17c0-.81,.65-1.46,1.46-1.46s1.46,.65,1.46,1.46v1.17c0,.81-.65,1.46-1.46,1.46Z"/><g><circle class="b" cx="176.88" cy="82.18" r="32.37"/><path d="M176.88,116.01c-18.65,0-33.83-15.18-33.83-33.83s15.18-33.83,33.83-33.83,33.83,15.18,33.83,33.83-15.18,33.83-33.83,33.83Zm0-64.74c-17.04,0-30.91,13.86-30.91,30.91s13.86,30.91,30.91,30.91,30.91-13.86,30.91-30.91-13.86-30.91-30.91-30.91Z"/></g><g><path class="b" d="M198.9,68.14l-1.97-1.97c-1.09-1.09-2.86-1.09-3.95,0l-23.68,23.68-8.3-8.3c-1.09-1.09-2.86-1.09-3.95,0l-1.97,1.97c-1.09,1.09-1.09,2.86,0,3.95l14.21,14.21,.11-.11h0l29.49-29.48c1.09-1.09,1.09-2.86,0-3.95Z"/><path d="M169.29,103.75l-15.24-15.24c-.8-.8-1.25-1.87-1.25-3.01s.44-2.2,1.25-3.01l1.97-1.97c.8-.8,1.87-1.25,3.01-1.25s2.2,.44,3.01,1.25l7.26,7.26,22.65-22.65c1.66-1.66,4.36-1.66,6.02,0l1.97,1.97c1.66,1.66,1.66,4.36,0,6.02l-30.53,30.53h-.01l-.11,.1Zm-10.26-21.56c-.35,0-.69,.14-.94,.39l-1.97,1.97c-.52,.52-.52,1.36,0,1.88l13.18,13.18,.11-.11h0l28.46-28.45c.52-.52,.52-1.36,0-1.88l-1.97-1.97c-.52-.52-1.36-.52-1.88,0l-24.71,24.71-9.33-9.33c-.25-.25-.59-.39-.94-.39Z"/></g><g><path d="M230.79,46.54c-12.75,0-23.13-10.37-23.13-23.13S218.04,.29,230.79,.29s23.13,10.37,23.13,23.13-10.37,23.13-23.13,23.13Zm0-43.33c-11.14,0-20.2,9.06-20.2,20.2s9.06,20.2,20.2,20.2,20.2-9.06,20.2-20.2-9.06-20.2-20.2-20.2Z"/><path d="M230.79,24.88c-.81,0-1.46-.65-1.46-1.46V10.67c0-.81,.65-1.46,1.46-1.46s1.46,.65,1.46,1.46v12.74c0,.81-.65,1.46-1.46,1.46Z"/><path d="M238.52,31.5c-.34,0-.68-.12-.95-.35l-7.73-6.62c-.61-.53-.68-1.45-.16-2.06,.53-.61,1.45-.68,2.06-.16l7.73,6.62c.61,.53,.68,1.45,.16,2.06-.29,.34-.7,.51-1.11,.51Z"/><g><circle class="b" cx="231.27" cy="23.49" r="2.55"/><path d="M231.27,27.5c-2.21,0-4.01-1.8-4.01-4.02s1.8-4.01,4.01-4.01,4.02,1.8,4.02,4.01-1.8,4.02-4.02,4.02Zm0-5.11c-.6,0-1.09,.49-1.09,1.09s.49,1.09,1.09,1.09,1.09-.49,1.09-1.09-.49-1.09-1.09-1.09Z"/></g><path d="M231.34,8.32c-.81,0-1.46-.65-1.46-1.46v-2.21c0-.81,.65-1.46,1.46-1.46s1.46,.65,1.46,1.46v2.21c0,.81-.65,1.46-1.46,1.46Z"/><path d="M249.83,24.88h-2.21c-.81,0-1.46-.65-1.46-1.46s.65-1.46,1.46-1.46h2.21c.81,0,1.46,.65,1.46,1.46s-.65,1.46-1.46,1.46Z"/><path d="M213.96,24.88h-2.21c-.81,0-1.46-.65-1.46-1.46s.65-1.46,1.46-1.46h2.21c.81,0,1.46,.65,1.46,1.46s-.65,1.46-1.46,1.46Z"/><path d="M231.34,43.92c-.81,0-1.46-.65-1.46-1.46v-2.21c0-.81,.65-1.46,1.46-1.46s1.46,.65,1.46,1.46v2.21c0,.81-.65,1.46-1.46,1.46Z"/><path d="M245.22,17.02c-.58,0-1.13-.35-1.36-.92-.3-.75,.06-1.6,.81-1.9l2.05-.83c.75-.3,1.6,.06,1.9,.81s-.06,1.6-.81,1.9l-2.05,.83c-.18,.07-.37,.11-.55,.11Z"/><path d="M239.53,10.97c-.19,0-.38-.04-.57-.12-.74-.32-1.09-1.17-.77-1.92l.86-2.03c.31-.74,1.18-1.09,1.92-.77,.74,.32,1.09,1.17,.77,1.92l-.86,2.03c-.24,.56-.78,.89-1.35,.89Z"/><path d="M216.09,16.94c-.18,0-.37-.03-.55-.11l-2.05-.83c-.75-.3-1.11-1.16-.81-1.9,.3-.75,1.15-1.11,1.9-.81l2.05,.83c.75,.3,1.11,1.16,.81,1.9-.23,.57-.78,.92-1.36,.92Z"/><path d="M221.78,10.9c-.57,0-1.11-.33-1.35-.89l-.86-2.03c-.32-.74,.03-1.6,.77-1.92,.74-.32,1.6,.03,1.92,.77l.86,2.03c.32,.74-.03,1.6-.77,1.92-.19,.08-.38,.12-.57,.12Z"/><path d="M247.96,32.72c-.18,0-.37-.03-.55-.11l-2.05-.83c-.75-.3-1.11-1.16-.81-1.9,.3-.75,1.16-1.11,1.9-.81l2.05,.83c.75,.3,1.11,1.16,.81,1.9-.23,.57-.78,.92-1.36,.92Z"/><path d="M241.09,39.97c-.57,0-1.11-.33-1.35-.89l-.86-2.03c-.32-.74,.03-1.6,.77-1.92,.74-.32,1.6,.03,1.92,.77l.86,2.03c.32,.74-.03,1.6-.77,1.92-.19,.08-.38,.12-.57,.12Z"/><path d="M214.74,32.79c-.58,0-1.13-.35-1.36-.92-.3-.75,.06-1.6,.81-1.9l2.05-.83c.75-.3,1.6,.06,1.9,.81,.3,.75-.06,1.6-.81,1.9l-2.05,.83c-.18,.07-.37,.11-.55,.11Z"/><path d="M221.61,40.04c-.19,0-.38-.04-.57-.12-.74-.32-1.09-1.17-.78-1.92l.86-2.03c.32-.74,1.17-1.09,1.92-.78,.74,.32,1.09,1.17,.78,1.92l-.86,2.03c-.24,.56-.78,.89-1.35,.89Z"/></g><g><g><path class="b" d="M238.82,132.11c-.75-5.35-5.69-9.08-11.04-8.33-4.06,.57-7.18,3.55-8.13,7.29-.76-.03-1.52,0-2.3,.11-6.89,.96-11.69,7.33-10.73,14.22,.96,6.89,7.33,11.69,14.22,10.73,6.55-.92,11.22-6.72,10.82-13.22,4.7-1.26,7.84-5.85,7.15-10.79Z"/><path d="M219.1,157.71c-6.9,0-12.93-5.09-13.91-12.11-.52-3.72,.44-7.42,2.7-10.41s5.55-4.93,9.27-5.45c.47-.07,.95-.11,1.43-.12,1.41-3.89,4.84-6.69,9-7.27,6.14-.86,11.83,3.44,12.69,9.57h0c.73,5.23-2.28,10.21-7.12,12.05-.15,6.79-5.27,12.65-12.1,13.61-.66,.09-1.31,.14-1.96,.14Zm0-25.18c-.52,0-1.04,.04-1.54,.11-2.94,.41-5.55,1.95-7.34,4.32-1.79,2.37-2.55,5.3-2.14,8.25,.85,6.08,6.49,10.33,12.56,9.48,5.71-.8,9.91-5.93,9.57-11.68-.04-.69,.41-1.32,1.08-1.5,4.05-1.08,6.66-5.03,6.08-9.18h0c-.63-4.54-4.84-7.72-9.39-7.08-3.36,.47-6.08,2.9-6.91,6.2-.17,.67-.79,1.12-1.48,1.1-.17,0-.33-.01-.5-.01Z"/></g><g><rect class="b" x="228.78" y="119.31" width="25.17" height="3.98" transform="translate(-15.07 206.2) rotate(-45)"/><path d="M233.87,133.06c-.39,0-.76-.15-1.03-.43l-2.81-2.81c-.57-.57-.57-1.5,0-2.07l17.8-17.8c.57-.57,1.5-.57,2.07,0l2.81,2.81c.27,.27,.43,.65,.43,1.03s-.15,.76-.43,1.03l-17.8,17.8c-.27,.27-.65,.43-1.03,.43Zm-.74-4.27l.74,.74,15.73-15.73-.74-.74-15.73,15.73Z"/></g><g><rect class="b" x="248.57" y="105.63" width="6.26" height="10.83" rx="2.98" ry="2.98" transform="translate(152.24 -145.45) rotate(45)"/><path d="M250.08,117.35c-1.11,0-2.23-.42-3.08-1.27h0l-.34-.34c-.82-.82-1.27-1.91-1.27-3.08s.45-2.26,1.27-3.08l3.57-3.57c1.7-1.7,4.46-1.7,6.15,0l.34,.34c.82,.82,1.27,1.91,1.27,3.08s-.45,2.26-1.27,3.08l-3.57,3.57c-.85,.85-1.96,1.27-3.08,1.27Zm-1.01-3.34c.56,.56,1.46,.56,2.01,0l3.57-3.57c.27-.27,.41-.63,.41-1.01s-.15-.74-.41-1.01l-.34-.34c-.55-.55-1.46-.56-2.01,0l-3.57,3.57c-.27,.27-.41,.62-.41,1.01s.15,.74,.41,1.01l.34,.34Z"/></g><path d="M248.81,113.9c-.37,0-.75-.14-1.03-.43-.57-.57-.57-1.5,0-2.07l3.81-3.81c.57-.57,1.5-.57,2.07,0s.57,1.5,0,2.07l-3.81,3.81c-.29,.29-.66,.43-1.03,.43Z"/><path d="M250.15,115.26c-.37,0-.75-.14-1.03-.43-.57-.57-.57-1.5,0-2.07l3.81-3.81c.57-.57,1.5-.57,2.07,0s.57,1.5,0,2.07l-3.81,3.81c-.29,.29-.66,.43-1.03,.43Z"/><path d="M226.11,142.32c-3.14,0-5.69-2.55-5.69-5.69s2.55-5.69,5.69-5.69,5.69,2.55,5.69,5.69-2.55,5.69-5.69,5.69Zm0-8.45c-1.52,0-2.76,1.24-2.76,2.76s1.24,2.76,2.76,2.76,2.76-1.24,2.76-2.76-1.24-2.76-2.76-2.76Z"/><path d="M222.39,147.12c-.37,0-.75-.14-1.03-.43l-5.3-5.3c-.57-.57-.57-1.5,0-2.07s1.5-.57,2.07,0l5.3,5.3c.57,.57,.57,1.5,0,2.07-.29,.29-.66,.43-1.03,.43Z"/></g><path d="M104.28,108.17c-.61,0-1.18-.38-1.38-.99-2.74-8.03-4.13-16.44-4.13-25,0-11.95,2.65-23.41,7.89-34.06,.36-.73,1.23-1.02,1.96-.67,.73,.36,1.02,1.23,.67,1.96-5.03,10.24-7.59,21.27-7.59,32.77,0,8.24,1.34,16.33,3.97,24.05,.26,.76-.15,1.6-.91,1.86-.16,.05-.32,.08-.47,.08Z"/><path d="M176.09,159.5c-12.84,0-25.56-3.21-36.79-9.29-.71-.39-.97-1.27-.59-1.98,.39-.71,1.27-.97,1.98-.59,10.79,5.85,23.03,8.94,35.39,8.94,7.46,0,14.82-1.1,21.88-3.27,.77-.24,1.59,.2,1.83,.97s-.2,1.59-.97,1.83c-7.34,2.26-14.99,3.4-22.74,3.4Z"/><path d="M250.97,95.86c-.08,0-.16,0-.24-.02-.8-.13-1.34-.88-1.21-1.68,.64-3.93,.96-7.97,.96-11.99,0-10.73-2.24-21.09-6.64-30.78-.33-.74,0-1.6,.73-1.94,.74-.34,1.6,0,1.94,.73,4.58,10.07,6.91,20.83,6.91,31.99,0,4.18-.34,8.37-1,12.45-.12,.72-.74,1.23-1.44,1.23Z"/><path d="M145.06,14.4c-.56,0-1.09-.32-1.34-.86-.33-.74,0-1.6,.74-1.93,9.97-4.47,20.61-6.74,31.63-6.74,8.87,0,17.58,1.49,25.86,4.43,.76,.27,1.16,1.11,.89,1.87-.27,.76-1.11,1.16-1.87,.89-7.97-2.83-16.35-4.26-24.89-4.26-10.6,0-20.84,2.18-30.43,6.49-.19,.09-.4,.13-.6,.13Z"/></svg>