<?xml version="1.0" encoding="UTF-8"?><svg id="a" xmlns="http://www.w3.org/2000/svg" viewBox="0 0 348 160"><defs><style>.b{fill:#fff;}</style></defs><g><g><g><circle class="b" cx="230.65" cy="18.42" r="15.4"/><path d="M230.65,35.34c-9.33,0-16.92-7.59-16.92-16.92S221.32,1.5,230.65,1.5s16.92,7.59,16.92,16.92-7.59,16.92-16.92,16.92Zm0-30.8c-7.66,0-13.88,6.23-13.88,13.88s6.23,13.88,13.88,13.88,13.88-6.23,13.88-13.88-6.23-13.88-13.88-13.88Z"/></g><g><path class="b" d="M213.01,91.49v57.95c0,4.69,3.84,8.54,8.54,8.54h17.58c4.69,0,8.54-3.84,8.54-8.54v-60.76h.32v1.6c0,2.65,2.17,4.81,4.81,4.81s4.81-2.17,4.81-4.81V42c0-2.65-2.17-4.81-4.81-4.81v-.16h-11.93c-2.74,2.49-6.37,4.01-10.36,4.01s-7.63-1.52-10.36-4.01h-6.82"/><path d="M239.12,159.5h-17.58c-5.54,0-10.05-4.51-10.05-10.05v-57.95c0-.84,.68-1.52,1.52-1.52s1.52,.68,1.52,1.52v57.95c0,3.87,3.15,7.02,7.02,7.02h17.58c3.87,0,7.02-3.15,7.02-7.02v-60.76c0-.84,.68-1.52,1.52-1.52h.32c.84,0,1.52,.68,1.52,1.52v1.6c0,1.82,1.48,3.29,3.29,3.29s3.29-1.48,3.29-3.29V42c0-1.82-1.48-3.29-3.29-3.29-.24,0-.47-.06-.68-.16h-10.68c-3.05,2.59-6.91,4.01-10.94,4.01s-7.88-1.42-10.94-4.01h-6.25c-.84,0-1.52-.67-1.52-1.51,0-.84,.68-1.52,1.52-1.52h6.82c.38,0,.74,.14,1.02,.39,2.56,2.33,5.88,3.62,9.34,3.62s6.78-1.28,9.34-3.62c.28-.25,.64-.4,1.02-.4h11.93c.28,0,.54,.08,.76,.21,3.13,.38,5.57,3.05,5.57,6.28v48.29c0,3.49-2.84,6.33-6.33,6.33-1.34,0-2.59-.42-3.62-1.14v53.97c0,5.54-4.51,10.05-10.05,10.05Z"/></g><g><path class="b" d="M213.01,91.57V52.96L174.7,15.26s-3.15-13.48,10.67-9.19l34.74,30.92"/><path d="M213.01,93.09c-.84,0-1.52-.68-1.52-1.52V53.59l-37.85-37.25c-.2-.2-.35-.46-.41-.74-.06-.27-1.52-6.71,2.07-10.04,2.25-2.09,5.79-2.41,10.53-.94,.21,.06,.4,.17,.56,.32l34.74,30.92c.63,.56,.68,1.52,.12,2.14-.56,.62-1.52,.68-2.14,.12L184.62,7.43c-2.45-.72-5.59-1.2-7.26,.36-1.89,1.76-1.46,5.49-1.26,6.73l37.96,37.36c.29,.29,.45,.68,.45,1.08v38.61c0,.84-.68,1.52-1.52,1.52Z"/></g><path d="M247.66,93.09c-.84,0-1.52-.68-1.52-1.52v-1.82c0-.84,.68-1.52,1.52-1.52s1.52,.68,1.52,1.52v1.82c0,.84-.68,1.52-1.52,1.52Zm0-7.89c-.84,0-1.52-.68-1.52-1.52v-1.82c0-.84,.68-1.52,1.52-1.52s1.52,.68,1.52,1.52v1.82c0,.84-.68,1.52-1.52,1.52Zm0-7.89c-.84,0-1.52-.68-1.52-1.52v-1.82c0-.84,.68-1.52,1.52-1.52s1.52,.68,1.52,1.52v1.82c0,.84-.68,1.52-1.52,1.52Zm0-7.89c-.84,0-1.52-.68-1.52-1.52v-1.82c0-.84,.68-1.52,1.52-1.52s1.52,.68,1.52,1.52v1.82c0,.84-.68,1.52-1.52,1.52Zm0-7.89c-.84,0-1.52-.68-1.52-1.52v-1.82c0-.84,.68-1.52,1.52-1.52s1.52,.68,1.52,1.52v1.82c0,.84-.68,1.52-1.52,1.52Z"/><path d="M230.65,159.5c-.84,0-1.52-.68-1.52-1.52v-57.43c0-.84,.68-1.52,1.52-1.52s1.52,.68,1.52,1.52v57.43c0,.84-.68,1.52-1.52,1.52Z"/></g><g><path class="b" d="M152.6,146.89v8.11c0,1.64-1.34,2.98-2.98,2.98h-25.86c-1.64,0-2.98-1.34-2.98-2.98V88.88c0-1.64,1.34-2.98,2.98-2.98h25.86c1.64,0,2.98,1.34,2.98,2.98v7.35"/><path d="M149.61,159.5h-25.86c-2.48,0-4.5-2.02-4.5-4.5V88.88c0-2.48,2.02-4.5,4.5-4.5h25.86c2.48,0,4.5,2.02,4.5,4.5v7.35c0,.84-.68,1.52-1.52,1.52s-1.52-.68-1.52-1.52v-7.35c0-.81-.66-1.47-1.47-1.47h-25.86c-.81,0-1.47,.66-1.47,1.47v66.12c0,.81,.66,1.47,1.47,1.47h25.86c.81,0,1.47-.66,1.47-1.47v-8.11c0-.84,.68-1.52,1.52-1.52s1.52,.68,1.52,1.52v8.11c0,2.48-2.02,4.5-4.5,4.5Z"/></g><path d="M152.6,146.92c-.84,0-1.52-.68-1.52-1.52v-1.82c0-.84,.68-1.52,1.52-1.52s1.52,.68,1.52,1.52v1.82c0,.84-.68,1.52-1.52,1.52Zm0-7.89c-.84,0-1.52-.68-1.52-1.52v-1.82c0-.84,.68-1.52,1.52-1.52s1.52,.68,1.52,1.52v1.82c0,.84-.68,1.52-1.52,1.52Zm0-7.89c-.84,0-1.52-.68-1.52-1.52v-1.82c0-.84,.68-1.52,1.52-1.52s1.52,.68,1.52,1.52v1.82c0,.84-.68,1.52-1.52,1.52Zm0-7.89c-.84,0-1.52-.68-1.52-1.52v-1.82c0-.84,.68-1.52,1.52-1.52s1.52,.68,1.52,1.52v1.82c0,.84-.68,1.52-1.52,1.52Zm0-7.89c-.84,0-1.52-.68-1.52-1.52v-1.82c0-.84,.68-1.52,1.52-1.52s1.52,.68,1.52,1.52v1.82c0,.84-.68,1.52-1.52,1.52Zm0-7.89c-.84,0-1.52-.68-1.52-1.52v-1.82c0-.84,.68-1.52,1.52-1.52s1.52,.68,1.52,1.52v1.82c0,.84-.68,1.52-1.52,1.52Zm0-7.89c-.84,0-1.52-.68-1.52-1.52v-1.82c0-.84,.68-1.52,1.52-1.52s1.52,.68,1.52,1.52v1.82c0,.84-.68,1.52-1.52,1.52Z"/><g><path class="b" d="M112.46,146.89v8.77c0,1.27-1.04,2.3-2.3,2.3h-27.22c-1.27,0-2.3-1.04-2.3-2.3v-38.31c0-1.27,1.04-2.3,2.3-2.3h27.22c1.27,0,2.3,1.04,2.3,2.3v5.49"/><path d="M110.16,159.47h-27.22c-2.11,0-3.82-1.71-3.82-3.82v-38.31c0-2.11,1.71-3.82,3.82-3.82h27.22c2.11,0,3.82,1.71,3.82,3.82v5.49c0,.84-.68,1.52-1.52,1.52s-1.52-.68-1.52-1.52v-5.49c0-.43-.36-.78-.78-.78h-27.22c-.43,0-.78,.36-.78,.78v38.31c0,.43,.36,.78,.78,.78h27.22c.43,0,.78-.36,.78-.78v-8.77c0-.84,.68-1.52,1.52-1.52s1.52,.68,1.52,1.52v8.77c0,2.11-1.71,3.82-3.82,3.82Z"/></g><path d="M112.46,148.4c-.84,0-1.52-.68-1.52-1.52v-.38c0-.84,.68-1.52,1.52-1.52s1.52,.68,1.52,1.52v.38c0,.84-.68,1.52-1.52,1.52Zm0-6.45c-.84,0-1.52-.68-1.52-1.52v-1.82c0-.84,.68-1.52,1.52-1.52s1.52,.68,1.52,1.52v1.82c0,.84-.68,1.52-1.52,1.52Zm0-7.89c-.84,0-1.52-.68-1.52-1.52v-1.82c0-.84,.68-1.52,1.52-1.52s1.52,.68,1.52,1.52v1.82c0,.84-.68,1.52-1.52,1.52Zm0-7.89c-.84,0-1.52-.68-1.52-1.52v-1.82c0-.84,.68-1.52,1.52-1.52s1.52,.68,1.52,1.52v1.82c0,.84-.68,1.52-1.52,1.52Z"/><g><path class="b" d="M192.59,146.89v7.34c0,1.99-1.63,3.62-3.62,3.62h-24.59c-1.99,0-3.62-1.63-3.62-3.62V55.52c0-1.99,1.63-3.62,3.62-3.62h24.59c1.99,0,3.62,1.63,3.62,3.62v5.64"/><path d="M188.97,159.36h-24.59c-2.83,0-5.13-2.3-5.13-5.13V55.52c0-2.83,2.3-5.13,5.13-5.13h24.59c2.83,0,5.13,2.3,5.13,5.13v5.64c0,.84-.68,1.52-1.52,1.52s-1.52-.68-1.52-1.52v-5.64c0-1.16-.94-2.1-2.1-2.1h-24.59c-1.16,0-2.1,.94-2.1,2.1v98.7c0,1.16,.94,2.1,2.1,2.1h24.59c1.16,0,2.1-.94,2.1-2.1v-7.34c0-.84,.68-1.52,1.52-1.52s1.52,.68,1.52,1.52v7.34c0,2.83-2.3,5.13-5.13,5.13Z"/></g><path d="M192.59,143.42c-.84,0-1.52-.68-1.52-1.52v-1.82c0-.84,.68-1.52,1.52-1.52s1.52,.68,1.52,1.52v1.82c0,.84-.68,1.52-1.52,1.52Zm0-7.89c-.84,0-1.52-.68-1.52-1.52v-1.82c0-.84,.68-1.52,1.52-1.52s1.52,.68,1.52,1.52v1.82c0,.84-.68,1.52-1.52,1.52Zm0-7.89c-.84,0-1.52-.68-1.52-1.52v-1.82c0-.84,.68-1.52,1.52-1.52s1.52,.68,1.52,1.52v1.82c0,.84-.68,1.52-1.52,1.52Zm0-7.89c-.84,0-1.52-.68-1.52-1.52v-1.82c0-.84,.68-1.52,1.52-1.52s1.52,.68,1.52,1.52v1.82c0,.84-.68,1.52-1.52,1.52Zm0-7.89c-.84,0-1.52-.68-1.52-1.52v-1.82c0-.84,.68-1.52,1.52-1.52s1.52,.68,1.52,1.52v1.82c0,.84-.68,1.52-1.52,1.52Zm0-7.89c-.84,0-1.52-.68-1.52-1.52v-1.82c0-.84,.68-1.52,1.52-1.52s1.52,.68,1.52,1.52v1.82c0,.84-.68,1.52-1.52,1.52Zm0-7.89c-.84,0-1.52-.68-1.52-1.52v-1.82c0-.84,.68-1.52,1.52-1.52s1.52,.68,1.52,1.52v1.82c0,.84-.68,1.52-1.52,1.52Zm0-7.89c-.84,0-1.52-.68-1.52-1.52v-1.82c0-.84,.68-1.52,1.52-1.52s1.52,.68,1.52,1.52v1.82c0,.84-.68,1.52-1.52,1.52Zm0-7.89c-.84,0-1.52-.68-1.52-1.52v-1.82c0-.84,.68-1.52,1.52-1.52s1.52,.68,1.52,1.52v1.82c0,.84-.68,1.52-1.52,1.52Zm0-7.89c-.84,0-1.52-.68-1.52-1.52v-1.82c0-.84,.68-1.52,1.52-1.52s1.52,.68,1.52,1.52v1.82c0,.84-.68,1.52-1.52,1.52Zm0-7.89c-.84,0-1.52-.68-1.52-1.52v-1.82c0-.84,.68-1.52,1.52-1.52s1.52,.68,1.52,1.52v1.82c0,.84-.68,1.52-1.52,1.52Z"/><path d="M141.17,81.65c-.84,0-1.52-.68-1.52-1.52V31.02h-5.71c-.61,0-1.17-.37-1.4-.94-.23-.57-.1-1.22,.33-1.65l18.46-18.46c.59-.59,1.55-.59,2.15,0l18.46,18.46c.43,.43,.56,1.09,.33,1.65-.23,.57-.79,.94-1.4,.94h-5.71v15.12c0,.84-.68,1.52-1.52,1.52s-1.52-.68-1.52-1.52V29.5c0-.84,.68-1.52,1.52-1.52h3.56l-14.79-14.79-14.79,14.79h3.56c.84,0,1.52,.68,1.52,1.52v50.63c0,.84-.68,1.52-1.52,1.52Z"/><path d="M101.1,110.18c-.84,0-1.52-.68-1.52-1.52v-43.32h-5.71c-.61,0-1.17-.37-1.4-.94-.23-.57-.1-1.22,.33-1.65l18.46-18.46c.57-.57,1.58-.57,2.15,0l18.46,18.46c.43,.43,.56,1.09,.33,1.65-.23,.57-.79,.94-1.4,.94h-5.71v15.12c0,.84-.68,1.52-1.52,1.52s-1.52-.68-1.52-1.52v-16.64c0-.84,.68-1.52,1.52-1.52h3.56l-14.79-14.79-14.79,14.79h3.56c.84,0,1.52,.68,1.52,1.52v44.84c0,.84-.68,1.52-1.52,1.52Z"/></g><g/></svg>