<?xml version="1.0" encoding="UTF-8"?><svg id="a" xmlns="http://www.w3.org/2000/svg" viewBox="0 0 348 160"><defs><style>.b{fill:#fff;}</style></defs><g/><g><g><g><path d="M230.71,91.7c-21.11,0-38.29-17.18-38.29-38.29s17.18-38.29,38.29-38.29,38.29,17.18,38.29,38.29-17.18,38.29-38.29,38.29Zm0-74.22c-19.81,0-35.93,16.12-35.93,35.93s16.12,35.93,35.93,35.93,35.93-16.12,35.93-35.93-16.12-35.93-35.93-35.93Z"/><path d="M230.71,54.59c-.65,0-1.18-.53-1.18-1.18V31.58c0-.65,.53-1.18,1.18-1.18s1.18,.53,1.18,1.18v21.83c0,.65-.53,1.18-1.18,1.18Z"/><path d="M243.94,65.94c-.27,0-.55-.09-.77-.28l-13.24-11.35c-.5-.42-.55-1.17-.13-1.67,.43-.5,1.17-.55,1.67-.13l13.24,11.35c.5,.42,.55,1.17,.13,1.67-.23,.27-.57,.41-.9,.41Z"/><g><circle class="b" cx="231.53" cy="53.53" r="4.37"/><path d="M231.53,59.08c-3.06,0-5.55-2.49-5.55-5.55s2.49-5.55,5.55-5.55,5.55,2.49,5.55,5.55-2.49,5.55-5.55,5.55Zm0-8.75c-1.76,0-3.19,1.43-3.19,3.19s1.43,3.19,3.19,3.19,3.19-1.43,3.19-3.19-1.43-3.19-3.19-3.19Z"/></g><path d="M231.65,26.22c-.65,0-1.18-.53-1.18-1.18v-3.78c0-.65,.53-1.18,1.18-1.18s1.18,.53,1.18,1.18v3.78c0,.65-.53,1.18-1.18,1.18Z"/><path d="M263.33,54.59h-3.78c-.65,0-1.18-.53-1.18-1.18s.53-1.18,1.18-1.18h3.78c.65,0,1.18,.53,1.18,1.18s-.53,1.18-1.18,1.18Z"/><path d="M201.87,54.59h-3.78c-.65,0-1.18-.53-1.18-1.18s.53-1.18,1.18-1.18h3.78c.65,0,1.18,.53,1.18,1.18s-.53,1.18-1.18,1.18Z"/><path d="M231.65,87.21c-.65,0-1.18-.53-1.18-1.18v-3.78c0-.65,.53-1.18,1.18-1.18s1.18,.53,1.18,1.18v3.78c0,.65-.53,1.18-1.18,1.18Z"/><path d="M255.43,41.12c-.47,0-.91-.28-1.1-.74-.24-.61,.05-1.29,.65-1.54l3.51-1.42c.6-.24,1.29,.05,1.54,.65s-.05,1.29-.65,1.54l-3.51,1.42c-.14,.06-.3,.09-.44,.09Z"/><path d="M245.68,30.76c-.15,0-.31-.03-.46-.09-.6-.25-.88-.95-.63-1.55l1.48-3.48c.25-.6,.95-.88,1.55-.63,.6,.25,.88,.95,.63,1.55l-1.48,3.48c-.19,.45-.63,.72-1.09,.72Z"/><path d="M205.52,40.99c-.15,0-.3-.03-.44-.09l-3.51-1.42c-.61-.24-.9-.93-.65-1.54,.24-.61,.93-.9,1.54-.65l3.51,1.42c.61,.24,.9,.93,.65,1.54-.19,.46-.63,.74-1.1,.74Z"/><path d="M215.27,30.63c-.46,0-.9-.27-1.09-.72l-1.48-3.48c-.26-.6,.02-1.29,.63-1.55,.6-.26,1.29,.02,1.55,.63l1.48,3.48c.26,.6-.02,1.29-.63,1.55-.15,.06-.31,.09-.46,.09Z"/><path d="M260.12,68.01c-.15,0-.3-.03-.44-.09l-3.51-1.42c-.61-.24-.9-.93-.65-1.54,.24-.61,.93-.9,1.54-.65l3.51,1.42c.61,.24,.9,.93,.65,1.54-.19,.46-.63,.74-1.1,.74Z"/><path d="M248.35,80.43c-.46,0-.9-.27-1.09-.72l-1.48-3.48c-.25-.6,.03-1.29,.63-1.55,.6-.25,1.29,.03,1.55,.63l1.48,3.48c.25,.6-.03,1.29-.63,1.55-.15,.06-.31,.09-.46,.09Z"/><path d="M203.21,68.15c-.47,0-.91-.28-1.1-.74-.24-.61,.05-1.29,.65-1.54l3.51-1.42c.6-.25,1.29,.05,1.54,.65,.24,.61-.05,1.29-.65,1.54l-3.51,1.42c-.14,.06-.3,.09-.44,.09Z"/><path d="M214.98,80.56c-.15,0-.31-.03-.46-.09-.6-.25-.88-.95-.63-1.55l1.48-3.48c.25-.6,.95-.88,1.55-.63,.6,.25,.88,.95,.63,1.55l-1.48,3.48c-.19,.45-.63,.72-1.09,.72Z"/></g><g><g><rect class="b" x="80.61" y="141.58" width="166.41" height="15.6" rx="7.03" ry="7.03"/><path d="M241.86,158.36H85.76c-3.5,0-6.34-2.84-6.34-6.34v-5.29c0-3.5,2.84-6.34,6.34-6.34H241.86c3.5,0,6.34,2.84,6.34,6.34v5.29c0,3.5-2.84,6.34-6.34,6.34Zm-156.1-15.6c-2.19,0-3.98,1.78-3.98,3.98v5.29c0,2.19,1.78,3.98,3.98,3.98H241.86c2.19,0,3.98-1.78,3.98-3.98v-5.29c0-2.19-1.78-3.98-3.98-3.98H85.76Z"/></g><g><path class="b" d="M105.14,61.44h116.41c6.62,0,12,5.38,12,12v67.9H93.14V73.44c0-6.62,5.38-12,12-12Z"/><path d="M234.73,142.52H91.95V67.12c0-3.78,3.08-6.85,6.85-6.85H227.87c3.78,0,6.85,3.08,6.85,6.85v75.4Zm-140.41-2.36H232.36V67.12c0-2.48-2.01-4.49-4.49-4.49H98.81c-2.48,0-4.49,2.01-4.49,4.49v73.04Z"/></g><g><rect class="b" x="106.37" y="76.1" width="113.46" height="65.24"/><path d="M219.83,142.52H106.37c-.65,0-1.18-.53-1.18-1.18V76.1c0-.65,.53-1.18,1.18-1.18h113.46c.65,0,1.18,.53,1.18,1.18v65.24c0,.65-.53,1.18-1.18,1.18Zm-112.28-2.36h111.1v-62.88H107.55v62.88Z"/></g></g><g><g><path class="b" d="M170.85,33.54c-1.32,0-2.57,.28-3.7,.77,.03-.41,.04-.82,.04-1.23,0-10.51-8.52-19.02-19.02-19.02-6.23,0-11.75,2.99-15.22,7.61-1.14-.27-2.32-.41-3.54-.41-7.88,0-14.38,5.89-15.35,13.51-1.3-.69-2.78-1.09-4.36-1.09-5.12,0-9.27,4.15-9.27,9.27s4.15,9.27,9.27,9.27c.32,0,.64-.02,.95-.05,.11,.03,.22,.05,.34,.05h58.45c.24,0,.46-.07,.65-.17,.25,.02,.51,.03,.76,.03,5.12,0,9.27-4.15,9.27-9.27s-4.15-9.27-9.27-9.27Z"/><path d="M169.43,53.41h-58.45c-.13,0-.27-.01-.41-.04-.29,.02-.59,.04-.88,.04-5.76,0-10.45-4.69-10.45-10.45s4.69-10.45,10.45-10.45c1.18,0,2.35,.2,3.46,.59,1.68-7.52,8.42-13.01,16.26-13.01,1.02,0,2.05,.1,3.07,.29,3.86-4.77,9.54-7.49,15.7-7.49,11,0,19.97,8.84,20.2,19.78,.81-.2,1.64-.3,2.48-.3,5.76,0,10.45,4.69,10.45,10.45s-4.69,10.45-10.45,10.45c-.18,0-.36,0-.55-.02-.28,.1-.57,.15-.86,.15Zm-58.7-2.43l.2,.05s.04,0,.06,.01h58.44s.06,0,.09-.03l.31-.17,.35,.03c.22,.02,.44,.03,.67,.03,4.46,0,8.09-3.63,8.09-8.09s-3.63-8.09-8.09-8.09c-1.12,0-2.21,.23-3.23,.67l-1.77,.77,.12-1.93c.03-.45,.04-.82,.04-1.16,0-9.84-8-17.84-17.84-17.84-5.67,0-10.87,2.6-14.28,7.14l-.46,.62-.75-.18c-1.08-.25-2.18-.38-3.27-.38-7.18,0-13.28,5.36-14.18,12.48l-.22,1.7-1.51-.81c-1.16-.62-2.48-.95-3.8-.95-4.46,0-8.09,3.63-8.09,8.09s3.63,8.09,8.09,8.09c.28,0,.56-.01,.83-.04l.21-.02Z"/></g><path d="M113.22,26.35c-.42,0-.83-.22-1.04-.62-1.27-2.36-1.63-5.03-1.02-7.52,.63-2.54,2.18-4.59,4.38-5.78,4.5-2.43,10.32-.43,12.97,4.47,.31,.57,.1,1.29-.48,1.6-.57,.31-1.29,.1-1.6-.48-2.03-3.75-6.41-5.33-9.76-3.52-1.61,.87-2.75,2.38-3.21,4.26-.48,1.92-.19,3.99,.8,5.83,.31,.57,.1,1.29-.48,1.6-.18,.1-.37,.14-.56,.14Z"/><path d="M114.9,11.37c-.46,0-.9-.27-1.09-.72l-2.67-6.3c-.26-.6,.02-1.29,.63-1.55,.6-.25,1.29,.02,1.55,.63l2.67,6.3c.26,.6-.02,1.29-.63,1.55-.15,.06-.31,.09-.46,.09Z"/><path d="M126.99,12.44c-.3,0-.6-.12-.84-.35-.46-.46-.46-1.21,0-1.67l4.84-4.84c.46-.46,1.21-.46,1.67,0s.46,1.21,0,1.67l-4.84,4.84c-.23,.23-.53,.35-.84,.35Z"/><path d="M130.66,16.76c-.44,0-.87-.25-1.07-.68-.28-.59-.03-1.29,.56-1.57l6.18-2.93c.59-.28,1.29-.03,1.57,.56,.28,.59,.03,1.29-.56,1.57l-6.18,2.93c-.16,.08-.34,.11-.5,.11Z"/><path d="M121.26,10.16c-.15,0-.31-.03-.46-.09-.6-.25-.88-.95-.63-1.55l2.67-6.3c.26-.6,.95-.88,1.55-.63,.6,.25,.88,.95,.63,1.55l-2.67,6.3c-.19,.45-.63,.72-1.09,.72Z"/><path d="M101.99,23.01c-.53,0-1.02-.36-1.15-.9-.15-.63,.24-1.27,.87-1.43l6.65-1.61c.64-.15,1.27,.24,1.43,.87,.15,.63-.24,1.27-.87,1.43l-6.65,1.61c-.09,.02-.19,.03-.28,.03Z"/><path d="M103.64,30.74c-.44,0-.87-.25-1.07-.68-.28-.59-.03-1.29,.56-1.57l6.18-2.93c.59-.28,1.29-.03,1.57,.56,.28,.59,.03,1.29-.56,1.57l-6.18,2.93c-.16,.08-.34,.11-.5,.11Z"/><path d="M109.9,15.8c-.15,0-.3-.03-.44-.09l-6.34-2.56c-.61-.24-.9-.93-.65-1.54s.93-.9,1.54-.65l6.34,2.56c.61,.24,.9,.93,.65,1.54-.19,.46-.63,.74-1.1,.74Z"/></g></g><path d="M220.82,90.14H105.47v-14.97h115.35v14.97Zm-112.99-2.36h110.62v-10.25H107.83v10.25Z"/><path d="M210.8,82.67h-18.31c-.65,0-1.18-.53-1.18-1.18s.53-1.18,1.18-1.18h18.31c.65,0,1.18,.53,1.18,1.18s-.53,1.18-1.18,1.18Z"/><path d="M126.33,111.12h-8.22c-1.99,0-3.61-1.62-3.61-3.61v-8.22c0-1.99,1.62-3.61,3.61-3.61h8.22c1.99,0,3.61,1.62,3.61,3.61v8.22c0,1.99-1.62,3.61-3.61,3.61Zm-8.22-13.08c-.69,0-1.25,.56-1.25,1.25v8.22c0,.69,.56,1.25,1.25,1.25h8.22c.69,0,1.25-.56,1.25-1.25v-8.22c0-.69-.56-1.25-1.25-1.25h-8.22Z"/><path d="M136.35,99.54c-.65,0-1.18-.53-1.18-1.18,0-.65,.53-1.18,1.18-1.19l71.62-.24h0c.65,0,1.18,.53,1.18,1.18,0,.65-.53,1.18-1.18,1.19l-71.62,.24h0Z"/><path d="M136.37,108.6c-.65,0-1.18-.53-1.18-1.18,0-.65,.53-1.18,1.18-1.19l71.62-.24h0c.65,0,1.18,.53,1.18,1.18,0,.65-.53,1.18-1.18,1.19l-71.62,.24h0Z"/><path d="M136.37,117.58c-.65,0-1.18-.53-1.18-1.18,0-.65,.53-1.18,1.18-1.19l71.62-.24h0c.65,0,1.18,.53,1.18,1.18,0,.65-.53,1.18-1.18,1.19l-71.62,.24h0Z"/><path d="M136.37,126.09c-.65,0-1.18-.53-1.18-1.18,0-.65,.53-1.18,1.18-1.19l71.62-.24h0c.65,0,1.18,.53,1.18,1.18,0,.65-.53,1.18-1.18,1.19l-71.62,.24h0Z"/><path d="M136.37,134.6c-.65,0-1.18-.52-1.18-1.17,0-.65,.52-1.19,1.17-1.19l41.35-.31c.65,0,1.19,.52,1.19,1.17,0,.65-.52,1.19-1.17,1.19l-41.35,.31h0Z"/><g><path d="M113.88,82.71h-.97c-.65,0-1.18-.53-1.18-1.19,0-.65,.53-1.18,1.18-1.18h.97c.65,0,1.18,.53,1.18,1.19,0,.65-.53,1.18-1.18,1.18Z"/><path d="M120.76,82.73h-1.72c-.65,0-1.18-.54-1.18-1.19,0-.65,.53-1.18,1.18-1.18h1.72c.65,0,1.18,.54,1.18,1.19,0,.65-.53,1.18-1.18,1.18Z"/><path d="M126.88,82.74h-.97c-.65,0-1.18-.53-1.18-1.19,0-.65,.53-1.18,1.18-1.18h.97c.65,0,1.18,.53,1.18,1.19,0,.65-.53,1.18-1.18,1.18Z"/></g></g></svg>