<?xml version="1.0" encoding="UTF-8"?><svg id="a" xmlns="http://www.w3.org/2000/svg" viewBox="0 0 348 160"><defs><style>.b{fill:#fff;}</style></defs><g/><g><path d="M254.53,143.57H93.49c-.68,0-1.23-.55-1.23-1.23V3.62c0-.68,.55-1.23,1.23-1.23H254.53c.68,0,1.23,.55,1.23,1.23V142.34c0,.68-.55,1.23-1.23,1.23Zm-159.81-2.47H253.3V4.85H94.72V141.1Z"/><g><polyline class="b" points="162.17 142.77 254.77 142.77 254.53 11.5 93.49 11.5 93.49 142.36 107.54 142.36"/><path d="M254.77,144.01h-92.59c-.68,0-1.23-.55-1.23-1.23s.55-1.23,1.23-1.23h91.36l-.23-128.81H94.72V141.13h12.82c.68,0,1.23,.55,1.23,1.23s-.55,1.23-1.23,1.23h-14.06c-.68,0-1.23-.55-1.23-1.23V11.5c0-.68,.55-1.23,1.23-1.23H254.53c.68,0,1.23,.55,1.23,1.23l.24,131.27c0,.33-.13,.64-.36,.87-.23,.23-.55,.36-.87,.36Z"/></g><path d="M134.08,27.86c-5.23,0-9.48-3.56-9.48-7.93V8.62c0-4.37,4.25-7.93,9.48-7.93h.13c5.23,0,9.48,3.56,9.48,7.93,0,.68-.55,1.23-1.23,1.23s-1.23-.55-1.23-1.23c0-3.01-3.15-5.46-7.02-5.46h-.13c-3.87,0-7.02,2.45-7.02,5.46v11.31c0,3.01,3.15,5.46,7.02,5.46,.68,0,1.23,.55,1.23,1.23s-.55,1.23-1.23,1.23Z"/><path d="M160.75,27.86c-5.23,0-9.48-3.56-9.48-7.93V8.62c0-4.37,4.25-7.93,9.48-7.93h.13c5.23,0,9.48,3.56,9.48,7.93,0,.68-.55,1.23-1.23,1.23s-1.23-.55-1.23-1.23c0-3.01-3.15-5.46-7.02-5.46h-.13c-3.87,0-7.02,2.45-7.02,5.46v11.31c0,3.01,3.15,5.46,7.02,5.46,.68,0,1.23,.55,1.23,1.23s-.55,1.23-1.23,1.23Z"/><path d="M187.42,27.86c-5.23,0-9.48-3.56-9.48-7.93V8.62c0-4.37,4.25-7.93,9.48-7.93h.13c5.23,0,9.48,3.56,9.48,7.93,0,.68-.55,1.23-1.23,1.23s-1.23-.55-1.23-1.23c0-3.01-3.15-5.46-7.02-5.46h-.13c-3.87,0-7.02,2.45-7.02,5.46v11.31c0,3.01,3.15,5.46,7.02,5.46,.68,0,1.23,.55,1.23,1.23s-.55,1.23-1.23,1.23Z"/><path d="M214.08,27.86c-5.23,0-9.48-3.56-9.48-7.93V8.62c0-4.37,4.25-7.93,9.48-7.93h.13c5.23,0,9.48,3.56,9.48,7.93,0,.68-.55,1.23-1.23,1.23s-1.23-.55-1.23-1.23c0-3.01-3.15-5.46-7.02-5.46h-.13c-3.87,0-7.02,2.45-7.02,5.46v11.31c0,3.01,3.15,5.46,7.02,5.46,.68,0,1.23,.55,1.23,1.23s-.55,1.23-1.23,1.23Z"/><path d="M254.77,40.19H93.72c-.68,0-1.23-.55-1.23-1.23s.55-1.23,1.23-1.23H254.77c.68,0,1.23,.55,1.23,1.23s-.55,1.23-1.23,1.23Z"/><path d="M174.01,51.84H93.25c-.68,0-1.23-.55-1.23-1.23s.55-1.23,1.23-1.23h80.76c.68,0,1.23,.55,1.23,1.23s-.55,1.23-1.23,1.23Z"/><path d="M252.36,51.84h-4.93c-.68,0-1.23-.55-1.23-1.23s.55-1.23,1.23-1.23h4.93c.68,0,1.23,.55,1.23,1.23s-.55,1.23-1.23,1.23Zm-9.86,0h-4.93c-.68,0-1.23-.55-1.23-1.23s.55-1.23,1.23-1.23h4.93c.68,0,1.23,.55,1.23,1.23s-.55,1.23-1.23,1.23Zm-9.86,0h-4.93c-.68,0-1.23-.55-1.23-1.23s.55-1.23,1.23-1.23h4.93c.68,0,1.23,.55,1.23,1.23s-.55,1.23-1.23,1.23Zm-9.86,0h-4.93c-.68,0-1.23-.55-1.23-1.23s.55-1.23,1.23-1.23h4.93c.68,0,1.23,.55,1.23,1.23s-.55,1.23-1.23,1.23Zm-9.86,0h-4.93c-.68,0-1.23-.55-1.23-1.23s.55-1.23,1.23-1.23h4.93c.68,0,1.23,.55,1.23,1.23s-.55,1.23-1.23,1.23Zm-9.86,0h-4.93c-.68,0-1.23-.55-1.23-1.23s.55-1.23,1.23-1.23h4.93c.68,0,1.23,.55,1.23,1.23s-.55,1.23-1.23,1.23Zm-9.86,0h-4.93c-.68,0-1.23-.55-1.23-1.23s.55-1.23,1.23-1.23h4.93c.68,0,1.23,.55,1.23,1.23s-.55,1.23-1.23,1.23Z"/><g><g><g><polygon class="b" points="177.39 128.9 177.92 128.69 136.11 91.4 128.63 108.13 177.39 128.9"/><path d="M177.39,130.13c-.16,0-.33-.03-.48-.1l-48.77-20.77c-.3-.13-.54-.38-.66-.68-.12-.31-.11-.65,.02-.95l7.49-16.73c.16-.36,.48-.62,.87-.7,.39-.08,.79,.02,1.08,.29l41.8,37.29c.32,.28,.47,.71,.39,1.13-.07,.42-.35,.77-.75,.93l-.52,.22c-.15,.06-.31,.09-.47,.09Zm-47.13-22.64l42.18,17.96-35.89-32.01-6.29,14.05Z"/></g><g><polygon class="b" points="115.19 138.17 106.31 158.01 134.59 146.43 115.19 138.17"/><path d="M106.31,159.25c-.33,0-.65-.13-.89-.38-.35-.36-.45-.9-.24-1.36l8.88-19.84c.27-.61,.99-.9,1.61-.63l19.4,8.26c.46,.19,.75,.65,.75,1.14,0,.5-.31,.94-.77,1.13l-28.28,11.58c-.15,.06-.31,.09-.47,.09Zm9.51-19.47l-7.13,15.93,22.7-9.3-15.57-6.63Z"/></g><g><polygon class="b" points="146.02 141.75 165.96 133.58 125.04 116.15 118.78 130.15 146.02 141.75"/><path d="M146.02,142.98c-.16,0-.33-.03-.48-.1l-27.24-11.6c-.3-.13-.54-.38-.66-.68-.12-.31-.11-.65,.02-.95l6.26-13.99c.27-.61,.99-.9,1.61-.63l40.92,17.43c.46,.19,.75,.65,.75,1.14,0,.5-.31,.94-.77,1.13l-19.94,8.17c-.15,.06-.31,.09-.47,.09Zm-25.61-13.48l25.62,10.91,16.73-6.85-37.09-15.8-5.25,11.74Z"/></g></g><g><rect class="b" x="141.7" y="66.77" width="3.82" height="15.27" rx="1.55" ry="1.55" transform="translate(5.41 -9.63) rotate(3.91)"/><path d="M143.22,83.25c-.07,0-.14,0-.22,0h0c-1.73-.12-3.04-1.62-2.92-3.35l.78-11.42c.06-.83,.44-1.6,1.07-2.15,.63-.55,1.45-.82,2.28-.77,1.73,.12,3.04,1.62,2.92,3.35l-.78,11.42c-.11,1.65-1.5,2.93-3.13,2.93Zm-.05-2.47c.36,.03,.7-.26,.72-.63l.78-11.42c.03-.36-.26-.69-.63-.72-.23-.01-.41,.1-.49,.17-.08,.07-.22,.22-.23,.46l-.78,11.42c-.02,.24,.1,.41,.17,.49s.22,.22,.46,.23h0Z"/></g><g><rect class="b" x="165.01" y="89.44" width="3.82" height="15.27" rx="1.55" ry="1.55" transform="translate(128.15 -92.09) rotate(48.24)"/><path d="M162.65,104.02c-.06,0-.12,0-.18,0-.84-.05-1.61-.42-2.17-1.04-.56-.62-.84-1.43-.79-2.27,.05-.84,.42-1.61,1.04-2.17l8.54-7.63c1.29-1.15,3.28-1.04,4.43,.25,1.15,1.29,1.04,3.28-.25,4.43l-8.54,7.63c-.58,.52-1.31,.8-2.09,.8Zm8.53-11.44c-.16,0-.32,.06-.45,.17l-8.54,7.63c-.18,.16-.22,.36-.22,.47,0,.1,0,.31,.17,.49h0c.16,.18,.36,.22,.47,.22,.11,0,.31,0,.49-.17l8.54-7.63c.27-.24,.3-.68,.05-.95-.13-.15-.32-.22-.51-.22Z"/></g><g><circle class="b" cx="155.75" cy="87.41" r="2.6"/><path d="M155.75,91.24c-2.11,0-3.83-1.72-3.83-3.83s1.72-3.83,3.83-3.83,3.83,1.72,3.83,3.83-1.72,3.83-3.83,3.83Zm0-5.2c-.75,0-1.37,.61-1.37,1.37s.61,1.37,1.37,1.37,1.37-.61,1.37-1.37-.61-1.37-1.37-1.37Z"/></g><g><circle class="b" cx="186.98" cy="87.41" r="2.6"/><path d="M186.98,91.24c-2.11,0-3.83-1.72-3.83-3.83s1.72-3.83,3.83-3.83,3.83,1.72,3.83,3.83-1.72,3.83-3.83,3.83Zm0-5.2c-.75,0-1.37,.61-1.37,1.37s.61,1.37,1.37,1.37,1.37-.61,1.37-1.37-.61-1.37-1.37-1.37Z"/></g><g><circle class="b" cx="184.2" cy="118.63" r="2.6"/><path d="M184.2,122.47c-2.11,0-3.83-1.72-3.83-3.83s1.72-3.83,3.83-3.83,3.83,1.72,3.83,3.83-1.72,3.83-3.83,3.83Zm0-5.2c-.75,0-1.37,.61-1.37,1.37s.61,1.37,1.37,1.37,1.37-.61,1.37-1.37-.61-1.37-1.37-1.37Z"/></g><g><circle class="b" cx="184.38" cy="70.24" r="6.07"/><path d="M184.38,77.54c-4.03,0-7.3-3.28-7.3-7.3s3.28-7.3,7.3-7.3,7.3,3.28,7.3,7.3-3.28,7.3-7.3,7.3Zm0-12.14c-2.67,0-4.84,2.17-4.84,4.84s2.17,4.84,4.84,4.84,4.84-2.17,4.84-4.84-2.17-4.84-4.84-4.84Z"/></g><g><polygon class="b" points="162.17 62.05 164.88 67.55 170.94 68.43 166.56 72.7 167.59 78.74 162.17 75.89 156.75 78.74 157.79 72.7 153.4 68.43 159.46 67.55 162.17 62.05"/><path d="M169.23,80.99l-7.06-3.71-7.06,3.71,1.35-7.86-5.71-5.57,7.89-1.15,3.53-7.15,3.53,7.15,7.89,1.15-5.71,5.57,1.35,7.86Zm-13.18-11.7l3.06,2.98-.72,4.21,3.78-1.99,3.78,1.99-.72-4.21,3.06-2.98-4.23-.61-1.89-3.83-1.89,3.83-4.23,.61Z"/></g><g><path class="b" d="M190.48,94.34c-1.01-.27-2.07,.33-2.34,1.35l-2.35,8.77-7.56-5.1c-.87-.59-2.06-.35-2.65,.52-.15,.23-.25,.48-.29,.73-.02,.05-.04,.1-.06,.16l-2.97,11.06c-.27,1.01,.33,2.07,1.35,2.34s2.07-.33,2.34-1.35l2.35-8.77,7.56,5.1c.87,.59,2.06,.35,2.65-.52,.15-.23,.25-.48,.29-.73,.02-.05,.04-.1,.06-.16l2.97-11.06c.27-1.01-.33-2.07-1.35-2.34Z"/><path d="M174.11,115.46c-.27,0-.55-.04-.82-.11-1.67-.45-2.67-2.18-2.22-3.85l2.97-11.06c.02-.06,.04-.12,.06-.18,.08-.39,.24-.75,.46-1.08,.47-.69,1.18-1.16,2-1.33,.83-.16,1.66,0,2.36,.48l6.13,4.13,1.91-7.1c.22-.81,.74-1.48,1.47-1.9,.73-.42,1.57-.53,2.38-.31,.81,.22,1.48,.74,1.9,1.47s.53,1.57,.31,2.38l-2.97,11.06c-.02,.06-.04,.12-.06,.18-.08,.39-.24,.75-.46,1.08-.47,.69-1.18,1.16-2,1.33-.83,.16-1.66,0-2.36-.48l-6.13-4.13-1.91,7.1c-.22,.81-.74,1.48-1.47,1.9-.49,.28-1.02,.42-1.57,.42Zm3.06-15.19c-.05,0-.1,0-.13,.01-.1,.02-.3,.08-.43,.28-.05,.07-.08,.16-.1,.25l-.08,.27-2.97,11.05c-.09,.35,.12,.73,.48,.83,.35,.09,.73-.12,.83-.48l2.8-10.44,8.99,6.06c.2,.13,.4,.12,.51,.1,.1-.02,.3-.08,.43-.28,.05-.07,.08-.16,.1-.26l.08-.26,2.97-11.06c.09-.35-.12-.73-.48-.83-.35-.09-.73,.12-.83,.48l-2.8,10.43-8.99-6.06c-.13-.09-.27-.11-.37-.11Z"/></g></g></g></svg>