<?xml version="1.0" encoding="UTF-8"?><svg id="a" xmlns="http://www.w3.org/2000/svg" viewBox="0 0 348 160"><defs><style>.c{fill:#fff;}</style></defs><g id="b"><path d="M168.42,159.41l-1.04-.86c-.35-.29-35.67-29.59-69.22-68.85-15.04-17.6-19.88-38.38-13.27-57.02,5.81-16.4,19.54-28.46,35.82-31.46,16.65-3.07,33.18,3.62,46.71,18.86C183.45,4.69,201.4-1.27,218.1,3.29c16.76,4.57,30.68,19.36,35.46,37.66,4.24,16.24,.34,31.8-10.7,42.69l-8.6,10.01c-.56,.65-1.54,.72-2.19,.17-.65-.56-.72-1.54-.17-2.19l8.73-10.15c10.26-10.1,13.88-24.58,9.92-39.74-4.51-17.25-17.57-31.17-33.28-35.46-11.32-3.09-28.98-2.62-48.86,17.16l-1.19,1.18-1.09-1.28c-12.98-15.24-28.92-22.01-44.88-19.07-15.19,2.8-28.01,14.08-33.46,29.44-6.23,17.56-1.59,37.23,12.71,53.97,30.16,35.3,61.75,62.49,67.8,67.61l24.35-22.34c.63-.58,1.61-.54,2.19,.09,.58,.63,.54,1.61-.09,2.19l-26.35,24.18Z"/><g><g><circle class="c" cx="225.49" cy="93.65" r="39.01"/><path d="M225.49,134.21c-22.37,0-40.56-18.2-40.56-40.56s18.2-40.56,40.56-40.56,40.56,18.2,40.56,40.56-18.2,40.56-40.56,40.56Zm0-78.02c-20.66,0-37.46,16.81-37.46,37.46s16.81,37.46,37.46,37.46,37.46-16.81,37.46-37.46-16.81-37.46-37.46-37.46Z"/></g><g><polygon class="c" points="245.84 88.39 230.76 88.39 230.76 73.31 219.88 73.31 219.88 88.39 205.15 88.39 205.15 99.26 219.88 99.26 219.88 113.99 230.76 113.99 230.76 99.26 245.84 99.26 245.84 88.39"/><path d="M230.76,115.54h-10.87c-.86,0-1.55-.69-1.55-1.55v-13.18h-13.18c-.86,0-1.55-.69-1.55-1.55v-10.87c0-.86,.69-1.55,1.55-1.55h13.18v-13.53c0-.86,.69-1.55,1.55-1.55h10.87c.86,0,1.55,.69,1.55,1.55v13.53h13.53c.86,0,1.55,.69,1.55,1.55v10.87c0,.86-.69,1.55-1.55,1.55h-13.53v13.18c0,.86-.69,1.55-1.55,1.55Zm-9.32-3.1h7.77v-13.18c0-.86,.69-1.55,1.55-1.55h13.53v-7.77h-13.53c-.86,0-1.55-.69-1.55-1.55v-13.53h-7.77v13.53c0,.86-.69,1.55-1.55,1.55h-13.18v7.77h13.18c.86,0,1.55,.69,1.55,1.55v13.18Z"/></g></g><g><path class="c" d="M145.64,27.15c-11.62-6.12-26.03-3.12-34.15,7-7.91,9.87-7.95,24.12,0,34.15"/><g><path d="M145.64,28.7c-.24,0-.49-.06-.72-.18-.35-.18-.7-.36-1.05-.52-.78-.36-1.11-1.29-.75-2.06,.36-.78,1.29-1.11,2.06-.75,.39,.19,.79,.38,1.17,.58,.76,.4,1.05,1.34,.65,2.09-.28,.53-.82,.83-1.37,.83Z"/><path d="M107.82,63.72c-.6,0-1.17-.35-1.42-.93-.33-.76-.63-1.54-.89-2.33-.27-.81,.17-1.69,.98-1.96s1.69,.17,1.96,.98c.24,.7,.5,1.4,.8,2.08,.34,.79-.02,1.7-.8,2.04-.2,.09-.41,.13-.62,.13Zm-2.11-7.97c-.78,0-1.45-.59-1.54-1.38-.09-.83-.15-1.66-.16-2.49-.02-.86,.66-1.57,1.51-1.59h.04c.84,0,1.53,.67,1.55,1.51,.02,.74,.07,1.49,.15,2.23,.09,.85-.52,1.62-1.37,1.71-.06,0-.11,0-.17,0Zm.34-8.24c-.1,0-.2,0-.3-.03-.84-.16-1.39-.98-1.23-1.82,.16-.82,.35-1.63,.58-2.43,.23-.82,1.09-1.3,1.92-1.07,.82,.23,1.3,1.09,1.07,1.92-.2,.71-.38,1.44-.52,2.17-.14,.74-.79,1.26-1.52,1.26Zm2.77-7.76c-.25,0-.5-.06-.74-.19-.75-.41-1.03-1.35-.63-2.1,.39-.73,.83-1.45,1.28-2.15,.47-.71,1.43-.91,2.15-.44,.71,.47,.91,1.43,.44,2.15-.41,.62-.79,1.26-1.14,1.91-.28,.52-.81,.81-1.37,.81Zm4.98-6.56c-.41,0-.81-.16-1.12-.47-.59-.62-.58-1.6,.04-2.19,.6-.58,1.23-1.13,1.87-1.65,.67-.54,1.64-.43,2.18,.23,.54,.67,.43,1.64-.23,2.18-.57,.46-1.13,.96-1.67,1.47-.3,.29-.69,.43-1.08,.43Zm6.74-4.75c-.57,0-1.12-.32-1.39-.86-.38-.77-.07-1.7,.7-2.08,.74-.37,1.51-.71,2.28-1.01,.8-.32,1.7,.08,2.01,.87,.31,.8-.08,1.7-.87,2.01-.69,.27-1.38,.58-2.04,.91-.22,.11-.46,.16-.69,.16Zm18.42-2.2c-.11,0-.23-.01-.35-.04-.72-.16-1.46-.3-2.19-.4-.85-.12-1.44-.9-1.32-1.75,.12-.85,.89-1.44,1.75-1.32,.82,.11,1.65,.26,2.46,.45,.84,.19,1.36,1.02,1.17,1.86-.16,.72-.8,1.21-1.51,1.21Zm-10.57-.32c-.75,0-1.4-.54-1.53-1.3-.14-.85,.44-1.64,1.28-1.78,.82-.13,1.65-.23,2.48-.3,.84-.08,1.6,.57,1.66,1.43,.07,.85-.57,1.6-1.43,1.66-.74,.06-1.49,.15-2.22,.27-.08,.01-.17,.02-.25,.02Z"/><path d="M111.5,69.86c-.46,0-.91-.2-1.22-.59-.27-.34-.54-.69-.79-1.05-.5-.69-.34-1.66,.35-2.16,.69-.5,1.66-.34,2.16,.35,.23,.32,.46,.63,.71,.93,.53,.67,.42,1.65-.25,2.18-.28,.23-.62,.33-.96,.33Z"/></g></g></g></svg>