<?xml version="1.0" encoding="UTF-8"?><svg id="a" xmlns="http://www.w3.org/2000/svg" viewBox="0 0 348 160"><defs><style>.b{fill:#fff;}</style></defs><g><g><path class="b" d="M131.75,13.97c1.7-1.24,3.71-2.62,6.09-4.13,0,0,44.82-26.89,78.53,16.65,0,0,13.93,24.76,9.39,38.41l15.21,19.63s7.26,7.68-2.13,11.1l-6.68,2.99,2.99,8.11s4.27,5.55-.85,6.83l-5.55,2.13s-2.56,1.28-.43,3.41l1.71,2.13s1.71,2.99,0,4.27l-2.99,2.99s-1.71,9.39-7.26,10.67h-18.07s-17.36,5.98-16.5,19.21h-47.1l-.28-28.5s-1.28-10.34-13.66-31.25c-11.65-19.68-15.1-56.54-4.33-71.32"/><path d="M186.42,159.5h-49.43l-.29-29.55c-.13-.83-1.88-11.13-13.5-30.76-5.7-9.63-9.71-23.83-10.73-37.99-1.07-14.87,1.28-27.47,6.45-34.57,.37-.5,1.08-.62,1.58-.25,.5,.37,.62,1.08,.25,1.58-10.83,14.86-6.56,51.57,4.39,70.08,12.36,20.88,13.75,31.26,13.81,31.69v.13l.27,27.38h44.82c.07-5.35,2.96-10.29,8.42-14.34,4.32-3.22,8.7-4.74,8.88-4.8l.18-.06h18.12c4.66-1.21,6.26-9.66,6.28-9.74l.06-.35,3.36-3.34c.7-.53,0-2.21-.27-2.73l-1.61-2.01c-1.1-1.13-1.21-2.15-1.1-2.82,.24-1.51,1.7-2.28,1.87-2.36l.1-.04,5.68-2.18c1.32-.33,1.52-.9,1.58-1.08,.43-1.23-.86-3.32-1.35-3.96l-.1-.14-.06-.16-3.35-9.1,7.72-3.45c2.3-.83,3.63-1.98,3.97-3.4,.64-2.7-2.25-5.82-2.28-5.85l-.07-.08-15.58-20.11,.19-.57c4.22-12.68-8.46-35.97-9.26-37.43-7.55-9.73-16.29-16.65-25.97-20.54-7.75-3.12-16.13-4.33-24.9-3.6-14.98,1.24-26.02,7.78-26.13,7.85-2.23,1.41-4.26,2.79-6,4.07-.5,.37-1.21,.26-1.58-.24-.37-.5-.26-1.21,.24-1.58,1.79-1.31,3.86-2.72,6.15-4.17,.49-.3,11.63-6.89,27.14-8.18,14.35-1.19,35.17,2.19,52.9,25.08l.09,.14c.57,1.01,13.75,24.69,9.66,38.74l14.82,19.13c.43,.47,3.67,4.16,2.79,7.88-.52,2.21-2.33,3.89-5.36,5l-5.68,2.54,2.57,6.96c.53,.73,2.41,3.56,1.59,5.93-.3,.86-1.08,1.99-3.1,2.52l-5.42,2.09c-.19,.11-.57,.41-.61,.68-.03,.21,.16,.54,.51,.9l.08,.09,1.81,2.28c.81,1.41,1.65,4.18-.23,5.68l-2.7,2.7c-.39,1.83-2.43,9.92-8.04,11.21l-.13,.03h-18c-1.75,.65-16.32,6.47-15.58,18l.08,1.2Z"/></g><g><path class="b" d="M120.62,25.63s3.61-5.8,9.39-10.24"/><g><path d="M120.62,26.76c-.2,0-.41-.06-.6-.17-.53-.33-.69-1.03-.36-1.56,0,0,.09-.14,.27-.41,.35-.52,1.05-.66,1.57-.31,.52,.35,.66,1.05,.31,1.57-.14,.22-.22,.34-.23,.35-.21,.34-.58,.53-.96,.53Z"/><path d="M123.15,23.3c-.25,0-.5-.08-.71-.25-.49-.39-.56-1.11-.17-1.59,.16-.2,.33-.4,.5-.61,.4-.48,1.12-.54,1.59-.14,.48,.4,.54,1.11,.14,1.59-.16,.2-.32,.39-.48,.58-.22,.28-.55,.42-.88,.42Zm3.07-3.43c-.29,0-.58-.11-.8-.33-.44-.44-.44-1.16,0-1.6,.18-.18,.37-.37,.56-.55,.45-.43,1.16-.42,1.6,.02,.44,.45,.42,1.16-.02,1.6-.18,.18-.36,.35-.53,.53-.22,.22-.51,.33-.8,.33Z"/><path d="M129.65,16.8c-.33,0-.66-.15-.89-.43-.39-.49-.31-1.2,.18-1.59,.12-.1,.25-.19,.37-.29,.5-.38,1.21-.29,1.59,.21,.38,.5,.29,1.21-.21,1.59-.12,.09-.23,.18-.34,.27-.21,.17-.46,.25-.7,.25Z"/></g></g><g><circle class="b" cx="169.7" cy="58.92" r="42.68"/><path d="M166.82,102.55s-.07,0-.1,0c-1.54-.14-3.06-.34-4.54-.6-.62-.11-1.03-.69-.92-1.31,.11-.61,.69-1.02,1.31-.92,1.41,.25,2.88,.44,4.35,.57,.62,.06,1.08,.61,1.03,1.23-.05,.59-.55,1.03-1.13,1.03Zm7.16-.03c-.57,0-1.07-.44-1.12-1.02-.06-.62,.39-1.18,1.01-1.24,1.45-.14,2.9-.37,4.31-.66,.61-.13,1.21,.27,1.34,.88,.13,.61-.27,1.21-.88,1.34-1.49,.31-3.02,.54-4.55,.69-.04,0-.08,0-.11,0Zm-18.55-2.31c-.12,0-.24-.02-.36-.06-1.46-.49-2.9-1.05-4.28-1.68-.57-.26-.82-.93-.56-1.5,.26-.57,.93-.82,1.5-.56,1.31,.59,2.67,1.13,4.06,1.59,.59,.2,.91,.84,.71,1.43-.16,.47-.6,.77-1.07,.77Zm29.84-.41c-.45,0-.88-.27-1.05-.72-.23-.58,.06-1.24,.64-1.47,1.35-.53,2.69-1.14,3.97-1.81,.55-.29,1.24-.07,1.52,.48,.29,.55,.07,1.24-.48,1.52-1.36,.7-2.77,1.35-4.19,1.9-.14,.05-.28,.08-.41,.08Zm-40.26-4.74c-.22,0-.44-.06-.64-.2-1.26-.87-2.49-1.81-3.65-2.81-.47-.41-.52-1.12-.12-1.6,.41-.47,1.12-.52,1.6-.12,1.09,.95,2.25,1.84,3.45,2.66,.52,.35,.65,1.06,.29,1.57-.22,.32-.57,.49-.93,.49Zm50.39-.94c-.34,0-.68-.16-.9-.45-.38-.5-.28-1.21,.22-1.58,1.15-.87,2.28-1.82,3.34-2.81,.46-.43,1.17-.4,1.6,.05,.43,.46,.4,1.17-.05,1.6-1.12,1.05-2.3,2.04-3.52,2.96-.2,.15-.44,.23-.68,.23Zm-58.91-6.96c-.33,0-.66-.14-.88-.42-.95-1.19-1.86-2.45-2.68-3.75-.33-.53-.18-1.23,.35-1.56,.53-.33,1.23-.18,1.56,.35,.78,1.23,1.63,2.42,2.53,3.55,.39,.49,.31,1.2-.17,1.59-.21,.17-.46,.25-.71,.25Zm67.14-1.24c-.24,0-.48-.08-.69-.23-.5-.38-.59-1.09-.21-1.59,.88-1.15,1.71-2.36,2.46-3.6,.33-.53,1.02-.7,1.55-.38,.53,.32,.7,1.02,.38,1.55-.79,1.3-1.67,2.58-2.6,3.8-.22,.29-.56,.44-.9,.44Zm-73.04-8.77c-.44,0-.86-.26-1.05-.7-.58-1.4-1.1-2.86-1.54-4.33-.18-.6,.16-1.23,.76-1.41,.6-.18,1.23,.16,1.41,.76,.42,1.4,.91,2.78,1.46,4.11,.24,.58-.03,1.24-.61,1.48-.14,.06-.29,.09-.43,.09Zm78.77-1.34c-.14,0-.28-.03-.42-.08-.58-.23-.86-.89-.63-1.47,.54-1.35,1.01-2.74,1.4-4.13,.17-.6,.79-.95,1.39-.79,.6,.17,.95,.79,.79,1.39-.41,1.47-.91,2.94-1.47,4.36-.18,.44-.6,.71-1.05,.71Zm-81.76-9.9c-.56,0-1.05-.42-1.12-.99-.2-1.51-.32-3.06-.36-4.58-.02-.62,.47-1.15,1.1-1.16,.61-.03,1.15,.47,1.16,1.1,.04,1.45,.16,2.92,.35,4.36,.08,.62-.36,1.19-.98,1.27-.05,0-.1,0-.15,0Zm84.53-1.39s-.08,0-.12,0c-.62-.06-1.07-.62-1.01-1.24,.15-1.44,.23-2.91,.23-4.36v-.1c0-.62,.51-1.13,1.13-1.13s1.13,.51,1.13,1.13v.1c0,1.53-.08,3.08-.24,4.59-.06,.58-.55,1.01-1.12,1.01Zm-84.54-10.24s-.1,0-.14,0c-.62-.08-1.06-.64-.98-1.26,.19-1.52,.46-3.04,.81-4.52,.14-.61,.75-.99,1.36-.85,.61,.14,.99,.75,.85,1.36-.33,1.41-.58,2.86-.77,4.3-.07,.57-.56,.99-1.12,.99Zm84.16-1.48c-.54,0-1.02-.39-1.11-.94-.24-1.43-.57-2.86-.96-4.25-.17-.6,.18-1.23,.78-1.4s1.23,.18,1.4,.78c.41,1.47,.76,2.98,1.01,4.49,.11,.62-.31,1.2-.92,1.3-.06,.01-.13,.02-.19,.02Zm-81.2-9.77c-.14,0-.29-.03-.43-.09-.58-.24-.85-.9-.62-1.48,.58-1.42,1.25-2.82,1.97-4.16,.3-.55,.98-.75,1.53-.46,.55,.3,.75,.98,.46,1.53-.69,1.27-1.32,2.59-1.87,3.94-.18,.44-.6,.7-1.05,.7Zm77.7-1.31c-.42,0-.83-.24-1.02-.65-.62-1.31-1.32-2.6-2.08-3.83-.33-.53-.16-1.23,.37-1.56,.53-.33,1.23-.16,1.56,.37,.8,1.3,1.54,2.67,2.19,4.04,.27,.56,.03,1.24-.54,1.51-.16,.07-.32,.11-.49,.11Zm-71.82-8.71c-.25,0-.5-.08-.7-.25-.49-.39-.57-1.1-.18-1.59,.96-1.2,1.99-2.36,3.07-3.44,.44-.44,1.16-.44,1.6,0,.44,.44,.44,1.16,0,1.6-1.02,1.02-2,2.11-2.9,3.25-.22,.28-.55,.43-.89,.43Zm65.45-1c-.32,0-.63-.13-.85-.39-.95-1.09-1.97-2.14-3.03-3.13-.46-.43-.48-1.14-.06-1.6s1.14-.48,1.6-.06c1.12,1.04,2.2,2.16,3.2,3.31,.41,.47,.36,1.19-.11,1.6-.21,.19-.48,.28-.74,.28Zm-56.95-6.92c-.36,0-.71-.17-.93-.49-.35-.51-.22-1.22,.29-1.57,1.25-.86,2.58-1.67,3.93-2.4,.55-.29,1.24-.09,1.53,.46,.3,.55,.09,1.24-.46,1.53-1.28,.69-2.53,1.45-3.72,2.27-.2,.13-.42,.2-.64,.2Zm48.2-.73c-.21,0-.43-.06-.62-.19-1.21-.8-2.48-1.54-3.77-2.2-.55-.29-.77-.97-.49-1.52,.29-.55,.97-.77,1.52-.49,1.36,.7,2.69,1.48,3.97,2.32,.52,.34,.67,1.04,.32,1.57-.22,.33-.58,.51-.95,.51Zm-37.8-4.45c-.47,0-.91-.3-1.07-.77-.2-.59,.12-1.23,.71-1.43,1.43-.48,2.91-.9,4.41-1.26,.61-.14,1.22,.24,1.36,.84,.14,.61-.24,1.22-.84,1.36-1.43,.33-2.85,.74-4.2,1.2-.12,.04-.24,.06-.36,.06Zm27.31-.56c-.11,0-.23-.02-.34-.05-1.38-.44-2.8-.81-4.22-1.1-.61-.13-1.01-.72-.88-1.33,.13-.61,.72-1,1.33-.88,1.5,.31,3,.7,4.45,1.16,.6,.19,.92,.83,.74,1.42-.15,.48-.6,.79-1.08,.79Zm-15.93-1.8c-.58,0-1.07-.44-1.12-1.03-.06-.62,.4-1.17,1.02-1.23,1-.09,2.02-.16,3.05-.2,.56,0,1.07,0,1.57,.03,.62,.02,1.11,.55,1.09,1.17-.02,.61-.52,1.09-1.13,1.09-.01,0-.03,0-.04,0-.48-.02-.96-.02-1.45-.02-.94,.04-1.93,.1-2.88,.19-.04,0-.07,0-.1,0Z"/></g><g><g><path class="b" d="M157.24,61.74c2.87,0,5.59,.53,8,1.32,1.17,4.59,3.07,8.36,4.53,10.68-3.28,1.74-7.69,3.33-12.54,3.33-10.11,0-21.25-6.92-21.25-7.58,0,0,11.14-7.74,21.25-7.74Z"/><path d="M157.24,78.19c-5.57,0-11.17-1.98-14.88-3.64-1.83-.82-3.63-1.76-5.07-2.64-2.27-1.4-2.44-1.87-2.44-2.42v-.59l.49-.34c.47-.32,11.55-7.95,21.9-7.95,2.74,0,5.55,.46,8.35,1.37l.59,.19,.15,.6c1.32,5.17,3.51,8.96,4.39,10.35l.65,1.03-1.08,.57c-2.97,1.58-7.66,3.46-13.07,3.46Zm-19.35-8.59c2.86,1.87,11.32,6.33,19.35,6.33,4.35,0,8.2-1.34,10.94-2.66-1.07-1.85-2.73-5.14-3.87-9.33-2.38-.72-4.76-1.08-7.07-1.08-7.71,0-16.21,4.78-19.35,6.73Z"/></g><g><path class="b" d="M182.26,61.74c-2.87,0-5.59,.53-8,1.32-1.17,4.59-3.07,8.36-4.53,10.68,3.28,1.74,7.69,3.33,12.54,3.33,10.11,0,21.25-6.92,21.25-7.58,0,0-11.14-7.74-21.25-7.74Z"/><path d="M182.26,78.19c-5.41,0-10.09-1.88-13.07-3.46l-1.08-.57,.65-1.03c.88-1.39,3.07-5.18,4.39-10.35l.15-.6,.59-.19c2.8-.91,5.61-1.37,8.35-1.37,10.35,0,21.43,7.62,21.9,7.95l.49,.34v.59c0,.56-.17,1.03-2.44,2.42-1.43,.88-3.23,1.82-5.07,2.64-3.71,1.66-9.3,3.64-14.88,3.64Zm-10.94-4.92c2.74,1.31,6.6,2.66,10.94,2.66,8.03,0,16.49-4.46,19.35-6.33-3.14-1.95-11.64-6.73-19.35-6.73-2.31,0-4.69,.36-7.07,1.08-1.14,4.19-2.8,7.47-3.87,9.33Z"/></g><g><path class="b" d="M175.53,51.11c-6.39,6.39-6.92,16.24-6.16,17,.54,.54,10.6,.23,17-6.16s8.55-18.34,8.08-18.8c0,0-12.52,1.57-18.92,7.97Z"/><path d="M171.03,69.43c-1.24,0-2.13-.19-2.46-.52-1.11-1.11-.42-5.36,.1-7.46,.77-3.08,2.44-7.52,6.06-11.14,6.59-6.59,19.05-8.22,19.58-8.29l.55-.07,.39,.39c.37,.37,.59,.81,.15,3.24-.28,1.54-.76,3.35-1.34,5.1-1.18,3.54-3.33,8.51-6.89,12.07-4.84,4.84-12.24,6.68-16.13,6.68Zm-.71-1.9h0Zm-.07-.38c2.09,.13,10.03-.72,15.32-6.01s7.25-13.62,7.72-16.67c-3.31,.6-12.09,2.57-16.95,7.43-5.26,5.26-6.3,13.17-6.08,15.24Zm-.41-.05h0Z"/></g><g><path class="b" d="M163.31,51.13c6.39,6.39,6.92,16.24,6.16,17-.54,.54-10.6,.23-17-6.16-6.39-6.39-8.55-18.34-8.08-18.8,0,0,12.52,1.57,18.92,7.97Z"/><path d="M167.81,69.45c-3.9,0-11.29-1.84-16.13-6.68-3.56-3.56-5.71-8.52-6.89-12.07-.58-1.75-1.06-3.56-1.34-5.09-.45-2.43-.22-2.87,.15-3.24l.39-.39,.55,.07c.53,.07,12.98,1.7,19.58,8.29,3.62,3.62,5.29,8.05,6.06,11.14,.52,2.09,1.21,6.34,.1,7.46-.34,.34-1.22,.52-2.46,.52Zm.71-1.9h0Zm-22.96-23.05c.47,3.05,2.65,11.61,7.72,16.67s13.22,6.13,15.32,6.01c.22-2.07-.82-9.98-6.08-15.24-4.86-4.86-13.64-6.84-16.95-7.43Z"/></g><g><path class="b" d="M162.07,52.08c0,11.87,6.59,21.5,7.66,21.5,.76,0,7.66-9.63,7.66-21.5s-6.92-24.96-7.58-24.96c0,0-7.74,13.09-7.74,24.96Z"/><path d="M169.73,74.72c-2.02,0-4.93-6.25-5.26-6.96-1.61-3.52-3.53-9.09-3.53-15.67,0-12.05,7.58-24.99,7.9-25.54l.33-.55h.64c.66,0,1.12,.28,2.46,2.84,.88,1.68,1.81,3.78,2.63,5.92,1.65,4.33,3.62,10.85,3.62,17.34s-1.99,12.12-3.65,15.68c-.13,.28-3.27,6.95-5.14,6.95Zm.2-45.46c-1.98,3.77-6.73,13.75-6.73,22.83,0,9.74,4.65,18.02,6.47,20.05,1.7-2.08,6.59-10.28,6.59-20.05s-4.41-19.37-6.33-22.83Z"/></g><g><path class="b" d="M178.48,73.16s12.33-.17,17-3.76"/><path d="M178.48,74.29c-.62,0-1.12-.5-1.13-1.12,0-.62,.49-1.14,1.11-1.15,.01,0,.5,0,1.33-.05,.64-.03,1.15,.45,1.18,1.08s-.45,1.15-1.08,1.18c-.88,.04-1.4,.05-1.4,.05h-.02Zm5.88-.42c-.57,0-1.05-.42-1.12-1-.07-.62,.37-1.18,.99-1.26,.43-.05,.87-.11,1.32-.17,.62-.09,1.19,.34,1.28,.96,.09,.62-.34,1.19-.96,1.28-.47,.07-.93,.13-1.37,.18-.05,0-.09,0-.13,0Zm5.79-1.04c-.5,0-.96-.34-1.09-.85-.16-.6,.21-1.22,.81-1.38,.44-.11,.86-.23,1.25-.36,.59-.19,1.23,.14,1.42,.74,.19,.6-.14,1.23-.74,1.42-.43,.14-.89,.27-1.36,.39-.1,.02-.19,.04-.28,.04Z"/></g></g></g><g/></svg>