<?xml version="1.0" encoding="UTF-8"?><svg id="a" xmlns="http://www.w3.org/2000/svg" viewBox="0 0 348 160"><defs><style>.b{fill:#fff;}</style></defs><g><g><path d="M176.33,159.5c-.89,0-1.68-.32-2.29-.95-.24-.24-.38-.58-.38-.92l.02-92.57c0-.65,.48-1.21,1.13-1.3l69.37-9.7c.06,0,.12-.01,.18-.01h9.34c.72,0,1.31,.59,1.31,1.31v82.08c0,.38-.16,.73-.44,.98s-.66,.36-1.03,.32c-.53-.07-53.19-6.33-67.47,13.36-.97,1.23-5.82,7.17-9.52,7.38-.07,0-.14,0-.21,0Zm-.05-2.62s.07,0,.11,0c1.86-.1,5.55-3.77,7.57-6.35,6.4-8.82,20.16-13.93,40.89-15.15,12.34-.73,23.6,.21,27.52,.61V56.67h-7.94l-68.15,9.53-.02,90.68Z"/><path d="M172.94,159.34c-.07,0-.14,0-.21,0-3.7-.21-8.55-6.15-9.49-7.34-14.32-19.74-66.97-13.47-67.5-13.4-.37,.05-.75-.07-1.03-.32-.28-.25-.44-.61-.44-.98V55.21c0-.72,.59-1.31,1.31-1.31h9.34c.06,0,.12,0,.18,.01l69.37,9.7c.65,.09,1.13,.64,1.13,1.3l.02,92.57c0,.34-.14,.67-.38,.92-.61,.62-1.4,.95-2.29,.95Zm-57.97-24.39c3,0,6.18,.08,9.44,.27,20.73,1.22,34.5,6.34,40.92,15.19,1.99,2.53,5.68,6.2,7.54,6.31,.04,0,.08,0,.12,0l-.02-90.68-68.15-9.53h-7.94v79.32c2.89-.29,9.74-.88,18.08-.88Z"/><g><path class="b" d="M174.97,148.41l-.16-77.08c-.03-13.87-13.85-21.99-30.98-22.09-9.93-.06-23.01-.18-40.2-.41v82.43s51.98-7.05,71.33,17.14Z"/><path d="M174.97,149.71c-.39,0-.77-.17-1.02-.49-18.67-23.33-69.62-16.73-70.14-16.66-.37,.05-.75-.06-1.04-.31-.28-.25-.45-.61-.45-.99V48.83c0-.35,.14-.69,.39-.93,.25-.25,.59-.39,.94-.38,15.59,.21,29.11,.34,40.19,.41,8.83,.05,16.86,2.22,22.63,6.1,6.3,4.25,9.64,10.23,9.66,17.3l.16,77.08c0,.56-.35,1.05-.87,1.24-.14,.05-.29,.07-.43,.07Zm-54.34-20.71c3.56,0,7.46,.12,11.52,.46,18.71,1.53,32.96,6.87,41.5,15.51l-.15-73.63c-.01-6.16-2.95-11.39-8.5-15.13-5.34-3.6-12.86-5.61-21.18-5.66-10.77-.06-23.84-.19-38.88-.39v79.64c2.6-.28,8.4-.79,15.68-.79Z"/></g></g><path class="b" d="M228.02,49.1c7.67-.19,18.45-.11,18.45-.11,0,0-.06,80.44,0,82.43-57.68-5.34-71.33,17.14-71.33,17.14,0,0-.43-68.33,0-77.47,.54-11.52,8.09-16.23,15.4-18.97"/><path d="M175.13,149.87c-.12,0-.24-.02-.35-.05-.56-.16-.95-.67-.96-1.25-.02-2.79-.42-68.47,0-77.54,.6-12.82,9.56-17.63,16.25-20.14,.68-.25,1.43,.09,1.69,.77,.25,.68-.09,1.43-.77,1.69-6.5,2.43-14.03,6.66-14.56,17.81-.37,7.8-.1,59.69-.02,73.84,2.18-2.19,6.01-5.31,12.2-8.19,17.32-8.07,40.02-8.22,56.53-6.81-.04-10.27,0-69.75,0-79.7-3.1-.01-11.1-.03-17.11,.12-.71,.01-1.32-.55-1.34-1.28-.02-.72,.55-1.32,1.28-1.34,7.6-.18,18.38-.11,18.49-.11,.72,0,1.3,.59,1.3,1.31,0,.8-.06,80.44,0,82.39,.01,.38-.14,.74-.41,.99-.27,.26-.64,.38-1.02,.35-16.18-1.5-39.09-1.62-56.36,6.33-10.26,4.72-13.7,10.14-13.73,10.19-.24,.39-.67,.62-1.12,.62Z"/><g><g><path class="b" d="M219.56,28.1c0-7.5-6.08-13.58-13.58-13.58s-13.58,6.08-13.58,13.58c0,4.62,2.31,8.7,5.83,11.15l1.03,2.11c.77,1.25,.22,5.51,.02,6.83h13.39c-.27-1.2-.74-5.58-.07-6.8l1.19-2.13c3.26-2.48,5.77-6.75,5.77-11.16Z"/><path d="M212.68,49.5h-13.39c-.38,0-.74-.17-.99-.46-.25-.29-.36-.67-.3-1.05,.46-3.03,.44-5.45,.15-5.96-.01-.02-.05-.08-.06-.11l-.88-1.81c-3.83-2.8-6.11-7.27-6.11-12.02,0-8.21,6.68-14.89,14.89-14.89s14.89,6.68,14.89,14.89c0,4.42-2.37,9.12-6.06,12.03l-1.06,1.89c-.36,.72-.13,4.37,.21,5.88,.09,.39,0,.79-.26,1.1-.25,.31-.62,.49-1.02,.49Zm-11.9-2.62h10.37c-.23-1.87-.41-4.82,.3-6.12l1.19-2.13c.09-.16,.21-.29,.35-.4,3.19-2.42,5.25-6.4,5.25-10.12,0-6.77-5.5-12.27-12.27-12.27s-12.27,5.5-12.27,12.27c0,4.01,1.97,7.78,5.27,10.07,.18,.13,.33,.3,.43,.5l1.01,2.06c.71,1.25,.63,3.8,.36,6.14Z"/></g><path d="M211.93,54.24h-12.09c-.72,0-1.31-.59-1.31-1.31s.59-1.31,1.31-1.31h12.09c.72,0,1.31,.59,1.31,1.31s-.59,1.31-1.31,1.31Z"/><path d="M211.93,58.78h-12.09c-.72,0-1.31-.59-1.31-1.31s.59-1.31,1.31-1.31h12.09c.72,0,1.31,.59,1.31,1.31s-.59,1.31-1.31,1.31Z"/><g><path class="b" d="M202.63,57.87c0,1.85,1.5,3.35,3.35,3.35s3.35-1.5,3.35-3.35"/><path d="M205.98,62.52c-2.57,0-4.66-2.09-4.66-4.66,0-.72,.59-1.31,1.31-1.31s1.31,.59,1.31,1.31c0,1.12,.91,2.04,2.04,2.04s2.04-.91,2.04-2.04c0-.72,.59-1.31,1.31-1.31s1.31,.59,1.31,1.31c0,2.57-2.09,4.66-4.66,4.66Z"/></g><path d="M233.12,29.97h-9.47c-.72,0-1.31-.59-1.31-1.31s.59-1.31,1.31-1.31h9.47c.72,0,1.31,.59,1.31,1.31s-.59,1.31-1.31,1.31Z"/><path d="M188.31,29.97h-9.47c-.72,0-1.31-.59-1.31-1.31s.59-1.31,1.31-1.31h9.47c.72,0,1.31,.59,1.31,1.31s-.59,1.31-1.31,1.31Z"/><g><line class="b" x1="219.28" y1="39.52" x2="223.75" y2="43.99"/><path d="M223.75,45.3c-.33,0-.67-.13-.93-.38l-4.47-4.47c-.51-.51-.51-1.34,0-1.85s1.34-.51,1.85,0l4.47,4.47c.51,.51,.51,1.34,0,1.85-.26,.26-.59,.38-.93,.38Z"/></g><g><line class="b" x1="189.81" y1="10.05" x2="194.29" y2="14.53"/><path d="M194.29,15.84c-.33,0-.67-.13-.93-.38l-4.47-4.47c-.51-.51-.51-1.34,0-1.85,.51-.51,1.34-.51,1.85,0l4.47,4.47c.51,.51,.51,1.34,0,1.85-.26,.26-.59,.38-.93,.38Z"/></g><g><line class="b" x1="192.43" y1="39.52" x2="187.95" y2="43.99"/><path d="M187.95,45.3c-.33,0-.67-.13-.93-.38-.51-.51-.51-1.34,0-1.85l4.47-4.47c.51-.51,1.34-.51,1.85,0s.51,1.34,0,1.85l-4.47,4.47c-.26,.26-.59,.38-.93,.38Z"/></g><g><line class="b" x1="221.89" y1="10.05" x2="217.42" y2="14.53"/><path d="M217.42,15.84c-.33,0-.67-.13-.93-.38-.51-.51-.51-1.34,0-1.85l4.47-4.47c.51-.51,1.34-.51,1.85,0s.51,1.34,0,1.85l-4.47,4.47c-.26,.26-.59,.38-.93,.38Z"/></g><path d="M205.8,12.49c-.72,0-1.31-.59-1.31-1.31V1.71c0-.72,.59-1.31,1.31-1.31s1.31,.59,1.31,1.31V11.18c0,.72-.59,1.31-1.31,1.31Z"/></g></g><g><path class="b" d="M117.79,79.48s42.94-2.62,42.94,2.09"/><path d="M160.03,81.93c-.23,0-.47-.06-.68-.19-.32-.2-1.03-.49-2.55-.77-.71-.13-1.18-.82-1.04-1.53,.13-.71,.82-1.18,1.53-1.04,1.55,.29,2.67,.65,3.42,1.11,.62,.37,.82,1.18,.44,1.8-.25,.41-.68,.63-1.12,.63Zm-42.24-1.14c-.69,0-1.26-.53-1.31-1.23-.04-.72,.51-1.34,1.23-1.39,0,0,1.18-.07,3.16-.17,.71-.04,1.34,.52,1.37,1.24,.04,.72-.52,1.34-1.24,1.37-1.95,.1-3.13,.17-3.13,.17-.03,0-.05,0-.08,0Zm34.58-.37s-.07,0-.1,0c-.95-.07-1.99-.14-3.1-.19-.72-.03-1.28-.65-1.25-1.37,.03-.72,.63-1.28,1.37-1.25,1.13,.05,2.2,.12,3.18,.19,.72,.06,1.26,.69,1.2,1.41-.05,.69-.63,1.21-1.3,1.21Zm-26.72-.01c-.7,0-1.28-.55-1.31-1.26-.03-.72,.53-1.33,1.26-1.36,.99-.04,2.05-.08,3.15-.12,.72-.02,1.33,.54,1.35,1.26,.02,.72-.54,1.33-1.26,1.35-1.1,.04-2.15,.08-3.13,.12h-.05Zm7.86-.25c-.71,0-1.29-.57-1.31-1.28-.02-.72,.56-1.32,1.28-1.34,1.04-.02,2.09-.04,3.15-.06,.71,0,1.32,.57,1.33,1.29,.01,.72-.57,1.32-1.29,1.33-1.06,.02-2.1,.04-3.13,.06h-.03Zm11.01-.06h-.02c-1.03-.02-2.07-.02-3.13-.03-.72,0-1.31-.59-1.31-1.31,0-.72,.59-1.31,1.31-1.31h0c1.06,0,2.12,0,3.16,.03,.72,.01,1.3,.61,1.29,1.33-.01,.72-.6,1.29-1.31,1.29Z"/></g><g><path class="b" d="M117.65,92.66s39.8-2.09,42.94,2.09"/><path d="M159.88,95.5c-.21,0-.43-.05-.63-.16-.36-.2-1.11-.5-2.61-.8-.71-.14-1.17-.83-1.03-1.54,.14-.71,.83-1.17,1.54-1.03,1.49,.29,2.59,.65,3.37,1.07,.63,.35,.86,1.15,.51,1.78-.24,.43-.69,.68-1.15,.68Zm-42.23-1.53c-.69,0-1.27-.54-1.31-1.24-.04-.72,.52-1.34,1.24-1.38,0,0,1.18-.06,3.16-.14,.71-.02,1.33,.53,1.36,1.25,.03,.72-.53,1.33-1.25,1.36-1.95,.08-3.13,.14-3.13,.14-.02,0-.05,0-.07,0Zm34.57-.03s-.08,0-.12,0c-.95-.09-2-.16-3.09-.22-.72-.04-1.27-.66-1.23-1.38,.04-.72,.64-1.27,1.38-1.23,1.13,.06,2.2,.14,3.18,.23,.72,.06,1.25,.7,1.19,1.42-.06,.68-.63,1.19-1.3,1.19Zm-26.71-.28c-.7,0-1.29-.56-1.31-1.27-.02-.72,.55-1.33,1.27-1.35,.99-.03,2.05-.06,3.15-.09h.03c.71,0,1.29,.56,1.31,1.28,.02,.72-.55,1.32-1.28,1.34-1.1,.03-2.15,.06-3.13,.09h-.04Zm18.86-.13h-.03c-1.03-.03-2.07-.05-3.13-.06-.72,0-1.3-.6-1.29-1.33s.61-1.32,1.33-1.29c1.06,.01,2.12,.03,3.16,.06,.72,.02,1.29,.62,1.27,1.34-.02,.71-.6,1.28-1.31,1.28Zm-11.01-.05c-.71,0-1.3-.57-1.31-1.29,0-.72,.57-1.32,1.29-1.33,1.04-.01,2.09-.02,3.16-.03h0c.72,0,1.31,.58,1.31,1.3,0,.72-.58,1.31-1.3,1.31-1.06,0-2.1,.01-3.13,.03h-.02Z"/></g><g><path class="b" d="M117.65,105.75s39.8-2.09,42.94,2.09"/><path d="M159.88,108.59c-.21,0-.43-.05-.63-.16-.36-.2-1.11-.5-2.61-.8-.71-.14-1.17-.83-1.03-1.54,.14-.71,.83-1.17,1.54-1.03,1.49,.29,2.59,.65,3.37,1.07,.63,.35,.86,1.15,.51,1.78-.24,.43-.69,.68-1.15,.68Zm-42.23-1.53c-.69,0-1.27-.54-1.31-1.24-.04-.72,.52-1.34,1.24-1.38,0,0,1.18-.06,3.16-.14,.71-.02,1.33,.53,1.36,1.25,.03,.72-.53,1.33-1.25,1.36-1.95,.08-3.13,.14-3.13,.14-.02,0-.05,0-.07,0Zm34.57-.03s-.08,0-.12,0c-.95-.09-2-.16-3.09-.22-.72-.04-1.27-.66-1.23-1.38,.04-.72,.64-1.27,1.38-1.23,1.13,.06,2.2,.14,3.18,.23,.72,.06,1.25,.7,1.19,1.42-.06,.68-.63,1.19-1.3,1.19Zm-26.71-.28c-.7,0-1.29-.56-1.31-1.27-.02-.72,.55-1.33,1.27-1.35,.99-.03,2.05-.06,3.15-.09,.72-.03,1.32,.55,1.34,1.28s-.55,1.32-1.28,1.34c-1.1,.03-2.15,.06-3.13,.09h-.04Zm18.86-.13h-.03c-1.03-.03-2.07-.05-3.13-.06-.72,0-1.3-.6-1.29-1.33s.61-1.3,1.33-1.29c1.06,.01,2.12,.03,3.16,.06,.72,.02,1.29,.62,1.27,1.34-.02,.71-.6,1.28-1.31,1.28Zm-11.01-.05c-.71,0-1.3-.57-1.31-1.29,0-.72,.57-1.32,1.29-1.33,1.04-.01,2.09-.02,3.16-.03h0c.72,0,1.31,.58,1.31,1.3,0,.72-.58,1.31-1.3,1.31-1.06,0-2.1,.01-3.13,.03h-.02Z"/></g><g><path class="b" d="M230.48,79.86s-42.94-2.62-42.94,2.09"/><path d="M188.24,82.31c-.44,0-.87-.22-1.12-.63-.37-.62-.18-1.42,.44-1.8,.75-.45,1.87-.82,3.42-1.11,.71-.13,1.4,.33,1.53,1.04,.13,.71-.33,1.39-1.04,1.53-1.52,.29-2.22,.58-2.55,.77-.21,.13-.45,.19-.68,.19Zm42.24-1.14s-.05,0-.08,0c0,0-1.18-.07-3.13-.17-.72-.04-1.28-.65-1.24-1.37,.04-.72,.66-1.28,1.37-1.24,1.98,.1,3.16,.17,3.16,.17,.72,.04,1.27,.66,1.23,1.39-.04,.7-.62,1.23-1.31,1.23Zm-34.58-.37c-.68,0-1.25-.52-1.3-1.21-.06-.72,.48-1.35,1.2-1.41,.98-.08,2.05-.14,3.18-.19,.74-.05,1.33,.53,1.37,1.25,.03,.72-.53,1.33-1.25,1.37-1.11,.05-2.15,.11-3.1,.19-.03,0-.07,0-.1,0Zm26.72-.01h-.05c-.98-.04-2.04-.08-3.13-.12-.72-.02-1.29-.63-1.26-1.35,.02-.72,.63-1.28,1.35-1.26,1.11,.04,2.16,.08,3.15,.12,.72,.03,1.28,.64,1.26,1.36-.03,.7-.61,1.26-1.31,1.26Zm-7.86-.25h-.03c-1.03-.02-2.08-.04-3.13-.06-.72-.01-1.3-.61-1.29-1.33,.01-.72,.59-1.29,1.31-1.29h.02c1.06,.02,2.12,.04,3.15,.06,.72,.02,1.3,.62,1.28,1.34-.02,.71-.6,1.28-1.31,1.28Zm-11.01-.06c-.71,0-1.3-.57-1.31-1.29-.01-.72,.57-1.32,1.29-1.33,1.04-.02,2.1-.02,3.16-.03h0c.72,0,1.31,.59,1.31,1.31,0,.72-.58,1.31-1.31,1.31-1.05,0-2.1,0-3.13,.03h-.02Z"/></g><g><path class="b" d="M230.63,93.04s-39.8-2.09-42.94,2.09"/><path d="M188.39,95.88c-.46,0-.91-.24-1.15-.68-.35-.63-.12-1.43,.51-1.78,.78-.43,1.88-.78,3.37-1.07,.7-.14,1.4,.32,1.54,1.03,.14,.71-.32,1.4-1.03,1.54-1.5,.3-2.25,.6-2.61,.8-.2,.11-.42,.16-.63,.16Zm42.23-1.53s-.05,0-.07,0c0,0-1.18-.06-3.13-.14-.72-.03-1.28-.64-1.25-1.36,.03-.72,.64-1.28,1.36-1.25,1.98,.08,3.16,.14,3.16,.14,.72,.04,1.28,.65,1.24,1.38-.04,.7-.61,1.24-1.31,1.24Zm-34.57-.03c-.67,0-1.24-.51-1.3-1.19-.06-.72,.47-1.36,1.19-1.42,.98-.09,2.05-.16,3.18-.23,.74-.05,1.34,.51,1.38,1.23,.04,.72-.51,1.34-1.23,1.38-1.1,.06-2.14,.14-3.09,.22-.04,0-.08,0-.12,0Zm26.71-.28h-.04c-.98-.03-2.04-.06-3.13-.09-.72-.02-1.29-.62-1.28-1.34,.02-.71,.6-1.28,1.31-1.28h.03c1.1,.03,2.16,.06,3.15,.09,.72,.02,1.29,.63,1.27,1.35-.02,.71-.6,1.27-1.31,1.27Zm-18.86-.13c-.71,0-1.29-.56-1.31-1.28-.02-.72,.55-1.32,1.27-1.34,1.04-.03,2.1-.05,3.16-.06h.02c.72,0,1.3,.58,1.31,1.29,0,.72-.57,1.32-1.29,1.33-1.05,.01-2.1,.03-3.13,.06h-.03Zm11.01-.05h-.02c-1.03-.01-2.08-.02-3.13-.03-.72,0-1.31-.59-1.3-1.31,0-.72,.59-1.3,1.31-1.3h0c1.06,0,2.12,.01,3.16,.03,.72,0,1.3,.6,1.29,1.33,0,.72-.59,1.29-1.31,1.29Z"/></g><g><path class="b" d="M230.63,106.13s-39.8-2.09-42.94,2.09"/><path d="M188.39,108.97c-.46,0-.91-.24-1.15-.68-.35-.63-.12-1.43,.51-1.78,.78-.43,1.88-.78,3.37-1.07,.7-.14,1.4,.32,1.54,1.03,.14,.71-.32,1.4-1.03,1.54-1.5,.3-2.25,.6-2.61,.8-.2,.11-.42,.16-.63,.16Zm42.23-1.53s-.05,0-.07,0c0,0-1.18-.06-3.13-.14-.72-.03-1.28-.64-1.25-1.36,.03-.72,.64-1.28,1.36-1.25,1.98,.08,3.16,.14,3.16,.14,.72,.04,1.28,.65,1.24,1.38-.04,.7-.61,1.24-1.31,1.24Zm-34.57-.03c-.67,0-1.24-.51-1.3-1.19-.06-.72,.47-1.36,1.19-1.42,.98-.09,2.05-.16,3.18-.23,.74-.05,1.34,.51,1.38,1.23,.04,.72-.51,1.34-1.23,1.38-1.1,.06-2.14,.14-3.09,.22-.04,0-.08,0-.12,0Zm26.71-.28h-.04c-.98-.03-2.04-.06-3.13-.09-.72-.02-1.29-.62-1.28-1.34,.02-.71,.6-1.28,1.31-1.28h.03c1.1,.03,2.16,.06,3.15,.09,.72,.02,1.29,.63,1.27,1.35-.02,.71-.6,1.27-1.31,1.27Zm-18.86-.13c-.71,0-1.29-.56-1.31-1.28-.02-.72,.55-1.32,1.27-1.34,1.04-.03,2.1-.05,3.16-.06,.75,0,1.32,.57,1.33,1.29s-.57,1.32-1.29,1.33c-1.05,.01-2.1,.03-3.13,.06h-.03Zm11.01-.05h-.02c-1.03-.01-2.08-.02-3.13-.03-.72,0-1.31-.59-1.3-1.31,0-.72,.59-1.3,1.31-1.3h0c1.06,0,2.12,.01,3.16,.03,.72,0,1.3,.6,1.29,1.33,0,.72-.59,1.29-1.31,1.29Z"/></g></svg>