<?xml version="1.0" encoding="UTF-8"?><svg id="a" xmlns="http://www.w3.org/2000/svg" viewBox="0 0 348 160"><defs><style>.b{fill:none;stroke:#000;stroke-linecap:round;stroke-linejoin:round;stroke-width:3px;}</style></defs><g><path class="b" d="M236.59,92.74s-.38-3.48,2.57-13.22c3.28-10.82,1.34-44.81,1.34-53.99,0-11.21-11.68-9.46-11.68-2.94s-.39,16.56-.39,16.56c0,0,.12-12.68,.12-21,0-9.27-11.99-8.59-11.99-1.06,0,6.01-.14,21.82-.14,21.82,0,0,.16-22.66,.16-29.98,0-8.63-13.4-8.48-13.4-.16,0,7.43,.01,29.9,.01,29.9,0,0,.06-18.53,.06-23.94,0-8.7-12.11-8.48-12.11,.66V57.23"/><path class="b" d="M178.75,58.86c.99,7.74,8.16,15.47,13.42,20.02,5.26,4.54,5.02,13.28,5.02,13.28"/></g><g><path class="b" d="M187.38,16.69s-3.48,.38-13.22-2.57c-10.82-3.28-44.81-1.34-53.99-1.34-11.21,0-9.46,11.68-2.94,11.68s16.56,.39,16.56,.39c0,0-12.68-.12-21-.12-9.27,0-8.59,11.99-1.06,11.99,6.01,0,21.82,.14,21.82,.14,0,0-22.66-.16-29.98-.16-8.63,0-8.48,13.4-.16,13.4,7.43,0,29.9-.01,29.9-.01,0,0-18.53-.06-23.94-.06-8.7,0-8.48,12.11,.66,12.11h41.83"/><path class="b" d="M153.49,74.54c7.74-.99,15.47-8.16,20.02-13.42,4.54-5.26,13.28-5.02,13.28-5.02"/></g><g><path class="b" d="M112.52,67.65s.38,3.48-2.57,13.22c-3.28,10.82-1.34,44.81-1.34,53.99,0,11.21,11.68,9.46,11.68,2.94s.39-16.56,.39-16.56c0,0-.12,12.68-.12,21,0,9.27,11.99,8.59,11.99,1.06,0-6.01,.14-21.82,.14-21.82,0,0-.16,22.66-.16,29.98,0,8.63,13.4,8.48,13.4,.16,0-7.43-.01-29.9-.01-29.9,0,0-.06,18.53-.06,23.94,0,8.7,12.11,8.48,12.11-.66v-41.83"/><path class="b" d="M170.37,101.54c-.99-7.74-8.16-15.47-13.42-20.02-5.26-4.54-5.02-13.28-5.02-13.28"/></g><g><path class="b" d="M161.72,143.46s3.48-.38,13.22,2.57c10.82,3.28,44.81,1.34,53.99,1.34,11.21,0,9.46-11.68,2.94-11.68s-16.56-.39-16.56-.39c0,0,12.68,.12,21,.12,9.27,0,8.59-11.99,1.06-11.99-6.01,0-21.82-.14-21.82-.14,0,0,22.66,.16,29.98,.16,8.63,0,8.48-13.4,.16-13.4-7.43,0-29.9,.01-29.9,.01,0,0,18.53,.06,23.94,.06,8.7,0,8.48-12.11-.66-12.11h-41.83"/><path class="b" d="M195.6,85.62c-7.74,.99-15.47,8.16-20.02,13.42s-13.28,5.02-13.28,5.02"/></g></svg>