<svg width="170" height="31" viewBox="0 0 170 31" fill="none" xmlns="http://www.w3.org/2000/svg">
<g id="Group 727">
<path id="Vector" d="M98.7711 30.7354C97.2305 30.6819 95.7392 30.4728 94.3013 29.9461C91.2195 28.8163 89.3599 26.6104 88.7503 23.4112C88.2543 20.8063 88.5441 18.2431 89.6394 15.8208C91.2496 12.2622 94.1069 10.2279 97.8592 9.42024C100.351 8.88398 102.855 8.88471 105.312 9.67112C109.022 10.8588 111.281 13.8379 111.445 17.7289C111.534 19.8548 111.251 21.9221 110.368 23.8727C108.744 27.4614 105.883 29.5044 102.101 30.3151C101.011 30.5483 99.8817 30.6012 98.7703 30.7369L98.7711 30.7354ZM99.0843 25.6927C101.076 25.6656 102.576 24.8557 103.602 23.2719C104.822 21.3895 105.194 19.2929 104.813 17.0987C104.575 15.7306 103.757 14.76 102.405 14.303C101.504 13.9986 100.585 13.9648 99.6595 14.1512C98.4586 14.3932 97.491 15.0337 96.7522 15.9917C95.2498 17.9387 94.7591 20.1548 95.2 22.5522C95.5007 24.1874 96.461 25.2753 98.1512 25.6039C98.4843 25.6685 98.8298 25.67 99.0851 25.6927H99.0843Z" fill="#9A9A9A"/>
<path id="Vector_2" d="M116.459 9.58088H122.765C122.697 10.7121 122.632 11.8 122.559 13.039C122.747 12.8175 122.862 12.714 122.939 12.5871C124.382 10.1964 126.541 9.10844 129.291 9.0769C130.226 9.0659 131.148 9.14586 132.037 9.44369C134.314 10.2074 135.597 11.833 136.049 14.1526C136.339 15.6374 136.242 17.128 135.969 18.596C135.281 22.2903 134.543 25.9751 133.833 29.6651C133.762 30.0355 133.612 30.2468 133.219 30.3686C132.286 30.6562 131.339 30.7126 130.391 30.5997C128.685 30.3957 127.744 29.1516 127.943 27.3103C128.065 26.1725 128.303 25.0464 128.514 23.9196C128.842 22.1685 129.198 20.4233 129.526 18.673C129.598 18.2915 129.606 17.8976 129.641 17.5088C129.774 16.0357 128.685 14.639 126.891 14.5157C125.447 14.4167 124.202 14.9119 123.151 15.8905C122.093 16.8764 121.524 18.1279 121.245 19.5261C120.582 22.8522 119.906 26.1761 119.277 29.5088C119.167 30.0876 118.9 30.3304 118.365 30.4544C117.52 30.6496 116.668 30.6972 115.816 30.6077C114.371 30.4566 113.435 29.5132 113.373 28.0549C113.339 27.2604 113.44 26.4454 113.588 25.6604C114.344 21.6565 115.152 17.6621 115.904 13.6574C116.128 12.4602 116.231 11.2395 116.391 10.0298C116.409 9.88898 116.434 9.74887 116.46 9.58234L116.459 9.58088Z" fill="#9A9A9A"/>
<path id="Vector_3" d="M159.477 21.9646H144.906C144.783 22.4473 144.943 22.8324 145.097 23.2066C145.531 24.2615 146.343 24.9408 147.363 25.3824C148.927 26.0595 150.578 26.2319 152.246 26.0169C153.619 25.8401 154.974 25.5181 156.39 25.2503C156.534 25.8145 156.401 26.4175 156.194 27.008C155.82 28.071 155.08 28.8317 154.136 29.4054C153.075 30.0502 151.907 30.4001 150.682 30.5351C148.651 30.7596 146.631 30.7317 144.67 30.062C141.187 28.8721 139.202 26.4182 138.7 22.798C138.255 19.5892 139.032 16.6285 140.816 13.9531C142.82 10.9476 145.708 9.39968 149.278 9.11651C150.843 8.99254 152.4 9.09524 153.927 9.51925C157.453 10.4986 159.616 13.0713 159.934 16.7143C160.085 18.4544 159.94 20.1732 159.477 21.9639L159.477 21.9646ZM153.521 17.8858C153.983 15.9602 152.699 14.2245 150.767 14.0638C148.361 13.8636 146.481 15.0351 145.538 17.3276C145.47 17.4919 145.442 17.6724 145.384 17.8858H153.521H153.521Z" fill="#9A9A9A"/>
<path id="Vector_4" d="M42.4461 21.9544H27.8301C27.778 22.8677 28.1206 23.5499 28.629 24.161C29.2591 24.9173 30.0917 25.3729 31.0183 25.6539C32.7605 26.1828 34.5329 26.2121 36.3096 25.8769C37.3125 25.6876 38.3021 25.4294 39.3474 25.191C39.4875 25.7778 39.3526 26.3398 39.1809 26.8877C38.8192 28.0446 38.0233 28.8472 37.0051 29.4524C35.8922 30.1141 34.6664 30.4559 33.3958 30.5704C31.6147 30.7303 29.8372 30.7061 28.0905 30.2102C24.3448 29.1472 21.921 26.2935 21.588 22.4187C21.307 19.155 22.1257 16.1627 24.0704 13.5188C26.1091 10.7481 28.9202 9.35203 32.3174 9.11068C34.0333 8.98891 35.7352 9.11655 37.3821 9.67408C40.5366 10.7429 42.3082 12.9554 42.8136 16.2243C43.1093 18.1382 42.8848 20.0125 42.4461 21.9536V21.9544ZM28.3348 17.8749H36.4674C36.92 16.0321 35.7455 14.3045 33.8793 14.0829C31.0117 13.7426 29.0024 15.4599 28.3348 17.8749Z" fill="#9A9A9A"/>
<path id="Vector_5" d="M89.1626 9.51414C88.8156 11.2527 88.4965 12.849 88.1686 14.4923H83.1575C83.0005 15.2369 82.8442 15.9418 82.7041 16.6505C81.8546 20.9347 80.9978 25.2166 80.1769 29.5059C80.0669 30.0803 79.8064 30.3437 79.2629 30.4574C78.2953 30.6598 77.3269 30.7545 76.3608 30.5109C75.11 30.1955 74.4292 29.3401 74.3251 28.0534C74.2385 26.989 74.4806 25.9641 74.6845 24.9364C75.3301 21.6814 75.9874 18.4287 76.6366 15.1752C76.674 14.9867 76.6806 14.7923 76.7107 14.5179H73.4858C73.827 12.8094 74.1497 11.1904 74.4798 9.53688H77.7392C77.883 8.8385 78.0275 8.17534 78.1551 7.50924C78.3664 6.40298 78.6312 5.31507 79.1462 4.30345C80.562 1.51875 82.8545 0.102919 85.9554 0.0126879C88.2068 -0.0533352 89.8441 0.139597 91.3319 0.561411C91.111 2.10708 90.7472 3.63442 90.4398 5.17862C89.5999 5.1038 88.8068 4.99009 88.0124 4.97175C86.1667 4.92993 85.144 5.68407 84.5931 7.43735C84.4838 7.7858 84.4024 8.14379 84.3261 8.50178C84.2601 8.80915 84.219 9.1224 84.153 9.51634H89.1648L89.1626 9.51414Z" fill="#9A9A9A"/>
<path id="Vector_6" d="M11.3735 27.7504C10.637 28.9051 9.76184 29.7231 8.58076 30.1713C7.24783 30.6767 5.86795 30.7758 4.47266 30.5102C2.77294 30.1874 1.64028 29.1714 0.993252 27.5824C0.617654 26.6603 0.506882 25.6913 0.505415 24.7112C0.497346 17.5059 0.500281 10.2998 0.501748 3.0945C0.501748 2.92724 0.525221 2.75998 0.54136 2.54797H6.99695C6.99695 2.85168 6.99695 3.13704 6.99695 3.42168C6.99695 9.82151 6.99328 16.2206 7.00282 22.6204C7.00355 23.2521 7.03876 23.891 7.13926 24.5138C7.42683 26.2928 8.65119 27.7284 10.9642 27.7248C11.061 27.7248 11.1579 27.7365 11.3743 27.7497L11.3735 27.7504Z" fill="#9A9A9A"/>
<path id="Vector_7" d="M47.6914 9.57796H54.0003C53.935 10.696 53.8712 11.778 53.8081 12.86C53.8418 12.874 53.8748 12.8879 53.9086 12.9026C54.0245 12.706 54.1433 12.5108 54.2556 12.312C55.1938 10.6541 56.5348 9.5178 58.4466 9.18035C59.7597 8.94854 61.0626 9.06371 62.4234 9.46059C62.0639 11.2828 61.7118 13.0654 61.3509 14.8957C60.5777 14.7857 59.8426 14.6361 59.1017 14.5884C58.327 14.5392 57.5384 14.5202 56.7696 14.6082C55.1616 14.793 54.0516 15.7166 53.3261 17.1376C52.7194 18.326 52.4466 19.6135 52.1891 20.906C51.6088 23.8235 51.0161 26.7388 50.4593 29.6614C50.3764 30.0957 50.1834 30.271 49.7851 30.3906C48.8769 30.6628 47.9526 30.7046 47.029 30.599C45.509 30.4251 44.6015 29.4326 44.5795 27.9008C44.5693 27.1995 44.6448 26.4857 44.7769 25.7954C45.5508 21.7482 46.3688 17.7091 47.1354 13.6596C47.362 12.4632 47.4714 11.2447 47.6335 10.0357C47.6525 9.89487 47.6694 9.75402 47.6922 9.57723L47.6914 9.57796Z" fill="#9A9A9A"/>
<path id="Vector_8" d="M71.5791 9.57355C71.3517 10.748 71.1441 11.8469 70.9255 12.9444C69.8192 18.4911 68.7012 24.0355 67.6163 29.5866C67.5202 30.0766 67.3162 30.2952 66.8577 30.4082C65.8234 30.6642 64.7853 30.7647 63.7458 30.5058C62.4885 30.1925 61.785 29.346 61.7351 28.0475C61.7109 27.4196 61.7475 26.774 61.8679 26.1578C62.9066 20.8217 63.9711 15.4899 65.0289 10.1575C65.0663 9.97042 65.1213 9.78702 65.1756 9.57281H71.5791V9.57355Z" fill="#9A9A9A"/>
<path id="Vector_9" d="M73.298 0.967102C72.9496 2.71598 72.6136 4.40323 72.2747 6.10369H65.8345C66.1815 4.36508 66.5182 2.6749 66.8593 0.967102H73.298Z" fill="#9A9A9A"/>
<path id="Vector_10" d="M166.08 15.4262C164.252 15.4093 163 13.9106 163.3 12.0986C163.585 10.3805 164.983 9.13196 166.665 9.09381C168.596 9.0498 169.921 10.5962 169.59 12.5065C169.292 14.2275 167.832 15.4423 166.08 15.4262ZM163.604 12.461C163.566 13.7888 164.397 14.8283 165.685 15.0638C167.642 15.4218 169.522 13.6421 169.273 11.668C169.12 10.451 168.31 9.6308 167.095 9.46134C165.297 9.21045 163.657 10.6197 163.604 12.461Z" fill="#9A9A9A"/>
<path id="Vector_11" d="M167.249 13.9971C167.169 13.8937 167.065 13.8005 167.013 13.6846C166.875 13.3743 166.736 13.0611 166.638 12.7368C166.514 12.3238 166.273 12.1939 165.809 12.3583C165.69 12.8674 165.562 13.4117 165.434 13.9553L165.234 13.9127C165.205 13.3288 165.415 12.7691 165.517 12.1998C165.619 11.6276 165.74 11.0591 165.867 10.4172C166.29 10.4172 166.699 10.3923 167.103 10.4238C167.547 10.459 167.811 10.7048 167.88 11.0672C167.96 11.4897 167.811 11.8279 167.424 12.0509C167.258 12.1463 167.073 12.2064 166.829 12.3113C167.026 12.8461 167.22 13.3743 167.415 13.9025L167.249 13.9964V13.9971ZM165.883 12.0318C166.357 11.9797 166.74 11.9805 167.097 11.8873C167.462 11.7919 167.635 11.4846 167.576 11.1823C167.51 10.8449 167.271 10.707 166.952 10.693C166.692 10.6813 166.431 10.6908 166.121 10.6908C166.044 11.1302 165.975 11.5198 165.884 12.0326L165.883 12.0318Z" fill="#9A9A9A"/>
<g id="Group 720">
<path id="Vector_12" d="M27.9233 2.56757C27.7816 2.80231 27.6926 2.95914 27.5944 3.1099C23.0949 10.06 18.5954 17.0101 14.0919 23.9581C13.8632 24.3103 13.6224 24.6593 13.3462 24.974C12.5914 25.835 11.5745 26.1133 10.5627 25.745C9.53268 25.3706 9.16944 24.5197 9.10064 23.5261C9.046 22.7389 9.07332 21.9447 9.09153 21.1534C9.09558 20.9834 9.18664 20.7993 9.28276 20.6516C13.1529 14.7366 17.0261 8.82458 20.9094 2.91867C21.0126 2.76184 21.2302 2.58376 21.3961 2.58174C23.534 2.55948 25.673 2.56656 27.9233 2.56656V2.56757Z" fill="#9A9A9A"/>
</g>
</g>
</svg>
