<svg width="136" height="36" viewBox="0 0 136 36" fill="none" xmlns="http://www.w3.org/2000/svg">
<g id="Adobe_Corporate_Horizontal_Lockup_Black_HEX 1" clip-path="url(#clip0_1338_1636)">
<path id="Vector" d="M58.806 23.9179L57.3549 28.33C57.3354 28.401 57.2917 28.4632 57.2312 28.5063C57.1708 28.5494 57.0971 28.5708 57.0226 28.5669H53.5122C53.3015 28.5669 53.2392 28.4499 53.2718 28.2745L59.3223 11.0731C59.5232 10.4874 59.6235 9.87274 59.619 9.25447C59.6157 9.20344 59.6328 9.15315 59.6667 9.11436C59.7005 9.07557 59.7483 9.05135 59.8001 9.04688H64.6398C64.7912 9.04688 64.8505 9.07611 64.8832 9.22523L71.7497 28.3037C71.809 28.4529 71.7793 28.5698 71.5983 28.5698H67.6725C67.6005 28.582 67.5264 28.5675 67.4645 28.5292C67.4027 28.4909 67.3573 28.4314 67.3372 28.3622L65.7941 23.9208L58.806 23.9179ZM64.6754 20.1899C64.082 18.2221 62.8624 14.614 62.3015 12.4971H62.2719C61.7882 14.4941 60.6962 17.7601 59.898 20.1899H64.6754Z" fill="#9A9A9A"/>
<path id="Vector_2" d="M72.2334 21.2932C72.2334 17.0301 75.4708 13.463 81.0079 13.463C81.2483 13.463 81.5509 13.4951 82.0049 13.5244V7.63855C82.0016 7.6105 82.0048 7.58206 82.0142 7.55538C82.0236 7.5287 82.039 7.50447 82.0593 7.4845C82.0795 7.46452 82.1041 7.44933 82.1312 7.44006C82.1583 7.43079 82.1872 7.42767 82.2156 7.43095H86.0287C86.18 7.43095 86.2097 7.48943 86.2097 7.60931V25.2288C86.2019 25.9558 86.2425 26.6824 86.3314 27.4042C86.3314 27.5533 86.3017 27.6118 86.1207 27.6732C84.2348 28.4604 82.2073 28.8652 80.1592 28.8632C75.6815 28.8632 72.2334 26.3603 72.2334 21.2932ZM82.0049 17.0594C81.6444 16.943 81.2652 16.8924 80.8862 16.9103C78.5569 16.9103 76.5598 18.3108 76.5598 21.0827C76.5598 24.0358 78.2839 25.3165 80.5836 25.3165C81.0642 25.3364 81.5447 25.2761 82.0049 25.1381V17.0594Z" fill="#9A9A9A"/>
<path id="Vector_3" d="M103.536 21.0845C103.536 25.7628 100.45 28.865 96.0939 28.865C90.9218 28.865 88.6221 25.0201 88.6221 21.1752C88.6221 16.9413 91.4945 13.4531 96.1533 13.4531C101.026 13.4648 103.536 17.0612 103.536 21.0845ZM92.8862 21.1167C92.8862 23.7482 94.1265 25.409 96.1503 25.409C97.907 25.409 99.2364 23.9178 99.2364 21.1752C99.2364 18.836 98.269 16.9121 95.9722 16.9121C94.2185 16.9121 92.8862 18.4618 92.8862 21.1167Z" fill="#9A9A9A"/>
<path id="Vector_4" d="M109.895 7.42969C110.139 7.42969 110.192 7.45893 110.192 7.66945V13.7804C111.022 13.5629 111.879 13.4557 112.738 13.4617C117.189 13.4617 119.999 16.564 119.999 20.558C119.999 26.131 115.521 28.8736 110.925 28.8736C109.316 28.8843 107.715 28.6536 106.177 28.1894C106.124 28.1604 106.079 28.1182 106.047 28.0669C106.015 28.0156 105.998 27.9571 105.996 27.897V7.63728C105.996 7.48817 106.055 7.42969 106.207 7.42969H109.895ZM111.972 16.9675C111.37 16.9601 110.77 17.0409 110.192 17.2072V25.286C110.559 25.3706 110.934 25.4109 111.311 25.4059C113.61 25.4059 115.696 24.0346 115.696 20.9323C115.702 18.2218 114.1 16.9704 111.981 16.9704L111.972 16.9675Z" fill="#9A9A9A"/>
<path id="Vector_5" d="M125.901 22.2336C126.053 23.9324 127.263 25.333 130.228 25.333C131.502 25.3567 132.769 25.1239 133.949 24.6488C134.041 24.5874 134.13 24.6195 134.13 24.7979V27.6282C134.13 27.8388 134.07 27.9206 133.919 27.9879C132.708 28.5522 131.379 28.865 129.29 28.865C123.604 28.865 121.607 25.0201 121.607 21.3243C121.607 17.2103 124.177 13.4531 128.928 13.4531C133.495 13.4531 135.311 16.9413 135.311 19.8857C135.332 20.5548 135.281 21.2242 135.159 21.8828C135.156 21.9444 135.129 22.0027 135.085 22.0463C135.041 22.09 134.982 22.1161 134.919 22.1196C133.883 22.2175 132.841 22.2575 131.8 22.2395L125.901 22.2336ZM129.836 19.3419C130.341 19.3598 130.847 19.3403 131.349 19.2834V19.0729C131.338 18.7523 131.262 18.4372 131.126 18.1457C130.99 17.8542 130.797 17.5921 130.558 17.3745C130.319 17.157 130.038 16.9884 129.732 16.8784C129.427 16.7684 129.102 16.7193 128.777 16.7337C126.872 16.7337 126.053 18.1343 125.872 19.3653L129.836 19.3419Z" fill="#9A9A9A"/>
<path id="Vector_6" d="M25.6426 0.890625H40.2806V35.4249L25.6426 0.890625Z" fill="#9A9A9A"/>
<path id="Vector_7" d="M15.3276 0.890625H0.677734V35.4249L15.3276 0.890625Z" fill="#9A9A9A"/>
<path id="Vector_8" d="M20.4846 13.6172L29.811 35.4237H23.6983L20.9089 28.4794H14.084L20.4846 13.6172Z" fill="#9A9A9A"/>
</g>
<defs>
<clipPath id="clip0_1338_1636">
<rect width="134.644" height="34.5343" fill="white" transform="translate(0.677734 0.890625)"/>
</clipPath>
</defs>
</svg>
