<svg width="103" height="44" viewBox="0 0 103 44" fill="none" xmlns="http://www.w3.org/2000/svg">
<g id="Group 728">
<path id="Vector" d="M10.7183 14.422C10.7697 14.2951 10.8212 14.1681 10.8735 14.0421C11.8985 11.5769 13.7872 10.2328 16.3853 9.85286C18.0562 9.6084 19.6936 9.80654 21.2564 10.4533C23.6109 11.4268 25.0648 13.2444 25.9294 15.58C26.7923 17.9113 26.9595 20.3353 26.8275 22.7919C26.7237 24.7252 26.4175 26.6199 25.6686 28.4212C24.7817 30.5535 23.3948 32.2279 21.2736 33.2417C20.9339 33.4038 20.7624 33.4072 20.5299 33.053C18.9277 30.6144 15.5954 30.117 13.3258 31.9508C13.1971 32.0546 13.0702 32.1609 12.9286 32.2767C12.0212 28.4581 7.43997 26.9982 4.52194 29.7541C4.45161 29.5285 4.39671 29.3081 4.31608 29.0971C3.69594 27.4794 2.55772 26.4227 0.879121 25.9775C0.591778 25.9012 0.5 25.8 0.5 25.4972C0.509435 17.1419 0.509435 8.78669 0.5 0.431449C0.5 0.0909262 0.596067 -0.000851798 0.932301 5.94113e-06C3.9747 0.0120143 7.01625 0.00686671 10.0586 0.00686671C10.623 0.00686671 10.6248 0.00686858 10.6248 0.560968C10.6248 5.01693 10.6248 9.47288 10.6248 13.9297C10.6248 14.0858 10.6248 14.2411 10.6248 14.3972C10.6556 14.4057 10.6874 14.4143 10.7183 14.4229V14.422ZM10.5536 21.9924C10.6359 22.9591 10.6376 23.6805 10.7697 24.3761C10.9893 25.5306 11.522 26.5316 12.782 26.7795C14.2667 27.0711 15.5585 26.5771 16.0894 24.8839C16.52 23.5098 16.5097 22.0945 16.3819 20.6835C16.333 20.138 16.1829 19.5873 15.9916 19.0718C15.7051 18.2999 15.1185 17.811 14.3053 17.6368C12.7228 17.2972 11.389 18.0254 10.9387 19.5865C10.6934 20.4374 10.6522 21.3474 10.5544 21.9933L10.5536 21.9924Z" fill="#9A9A9A"/>
<path id="Vector_2" d="M25.7843 10.3821H36.5404C37.6623 15.4582 39.3349 20.4048 39.6196 25.6456C39.6737 25.6499 39.7269 25.6533 39.7809 25.6576C39.8246 25.5735 39.8993 25.4929 39.9079 25.4063C40.323 21.1793 41.6319 17.1557 42.7135 13.0805C42.9254 12.282 43.145 11.4843 43.3551 10.6849C43.41 10.4764 43.4769 10.3538 43.7462 10.3546C46.8598 10.3675 49.9734 10.3632 53.087 10.3641C53.129 10.3641 53.1711 10.3744 53.262 10.3855C53.2311 10.5082 53.2105 10.6266 53.1719 10.7381C50.5464 18.3205 47.9303 25.9063 45.2842 33.4819C44.4599 35.8407 43.3268 38.0442 41.6679 39.9432C39.557 42.3595 36.9015 43.6958 33.6978 43.9403C31.4368 44.1127 29.2221 43.9369 27.0967 43.0808C26.8076 42.9642 26.5305 42.8184 26.2089 42.6683C26.8719 40.246 27.529 37.8461 28.1997 35.3929C28.3369 35.4864 28.4459 35.5653 28.56 35.6374C29.5618 36.273 30.6408 36.5577 31.8237 36.3321C32.7757 36.1503 33.389 35.5482 33.7604 34.6879C33.823 34.5438 33.7784 34.3267 33.7244 34.1629C32.0055 29.0122 30.2797 23.8649 28.5548 18.7159C27.6722 16.0801 26.7904 13.4434 25.9087 10.8075C25.8641 10.6746 25.8289 10.5399 25.7817 10.383L25.7843 10.3821Z" fill="#9A9A9A"/>
<path id="Vector_3" d="M80.9088 23.4909C80.7098 24.9954 81.5341 26.4072 82.8293 26.6843C84.8338 27.1131 86.117 26.5222 86.8015 24.3126C89.3061 25.4062 91.8038 26.4973 94.3213 27.5969C93.2285 30.1238 91.5319 32.0383 88.9767 33.0204C85.3493 34.4142 81.6104 34.6432 77.905 33.4227C74.0632 32.1566 71.8562 29.4016 71.3699 25.3728C71.0302 22.5611 71.387 19.8095 72.5407 17.2071C74.2871 13.2675 77.3792 10.9842 81.5444 10.111C83.922 9.61268 86.3049 9.59553 88.6628 10.2731C92.6084 11.4071 94.9929 14.6382 94.9243 18.7433C94.9003 20.2126 94.6223 21.6305 94.1154 23.0097C93.9825 23.3717 93.7955 23.5029 93.3975 23.5012C89.427 23.4849 85.4565 23.4918 81.4852 23.4918C81.2896 23.4918 81.0941 23.4918 80.908 23.4918L80.9088 23.4909ZM81.3214 19.9313H84.3329C85.538 19.9313 85.6615 19.8009 85.6204 18.5675C85.6178 18.4963 85.6127 18.4251 85.6066 18.3539C85.5286 17.4782 84.9582 16.9086 84.0807 16.8606C83.4237 16.8246 82.8387 17.0193 82.3755 17.5022C81.7477 18.1558 81.4895 18.9732 81.3214 19.9313Z" fill="#9A9A9A"/>
<path id="Vector_4" d="M66.9347 10.3624C67.819 10.3624 68.6305 10.3624 69.4419 10.3624C70.2533 10.3624 71.0364 10.3624 71.8967 10.3624C71.7887 11.0117 71.6952 11.6121 71.5897 12.2099C71.2852 13.9366 70.9661 15.6615 70.6796 17.3915C70.6264 17.7132 70.4995 17.7784 70.2079 17.7758C68.8509 17.7638 67.494 17.7707 66.137 17.7707C65.9826 17.7707 65.8282 17.7707 65.6352 17.7707C65.4646 18.7553 65.2956 19.7057 65.1369 20.6578C64.9679 21.6699 64.7664 22.6795 64.6566 23.6985C64.5245 24.9311 65.0906 25.5452 66.3197 25.6301C67.5223 25.7125 68.639 25.4174 69.6984 24.8684C69.9128 24.7578 70.1272 24.648 70.3897 24.5133C70.3897 24.6403 70.4034 24.7312 70.388 24.817C69.9437 27.2718 69.5019 29.7275 69.0396 32.179C69.0027 32.3737 68.8561 32.5967 68.6931 32.7116C67.7067 33.4124 66.5762 33.7598 65.3959 33.9408C63.4326 34.241 61.4735 34.2899 59.5393 33.734C56.5998 32.8892 54.7505 30.5664 54.4718 27.5171C54.2942 25.5804 54.6304 23.7071 54.9607 21.8243C55.194 20.4948 55.4264 19.1645 55.6692 17.7775H53.0625C53.4991 15.2806 53.9254 12.8472 54.3577 10.3752H57.015C57.1728 9.49089 57.3263 8.64002 57.4773 7.78914C57.5939 7.12954 57.7269 6.47165 57.8118 5.80776C57.8495 5.51441 57.9756 5.42349 58.2432 5.40291C59.3103 5.32056 60.3773 5.22793 61.4435 5.13786C63.3914 4.97318 65.3393 4.80592 67.2881 4.64466C67.4837 4.62837 67.681 4.64209 67.9254 4.64209C67.5978 6.5377 67.2735 8.41271 66.9356 10.3641L66.9347 10.3624Z" fill="#9A9A9A"/>
<path id="Vector_5" d="M94.9996 8.34327C95.0117 6.74101 95.8668 5.41752 97.2469 4.86256C98.6073 4.31533 100.204 4.6387 101.186 5.70744C102.224 6.83708 102.452 8.1803 102.019 9.61444C101.611 10.9671 100.668 11.8008 99.2763 12.0916C97.0059 12.5668 94.9808 10.7878 94.9996 8.34327ZM101.476 8.38873C101.481 6.24695 99.7061 4.80595 97.7598 5.37034C96.5702 5.71601 95.7098 6.91685 95.7124 8.32697C95.715 9.57756 96.1542 10.6334 97.3456 11.209C99.3467 12.1765 101.47 10.7158 101.476 8.38873Z" fill="#9A9A9A"/>
<path id="Vector_6" d="M99.4455 8.69832C99.732 9.22411 99.9945 9.70616 100.264 10.2002C99.7617 10.2923 99.4104 10.1379 99.2096 9.73704C99.159 9.63497 99.1067 9.53461 99.0552 9.43254C98.7585 8.83984 98.7113 8.8184 97.9839 8.98051V10.2234H97.2617V6.45533C97.9102 6.45533 98.5483 6.41072 99.177 6.46991C99.6548 6.51451 100.033 6.79585 100.124 7.31907C100.227 7.9152 100.023 8.38181 99.4464 8.69918L99.4455 8.69832ZM97.9676 7.68533C98.0465 7.94436 97.7686 8.38696 98.3751 8.35779C99.0492 8.3252 99.3392 8.13736 99.334 7.65874C99.3289 7.18955 99.0535 7.02573 98.3982 6.99142C97.7652 6.95796 98.0457 7.41257 97.9685 7.68533H97.9676Z" fill="#9A9A9A"/>
</g>
</svg>
