<svg width="166" height="49" viewBox="0 0 166 49" fill="none" xmlns="http://www.w3.org/2000/svg">
<g id="truecar1 2" clip-path="url(#clip0_2240_329)">
<path id="Vector" d="M86.6283 24.4101C86.5837 17.8468 91.477 11.7555 98.3432 10.744C102.412 10.1484 106.056 11.1823 109.233 13.8346C110.091 14.5539 110.827 15.3856 111.496 16.2959C111.641 16.4982 111.663 16.6218 111.429 16.7904C110.225 17.622 109.021 18.4762 107.829 19.3303C107.639 19.4651 107.539 19.4202 107.416 19.2516C106.435 17.9142 105.187 16.8915 103.638 16.3071C100.383 15.0709 97.3846 15.5766 94.7429 17.8693C92.9149 19.4427 91.9229 21.4881 91.7557 23.9268C91.5996 26.1858 92.3353 28.1525 93.7397 29.8608C95.1999 31.6365 97.0391 32.8165 99.3241 33.12C101.843 33.4571 104.095 32.794 106.001 31.0745C106.324 30.7936 106.603 30.4677 106.904 30.1642C107.84 29.2202 109.378 29.1752 110.326 30.0631C111.362 31.0296 111.451 32.558 110.548 33.6032C108.408 36.1206 105.711 37.6603 102.456 38.1211C98.2986 38.7055 94.5869 37.6266 91.399 34.8619C88.8911 32.6817 87.3751 29.917 86.829 26.6353C86.7064 25.9048 86.6841 25.1631 86.6172 24.4213L86.6283 24.4101Z" fill="#9A9A9A"/>
<path id="Vector_2" d="M127.301 36.5927C127.145 36.6826 127.056 36.7275 126.967 36.7837C125.573 37.6491 124.069 38.1323 122.43 38.2223C117.292 38.5145 113.112 34.9518 112.343 29.917C111.941 27.2759 112.343 24.781 113.792 22.5108C115.441 19.9372 117.771 18.375 120.803 18.0379C122.943 17.8018 124.994 18.2289 126.878 19.3415C126.989 19.409 127.112 19.4764 127.301 19.5888C127.301 19.1842 127.301 18.8583 127.301 18.5323C127.301 18.2963 127.379 18.2064 127.613 18.2064C129.085 18.2064 130.567 18.2064 132.038 18.2064C132.328 18.2064 132.373 18.3413 132.373 18.5773C132.373 19.9259 132.373 21.2746 132.373 22.6119C132.373 24.1853 132.373 25.7587 132.373 27.3321C132.373 30.7374 132.373 34.1314 132.373 37.5367C132.373 37.8888 132.202 38.0649 131.86 38.0649C130.478 38.0649 129.107 38.0649 127.725 38.0649C127.29 38.0649 127.29 38.0649 127.29 37.6379C127.29 37.3119 127.29 36.986 127.29 36.5927H127.301ZM122.285 33.1537C124.871 33.1986 127.312 31.1083 127.301 28.1076C127.301 25.0282 124.76 23.0502 122.296 23.0727C119.521 23.1064 117.258 25.3317 117.258 28.1076C117.258 30.8947 119.499 33.1537 122.285 33.1537Z" fill="#9A9A9A"/>
<path id="Vector_3" d="M69.6188 30.0856C69.786 30.6475 70.0201 31.1083 70.3433 31.5016C71.2239 32.5805 72.372 33.1649 73.743 33.2773C75.7605 33.4459 77.4324 32.7266 78.7143 31.142C78.848 30.9846 78.9372 30.9509 79.1044 31.0858C80.1522 31.9399 81.2111 32.7828 82.27 33.6144C82.4929 33.783 82.4372 33.9067 82.3034 34.0865C80.8098 36.1094 78.8592 37.4468 76.407 37.9975C72.1825 38.9528 67.802 37.0422 65.5615 33.2998C62.6412 28.3885 64.3243 22.0163 69.2956 19.2291C72.9516 17.1837 77.4102 17.5321 80.5311 20.1732C82.5598 21.8814 83.6967 24.1179 84.1314 26.7365C84.2875 27.658 84.2986 28.5796 84.1872 29.5011C84.1203 30.0406 84.1203 30.0518 83.5852 30.0518C79.0933 30.0518 74.6013 30.0518 70.1093 30.0518C69.9644 30.0518 69.8195 30.0631 69.6077 30.0743L69.6188 30.0856ZM69.6411 25.9385H78.8034C78.3687 24.4438 76.8305 22.7468 74.4229 22.6906C71.8704 22.6344 70.1984 24.2752 69.6411 25.9385Z" fill="#9A9A9A"/>
<path id="Vector_4" d="M22.369 11.0363C25.8578 11.0363 29.3467 11.0363 32.8355 11.0363C33.3036 11.0363 33.3036 11.0363 33.3036 11.497C33.3036 12.8906 33.3036 14.273 33.3036 15.6665C33.3036 16.161 33.3036 16.161 32.7909 16.161C30.3164 16.161 27.853 16.161 25.3785 16.161C25.0664 16.161 24.9067 16.3221 24.8992 16.6443C24.8992 23.6122 24.8992 30.5913 24.8992 37.5592C24.8992 37.9038 24.7283 38.0762 24.3865 38.0762C23.0044 38.0762 21.6222 38.0762 20.2512 38.0762C19.8165 38.0762 19.8053 38.0762 19.8053 37.6266C19.8053 30.6475 19.8053 23.6571 19.8053 16.678C19.8053 16.3334 19.6381 16.161 19.3038 16.161C16.8293 16.161 14.3659 16.161 11.8914 16.161C11.4233 16.161 11.4121 16.161 11.4121 15.6665C11.4121 14.2505 11.4121 12.8457 11.4121 11.4296C11.4121 11.1262 11.5124 11.025 11.8134 11.025C15.3356 11.025 18.8468 11.025 22.369 11.025V11.0363Z" fill="#9A9A9A"/>
<path id="Vector_5" d="M62.5185 24.2752C62.5185 26.006 62.5185 27.7479 62.5185 29.4787C62.5185 33.783 59.4644 37.4355 55.2399 38.1323C50.3243 38.9528 45.8881 35.525 45.2081 30.7823C45.1301 30.2654 45.0967 29.7372 45.0967 29.2089C45.0967 25.7025 45.0967 22.1849 45.0967 18.6784C45.0967 18.2064 45.0967 18.2064 45.576 18.2064C46.9581 18.2064 48.3403 18.2064 49.7113 18.2064C50.0308 18.2064 50.1906 18.375 50.1906 18.7122C50.1906 22.286 50.1906 25.8599 50.1906 29.445C50.1906 31.4117 51.6062 32.9739 53.5456 33.1424C55.3625 33.311 57.0568 31.9624 57.38 30.0968C57.4246 29.8271 57.4246 29.5349 57.4246 29.2539C57.4246 25.7475 57.4246 22.2298 57.4246 18.7234C57.4246 18.3862 57.5955 18.2177 57.9373 18.2177C59.3418 18.2177 60.7351 18.2177 62.1395 18.2177C62.4405 18.2177 62.5185 18.3188 62.5185 18.611C62.5185 20.5103 62.5185 22.3984 62.5185 24.2977V24.2752Z" fill="#9A9A9A"/>
<path id="Vector_6" d="M140.677 19.319C141.034 19.1504 141.312 19.0043 141.602 18.8695C143.408 18.0491 145.291 17.8243 147.242 18.1614C148.457 18.375 149.304 19.4988 149.26 20.8137C149.226 21.9713 148.234 23.039 147.064 23.1514C146.819 23.1738 146.573 23.1851 146.328 23.1514C143.553 22.6906 140.833 24.927 140.71 27.7929C140.688 28.2649 140.666 28.7369 140.666 29.2089C140.666 32.0298 140.666 34.8507 140.666 37.6715C140.666 37.9862 140.565 38.0761 140.264 38.0761C138.86 38.0649 137.467 38.0761 136.062 38.0761C135.661 38.0761 135.639 38.0536 135.639 37.6603C135.639 31.3105 135.639 24.972 135.639 18.6222C135.639 18.3188 135.728 18.2064 136.04 18.2064C137.467 18.2176 138.882 18.2176 140.309 18.2064C140.588 18.2064 140.699 18.2851 140.677 18.5773C140.655 18.802 140.677 19.0268 140.677 19.319Z" fill="#9A9A9A"/>
<path id="Vector_7" d="M36.7813 19.8472C38.0743 18.4649 39.6794 18.0153 41.4294 17.9479C41.931 17.9254 42.4326 17.9479 42.9341 17.9479C43.1236 17.9479 43.2462 18.0041 43.2462 18.2176C43.2462 19.8809 43.2462 21.533 43.2462 23.1963C43.2462 23.2413 43.2128 23.2975 43.2017 23.3537C42.7335 23.3087 42.2765 23.2413 41.8306 23.2188C40.8498 23.1626 39.9135 23.3537 39.0663 23.8706C37.6842 24.7135 37.0266 26.0059 36.8705 27.5793C36.8036 28.2312 36.8036 28.8942 36.8036 29.5461C36.8036 32.2546 36.8036 34.9518 36.8036 37.6603C36.8036 37.9862 36.7145 38.0874 36.3912 38.0874C34.9756 38.0761 33.5712 38.0761 32.1556 38.0874C31.8323 38.0874 31.7432 37.9862 31.7432 37.6603C31.7432 31.3105 31.7432 24.972 31.7432 18.6222C31.7432 18.2963 31.8323 18.1952 32.1556 18.2064C33.5823 18.2289 34.9979 18.2176 36.4246 18.2064C36.7145 18.2064 36.8259 18.2851 36.8036 18.5885C36.7813 18.9819 36.8036 19.3864 36.8036 19.8472H36.7813Z" fill="#9A9A9A"/>
<path id="Vector_8" d="M150.843 16.3183C150.843 15.2731 151.701 14.419 152.738 14.4078C153.774 14.4078 154.666 15.2956 154.655 16.3408C154.655 17.4085 153.774 18.2851 152.738 18.2851C151.656 18.2851 150.832 17.4197 150.832 16.3183H150.843ZM153.685 17.5883C154.164 17.3186 154.532 16.4532 154.164 15.6665C153.83 14.9697 153.027 14.6101 152.281 14.8348C151.701 15.0147 151.244 15.5653 151.199 16.1497C151.144 16.869 151.445 17.4534 152.024 17.7681C152.593 18.0715 153.217 18.0041 153.696 17.5995L153.685 17.5883Z" fill="#9A9A9A"/>
<path id="Vector_9" d="M153.696 17.5883C153.439 17.622 153.297 17.6108 153.175 17.3748C153.086 17.2062 152.971 16.9477 152.826 16.8128C152.737 16.7229 152.559 16.7005 152.425 16.7117C152.326 16.7117 152.325 16.8915 152.302 16.9927C152.302 17.1037 152.302 17.2511 152.291 17.3748C152.28 17.4422 152.302 17.5471 152.26 17.5771C152.165 17.5771 151.968 17.6146 151.946 17.5471C151.912 17.4235 151.946 17.1388 151.946 17.0151C151.946 16.4869 151.946 15.9587 151.946 15.4305C151.946 15.217 152.013 15.1046 152.247 15.1158C152.492 15.1383 152.737 15.1158 152.982 15.1608C153.283 15.2057 153.495 15.3855 153.562 15.689C153.629 16.0149 153.562 16.3183 153.261 16.5094C153.228 16.5319 153.194 16.5656 153.15 16.5993C153.328 16.9252 153.506 17.2511 153.673 17.5771L153.696 17.5883ZM152.302 15.8463C152.302 16.3408 152.302 16.3408 152.626 16.3408C153.038 16.3408 153.239 16.1947 153.239 15.8913C153.239 15.5991 153.049 15.4979 152.637 15.4642C152.247 15.4305 152.291 15.6777 152.302 15.8463Z" fill="#9A9A9A"/>
</g>
<defs>
<clipPath id="clip0_2240_329">
<rect width="165" height="49" fill="white" transform="translate(0.5)"/>
</clipPath>
</defs>
</svg>
