<svg width="155" height="36" viewBox="0 0 155 36" fill="none" xmlns="http://www.w3.org/2000/svg">
<g id="Group 729">
<path id="Vector" d="M109.37 34.5831C106.615 29.9644 103.844 25.3183 101.031 20.6034C100.984 20.7473 100.949 20.8113 100.943 20.8775C100.933 21.0104 100.939 21.1447 100.939 21.2789C100.939 25.5337 100.939 29.7885 100.939 34.0426V34.5804H90.9612C90.8725 34.2512 90.8623 1.59599 90.953 1.1802C91.0484 1.1727 91.1521 1.15634 91.2557 1.15634C96.2089 1.1577 101.162 1.13112 106.115 1.17679C108.412 1.19792 110.666 1.58441 112.812 2.45486C114.448 3.11877 115.89 4.06011 117.03 5.43088C118.047 6.65238 118.675 8.05723 118.977 9.6025C119.373 11.6283 119.324 13.648 118.717 15.6323C117.905 18.2879 116.257 20.2824 113.862 21.6722C113.689 21.7731 113.512 21.8692 113.333 21.9606C113.168 22.0451 112.999 22.1208 112.783 22.223C113.321 23.0941 113.917 23.893 114.478 24.7144C115.035 25.5317 115.606 26.3408 116.17 27.1547C116.74 27.9794 117.308 28.8069 117.878 29.6317C118.441 30.4456 119.006 31.2581 119.569 32.072C120.138 32.8934 120.706 33.7147 121.306 34.5825H109.37V34.5831ZM101.007 9.41028C100.924 9.73747 100.908 15.483 100.992 15.9445C101.123 15.9554 101.264 15.9778 101.407 15.9778C102.704 15.9806 104.001 15.9881 105.298 15.9758C106.021 15.969 106.738 15.894 107.417 15.6111C108.26 15.2601 108.824 14.6582 109.067 13.7734C109.262 13.0639 109.265 12.3495 109.082 11.6351C108.879 10.8397 108.416 10.2494 107.69 9.86425C107.15 9.57796 106.567 9.41232 105.963 9.4021C104.386 9.37484 102.808 9.38097 101.23 9.3762C101.153 9.3762 101.077 9.39937 101.007 9.41028H101.007Z" fill="#9A9A9A"/>
<path id="Vector_2" d="M0.504246 24.3102H10.6882C10.7175 24.4888 10.7461 24.6449 10.7693 24.8023C10.9173 25.7928 11.4791 26.4798 12.3415 26.9481C12.9988 27.3053 13.7146 27.473 14.4469 27.5589C15.5834 27.6918 16.7173 27.657 17.8395 27.4144C18.4851 27.2746 19.1008 27.0579 19.6319 26.6503C20.2558 26.1717 20.5796 25.548 20.5694 24.7498C20.5619 24.18 20.3485 23.7124 19.9435 23.3232C19.5903 22.9837 19.1669 22.7561 18.7197 22.572C17.7761 22.1835 16.7848 21.962 15.7887 21.7595C13.8912 21.3737 11.9761 21.0711 10.1046 20.5591C8.5378 20.1304 7.02286 19.5783 5.64019 18.7085C3.27437 17.2212 1.92169 15.0754 1.50307 12.3277C1.34353 11.2793 1.29376 10.2276 1.40967 9.16968C1.63738 7.09478 2.51349 5.33547 3.97661 3.85973C5.19498 2.63074 6.65742 1.78482 8.26236 1.17544C9.83389 0.579009 11.4661 0.250459 13.1399 0.103226C14.7585 -0.0385547 16.377 -0.0385537 17.9895 0.129811C20.0233 0.342481 21.9916 0.816219 23.8229 1.76165C25.6262 2.69208 27.0969 3.97629 28.0623 5.7874C28.7284 7.03684 29.0447 8.38034 29.0952 9.78997C29.0979 9.85677 29.0952 9.92357 29.0911 9.99037C29.0891 10.0149 29.0741 10.0394 29.055 10.0913H19.4219C19.4022 10.0319 19.3647 9.96037 19.3565 9.88608C19.2794 9.13832 18.8833 8.59574 18.2745 8.18812C17.6472 7.76892 16.9375 7.56715 16.2025 7.49422C15.1873 7.39265 14.1708 7.40083 13.1815 7.7137C12.679 7.87252 12.2086 8.10019 11.8213 8.46214C11.19 9.05244 10.8968 9.76543 11.1163 10.6325C11.2479 11.1539 11.597 11.5186 12.0313 11.8083C12.6524 12.2227 13.3485 12.4695 14.0671 12.6283C15.2923 12.8989 16.525 13.1368 17.7597 13.3638C19.7969 13.7373 21.8362 14.0945 23.7922 14.8041C24.9929 15.2397 26.1335 15.787 27.161 16.5552C28.8238 17.7985 29.8997 19.4338 30.3736 21.4487C30.8569 23.5025 30.8515 25.561 30.2713 27.5977C29.5909 29.9848 28.1284 31.7857 26.0469 33.1019C24.444 34.1155 22.6816 34.7188 20.8319 35.091C18.8015 35.4999 16.7486 35.6288 14.6835 35.5497C12.4029 35.4631 10.1577 35.1496 7.99782 34.3691C6.17471 33.7107 4.52273 32.7748 3.17551 31.3576C1.73761 29.8444 0.901731 28.0408 0.617424 25.9788C0.560835 25.5692 0.537654 25.1541 0.504928 24.741C0.494701 24.6108 0.503564 24.4792 0.503564 24.3109L0.504246 24.3102Z" fill="#9A9A9A"/>
<path id="Vector_3" d="M89.1409 34.5872H78.4688C78.2527 33.9417 78.0372 33.2969 77.8211 32.6514C77.6643 32.1824 77.4972 31.7169 77.3547 31.2438C77.2927 31.0386 77.1816 30.9596 76.9777 30.9787C76.8979 30.9862 76.8175 30.9793 76.737 30.9793C73.176 30.9793 69.6157 30.9793 66.0547 30.9793C65.8952 30.9793 65.7363 30.9793 65.5386 30.9793C65.1302 32.1927 64.7273 33.3896 64.3243 34.5879H53.6509C58.0737 23.4248 62.4814 12.2977 66.8879 1.17545H75.9039C80.3117 12.3004 84.7188 23.4254 89.1409 34.5872ZM75.0367 24.2632C74.6221 23.0212 74.2205 21.8222 73.8224 20.6219C73.4276 19.4304 73.0438 18.2355 72.6408 17.0474C72.2386 15.8599 71.8745 14.6596 71.4375 13.4844C71.4034 13.4858 71.37 13.4865 71.3359 13.4879C70.1482 17.0671 68.9605 20.6464 67.7606 24.2632H75.0367Z" fill="#9A9A9A"/>
<path id="Vector_4" d="M138.541 25.4935H154.5C152.791 28.5656 151.118 31.5751 149.44 34.5906H122.268C122.34 34.4536 122.394 34.3405 122.457 34.2328C124.049 31.5546 125.643 28.8778 127.236 26.1997C130.312 21.0281 133.388 15.8572 136.462 10.6849C136.528 10.5745 136.583 10.4573 136.672 10.2876H123.518C123.416 9.96446 123.392 1.69143 123.483 1.18156H152.957C152.896 1.30426 152.849 1.41809 152.787 1.52238C151.583 3.5448 150.378 5.56585 149.174 7.58759C145.698 13.4231 142.223 19.2593 138.748 25.0954C138.688 25.1956 138.639 25.3027 138.54 25.4928L138.541 25.4935Z" fill="#9A9A9A"/>
<path id="Vector_5" d="M49.5061 34.5865H39.4653C39.4571 34.3984 39.4415 34.2157 39.4415 34.0331C39.4401 26.3122 39.4401 18.5913 39.4401 10.8704V10.2828H30.2202V1.22315C30.2202 1.22315 30.2318 1.20951 30.2414 1.19997C30.2509 1.19111 30.2611 1.17816 30.272 1.17679C30.3784 1.16793 30.4848 1.15566 30.5911 1.15566C40.0019 1.15498 49.4133 1.15498 58.8166 1.15498C58.9162 1.44672 58.9489 9.63591 58.8541 10.2664H49.5108C49.5088 11.3236 49.5067 12.3352 49.5061 13.3461C49.5054 14.3494 49.5061 15.3535 49.5061 16.3569C49.5061 17.3739 49.5061 18.3909 49.5061 19.4079C49.5061 20.4249 49.5061 21.4153 49.5061 22.4186C49.5061 23.4356 49.5061 24.4527 49.5061 25.4697V34.5879V34.5865Z" fill="#9A9A9A"/>
</g>
</svg>
