<svg width="165" height="23" viewBox="0 0 165 23" fill="none" xmlns="http://www.w3.org/2000/svg">
<g id="Group 731">
<path id="Vector" d="M15.1008 7.50184C14.7006 8.63612 14.3005 9.76928 13.9003 10.9047C12.774 14.1065 11.6332 17.3027 10.5305 20.5124C10.1067 21.7444 9.07711 22.2374 7.94296 21.8151C7.29777 21.5748 7.09207 21.0043 6.89424 20.445C5.88149 17.579 4.88448 14.7085 3.88297 11.8391C2.80165 8.74057 1.72258 5.64094 0.639019 2.54245C0.358012 1.73834 0.495144 1.03082 1.12235 0.446835C1.62704 -0.0214778 2.47231 -0.137153 3.10514 0.296344C3.49181 0.561384 3.85936 0.99376 4.01673 1.4295C5.51169 5.56795 6.95831 9.72436 8.42067 13.8752C8.5061 14.1177 8.60389 14.3547 8.75226 14.7455C8.87703 14.4401 8.95571 14.2671 9.01866 14.0885C10.4765 9.95571 11.9411 5.82625 13.3776 1.68668C13.5991 1.04879 14.0082 0.598446 14.5084 0.204255C14.8692 -0.0809999 15.7887 -0.000139559 16.1855 0.399667C16.5047 0.721982 16.8217 1.10831 16.9712 1.52609C18.4425 5.6533 19.8768 9.79399 21.3234 13.9302C21.4077 14.1716 21.4999 14.4097 21.6415 14.7916C21.8854 14.1144 22.0821 13.5764 22.2743 13.0362C23.6535 9.15273 25.0293 5.26809 26.4119 1.38571C26.7502 0.434481 27.3392 -0.00575483 28.1766 0.034675C29.3141 0.0897045 30.1212 1.13751 29.7817 2.22575C29.3321 3.66662 28.8038 5.08279 28.3025 6.50794C26.6569 11.1866 25.0181 15.8686 23.3545 20.5416C22.8824 21.8668 22.1473 22.2554 20.9075 21.8926C20.2331 21.6961 20.0263 21.0649 19.8228 20.4888C18.3796 16.411 16.9498 12.3276 15.5155 8.24642C15.4301 8.00272 15.3335 7.76239 15.2424 7.51981C15.1952 7.5142 15.148 7.50858 15.0997 7.50297L15.1008 7.50184Z" fill="#9A9A9A"/>
<path id="Vector_2" d="M63.9894 7.26496V7.90734C63.9894 11.8683 63.9894 15.8293 63.9894 19.7915C63.9894 20.3597 63.9523 20.9112 63.5173 21.3536C62.9362 21.9455 62.219 22.1611 61.5289 21.8613C60.7982 21.5446 60.3992 20.9561 60.3632 20.1565C60.3385 19.5972 60.3576 19.0357 60.3576 18.4753C60.3576 12.9813 60.3554 7.48844 60.3599 1.99448C60.3599 0.715323 61.195 -0.0629519 62.4169 0.0392457C62.9935 0.0875369 63.3588 0.436805 63.6893 0.863565C67.0265 5.15924 70.3671 9.45266 73.7077 13.745C73.9696 14.0808 74.236 14.4121 74.6283 14.731C74.6283 14.5401 74.6283 14.3492 74.6283 14.1582C74.6283 10.104 74.6261 6.04869 74.6294 1.99448C74.6294 0.842228 75.323 0.0617063 76.3425 0.0369992C77.3237 0.0134151 78.1375 0.77709 78.1791 1.76201C78.1836 1.87431 78.1825 1.98662 78.1825 2.0978C78.1825 8.11398 78.1769 14.1313 78.1904 20.1475C78.1926 20.9314 77.7542 21.4188 77.1574 21.7388C76.6077 22.0331 75.9895 21.987 75.4792 21.5524C75.2117 21.3244 74.9408 21.0863 74.7261 20.8112C71.345 16.4785 67.9729 12.1401 64.5975 7.80178C64.4491 7.61086 64.2974 7.42218 64.1479 7.23239C64.095 7.24362 64.0422 7.25373 63.9894 7.26496Z" fill="#9A9A9A"/>
<path id="Vector_3" d="M43.9017 0.0369182C49.6511 -0.121432 54.9363 4.80202 54.9048 11.0417C54.8733 17.2993 49.6601 22.0195 43.8657 21.9914C37.7476 21.9622 32.9087 17.123 32.8941 11.0103C32.8795 4.88064 37.7555 0.01895 43.9028 0.0357957L43.9017 0.0369182ZM43.9242 3.58351C39.772 3.55768 36.4764 6.81004 36.4314 10.9777C36.3876 15.0308 39.7271 18.4044 43.8208 18.4392C47.9617 18.4752 51.3473 15.1262 51.3473 10.9968C51.3473 6.90887 48.0426 3.60822 43.9253 3.58239L43.9242 3.58351Z" fill="#9A9A9A"/>
<path id="Vector_4" d="M85.0669 11.0293C85.0669 8.05884 85.0658 5.08725 85.0669 2.11678C85.0669 0.802808 85.7065 0.152562 87.0283 0.14807C88.6571 0.141331 90.2858 0.135716 91.9145 0.167161C95.3023 0.233421 98.009 1.699 100.066 4.32807C105.045 10.6924 101.853 19.7902 93.9782 21.6882C93.079 21.9049 92.1269 21.9499 91.1974 21.9813C89.8137 22.0285 88.4266 21.997 87.0418 21.9914C85.7852 21.9869 85.068 21.2626 85.0669 19.9991C85.0647 17.0096 85.0669 14.02 85.0669 11.0304V11.0293ZM88.6492 18.3336C89.6091 18.3336 90.5061 18.3336 91.4019 18.3336C93.686 18.3314 95.5642 17.4666 97.0738 15.7461C100.665 11.6515 98.7048 5.2602 93.4128 3.87211C91.9336 3.48465 90.3015 3.68119 88.7391 3.61381C88.7133 3.61381 88.6852 3.65873 88.6492 3.6913V18.3336Z" fill="#9A9A9A"/>
<path id="Vector_5" d="M138.742 12.4028C139.667 14.2783 140.574 16.1178 141.48 17.9563C141.728 18.4583 141.981 18.958 142.218 19.4657C142.648 20.3877 142.289 21.5074 141.439 21.9184C140.528 22.3598 139.531 22.0082 139.046 21.0301C137.769 18.456 136.502 15.8764 135.253 13.2889C135.071 12.9127 134.858 12.7756 134.443 12.7925C133.604 12.8262 132.762 12.8026 131.864 12.8026C131.85 13.0766 131.826 13.3125 131.826 13.5472C131.823 15.7888 131.844 18.0304 131.816 20.272C131.797 21.7836 130.367 22.627 129.113 21.9038C128.625 21.6219 128.343 21.2075 128.303 20.6404C128.292 20.473 128.285 20.3046 128.285 20.1361C128.285 14.1211 128.276 8.10487 128.3 2.08981C128.302 1.63048 128.435 1.12511 128.656 0.723056C128.918 0.250252 129.426 0.0323809 129.992 0.034627C132.369 0.0413653 134.747 -0.0091735 137.122 0.0716862C139.882 0.164899 142.527 2.46491 143.079 5.11756C143.645 7.83871 142.241 10.5857 139.566 11.9895C139.304 12.1265 139.038 12.2534 138.74 12.4017L138.742 12.4028ZM131.858 9.14706C133.399 9.14706 134.873 9.12011 136.348 9.15717C137.173 9.17739 137.899 8.95053 138.552 8.48671C139.789 7.60961 140.015 5.97781 139.082 4.78626C138.416 3.93611 137.519 3.52619 136.456 3.50822C135.054 3.48576 133.653 3.50036 132.25 3.50373C132.127 3.50373 132.005 3.53855 131.859 3.56101V9.14594L131.858 9.14706Z" fill="#9A9A9A"/>
<path id="Vector_6" d="M111.228 3.61498V9.25382C111.448 9.25382 111.646 9.25382 111.843 9.25382C113.864 9.25382 115.885 9.24821 117.906 9.25719C118.788 9.26168 119.413 9.74347 119.655 10.5588C119.864 11.2686 119.634 12.0244 118.966 12.4051C118.598 12.614 118.121 12.7128 117.692 12.7196C115.766 12.7521 113.838 12.733 111.91 12.7364C111.691 12.7364 111.471 12.7589 111.229 12.7712V18.3663C111.474 18.3663 111.692 18.3663 111.909 18.3663C114.679 18.3663 117.448 18.3663 120.218 18.3663C120.791 18.3663 121.334 18.4359 121.762 18.884C122.285 19.4309 122.502 20.0598 122.232 20.7786C121.949 21.531 121.351 21.9724 120.559 21.978C116.836 22.0027 113.112 22.0005 109.388 21.9814C108.437 21.9769 107.655 21.157 107.652 20.1957C107.643 14.0504 107.643 7.90616 107.652 1.76082C107.653 0.78377 108.454 0.0425569 109.49 0.0380647C111.492 0.0302034 113.495 0.047048 115.497 0.0526632C117.124 0.0571554 118.753 0.0560325 120.381 0.0650169C121.489 0.0706321 122.261 0.788263 122.297 1.82933C122.33 2.78842 121.55 3.59926 120.49 3.67338C120.081 3.70258 119.667 3.66889 119.256 3.66552C116.785 3.64755 114.316 3.63071 111.845 3.61386C111.661 3.61274 111.477 3.61386 111.226 3.61386L111.228 3.61498Z" fill="#9A9A9A"/>
<path id="Vector_7" d="M155.564 7.8691C156.41 6.82353 157.206 5.8375 158.003 4.85146C159.12 3.47123 160.228 2.08426 161.354 0.711892C161.902 0.0447997 162.668 -0.156228 163.358 0.140258C164.06 0.441235 164.556 1.19031 164.428 1.93153C164.362 2.31336 164.157 2.70755 163.914 3.01639C161.891 5.58593 159.854 8.14425 157.797 10.6857C157.435 11.1338 157.269 11.574 157.275 12.1547C157.301 14.8623 157.294 17.5711 157.28 20.2788C157.274 21.339 156.559 22.0162 155.504 22.0195C154.446 22.0229 153.71 21.3019 153.706 20.2272C153.697 17.4633 153.716 14.6984 153.686 11.9345C153.683 11.5797 153.539 11.163 153.32 10.8834C151.256 8.25094 149.161 5.64433 147.078 3.02762C146.312 2.06629 146.363 1.08025 147.199 0.41316C148.044 -0.261794 149.1 -0.101198 149.856 0.832058C151.61 2.99505 153.357 5.16254 155.107 7.32891C155.235 7.48726 155.37 7.63999 155.563 7.87022L155.564 7.8691Z" fill="#9A9A9A"/>
</g>
</svg>
