<svg width="240" height="36" viewBox="0 0 240 36" fill="none" xmlns="http://www.w3.org/2000/svg">
<g clip-path="url(#clip0_6203_13229)">
<path d="M16.1295 36.0001C10.925 36.0001 6.93559 34.8494 4.16135 32.548C1.38712 30.2466 0 26.9643 0 22.7009C0 18.5383 1.29254 15.2135 3.87762 12.7265C6.46271 10.2396 10.0795 8.99609 14.7281 8.99609C18.9468 8.99609 22.1194 10.0566 24.2459 12.1777C26.3724 14.2988 27.4357 17.3107 27.4357 21.2135V24.077H8.59784C8.64205 25.107 8.91727 26.1174 9.40603 27.0438C9.83266 27.8126 10.459 28.4713 11.2288 28.9607C12.0084 29.4545 12.8845 29.803 13.8081 29.9868C14.867 30.201 15.9484 30.3051 17.0323 30.297C18.025 30.299 19.0145 30.1949 19.9814 29.9868C20.8936 29.8049 21.7837 29.5385 22.6381 29.1914C23.3097 28.9145 23.9616 28.5983 24.5898 28.2449C25.1917 27.9029 25.6731 27.6006 26.0514 27.3381H26.9628V33.8843L25.0369 34.6002C24.2557 34.876 23.454 35.0993 22.6381 35.2683C21.6955 35.4942 20.7395 35.6695 19.775 35.7933C18.5664 35.9391 17.3484 36.0082 16.1295 36.0001ZM18.9754 19.2489C19.0339 17.8633 18.5889 16.4995 17.7115 15.3752C17.2515 14.9117 16.6833 14.5511 16.0502 14.321C15.4171 14.0908 14.7356 13.9971 14.0575 14.0469C13.334 14.0096 12.6103 14.1151 11.9343 14.3565C11.2583 14.5979 10.6456 14.9695 10.1368 15.4468C9.15004 16.5038 8.60419 17.8523 8.59784 19.2489H18.9754Z" fill="white"/>
<path d="M57.6738 35.3159H49.076V22.6769C49.076 21.6482 49.0301 20.6247 48.9384 19.6066C48.907 18.8327 48.7355 18.0691 48.4311 17.3477C48.173 16.8108 47.7197 16.3746 47.1501 16.1148C46.4409 15.8389 45.6747 15.7113 44.906 15.741C44.1719 15.7458 43.4445 15.8697 42.7566 16.1068C41.9237 16.3961 41.1347 16.7837 40.4094 17.2602V35.3159H31.8115V9.80723H40.4094V12.6389C41.664 11.6299 43.0435 10.7621 44.5191 10.0538C45.9128 9.41516 47.4522 9.09598 49.0072 9.12319C51.8216 9.12319 53.9739 9.9451 55.4642 11.5889C56.9545 13.2328 57.6996 15.619 57.6996 18.7476L57.6738 35.3159Z" fill="white"/>
<path d="M72.4199 36.0002C70.483 36.01 68.5518 35.8043 66.6679 35.3878C65.1223 35.0647 63.62 34.5846 62.1885 33.956V27.2428H62.9021C63.3091 27.5292 63.7762 27.8473 64.3035 28.1973C64.9904 28.627 65.722 28.9921 66.4874 29.287C67.3601 29.657 68.2664 29.9551 69.1957 30.1779C70.2652 30.4347 71.3666 30.5604 72.4715 30.5517C73.5607 30.5698 74.6436 30.3943 75.6613 30.0347C76.0539 29.9337 76.4007 29.718 76.6501 29.4199C76.8995 29.1218 77.0382 28.7572 77.0455 28.3803C77.0646 28.128 77.0183 27.8753 76.9107 27.6429C76.803 27.4105 76.637 27.2052 76.4265 27.044C75.6636 26.6147 74.821 26.3207 73.9417 26.177C73.2883 26.0232 72.4629 25.8615 71.4655 25.6918C70.559 25.5405 69.6632 25.3386 68.783 25.0873C66.9012 24.6282 65.2062 23.6686 63.908 22.3272C62.7707 20.9652 62.1919 19.2743 62.2745 17.5548C62.28 16.4457 62.5749 15.3542 63.1342 14.3732C63.741 13.3203 64.589 12.4028 65.619 11.6847C66.8433 10.8545 68.2174 10.2324 69.6772 9.84733C71.4482 9.37443 73.2851 9.1466 75.1282 9.17124C76.9186 9.15619 78.7048 9.33505 80.4503 9.70416C81.8604 9.99329 83.2325 10.4227 84.5428 10.9848V17.4434H83.855C83.4075 17.1344 82.9426 16.8477 82.4622 16.5844C81.8588 16.2457 81.236 15.9377 80.5964 15.6617C79.8404 15.3276 79.0516 15.0612 78.2406 14.8663C77.345 14.6688 76.4272 14.5701 75.5065 14.572C74.4226 14.5417 73.3458 14.7432 72.3597 15.1606C71.9969 15.2753 71.6798 15.4884 71.4498 15.7721C71.2198 16.0559 71.0874 16.3971 71.07 16.7514C71.0578 17.0079 71.1086 17.2637 71.2189 17.4993C71.3291 17.7349 71.4958 17.9443 71.7063 18.1116C72.5425 18.6006 73.4743 18.933 74.449 19.0899C75.1827 19.2543 76.0425 19.416 77.0283 19.5751C77.9635 19.7295 78.8858 19.9448 79.7882 20.2194C81.5113 20.6672 83.0616 21.5581 84.2591 22.7886C85.3367 24.0891 85.8792 25.7017 85.7895 27.3383C85.7899 28.5273 85.4771 29.6985 84.8782 30.7506C84.2656 31.8393 83.3814 32.7772 82.2988 33.4867C81.0393 34.3264 79.631 34.9562 78.1375 35.348C76.275 35.8165 74.3496 36.0361 72.4199 36.0002Z" fill="white"/>
<path d="M104.034 36.0001C98.8295 36.0001 94.8401 34.8494 92.0659 32.548C89.2916 30.2466 87.893 26.9643 87.8701 22.7009C87.8701 18.533 89.1627 15.2082 91.7477 12.7265C94.3328 10.2449 97.9497 9.0014 102.598 8.99609C106.823 8.99609 109.998 10.0566 112.125 12.1777C114.251 14.2988 115.314 17.3107 115.314 21.2135V24.077H96.468C96.5069 25.1179 96.7823 26.1396 97.2762 27.0756C97.7028 27.8444 98.3291 28.5031 99.0989 28.9926C99.8785 29.4863 100.755 29.8348 101.678 30.0186C102.737 30.233 103.819 30.337 104.902 30.3288C105.895 30.3308 106.885 30.2267 107.851 30.0186C108.764 29.8369 109.654 29.5704 110.508 29.2232C111.18 28.9463 111.832 28.6301 112.46 28.2767C113.062 27.9347 113.543 27.6324 113.922 27.3699H114.833V33.8843L112.907 34.6002C112.129 34.8759 111.33 35.0992 110.517 35.2683C109.566 35.4976 108.601 35.6756 107.628 35.8012C106.436 35.9422 105.235 36.0086 104.034 36.0001ZM106.88 19.2489C106.939 17.8632 106.494 16.4992 105.616 15.3752C105.156 14.9112 104.588 14.5504 103.955 14.3202C103.322 14.09 102.64 13.9965 101.962 14.0469C101.234 14.0062 100.506 14.11 99.8249 14.3515C99.1442 14.5929 98.5273 14.9664 98.0156 15.4468C97.0175 16.5024 96.4622 17.8544 96.4508 19.2568L106.88 19.2489Z" fill="white"/>
<path d="M152.612 35.3161V22.5896C152.612 21.3329 152.586 20.2724 152.534 19.408C152.516 18.687 152.364 17.9743 152.087 17.3002C151.875 16.7875 151.469 16.3635 150.944 16.1071C150.261 15.826 149.515 15.6979 148.768 15.7332C148.098 15.7358 147.435 15.8714 146.825 16.1309C146.097 16.4458 145.4 16.8212 144.745 17.2525V35.3161H136.147V22.5896C136.147 21.3488 136.118 20.2883 136.061 19.408C136.034 18.682 135.88 17.9647 135.605 17.2843C135.392 16.772 134.986 16.3482 134.462 16.0912C133.794 15.8305 133.075 15.7029 132.35 15.7166C131.626 15.7303 130.913 15.8851 130.257 16.1707C129.576 16.4805 128.921 16.8367 128.297 17.2366V35.3161H119.699V9.80748H128.297V12.6391C129.518 11.6525 130.846 10.7861 132.261 10.0541C133.549 9.42224 134.99 9.10211 136.448 9.12343C138.009 9.09379 139.546 9.48036 140.876 10.237C142.199 11.0228 143.224 12.1713 143.808 13.522C145.217 12.2653 146.781 11.1655 148.468 10.245C149.815 9.50893 151.348 9.1139 152.913 9.09957C154.088 9.07951 155.256 9.27133 156.352 9.66431C157.349 10.0288 158.234 10.6131 158.931 11.3665C159.717 12.2188 160.302 13.2128 160.651 14.2856C161.077 15.7228 161.271 17.2104 161.227 18.7001V35.3161H152.612Z" fill="white"/>
<path d="M194.698 22.2077C194.698 26.2643 193.584 29.544 191.354 32.0468C190.381 33.2234 189.126 34.1745 187.687 34.8247C186.249 35.4749 184.667 35.8065 183.066 35.7932C181.855 35.8133 180.647 35.6713 179.48 35.3716C178.355 35.0416 177.274 34.5961 176.256 34.0433L175.886 35.316H167.658V0H176.256V12.4799C177.435 11.5334 178.731 10.7191 180.116 10.0539C181.53 9.41068 183.09 9.09149 184.665 9.12329C186.12 9.06642 187.567 9.35529 188.867 9.96237C190.168 10.5694 191.278 11.4745 192.093 12.5913C193.824 14.9085 194.693 18.114 194.698 22.2077ZM185.886 22.3906C185.886 19.8612 185.467 18.053 184.63 16.966C184.183 16.4243 183.596 15.9949 182.923 15.717C182.25 15.4391 181.513 15.3216 180.778 15.3752C179.999 15.3784 179.224 15.4938 178.483 15.7172C177.696 15.9509 176.946 16.2827 176.256 16.7035V29.43C176.808 29.6366 177.386 29.7808 177.976 29.8595C178.545 29.932 179.12 29.9692 179.695 29.9708C180.579 30.029 181.465 29.8861 182.276 29.5548C183.087 29.2234 183.798 28.7136 184.347 28.0698C185.367 26.8131 185.88 24.92 185.886 22.3906Z" fill="white"/>
<path d="M207.99 35.316H199.393V0H207.99V35.316Z" fill="white"/>
<path d="M228.703 35.9999C223.498 35.9999 219.509 34.8492 216.735 32.5479C213.96 30.2465 212.573 26.9668 212.573 22.7087C212.573 18.5408 213.866 15.216 216.451 12.7344C219.036 10.2527 222.653 9.00921 227.301 9.00391C231.52 9.00391 234.695 10.0644 236.828 12.1855C238.96 14.3066 240.018 17.3185 240.018 21.2213V24.0848H221.154C221.195 25.1264 221.473 26.1482 221.971 27.0834C222.397 27.8524 223.023 28.5111 223.793 29.0004C224.573 29.4939 225.449 29.8424 226.373 30.0264C227.432 30.2409 228.513 30.345 229.597 30.3367C230.59 30.3386 231.579 30.2345 232.546 30.0264C233.458 29.8444 234.348 29.5779 235.203 29.231C235.874 28.9536 236.526 28.6374 237.154 28.2845C237.748 27.9425 238.238 27.6402 238.616 27.3777H239.527V33.8842L237.602 34.6C236.82 34.8757 236.019 35.099 235.203 35.2682C234.255 35.4972 233.293 35.6752 232.322 35.8011C231.122 35.9431 229.913 36.0095 228.703 35.9999ZM231.54 19.2487C231.598 17.8632 231.153 16.4996 230.276 15.3751C229.816 14.9115 229.248 14.551 228.615 14.3209C227.982 14.0907 227.3 13.997 226.622 14.0468C225.896 14.0072 225.169 14.1116 224.49 14.353C223.811 14.5944 223.195 14.9673 222.684 15.4467C221.687 16.5027 221.132 17.8544 221.119 19.2567L231.54 19.2487Z" fill="white"/>
</g>
<defs>
<clipPath id="clip0_6203_13229">
<rect width="240" height="36" fill="white"/>
</clipPath>
</defs>
</svg>
