<svg width="33" height="26" viewBox="0 0 33 26" fill="none" xmlns="http://www.w3.org/2000/svg">
<g id="iOS" clip-path="url(#clip0_353_47810)">
<g id="Layer 2">
<g id="AEM Logo - Light">
<path id="Vector" fill-rule="evenodd" clip-rule="evenodd" d="M2.03053 20.894H0.663851V8.79932H2.03053V20.894ZM1.3741 6.21891C1.13995 6.21891 0.915379 6.12589 0.749804 5.96032C0.58423 5.79474 0.491211 5.57018 0.491211 5.33602C0.491211 5.10186 0.58423 4.87729 0.749804 4.71172C0.915379 4.54614 1.13995 4.45313 1.3741 4.45312C1.60826 4.45313 1.83283 4.54614 1.9984 4.71172C2.16398 4.87729 2.257 5.10186 2.257 5.33602C2.257 5.57018 2.16398 5.79474 1.9984 5.96032C1.83283 6.12589 1.60826 6.21891 1.3741 6.21891Z" fill="#9A9A9A"/>
<path id="Vector_2" d="M11.4507 4.45312C7.00344 4.45312 4.20312 7.64007 4.20312 12.6965C4.20312 17.753 7.00213 20.9294 11.4507 20.9294C15.9105 20.9294 18.7095 17.7543 18.7095 12.6965C18.7095 7.63876 15.898 4.45312 11.4507 4.45312ZM11.4507 19.5247C7.95526 19.5247 5.75295 16.8799 5.75295 12.6978C5.75295 8.50393 7.95395 5.85985 11.4507 5.85985C14.9475 5.85985 17.1616 8.50393 17.1616 12.6978C17.1597 16.8799 14.9462 19.5247 11.4507 19.5247Z" fill="#9A9A9A"/>
<path id="Vector_3" d="M26.1346 20.9294C22.794 20.9294 20.4467 19.0809 20.2812 16.3344H21.7969C21.9624 18.2492 23.7662 19.5509 26.2665 19.5509C28.6572 19.5509 30.3712 18.2453 30.3712 16.4519C30.3712 14.9579 29.3412 14.073 26.9748 13.475L24.9964 12.9722C22.0424 12.2206 20.7243 10.9695 20.7243 8.86825C20.7243 6.29046 23.0487 4.45312 26.1897 4.45312C29.2992 4.45312 31.579 6.29112 31.667 8.82427H30.15C30.0055 7.02106 28.4124 5.82571 26.1458 5.82571C23.9316 5.82571 22.2945 7.05388 22.2945 8.81245C22.2945 10.185 23.2903 10.9924 25.6357 11.5904L27.3621 12.0335C30.5714 12.8409 31.9217 14.0685 31.9217 16.2937C31.9223 19.0927 29.6642 20.9294 26.1346 20.9294Z" fill="#9A9A9A"/>
</g>
</g>
</g>
<defs>
<clipPath id="clip0_353_47810">
<rect width="32.117" height="25.384" fill="white" transform="translate(0.118164)"/>
</clipPath>
</defs>
</svg>
