<svg width="116" height="39" viewBox="0 0 116 39" fill="none" xmlns="http://www.w3.org/2000/svg">
<g id="Twitch_Black 1" clip-path="url(#clip0_1338_1681)">
<g id="Layer 2">
<g id="Layer 1">
<path id="Vector" d="M115.556 31.9916C115.458 32.0436 115.361 32.0827 115.27 32.1412L105.92 38.3863C105.763 38.4858 105.581 38.5398 105.395 38.5424C103.406 38.5424 101.417 38.5424 99.4275 38.5424H99.097V35.2637L97.8011 36.207C96.7773 36.9421 95.7599 37.6772 94.7297 38.4058C94.6179 38.4835 94.4889 38.5326 94.3538 38.5489H88.7424H88.6063V35.2963L88.3342 35.5565C87.3881 36.5062 86.4421 37.4625 85.4896 38.3993C85.3758 38.5033 85.2287 38.5633 85.0749 38.5684C81.7314 38.5684 78.3835 38.5684 75.0313 38.5684C74.87 38.5598 74.7166 38.4955 74.5972 38.3863C73.6511 37.4495 72.7094 36.5084 71.772 35.563L71.5063 35.3028L70.8584 38.5554H70.5344C67.666 38.5554 64.7977 38.5554 61.9293 38.5554C61.7469 38.5489 61.5717 38.4826 61.4304 38.3667C60.3936 37.482 59.3763 36.5778 58.3525 35.6801L57.886 35.2833L57.6721 38.5359H47.1815L46.8121 35.2833L46.5076 35.6215C45.7365 36.5258 44.9589 37.43 44.1943 38.3407C44.137 38.4142 44.0629 38.4726 43.9783 38.5111C43.8937 38.5496 43.8011 38.5671 43.7083 38.5619H28.2736C28.1139 38.5607 27.9557 38.5298 27.8071 38.4708C26.8783 38.0892 25.9539 37.7119 25.0338 37.3389L24.807 37.2543V38.5554H16.4805C16.3054 38.5532 16.1336 38.5062 15.9816 38.4188C12.8152 36.5149 9.65522 34.611 6.50176 32.7072C6.37423 32.6286 6.25673 32.5346 6.15185 32.4275C4.29865 30.58 2.46489 28.726 0.61169 26.8785C0.544436 26.8143 0.491696 26.7364 0.457041 26.65C0.422386 26.5635 0.406623 26.4707 0.410819 26.3776C0.410819 17.7907 0.410819 9.20595 0.410819 0.623382V0.259089H12.6381C12.7308 0.254876 12.8233 0.270701 12.9094 0.305493C12.9954 0.340284 13.0731 0.393231 13.137 0.460751C14.9556 2.3039 16.7851 4.14054 18.6253 5.97068C18.7508 6.0893 18.9134 6.16057 19.0854 6.17234C27.8892 6.17234 36.6951 6.17234 45.5032 6.17234H45.8013V0.259089H68.1758V6.1138H74.1047V9.40545C74.2408 9.28835 74.3185 9.21679 74.3898 9.14524C75.3294 8.20198 76.2689 7.25221 77.215 6.32196C77.3364 6.21184 77.4921 6.14746 77.6556 6.13982C79.647 6.13982 81.6363 6.13982 83.6234 6.13982C83.7441 6.14962 83.8654 6.13123 83.9778 6.08608C84.0903 6.04094 84.1907 5.97027 84.2714 5.87961C86.0814 4.04513 87.8979 2.2215 89.7208 0.408709C89.8311 0.301333 89.9758 0.236779 90.1291 0.226562C94.1465 0.226562 98.1639 0.226562 102.181 0.226562H102.421V6.17885H109.335C109.433 6.17508 109.53 6.19229 109.62 6.2293C109.711 6.26632 109.793 6.32231 109.86 6.39352C111.668 8.22149 113.488 10.043 115.303 11.8644C115.381 11.9425 115.471 12.001 115.556 12.0726V31.9916ZM18.8456 8.84599V29.9425H19.0983H40.9868C41.1307 29.9382 41.2685 29.8829 41.3756 29.7863C42.8012 28.3682 44.2224 26.9435 45.6393 25.5124C45.7481 25.3905 45.8101 25.2337 45.8142 25.07C45.8142 19.7704 45.8142 14.4643 45.8142 9.15174C45.8142 9.04766 45.8142 8.94357 45.8142 8.84599H38.5569V22.6631H35.9651V8.8525H28.7078V22.6696H26.0705V8.84599H18.8456ZM112.918 29.936C112.918 29.8449 112.918 29.7798 112.918 29.7083C112.918 24.361 112.918 19.0137 112.918 13.6664C112.91 13.5139 112.845 13.37 112.737 13.263C111.344 11.8514 109.938 10.4528 108.544 9.04766C108.475 8.97218 108.389 8.91319 108.294 8.87495C108.199 8.8367 108.096 8.82015 107.994 8.82648H99.7644V2.90672H92.5395V29.9295H99.7903V16.1253H105.68V29.936H112.918ZM71.448 22.6891H65.558V16.0928H71.4416V8.82648H65.5256V2.91322H58.2942V25.031C58.29 25.1241 58.3058 25.217 58.3404 25.3034C58.3751 25.3898 58.4278 25.4677 58.4951 25.5319C59.9076 26.9305 61.3202 28.3617 62.7198 29.7603C62.8483 29.8765 63.0136 29.9434 63.1864 29.949C65.8431 29.949 68.4998 29.949 71.1564 29.949H71.4675L71.448 22.6891ZM16.1954 16.1058V8.82648H10.2924V2.91973H3.04159V3.20596C3.04159 10.5005 3.04159 17.7929 3.04159 25.0831C3.04935 25.2554 3.11831 25.4192 3.23598 25.5449C4.62264 26.9566 6.02874 28.3552 7.42188 29.7668C7.48341 29.8299 7.55708 29.8797 7.6384 29.9132C7.71972 29.9468 7.80699 29.9634 7.8949 29.962H16.1954V22.6891H10.3183V16.1058H16.1954ZM89.8893 8.83298H89.5977C86.0468 8.83298 82.5024 8.83298 78.9515 8.83298C78.7892 8.83694 78.6343 8.90195 78.5174 9.01513C77.1048 10.4246 75.6922 11.8427 74.2797 13.2696C74.17 13.3915 74.1058 13.5478 74.0982 13.7119C74.0982 17.511 74.0982 21.3122 74.0982 25.1156C74.1039 25.2794 74.171 25.4351 74.2861 25.5514C75.6771 26.9696 77.0832 28.3812 78.5044 29.7863C78.6223 29.8971 78.7771 29.9598 78.9386 29.962H89.8634V22.6826H81.362V16.0928H89.8893V8.83298ZM48.458 8.83298V29.9295H55.6764V8.84599L48.458 8.83298ZM48.458 6.16584H55.6764V2.91322H48.4515L48.458 6.16584Z" fill="#9A9A9A"/>
</g>
</g>
</g>
<defs>
<clipPath id="clip0_1338_1681">
<rect width="115.145" height="38.2963" fill="white" transform="translate(0.411133 0.257812)"/>
</clipPath>
</defs>
</svg>
