<svg width="98" height='21' fill="none" xmlns="http://www.w3.org/2000/svg">
<style>
    g {
       transform: translateY(-5px);
    }
</style>
<g clip-path="url(#clip0_807_3520)"  >
<path d="M5.19192 26.3671C6.59869 26.3671 8.00547 26.3406 9.4081 26.3787C10.0701 26.3969 10.2729 26.1478 10.2671 25.509C10.2433 22.776 10.2433 20.0424 10.2671 17.3083C10.272 16.7141 10.0908 16.4808 9.46686 16.4808C6.65662 16.504 3.8461 16.504 1.03531 16.4808C0.412196 16.4758 0.22766 16.7125 0.232625 17.3083C0.248348 20.073 0.256623 22.8394 0.226833 25.6025C0.219385 26.2546 0.501567 26.3836 1.07007 26.3737C2.44374 26.3489 3.81824 26.3654 5.19192 26.3671ZM34.2699 18.9501C33.3158 16.5205 32.408 14.2076 31.4969 11.8963C30.6429 9.72743 30.6421 9.74481 28.3242 9.80936C27.7491 9.82425 27.5729 10.0096 27.5795 10.5715C27.5985 14.1795 27.6109 17.7883 27.5745 21.3962C27.5662 22.2684 28.0967 22.141 28.6213 22.1459C29.16 22.1542 29.6714 22.2469 29.6549 21.3879C29.6077 18.9004 29.6317 16.4113 29.6342 13.9229C29.6342 13.6945 29.5275 13.4446 29.7906 13.1616C29.947 13.5373 30.0885 13.8691 30.2234 14.2026C31.1767 16.5693 32.1424 18.9311 33.07 21.3077C33.286 21.8588 33.526 22.1733 34.1988 22.1691C34.8715 22.165 35.1214 21.8662 35.3349 21.311C36.3056 18.7838 37.3053 16.2681 38.3057 13.7525C38.381 13.5605 38.3347 13.2419 38.7137 13.2369C38.7137 15.8328 38.7476 18.413 38.6947 20.9916C38.6773 21.8447 38.8386 22.1981 39.801 22.1799C40.6865 22.1633 40.967 21.9507 40.9488 21.0371C40.8901 17.9902 40.9256 14.9408 40.9265 11.8922C40.9265 9.80274 40.9265 9.8317 38.7906 9.80439C38.1079 9.79612 37.8059 10.0353 37.5676 10.6559C36.5158 13.3809 35.4127 16.0869 34.2699 18.9501ZM21.019 10.6203C21.019 9.22182 21.0074 7.82249 21.0247 6.42399C21.0305 5.91424 20.942 5.60972 20.3139 5.61468C17.4706 5.63868 14.6264 5.63372 11.7831 5.62213C11.2948 5.62213 11.1211 5.80915 11.1211 6.28414C11.1315 9.14404 11.1315 12.0039 11.1211 14.8638C11.1211 15.3686 11.2866 15.5821 11.8286 15.578C14.6421 15.5564 17.4557 15.5564 20.2692 15.578C20.8369 15.578 21.0454 15.3843 21.0355 14.82C21.0049 13.419 21.019 12.0196 21.019 10.6203ZM5.27798 5.63289C3.8712 5.63289 2.46443 5.66351 1.06345 5.61965C0.38737 5.59813 0.21111 5.84887 0.222695 6.48523C0.274001 9.24913 0.293034 12.013 0.298826 14.7769C0.298826 15.3223 0.454399 15.5523 1.04359 15.5473C3.85328 15.5269 6.66324 15.5291 9.47348 15.554C10.0618 15.5598 10.2182 15.3413 10.2116 14.7893C10.1918 11.994 10.1884 9.19865 10.2174 6.40331C10.2232 5.77688 9.99729 5.60393 9.399 5.61882C8.02698 5.65358 6.65165 5.6271 5.27798 5.63289ZM16.1689 26.3737V26.3679C17.5417 26.3679 18.9146 26.3555 20.2874 26.3745C20.8187 26.3812 21.0951 26.2339 21.0918 25.6422C21.0736 22.8485 21.0736 20.0548 21.0918 17.2611C21.0918 16.734 20.8824 16.5544 20.3677 16.5569C17.5597 16.5707 14.7516 16.5707 11.9436 16.5569C11.3643 16.5569 11.1988 16.7787 11.1988 17.329C11.1851 20.0598 11.1495 22.7906 11.0921 25.5214C11.078 26.1677 11.3097 26.4027 11.9626 26.3861C13.3603 26.3497 14.7646 26.3737 16.1689 26.3737ZM87.5221 18.5818C87.5221 19.5145 87.5685 20.4504 87.5081 21.3797C87.4526 22.2353 87.9855 22.1592 88.5317 22.1451C89.0779 22.1311 89.6902 22.3015 89.6546 21.3681C89.6033 19.9712 89.6422 18.5703 89.6422 17.1709C89.6422 15.0037 89.6422 15.0252 91.8442 15.0583C92.4516 15.0674 92.6627 15.2478 92.6535 15.8593C92.6329 17.2255 92.6345 18.5959 92.7049 19.9605C92.824 22.2858 94.8969 22.6499 96.4642 22.1534C97.2413 21.9051 96.8581 21.1902 96.854 20.6953C96.849 20.1376 96.4047 20.4768 96.1473 20.5116C95.3123 20.6258 94.8854 20.2245 94.8382 19.4408C94.7902 18.6348 94.8134 17.8247 94.8142 17.0162C94.8142 16.4576 94.6677 15.8254 94.8787 15.3612C95.1568 14.7422 95.8833 15.1609 96.4063 15.079C97.1196 14.9673 96.8416 14.4434 96.8788 14.0628C96.9161 13.6821 96.9442 13.3064 96.3583 13.2899C95.8726 13.2766 95.2536 13.5323 94.93 13.136C94.6065 12.7396 94.8539 12.1165 94.8117 11.596C94.8038 11.4717 94.8038 11.347 94.8117 11.2228C94.8324 10.8413 94.6785 10.7635 94.2986 10.8264C92.9217 11.0548 92.7123 11.2559 92.6486 12.6072C92.632 12.9638 92.6544 13.3089 92.1339 13.2982C91.4785 13.2849 90.8214 13.2982 90.1652 13.2982C89.9798 13.2982 89.7432 13.3056 89.7051 13.0764C89.6042 12.4591 89.5603 11.8351 89.8921 11.2625C90.1619 10.7974 90.6088 10.6923 91.1061 10.7511C91.4785 10.7949 91.9816 11.0887 91.9253 10.3448C91.884 9.79446 92.2414 9.05466 91.1855 8.96943C88.9124 8.78407 87.5064 10.0303 87.4766 12.3473C87.47 12.8571 87.5486 13.4115 86.7492 13.2998C85.9499 13.1881 86.0202 13.7061 86.0045 14.2291C85.9904 14.7711 86.0657 15.175 86.7492 15.0757C87.3972 14.9805 87.5561 15.3032 87.5345 15.8841C87.4973 16.777 87.5221 17.6799 87.5221 18.5818ZM70.1253 19.8877C69.93 20.4198 70.0558 20.9163 70.0243 21.4012C70.0028 21.7322 70.1898 21.9159 70.4911 22.0086C71.7439 22.3967 72.9976 22.5167 74.2447 21.9879C75.2476 21.5625 75.8625 20.8236 75.9419 19.7279C76.0246 18.6149 75.4743 17.8247 74.5062 17.3191C73.955 17.0303 73.3783 16.7894 72.8213 16.5106C72.3919 16.2954 72.1304 15.9561 72.2545 15.4563C72.3712 14.9904 72.7717 14.8448 73.1896 14.8166C73.7841 14.771 74.3799 14.8877 74.9133 15.1543C75.0664 15.2304 75.236 15.3827 75.4098 15.1981C75.7027 14.8895 75.4007 13.4248 74.996 13.3164C73.7548 12.9854 72.5234 12.9332 71.3616 13.5878C70.4762 14.0843 70.0169 14.8473 70.0301 15.8808C70.0428 16.8788 70.49 17.6048 71.3715 18.0589C71.9243 18.3452 72.5003 18.5885 73.053 18.8764C73.4792 19.0982 73.8988 19.3796 73.7374 19.9522C73.5843 20.4934 73.1077 20.5654 72.6153 20.6018C71.7092 20.6688 70.9495 20.198 70.1253 19.8877ZM46.3525 17.8412C46.3293 21.234 49.55 23.3475 52.6921 22.0011C53.1753 21.7943 53.5444 20.4876 53.2481 20.059C53.1215 19.8761 52.9858 19.953 52.8468 20.0168C52.6192 20.1194 52.4016 20.2468 52.1674 20.3304C50.9741 20.7599 49.7552 20.4727 49.099 19.6195C48.4428 18.7664 48.3766 17.041 48.9749 16.0612C49.5732 15.0815 50.7077 14.6545 51.92 14.959C52.2187 15.0343 52.4943 15.1973 52.7823 15.3156C52.9395 15.3802 53.0951 15.5498 53.2515 15.295C53.6487 14.647 53.1422 13.419 52.3933 13.2328C49.0866 12.4127 46.3756 14.4815 46.3525 17.8412ZM56.9844 14.3532C57.1217 12.853 56.0691 13.3602 55.398 13.3023C54.4638 13.2278 54.76 13.9577 54.755 14.4112C54.7319 16.6786 54.7741 18.9468 54.7294 21.2142C54.7153 21.9689 54.9868 22.1435 55.7001 22.1699C56.5946 22.203 57.0175 22.0276 56.9198 21.0114C56.8172 19.9357 56.9091 18.8392 56.8925 17.7518C56.8834 17.1494 57.0191 16.5751 57.2061 16.0141C57.4238 15.3628 58.3051 14.8812 58.8901 15.0351C59.9858 15.3239 59.9858 15.3239 59.9758 14.1654C59.9676 13.2071 59.7632 13.0325 58.8173 13.1467C58.0419 13.2402 57.5024 13.6796 56.9844 14.3532ZM42.8198 17.6898C42.8198 18.869 42.8802 20.0523 42.8008 21.2266C42.7379 22.1493 43.2443 22.1277 43.8914 22.1162C44.5063 22.1046 45.0417 22.2072 45.0127 21.2539C44.9465 19.0519 44.992 16.8465 44.9912 14.6429C44.9912 13.2692 44.9912 13.3114 43.6283 13.2783C42.9274 13.2617 42.79 13.5365 42.8091 14.1513C42.8471 15.3297 42.8206 16.5097 42.8198 17.6898ZM42.6402 10.828C42.6402 11.4834 43.2253 12.047 43.9138 12.0561C44.6023 12.0652 45.1915 11.5107 45.2064 10.8512C45.2237 10.118 44.6519 9.56855 43.8923 9.58841C43.1756 9.60744 42.6386 10.1387 42.6402 10.828Z" fill="#9A9A9A"/>
<path d="M5.19179 26.3663C3.81812 26.3663 2.44362 26.3489 1.06994 26.3737C0.501441 26.3837 0.219259 26.2546 0.226706 25.6025C0.256497 22.8394 0.248222 20.073 0.231671 17.3083C0.226706 16.7158 0.411242 16.4808 1.03436 16.4808C3.84791 16.504 6.65843 16.504 9.46591 16.4808C10.0899 16.4758 10.2711 16.7117 10.2661 17.3083C10.2446 20.0413 10.2446 22.7749 10.2661 25.509C10.2719 26.1478 10.0708 26.3969 9.40715 26.3787C8.00369 26.3406 6.59774 26.3671 5.19179 26.3663Z" fill="#9A9A9A"/>
<path d="M34.2701 18.9501C35.4129 16.0877 36.516 13.3817 37.5644 10.6559C37.8028 10.0353 38.1048 9.79612 38.7875 9.80439C40.925 9.8317 40.9241 9.80439 40.9233 11.8922C40.9233 14.9408 40.8869 17.9902 40.9457 21.0371C40.9639 21.9474 40.6833 22.1633 39.7979 22.1799C38.8355 22.1981 38.6741 21.8489 38.6915 20.9916C38.7445 18.413 38.7105 15.8328 38.7105 13.2369C38.3315 13.2419 38.3795 13.5605 38.3026 13.7525C37.3021 16.2681 36.3025 18.7838 35.3318 21.311C35.1183 21.8663 34.8601 22.165 34.1956 22.1691C33.5311 22.1733 33.2854 21.8588 33.0669 21.3077C32.1393 18.9311 31.1736 16.5693 30.2203 14.2026C30.0854 13.8716 29.9439 13.5406 29.7875 13.1616C29.5243 13.4446 29.6311 13.6945 29.6311 13.9229C29.6311 16.4113 29.6046 18.9004 29.6518 21.388C29.6683 22.2469 29.1552 22.1542 28.6182 22.146C28.0935 22.1385 27.5631 22.2684 27.5714 21.3962C27.6078 17.7883 27.5954 14.1795 27.5763 10.5715C27.5763 10.0096 27.7493 9.82674 28.3211 9.80936C30.6381 9.7473 30.6381 9.72661 31.4938 11.8964C32.4082 14.2068 33.316 16.5197 34.2701 18.9501Z" fill="#9A9A9A"/>
<path d="M21.0192 10.6203C21.0192 12.0197 21.0026 13.419 21.0283 14.8167C21.0382 15.381 20.8297 15.578 20.262 15.5747C17.4484 15.5554 14.6349 15.5554 11.8213 15.5747C11.2768 15.5747 11.1121 15.3653 11.1138 14.8605C11.1243 12.0006 11.1243 9.14074 11.1138 6.28085C11.1138 5.80668 11.2867 5.61884 11.7758 5.61884C14.6191 5.63042 17.4633 5.63539 20.3067 5.61139C20.9306 5.60642 21.0233 5.91095 21.0175 6.4207C21.0001 7.8192 21.0117 9.21853 21.0117 10.617L21.0192 10.6203Z" fill="#9A9A9A"/>
<path d="M5.27798 5.63126C6.65166 5.63126 8.02616 5.65361 9.39901 5.61885C9.9973 5.60396 10.2265 5.77691 10.2174 6.40334C10.1885 9.19868 10.1918 11.994 10.2116 14.7894C10.2116 15.3413 10.0618 15.5598 9.47348 15.554C6.66324 15.5281 3.85328 15.5259 1.04359 15.5474C0.454397 15.5523 0.298824 15.3223 0.298824 14.777C0.293032 12.0131 0.273999 9.24916 0.222693 6.48526C0.211108 5.8489 0.388196 5.59816 1.06345 5.61968C2.46691 5.66354 3.87286 5.63292 5.27798 5.63126Z" fill="#9A9A9A"/>
<path d="M16.1691 26.3738C14.7624 26.3738 13.3605 26.3498 11.9571 26.3845C11.3042 26.4011 11.0725 26.1661 11.0865 25.5198C11.1417 22.7895 11.1773 20.0587 11.1933 17.3274C11.1933 16.7771 11.3588 16.5512 11.938 16.5553C14.7461 16.5735 17.5541 16.5735 20.3622 16.5553C20.8769 16.5553 21.0887 16.7324 21.0862 17.2595C21.0719 20.0532 21.0719 22.8469 21.0862 25.6406C21.0862 26.2323 20.8131 26.3796 20.2819 26.3729C18.909 26.3539 17.5362 26.3663 16.1633 26.3663L16.1691 26.3738Z" fill="#9A9A9A"/>
<path d="M87.5221 18.5819C87.5221 17.6799 87.4973 16.7771 87.5304 15.8767C87.5519 15.2975 87.393 14.9731 86.7451 15.0682C86.0624 15.1675 85.9871 14.7637 86.0003 14.2217C86.0136 13.6987 85.9466 13.1807 86.7451 13.2924C87.5437 13.4041 87.4659 12.8497 87.4725 12.3399C87.5023 10.0229 88.9082 8.77664 91.1814 8.96201C92.2373 9.04476 91.8798 9.78952 91.9212 10.3373C91.9775 11.0821 91.4743 10.7875 91.102 10.7436C90.6054 10.6849 90.1578 10.79 89.888 11.2551C89.557 11.8277 89.6 12.4516 89.701 13.069C89.739 13.2982 89.9757 13.2891 90.1611 13.2907C90.8173 13.2907 91.4743 13.2808 92.1297 13.2907C92.6502 13.3015 92.6262 12.9597 92.6444 12.5998C92.7082 11.2484 92.9175 11.0473 94.2945 10.819C94.6743 10.7561 94.8282 10.8338 94.8075 11.2153C94.7997 11.3396 94.7997 11.4643 94.8075 11.5885C94.8497 12.109 94.5982 12.728 94.9259 13.1285C95.2536 13.5291 95.8684 13.2692 96.3542 13.2825C96.94 13.299 96.9119 13.6822 96.8747 14.0554C96.8374 14.4286 97.1155 14.9598 96.4022 15.0716C95.8792 15.1543 95.1526 14.7348 94.8746 15.3537C94.6636 15.8221 94.81 16.4543 94.81 17.0088C94.81 17.8172 94.786 18.6274 94.834 19.4334C94.8812 20.217 95.3082 20.6184 96.1431 20.5042C96.4005 20.4694 96.8449 20.1302 96.8498 20.6879C96.8498 21.1844 97.2371 21.8994 96.4601 22.146C94.8928 22.6425 92.819 22.2784 92.7007 19.9531C92.6304 18.5885 92.6287 17.2181 92.6494 15.8519C92.6585 15.2404 92.4475 15.06 91.8401 15.0509C89.6381 15.0178 89.6381 14.9963 89.6381 17.1635C89.6381 18.5628 89.5992 19.9638 89.6505 21.3607C89.6844 22.2941 89.0712 22.1228 88.5276 22.1377C87.9839 22.1526 87.4518 22.2279 87.5039 21.3723C87.5643 20.443 87.518 19.507 87.518 18.5744L87.5221 18.5819Z" fill="#9A9A9A"/>
<path d="M64.6695 13.0971C67.4682 13.0971 69.0901 14.7521 69.091 17.6095C69.091 20.5009 67.2878 22.357 64.4833 22.3529C61.7798 22.3529 59.9916 20.5547 59.9767 17.8296C59.9601 14.8953 61.7443 13.0954 64.6695 13.0971ZM66.8798 17.7237C66.8691 17.5144 66.8658 17.3282 66.8484 17.1445C66.7209 15.7807 65.9141 14.9151 64.7126 14.8522C63.4514 14.786 62.5395 15.5838 62.2788 16.9425C62.143 17.6153 62.1806 18.3116 62.3881 18.9658C62.4953 19.301 62.6772 19.6074 62.9201 19.862C63.163 20.1166 63.4606 20.3127 63.7903 20.4355C64.1201 20.5583 64.4734 20.6046 64.8237 20.5709C65.174 20.5372 65.512 20.4244 65.8123 20.241C66.7698 19.6551 66.8393 18.6795 66.8798 17.7237Z" fill="#9A9A9A"/>
<path d="M81.5435 13.0971C84.2578 13.1178 85.9227 14.8895 85.8822 17.7138C85.8416 20.5207 83.9946 22.3669 81.2481 22.3479C78.48 22.3297 76.7588 20.5488 76.7795 17.7278C76.8027 14.7662 78.5438 13.0747 81.5435 13.0971ZM83.6669 17.6981C83.6719 15.712 82.5134 14.5701 80.8368 14.911C79.5666 15.1683 78.9269 16.2631 79.0039 18.0498C79.0643 19.4689 79.8231 20.3908 81.0511 20.5323C82.6747 20.7292 83.662 19.6576 83.6669 17.6981Z" fill="#9A9A9A"/>
<path d="M70.1255 19.8877C70.953 20.198 71.7094 20.6689 72.6196 20.6002C73.1162 20.5638 73.5887 20.4918 73.7418 19.9506C73.9073 19.3796 73.4836 19.0982 73.0574 18.8748C72.5046 18.5868 71.9287 18.3435 71.3759 18.0572C70.4932 17.6021 70.0461 16.8761 70.0345 15.8792C70.0212 14.8456 70.4805 14.0851 71.366 13.5862C72.5245 12.9316 73.7658 12.9796 75.0004 13.3147C75.4026 13.4231 75.7046 14.887 75.4142 15.1965C75.2387 15.381 75.0691 15.2288 74.9177 15.1526C74.3843 14.8861 73.7885 14.7694 73.1939 14.815C72.7761 14.8432 72.3755 14.9888 72.2589 15.4547C72.1347 15.9512 72.3962 16.2938 72.8257 16.5089C73.3826 16.7878 73.9594 17.0286 74.5105 17.3174C75.4787 17.8239 76.0265 18.6133 75.9463 19.7263C75.8635 20.822 75.252 21.5609 74.249 21.9863C73.002 22.5151 71.7483 22.3951 70.4954 22.007C70.1959 21.9143 70.0072 21.7322 70.0287 21.3996C70.056 20.9163 69.9302 20.4198 70.1255 19.8877Z" fill="#9A9A9A"/>
<path d="M46.3527 17.8412C46.3758 14.4774 49.0835 12.4111 52.3935 13.2369C53.1424 13.4231 53.6488 14.6511 53.2516 15.2991C53.0952 15.554 52.9397 15.3818 52.7824 15.3198C52.4945 15.2014 52.2189 15.0384 51.9202 14.9631C50.7079 14.6578 49.57 15.0947 48.975 16.0654C48.3801 17.036 48.4363 18.7573 49.0992 19.6237C49.762 20.4901 50.9743 20.764 52.1676 20.3345C52.4018 20.2518 52.6194 20.1235 52.847 20.0209C52.986 19.9572 53.1217 19.8802 53.2483 20.0631C53.5446 20.4918 53.1755 21.8009 52.6922 22.0053C49.5502 23.3475 46.3295 21.2349 46.3527 17.8412Z" fill="#9A9A9A"/>
<path d="M56.9843 14.3533C57.5024 13.6797 58.0419 13.2419 58.8139 13.1484C59.7631 13.0342 59.9675 13.2088 59.9725 14.1671C59.9824 15.3256 59.9824 15.3256 58.8868 15.0368C58.3017 14.8829 57.4204 15.3678 57.2028 16.0157C57.0158 16.5726 56.8801 17.1469 56.8892 17.7535C56.9057 18.8409 56.8139 19.9357 56.9165 21.0131C57.0141 22.0318 56.5913 22.2072 55.6967 22.1716C54.9834 22.1451 54.712 21.9705 54.7261 21.2158C54.7708 18.9484 54.7261 16.6802 54.7517 14.4128C54.7567 13.9594 54.4605 13.2295 55.3947 13.304C56.0691 13.3561 57.1217 12.853 56.9843 14.3533Z" fill="#9A9A9A"/>
<path d="M42.8197 17.6898C42.8197 16.5098 42.847 15.3297 42.809 14.1513C42.7899 13.5365 42.9273 13.2618 43.6282 13.2783C44.9903 13.3114 44.9912 13.2692 44.9912 14.6429C44.9912 16.8466 44.9465 19.0519 45.0127 21.2539C45.0417 22.2072 44.5062 22.1046 43.8914 22.1162C43.2443 22.1278 42.7378 22.1493 42.8007 21.2266C42.8801 20.0523 42.8197 18.8673 42.8197 17.6898Z" fill="#9A9A9A"/>
<path d="M42.6401 10.828C42.6401 10.1387 43.1755 9.60745 43.8922 9.58676C44.6518 9.5669 45.2237 10.1164 45.2063 10.8496C45.1914 11.5116 44.5956 12.0635 43.9137 12.0544C43.2318 12.0453 42.641 11.4834 42.6401 10.828Z" fill="#9A9A9A"/>
</g>
</svg>
