<svg width="180" height="54" viewBox="0 0 180 54" fill="none" xmlns="http://www.w3.org/2000/svg">
    <rect width="180" height="54" fill="white"/>
    <path d="M87.9105 12.9515H83.8424L82.9062 15.7468C82.8722 15.8484 82.8211 15.8823 82.719 15.8823H81.0169C80.9148 15.8823 80.8807 15.8315 80.8977 15.7129L84.4041 5.78537C84.4722 5.61596 84.5233 5.44654 84.5573 4.87054C84.5573 4.80278 84.5914 4.75196 84.6594 4.75196H87.0254C87.1105 4.75196 87.1275 4.7689 87.1445 4.8536L91.0765 15.7298C91.0935 15.8315 91.0765 15.8823 90.9743 15.8823H89.068C88.9828 15.8823 88.9318 15.8484 88.8977 15.7807L87.9105 12.9515ZM84.3871 11.1049H87.3658C87.0084 9.98678 86.2084 7.63196 85.8679 6.44607H85.8509C85.5786 7.58113 84.8977 9.56325 84.3871 11.1049ZM96.0542 16.0517C93.5861 16.0517 91.6968 14.6287 91.6968 11.7825C91.6968 9.32607 93.5351 7.3609 96.5308 7.3609C96.7691 7.3609 96.9734 7.37784 97.2627 7.41172V3.93878C97.2627 3.85407 97.2968 3.82019 97.3649 3.82019H99.2202C99.3053 3.82019 99.3053 3.85407 99.3053 3.92184V14.1543C99.3053 14.4931 99.3393 14.9336 99.3734 15.2385C99.3734 15.3232 99.3563 15.3571 99.2712 15.391C98.1649 15.8654 97.0755 16.0517 96.0542 16.0517ZM97.2627 14.1543V9.19054C97.0415 9.10584 96.7691 9.07196 96.4627 9.07196C94.9478 9.07196 93.8074 10.0376 93.8074 11.6809C93.8074 13.5275 94.9138 14.2898 96.2755 14.2898C96.6159 14.2898 96.9564 14.256 97.2627 14.1543ZM105.075 7.3609C107.696 7.3609 109.126 9.34301 109.126 11.664C109.126 14.2898 107.441 16.0517 105.041 16.0517C102.198 16.0517 100.939 13.8663 100.939 11.7148C100.939 9.30913 102.522 7.3609 105.075 7.3609ZM104.973 9.07196C103.832 9.07196 103.015 10.0715 103.015 11.6809C103.015 13.2395 103.781 14.3237 105.075 14.3237C106.13 14.3237 107.032 13.4597 107.032 11.7148C107.032 10.3087 106.42 9.07196 104.973 9.07196ZM110.844 3.82019H112.632C112.751 3.82019 112.785 3.83713 112.785 3.95572L112.802 7.59807C113.261 7.4456 113.789 7.3609 114.351 7.3609C116.802 7.3609 118.368 9.0889 118.368 11.359C118.368 14.4931 115.917 16.0517 113.398 16.0517C112.512 16.0517 111.661 15.9331 110.844 15.679C110.776 15.6621 110.725 15.5774 110.725 15.5265V3.93878C110.725 3.85407 110.776 3.82019 110.844 3.82019ZM116.274 11.5623C116.274 9.9529 115.338 9.10584 113.993 9.10584C113.398 9.10584 113.074 9.19054 112.802 9.29219V14.239C113.04 14.3068 113.295 14.3237 113.585 14.3237C114.981 14.3237 116.274 13.4428 116.274 11.5623ZM125.104 12.1722H121.649C121.7 13.3581 122.483 14.3068 124.219 14.3068C124.985 14.3068 125.683 14.1713 126.33 13.9002C126.381 13.8663 126.432 13.8833 126.432 13.968V15.3741C126.432 15.4757 126.398 15.5265 126.33 15.5604C125.683 15.8654 124.934 16.0517 123.776 16.0517C120.679 16.0517 119.573 13.8833 119.573 11.7995C119.573 9.44466 121.002 7.3609 123.572 7.3609C126.091 7.3609 127.062 9.32607 127.062 10.9355C127.062 11.4098 127.045 11.7995 126.993 11.9858C126.976 12.0536 126.942 12.0875 126.857 12.1044C126.619 12.1553 125.938 12.1722 125.104 12.1722ZM121.649 10.7152H124.185C124.832 10.7152 125.053 10.7153 125.121 10.6983C125.121 10.6475 125.121 10.5797 125.121 10.5628C125.121 10.0715 124.781 8.98725 123.487 8.98725C122.313 8.98725 121.785 9.88513 121.649 10.7152ZM89.4254 31.1124L89.1701 32.688C89.1531 32.8065 89.119 32.8235 89.0169 32.8235H82.2424C82.1233 32.8235 82.0892 32.7727 82.0892 32.688V21.8287C82.0892 21.744 82.1233 21.6931 82.2254 21.6931H88.7956C88.8977 21.6931 88.9318 21.7101 88.9488 21.8117L89.136 23.3872C89.1531 23.472 89.119 23.5397 89.0169 23.5397H84.1488V26.2334H88.5743C88.6594 26.2334 88.6935 26.2503 88.6935 26.352V27.9614C88.6935 28.0461 88.6424 28.063 88.5743 28.063H84.1488V30.9769H89.3062C89.4084 30.9769 89.4424 31.0277 89.4254 31.1124ZM92.8564 28.6729L90.3032 24.624C90.2521 24.5562 90.2691 24.4715 90.3883 24.4715H92.4308C92.55 24.4715 92.584 24.4884 92.6351 24.5901L94.2521 27.5209H94.2861L95.9883 24.5562C96.0393 24.4715 96.0563 24.4715 96.1415 24.4715H97.9457C98.0478 24.4715 98.0819 24.5223 98.0308 24.607C97.4351 25.5557 96.1244 27.6395 95.4606 28.5713C96.1925 29.7063 97.6053 31.824 98.201 32.688C98.2691 32.7557 98.2351 32.8235 98.1159 32.8235H96.0223C95.9202 32.8235 95.8521 32.7727 95.801 32.688L94.0989 29.7402H94.0819L92.3287 32.7218C92.2946 32.7896 92.2606 32.8235 92.1415 32.8235H90.3202C90.2351 32.8235 90.184 32.7388 90.2351 32.671C90.95 31.6037 92.1244 29.7402 92.8564 28.6729ZM102.711 24.3021C105.52 24.3021 106.915 26.1995 106.915 28.368C106.915 31.4682 104.396 32.9929 101.826 32.9929C101.639 32.9929 101.468 32.976 101.315 32.959V36.0084C101.315 36.0762 101.298 36.127 101.196 36.144C100.6 36.2117 99.46 36.3134 99.3749 36.3134C99.2727 36.3134 99.2557 36.2964 99.2557 36.2117V26.064C99.2557 25.8607 99.2387 25.3016 99.2046 25.0644C99.2046 25.0475 99.2047 24.9967 99.2727 24.9797C100.039 24.7256 101.23 24.3021 102.711 24.3021ZM102.524 26.047C102.064 26.047 101.69 26.0978 101.315 26.2164V31.2141C101.503 31.2649 101.775 31.2649 101.996 31.2649C103.324 31.2649 104.805 30.4856 104.805 28.5035C104.805 26.9618 103.971 26.047 102.524 26.047ZM113.635 29.1134H110.18C110.231 30.2993 111.014 31.248 112.75 31.248C113.516 31.248 114.214 31.1124 114.861 30.8414C114.912 30.8075 114.963 30.8244 114.963 30.9091V32.3153C114.963 32.4169 114.929 32.4677 114.861 32.5016C114.214 32.8065 113.465 32.9929 112.307 32.9929C109.209 32.9929 108.103 30.8244 108.103 28.7407C108.103 26.3858 109.533 24.3021 112.103 24.3021C114.622 24.3021 115.592 26.2673 115.592 27.8767C115.592 28.351 115.575 28.7407 115.524 28.927C115.507 28.9948 115.473 29.0287 115.388 29.0456C115.15 29.0964 114.469 29.1134 113.635 29.1134ZM110.18 27.6564H112.716C113.363 27.6564 113.584 27.6564 113.652 27.6395C113.652 27.5887 113.652 27.5209 113.652 27.504C113.652 27.0127 113.312 25.9284 112.018 25.9284C110.843 25.9284 110.316 26.8263 110.18 27.6564ZM117.192 24.4715H118.792C118.894 24.4715 118.945 24.5054 118.979 24.607C119.064 24.8272 119.132 25.2508 119.149 25.6235C119.728 24.912 120.698 24.3021 121.873 24.3021C121.975 24.3021 122.009 24.319 122.009 24.4207V26.2164C122.009 26.3011 121.975 26.335 121.856 26.335C120.647 26.3011 119.643 26.7247 119.251 27.2329V32.688C119.251 32.7896 119.2 32.8235 119.098 32.8235H117.328C117.209 32.8235 117.175 32.7727 117.175 32.688V26.8433C117.175 26.1148 117.158 25.1322 117.09 24.5731C117.09 24.4884 117.107 24.4715 117.192 24.4715ZM123.242 32.671V24.5901C123.242 24.5054 123.293 24.4715 123.378 24.4715H125.182C125.284 24.4715 125.318 24.4884 125.318 24.5901V32.688C125.318 32.7896 125.284 32.8235 125.165 32.8235H123.412C123.293 32.8235 123.242 32.7727 123.242 32.671ZM124.28 23.3364C123.582 23.3364 123.123 22.8621 123.123 22.1675C123.123 21.4729 123.616 20.9985 124.297 20.9985C125.029 20.9985 125.454 21.4898 125.454 22.1675C125.454 22.8621 124.995 23.3364 124.28 23.3364ZM132.468 29.1134H129.013C129.064 30.2993 129.847 31.248 131.583 31.248C132.349 31.248 133.047 31.1124 133.693 30.8414C133.745 30.8075 133.796 30.8244 133.796 30.9091V32.3153C133.796 32.4169 133.762 32.4677 133.693 32.5016C133.047 32.8065 132.298 32.9929 131.14 32.9929C128.042 32.9929 126.936 30.8244 126.936 28.7407C126.936 26.3858 128.366 24.3021 130.936 24.3021C133.455 24.3021 134.425 26.2673 134.425 27.8767C134.425 28.351 134.408 28.7407 134.357 28.927C134.34 28.9948 134.306 29.0287 134.221 29.0456C133.983 29.0964 133.302 29.1134 132.468 29.1134ZM129.013 27.6564H131.549C132.196 27.6564 132.417 27.6564 132.485 27.6395C132.485 27.5887 132.485 27.5209 132.485 27.504C132.485 27.0127 132.145 25.9284 130.851 25.9284C129.676 25.9284 129.149 26.8263 129.013 27.6564ZM136.007 32.688V26.4197C136.007 25.8437 135.973 24.9289 135.939 24.5901C135.939 24.5054 135.956 24.4715 136.058 24.4715H137.607C137.726 24.4715 137.778 24.5054 137.812 24.5901C137.863 24.7425 137.897 24.9628 137.931 25.2338C138.663 24.624 139.48 24.3021 140.399 24.3021C141.675 24.3021 143.241 24.9458 143.241 27.6564V32.671C143.241 32.7896 143.19 32.8235 143.105 32.8235H141.335C141.233 32.8235 141.182 32.7727 141.182 32.671V27.8428C141.182 26.7247 140.705 26.0809 139.718 26.0809C139.037 26.0809 138.475 26.335 138.067 26.7755V32.688C138.067 32.7727 138.016 32.8235 137.931 32.8235H136.143C136.041 32.8235 136.007 32.7727 136.007 32.688ZM151.221 31.0785V32.5863C151.221 32.671 151.204 32.7049 151.136 32.7218C150.591 32.9421 149.91 32.9929 149.247 32.9929C146.489 32.9929 144.855 31.1124 144.855 28.6729C144.855 26.1656 146.728 24.3021 149.536 24.3021C150.387 24.3021 150.847 24.3868 151.136 24.4884C151.204 24.5223 151.221 24.5731 151.221 24.6748L151.204 26.1825C151.204 26.3011 151.136 26.3011 151.068 26.2842C150.711 26.1487 150.268 26.064 149.604 26.064C148.055 26.064 146.966 26.9788 146.966 28.6051C146.966 30.4517 148.311 31.1632 149.621 31.1632C150.234 31.1632 150.762 31.1124 151.102 30.9938C151.187 30.96 151.221 31.0108 151.221 31.0785ZM157.718 29.1134H154.263C154.314 30.2993 155.097 31.248 156.833 31.248C157.599 31.248 158.297 31.1124 158.943 30.8414C158.995 30.8075 159.046 30.8244 159.046 30.9091V32.3153C159.046 32.4169 159.012 32.4677 158.943 32.5016C158.297 32.8065 157.548 32.9929 156.39 32.9929C153.292 32.9929 152.186 30.8244 152.186 28.7407C152.186 26.3858 153.616 24.3021 156.186 24.3021C158.705 24.3021 159.675 26.2673 159.675 27.8767C159.675 28.351 159.658 28.7407 159.607 28.927C159.59 28.9948 159.556 29.0287 159.471 29.0456C159.233 29.0964 158.552 29.1134 157.718 29.1134ZM154.263 27.6564H156.799C157.446 27.6564 157.667 27.6564 157.735 27.6395C157.735 27.5887 157.735 27.5209 157.735 27.504C157.735 27.0127 157.395 25.9284 156.101 25.9284C154.926 25.9284 154.399 26.8263 154.263 27.6564ZM82.5488 38.736C82.5658 38.6343 82.5999 38.6343 82.685 38.6343H85.4084C85.5105 38.6343 85.5445 38.6682 85.5786 38.7529C86.0892 40.464 87.5701 45.4955 87.9105 47.071H87.9275C88.285 45.631 89.9701 40.4978 90.4977 38.7529C90.5318 38.6851 90.5488 38.6343 90.6509 38.6343H93.3062C93.3913 38.6343 93.4254 38.6512 93.4424 38.736L93.902 49.6291C93.919 49.7308 93.868 49.7647 93.7828 49.7647H91.8935C91.8084 49.7647 91.7573 49.7477 91.7573 49.6461C91.6722 46.0376 91.6382 41.1585 91.6552 40.0912H91.6382C91.2467 41.7176 89.4935 47.376 88.8126 49.6291C88.7956 49.7477 88.7275 49.7647 88.6594 49.7647H86.9573C86.8382 49.7647 86.8041 49.7477 86.7871 49.6461C86.0552 47.071 84.6935 42.1411 84.2169 40.0743H84.1828C84.1658 41.7854 84.0296 46.0884 83.8594 49.6461C83.8594 49.7477 83.8254 49.7647 83.7233 49.7647H82.0211C81.919 49.7647 81.885 49.7477 81.902 49.6291L82.5488 38.736ZM100.304 48.1214V46.0376C100.049 46.0037 99.7594 45.9868 99.368 45.9868C98.0233 45.9868 97.4275 46.4272 97.4275 47.1557C97.4275 47.7825 97.8701 48.3247 99.0956 48.3247C99.5382 48.3247 99.9296 48.2738 100.304 48.1214ZM102.296 44.5976V48.0367C102.296 48.4094 102.296 48.7482 102.33 49.104C102.33 49.1378 102.33 49.1548 102.296 49.1717C100.9 49.7647 99.9126 49.9341 98.7552 49.9341C96.8999 49.9341 95.419 49.0701 95.419 47.1557C95.419 45.36 97.036 44.4621 99.2488 44.4621C99.7594 44.4621 100.151 44.479 100.304 44.496V44.2927C100.304 43.903 100.083 43.0221 98.585 43.0221C97.7339 43.0221 96.985 43.1915 96.3552 43.4964C96.3041 43.5134 96.219 43.4964 96.219 43.3948V41.9209C96.219 41.8362 96.236 41.8023 96.3211 41.7515C97.0531 41.4127 97.9892 41.2432 98.9084 41.2432C101.274 41.2432 102.296 42.7171 102.296 44.5976ZM104.442 49.6291V43.3609C104.442 42.7849 104.408 41.8701 104.374 41.5312C104.374 41.4465 104.391 41.4127 104.493 41.4127H106.042C106.161 41.4127 106.212 41.4465 106.246 41.5312C106.297 41.6837 106.331 41.904 106.365 42.175C107.097 41.5651 107.914 41.2432 108.833 41.2432C110.11 41.2432 111.676 41.887 111.676 44.5976V49.6122C111.676 49.7308 111.625 49.7647 111.54 49.7647H109.77C109.667 49.7647 109.616 49.7138 109.616 49.6122V44.784C109.616 43.6658 109.14 43.0221 108.153 43.0221C107.472 43.0221 106.91 43.2762 106.501 43.7167V49.6291C106.501 49.7138 106.45 49.7647 106.365 49.7647H104.578C104.476 49.7647 104.442 49.7138 104.442 49.6291ZM118.123 48.1214V46.0376C117.868 46.0037 117.579 45.9868 117.187 45.9868C115.842 45.9868 115.247 46.4272 115.247 47.1557C115.247 47.7825 115.689 48.3247 116.915 48.3247C117.357 48.3247 117.749 48.2738 118.123 48.1214ZM120.115 44.5976V48.0367C120.115 48.4094 120.115 48.7482 120.149 49.104C120.149 49.1378 120.149 49.1548 120.115 49.1717C118.719 49.7647 117.732 49.9341 116.574 49.9341C114.719 49.9341 113.238 49.0701 113.238 47.1557C113.238 45.36 114.855 44.4621 117.068 44.4621C117.579 44.4621 117.97 44.479 118.123 44.496V44.2927C118.123 43.903 117.902 43.0221 116.404 43.0221C115.553 43.0221 114.804 43.1915 114.174 43.4964C114.123 43.5134 114.038 43.4964 114.038 43.3948V41.9209C114.038 41.8362 114.055 41.8023 114.14 41.7515C114.872 41.4127 115.808 41.2432 116.728 41.2432C119.093 41.2432 120.115 42.7171 120.115 44.5976ZM125.809 49.7138L123.954 49.6291C123.461 49.968 123.137 50.5101 123.137 50.7642C123.137 51.3571 123.954 52.0178 125.367 52.0178C126.984 52.0178 127.699 51.3571 127.699 50.7134C127.699 49.968 126.848 49.7647 125.809 49.7138ZM124.992 42.7171C124.141 42.7171 123.614 43.2423 123.614 44.1063C123.614 44.8856 124.09 45.4616 124.992 45.4616C125.843 45.4616 126.354 44.9703 126.354 44.1402C126.354 43.344 125.946 42.7171 124.992 42.7171ZM124.516 47.9181L126.252 47.9858C128.584 48.1044 129.588 49.0193 129.588 50.4084C129.588 52.1364 127.886 53.5256 125.231 53.5256C122.49 53.5256 121.248 52.1534 121.248 50.9167C121.248 50.3745 121.707 49.68 122.831 48.7143C122.575 48.3416 122.456 47.9011 122.473 47.4437C122.473 47.0541 122.575 46.6814 122.78 46.3425C122.082 45.9021 121.605 45.1736 121.605 44.1402C121.605 42.5138 122.848 41.2432 124.992 41.2432C125.588 41.2432 126.133 41.2941 126.49 41.3618C126.643 41.3957 126.78 41.4127 126.882 41.4127H129.248C129.333 41.4127 129.35 41.4465 129.35 41.5143V42.9035C129.35 42.9712 129.333 43.0051 129.248 43.0051C128.924 43.0051 128.312 42.9712 127.937 42.9204C128.124 43.1915 128.312 43.5981 128.312 44.208C128.312 46.0207 126.865 46.9355 125.026 46.9355C124.805 46.9355 124.567 46.9185 124.346 46.8847C124.295 47.0541 124.261 47.2235 124.295 47.3929C124.312 47.5792 124.38 47.7487 124.516 47.9181ZM135.543 46.0545H132.088C132.139 47.2404 132.922 48.1891 134.658 48.1891C135.424 48.1891 136.122 48.0536 136.769 47.7825C136.82 47.7487 136.871 47.7656 136.871 47.8503V49.2564C136.871 49.3581 136.837 49.4089 136.769 49.4428C136.122 49.7477 135.373 49.9341 134.216 49.9341C131.118 49.9341 130.012 47.7656 130.012 45.6818C130.012 43.327 131.441 41.2432 134.012 41.2432C136.531 41.2432 137.501 43.2084 137.501 44.8178C137.501 45.2922 137.484 45.6818 137.433 45.8682C137.416 45.936 137.382 45.9698 137.297 45.9868C137.058 46.0376 136.378 46.0545 135.543 46.0545ZM132.088 44.5976H134.624C135.271 44.5976 135.492 44.5976 135.561 44.5807C135.561 44.5298 135.561 44.4621 135.561 44.4451C135.561 43.9538 135.22 42.8696 133.926 42.8696C132.752 42.8696 132.224 43.7675 132.088 44.5976ZM139.1 41.4127H140.7C140.802 41.4127 140.853 41.4465 140.887 41.5482C140.972 41.7684 141.04 42.192 141.057 42.5647C141.636 41.8531 142.606 41.2432 143.781 41.2432C143.883 41.2432 143.917 41.2602 143.917 41.3618V43.1576C143.917 43.2423 143.883 43.2762 143.764 43.2762C142.555 43.2423 141.551 43.6658 141.159 44.1741V49.6291C141.159 49.7308 141.108 49.7647 141.006 49.7647H139.236C139.117 49.7647 139.083 49.7138 139.083 49.6291V43.7844C139.083 43.056 139.066 42.0734 138.998 41.5143C138.998 41.4296 139.015 41.4127 139.1 41.4127Z" fill="#9A9A9A"/>
    <path d="M41.5378 52.9432C27.6631 52.9003 15.5486 42.0576 15.0182 27.4499C14.4785 12.587 26.0031 0.722133 40.2706 0.0329377C55.5338 -0.703829 67.4186 11.0218 68.202 24.9473C69.0553 40.1073 56.9735 52.913 41.5378 52.9432ZM50.0268 41.8187C52.0167 41.8244 53.671 41.0436 54.9894 39.6721C56.8755 37.7089 57.5074 35.3687 56.6319 32.7302C56.4885 32.2987 56.6004 32.1211 56.956 31.9042C61.0407 29.4038 61.0652 23.5352 56.9956 21.0233C56.576 20.7645 56.5188 20.5568 56.6716 20.102C57.4981 17.6399 56.9164 15.3902 55.261 13.5094C53.3153 11.2991 50.7799 10.7224 47.9483 11.5079C47.5239 11.6251 47.3607 11.4894 47.0996 11.1819C46.5063 10.4799 45.9094 9.73041 45.1645 9.21408C42.221 7.17899 38.2003 8.01437 36.2208 11.0207C35.9224 11.4743 35.6741 11.6053 35.1017 11.4534C32.3319 10.7201 29.8547 11.3362 27.9522 13.4827C26.2293 15.4261 25.7606 17.7466 26.586 20.2529C26.7037 20.6102 26.6022 20.761 26.3224 20.9571C25.8177 21.3098 25.2908 21.6626 24.8758 22.1104C22.1969 25.0018 22.697 29.7669 26.2316 31.881C26.6407 32.1258 26.7002 32.3485 26.5615 32.8091C25.8014 35.3246 26.3038 37.6173 28.0851 39.5387C29.9561 41.5575 32.3343 42.1817 34.9874 41.5054C35.6811 41.329 35.9655 41.4914 36.3293 42.0101C37.5241 43.7133 39.2017 44.6659 41.279 44.7622C43.7959 44.8794 45.7264 43.7528 47.1276 41.7095C47.3549 41.3788 47.5274 41.3081 47.9238 41.4183C48.6093 41.6097 49.3238 41.6921 50.0268 41.8198V41.8187Z" fill="#9A9A9A"/>
    <path d="M36.1601 38.8198C35.8862 34.4224 33.5325 32.1796 29.2029 31.8257C32.4181 28.2602 32.4809 24.711 29.168 21.0701C31.1066 20.9796 32.8133 20.4923 34.1982 19.1266C35.5831 17.7622 36.0913 16.0867 36.1566 14.0192C37.7537 15.6273 39.493 16.5451 41.6263 16.5381C43.7445 16.5311 45.4674 15.6168 47.0249 14.1387C47.0879 16.0786 47.6508 17.7633 49.0253 19.1196C50.3928 20.4703 52.0923 20.9854 54.0812 21.0422C50.7972 24.6704 50.8101 28.2312 54.0311 31.8234C49.7457 32.2051 47.307 34.3609 47.0773 38.8511C46.625 38.5006 46.2613 38.2408 45.9221 37.953C44.2947 36.5723 42.4015 36.2835 40.3533 36.5677C38.9917 36.7568 37.8609 37.3682 36.8805 38.3035C36.6952 38.4798 36.4608 38.6063 36.1601 38.8198Z" fill="#9A9A9A"/>
    <path d="M59.1121 26.9515C59.0573 28.512 58.1213 30.0389 56.4461 31.154C56.1289 31.3651 55.9448 31.2977 55.7373 30.9938C55.4785 30.6144 55.1894 30.2477 54.8665 29.9229C53.1482 28.1906 53.0013 24.9895 54.7825 23.1365C55.1019 22.8047 55.4132 22.4496 55.6475 22.0575C55.9121 21.6143 56.1745 21.5841 56.5895 21.8404C58.0757 22.7617 59.1168 24.6565 59.1121 26.9515Z" fill="#9A9A9A"/>
    <path d="M41.5553 38.2761C42.7827 38.312 43.8634 38.6091 44.7831 39.376C45.2728 39.7844 45.7554 40.2033 46.2648 40.585C46.5912 40.8298 46.4444 41.0433 46.2881 41.273C45.0396 43.1121 43.3015 43.959 41.0796 43.7815C39.275 43.6365 37.9076 42.7628 36.9377 41.2463C36.7465 40.947 36.7407 40.7567 37.052 40.5281C37.5194 40.187 37.9565 39.8029 38.3903 39.4201C39.3099 38.6068 40.4152 38.3272 41.5541 38.2761H41.5553Z" fill="#9A9A9A"/>
    <path d="M24.0864 26.4314C24.1727 24.5054 25.0656 23.0423 26.5683 21.9076C26.9728 21.6024 27.2619 21.6291 27.5557 22.092C28.0884 22.9333 28.9149 23.5458 29.3043 24.5216C30.0667 26.4337 29.6832 28.5802 28.2225 30.0352C27.9369 30.3194 27.6699 30.6339 27.4496 30.9704C27.2386 31.2917 27.052 31.3161 26.7431 31.1084C25.068 29.9818 24.154 28.4386 24.0864 26.4291V26.4314Z" fill="#9A9A9A"/>
    <path d="M53.7982 32.8922C54.7961 32.8492 54.8427 32.8782 55.0374 33.869C55.3929 35.6803 54.8881 37.2663 53.5603 38.5067C52.1533 39.82 50.4676 40.2784 48.5604 39.6866C48.114 39.5486 47.9321 39.3397 48.0277 38.8512C48.1641 38.155 48.1268 37.4113 48.3483 36.7488C49.1993 34.2044 50.9304 33.0151 53.7994 32.8922H53.7982Z" fill="#9A9A9A"/>
    <path d="M41.2218 14.6642C40.113 14.6852 38.9566 13.9843 37.8993 13.055C37.6522 12.8381 37.4237 12.592 37.1509 12.4145C36.7919 12.1813 36.7744 11.9736 37.0075 11.6174C38.5847 9.2029 41.5947 8.44409 44.1594 9.75403C45.0465 10.2077 45.6644 10.8737 46.2461 11.6243C46.4804 11.9271 46.4733 12.1407 46.1354 12.3855C45.6201 12.7591 45.1549 13.1988 44.6548 13.5933C43.7583 14.2988 42.7383 14.67 41.2218 14.6642Z" fill="#9A9A9A"/>
    <path d="M35.1915 38.908C35.2288 39.5277 35.2358 39.5578 34.2484 39.7876C32.2794 40.247 30.5985 39.595 29.3185 38.1551C28.0862 36.7698 27.7634 35.0769 28.3777 33.2797C28.4349 33.1126 28.6458 32.8748 28.781 32.8771C30.0039 32.898 31.2338 32.9478 32.3284 33.5895C34.2111 34.694 35.1018 36.3729 35.1903 38.9069L35.1915 38.908Z" fill="#9A9A9A"/>
    <path d="M53.7654 20.0477C50.4022 19.9513 48.1896 17.756 48.0765 14.4482C48.0404 13.4051 48.0322 13.3576 49.0592 13.173C50.9418 12.8343 52.6055 13.2682 53.8784 14.7685C55.0814 16.1851 55.4091 17.7944 54.9043 19.5881C54.6979 20.3215 54.1547 20.0012 53.7665 20.0477H53.7654Z" fill="#9A9A9A"/>
    <path d="M29.4537 20.0251C28.7722 20.0499 28.3618 19.7265 28.2228 19.0551C27.7553 16.7914 28.9094 14.4221 31.0264 13.4893C32.2702 12.9417 33.5921 12.951 34.8908 13.3605C35.0225 13.4023 35.1822 13.639 35.1775 13.7794C35.1286 15.0754 35.0039 16.3436 34.2415 17.4818C33.1736 19.0771 31.7153 19.9276 29.8023 20.0251C29.6869 20.0309 29.5703 20.0251 29.4537 20.0251Z" fill="#9A9A9A"/>
    </svg>
    