<svg width="69" height="32" viewBox="0 0 69 32" fill="none" xmlns="http://www.w3.org/2000/svg">
    <g clip-path="url(#clip0_2267_13422)">
    <path d="M11.6154 12.4442C11.6191 11.5387 11.2633 10.6687 10.626 10.0254C9.98877 9.38215 9.12224 9.0181 8.21676 9.01329H6.53111V15.8452H8.21676C9.11761 15.8422 9.98066 15.4828 10.6174 14.8456C11.2542 14.2083 11.613 13.345 11.6154 12.4442ZM19.2823 26.0667H13.095L8.18366 19.2472H6.52863V26.0485H1.07861V5.61469H8.88953C13.3929 5.61469 17.0687 8.67649 17.0687 12.4442C17.0687 14.7422 15.6619 16.7944 13.5145 18.0497L19.2823 26.0667Z" fill="#9A9A9A"/>
    <path d="M25.4314 13.6706C23.9915 13.6706 22.766 15.6276 22.766 18.0506C22.766 20.4736 23.9915 22.4364 25.4314 22.4364C26.9044 22.4364 28.1275 20.4769 28.1275 18.0506C28.1275 15.6243 26.9044 13.6706 25.4314 13.6706ZM33.8224 18.0506C33.8224 22.6789 30.0589 26.3853 25.4306 26.3853C24.3362 26.3853 23.2525 26.1698 22.2413 25.7509C21.2302 25.3321 20.3115 24.7182 19.5376 23.9444C18.7637 23.1705 18.1499 22.2518 17.7311 21.2407C17.3122 20.2295 17.0967 19.1458 17.0967 18.0514C17.0967 16.957 17.3122 15.8733 17.7311 14.8622C18.1499 13.8511 18.7637 12.9323 19.5376 12.1585C20.3115 11.3846 21.2302 10.7707 22.2413 10.3519C23.2525 9.93308 24.3362 9.71751 25.4306 9.71751C30.0589 9.71751 33.8224 13.4256 33.8224 18.0506Z" fill="#9A9A9A"/>
    <path d="M46.6192 10.056L40.3376 16.336V10.0353H34.8867V26.0485H40.3376V19.5533L46.8973 26.0485H53.759L45.4235 17.7146L52.3258 10.8156V20.318C52.3258 23.4733 54.2233 26.3853 59.0013 26.3853C61.2704 26.3853 63.3516 25.0985 64.3636 23.9342L66.8147 26.0485H67.9782V10.056H62.5266V20.4107C61.9125 21.4864 61.0577 22.1559 59.7354 22.1559C58.394 22.1559 57.7791 21.3606 57.7791 18.8169V10.056H46.6192Z" fill="#9A9A9A"/>
    </g>
    <defs>
    <clipPath id="clip0_2267_13422">
    <rect width="67.4474" height="32" fill="white" transform="translate(0.804688)"/>
    </clipPath>
    </defs>
    </svg>
    