<svg width="181" height="54" viewBox="0 0 181 54" fill="none" xmlns="http://www.w3.org/2000/svg">
    <rect x="0.5" width="180" height="54" fill="white"/>
    <g clip-path="url(#clip0_2155_9384)">
    <path d="M104.817 1.99985C105.031 2.04301 105.248 2.07634 105.46 2.13019C107.005 2.52506 108.099 3.89942 108.086 5.49771C108.074 7.05668 108.014 8.61523 107.971 10.1734C107.942 11.2054 107.892 12.237 107.876 13.2691C107.796 18.3246 107.721 23.3798 107.651 28.4353C107.631 29.9092 107.628 31.3836 107.629 32.858C107.629 33.9387 108.454 34.6725 109.528 34.5862C110.757 34.4875 111.68 33.8473 112.45 32.9417C113.343 31.89 113.893 30.652 114.319 29.3533C114.786 27.9315 115.075 26.4699 115.262 24.987C115.319 24.5357 115.392 24.0849 115.414 23.6315C115.434 23.2208 115.404 22.8067 115.377 22.3956C115.334 21.7212 115.264 21.0486 115.226 20.3742C115.185 19.6494 115.145 18.9234 115.143 18.1977C115.138 16.4973 116.349 15.0498 118.013 14.7375C119.79 14.4041 121.581 15.5584 122.003 17.3238C122.073 17.6178 122.113 17.9302 122.101 18.2315C122.044 19.6246 121.969 21.0174 121.892 22.4097C121.837 23.3973 121.756 24.3832 121.714 25.3712C121.679 26.2028 121.662 27.0362 121.675 27.8682C121.686 28.5417 121.842 29.1934 122.148 29.7994C122.646 30.7857 123.472 31.3417 124.539 31.4793C126.128 31.684 127.671 31.4828 129.084 30.6742C130.465 29.8832 131.287 28.6819 131.464 27.0883C131.529 26.4977 131.495 25.8922 131.466 25.2956C131.415 24.2798 131.33 23.2657 131.265 22.2503C131.183 20.9793 131.098 19.7088 131.032 18.437C130.935 16.5802 132.171 15.0011 133.997 14.7204C135.995 14.4127 137.635 15.8144 137.916 17.5084C138.03 18.1943 137.982 18.9135 137.954 19.6152C137.916 20.596 137.826 21.5742 137.763 22.5541C137.696 23.5909 137.602 24.6272 137.581 25.6648C137.551 27.0806 137.553 28.4981 137.592 29.9135C137.617 30.8507 137.718 31.7866 137.809 32.7204C137.876 33.3986 137.983 34.0734 138.073 34.749C138.077 34.7823 138.096 34.8139 138.12 34.8768C138.255 34.7917 138.382 34.7204 138.499 34.6362C139.154 34.1686 139.678 33.5695 140.167 32.9383C140.433 32.5956 140.674 32.2345 140.941 31.893C141.414 31.2883 142.033 30.996 142.793 31.1695C143.541 31.3404 144.07 31.8024 144.29 32.5622C144.417 32.9969 144.336 33.4233 144.161 33.831C143.089 36.3289 141.349 38.1592 138.817 39.1917C138.702 39.2387 138.661 39.2913 138.662 39.4242C138.666 40.2063 138.688 40.9904 138.643 41.7704C138.585 42.7857 138.422 43.7887 138.149 44.7721C137.493 47.1434 136.228 49.0657 134.083 50.3392C132.897 51.043 131.606 51.4503 130.258 51.6917C128.925 51.9302 127.58 51.987 126.232 51.9404C124.668 51.8862 123.125 51.6909 121.652 51.1221C120.192 50.558 118.986 49.6806 118.234 48.2618C117.801 47.4456 117.593 46.5678 117.512 45.6516C117.433 44.755 117.482 43.8738 117.779 43.0195C118.222 41.7464 119.114 40.8575 120.236 40.1759C121.459 39.4336 122.791 38.9473 124.167 38.5986C126.087 38.1118 128.02 37.6793 129.948 37.2234C130.608 37.0669 131.27 36.9118 131.928 36.7469C131.991 36.7315 132.085 36.6451 132.081 36.5986C132.018 35.7977 131.942 34.9977 131.868 34.1977C131.866 34.1798 131.852 34.1627 131.84 34.14C131.818 34.1524 131.796 34.158 131.783 34.1716C130.735 35.3229 129.377 35.9242 127.923 36.349C126.414 36.79 124.866 36.9571 123.299 36.896C121.676 36.8328 120.151 36.4242 118.819 35.4422C118.289 35.0516 117.828 34.5909 117.429 34.0674C117.408 34.04 117.382 34.0169 117.341 33.9734C117.293 34.0481 117.25 34.1097 117.213 34.1742C116.364 35.6699 115.304 36.9836 113.91 38.0054C112.488 39.0473 110.898 39.6742 109.15 39.8486C108.399 39.9233 107.63 39.9605 106.882 39.8866C105.165 39.7178 103.792 38.8785 102.732 37.5212C102.282 36.9451 101.951 36.3024 101.719 35.6084C101.699 35.5507 101.674 35.4947 101.622 35.3618C101.559 35.4597 101.527 35.5238 101.482 35.5763C99.5426 37.8443 97.1127 39.2627 94.1735 39.7533C92.2017 40.0823 90.2333 40.0674 88.3105 39.4268C86.4954 38.8221 85.0648 37.7366 84.1557 36.0157C84.1395 35.9853 84.1178 35.958 84.0795 35.9007C84.0156 35.9734 83.9611 36.0323 83.91 36.0943C82.5531 37.7481 80.8793 38.9276 78.8156 39.5246C77.5983 39.8768 76.3486 40.052 75.0942 39.9212C72.5511 39.6558 70.8113 38.2644 69.832 35.9092C69.4952 35.0994 69.3666 34.243 69.3628 33.3669C69.3628 33.2751 69.3628 33.1836 69.3628 33.0511C69.2951 33.1054 69.2504 33.1323 69.2168 33.1695C66.7902 35.8845 63.7578 37.6178 60.3209 38.69C58.7834 39.1699 57.2102 39.4857 55.6126 39.6896C53.892 39.9088 52.1642 40.002 50.4339 39.9293C48.2841 39.8387 46.2224 39.3742 44.352 38.2516C42.6536 37.2319 41.357 35.8554 40.646 33.9678C40.3522 33.1883 40.3373 32.3849 40.3782 31.5699C40.4497 30.1486 40.5617 28.7276 40.5723 27.3058C40.5915 24.7781 40.5642 22.2494 40.5251 19.7216C40.4931 17.6716 40.4254 15.6216 40.3548 13.5725C40.2879 11.6447 40.1934 9.7178 40.1167 7.79045C40.0929 7.19472 39.6446 7.05027 39.1954 7.29215C38.9867 7.40455 38.8258 7.6178 38.6631 7.80327C38.1458 8.39215 37.5186 8.6413 36.7582 8.396C36.1093 8.1866 35.7039 7.72677 35.5515 7.05241C35.5387 7.00498 35.5166 6.9601 35.5 6.91438C35.5 6.80027 35.5 6.6866 35.5 6.5725C35.6499 5.95797 35.9403 5.40711 36.2762 4.87976C37.2142 3.40626 38.5005 2.4319 40.2402 2.11651C40.5038 2.06908 40.7703 2.03831 41.0352 1.99985C41.2766 1.99985 41.5176 1.99985 41.759 1.99985C41.8343 2.01566 41.9093 2.0366 41.9855 2.04686C42.3359 2.09386 42.6919 2.1148 43.0368 2.18745C44.7152 2.5413 45.895 3.50369 46.5337 5.11395C46.8675 5.9554 47.0442 6.83617 47.0604 7.73403C47.0825 8.94344 47.048 10.1545 47.0187 11.3644C46.9744 13.1866 46.9131 15.008 46.8594 16.8298C46.8569 16.9101 46.8594 16.9909 46.8594 17.1178C46.9625 17.0422 47.0182 17.0016 47.0736 16.9605C47.4334 16.6947 47.7838 16.4148 48.1542 16.1652C50.4036 14.649 52.8812 14.0118 55.5781 14.2729C57.174 14.4272 58.5884 15.046 59.8249 16.0657C61.4186 17.3802 62.4353 19.0862 63.0808 21.0259C63.8843 23.44 64.0861 25.9178 63.7655 28.4379C63.5603 30.0516 63.0519 31.5635 62.1965 32.952C62.1692 32.9964 62.1518 33.0469 62.1152 33.1259C62.1935 33.0998 62.2399 33.0892 62.2825 33.0695C63.163 32.6639 63.9865 32.1657 64.7371 31.549C66.4986 30.1024 67.632 28.2375 68.3405 26.0909C68.8016 24.6947 69.0541 23.258 69.1997 21.7964C69.3032 20.7571 69.2862 19.7234 69.2027 18.6845C69.1614 18.1695 69.1193 17.6387 69.1959 17.1332C69.5531 14.7793 72.1913 13.4823 74.2631 14.6366C75.4651 15.3063 76.1131 16.3665 76.0965 17.7447C76.0693 20.0152 75.9786 22.2849 75.9045 24.555C75.8683 25.6716 75.7972 26.7875 75.7636 27.9045C75.7125 29.6054 75.6703 31.3063 75.6448 33.0075C75.6333 33.7687 76.289 34.4879 77.0435 34.5733C77.901 34.6708 78.6683 34.4024 79.3691 33.9293C80.2692 33.3216 80.8976 32.4734 81.403 31.5289C82.3674 29.7259 82.852 27.7708 83.1471 25.7661C83.3097 24.6635 83.4374 23.5507 83.4907 22.4379C83.5452 21.3024 83.4894 20.1618 83.4826 19.0229C83.4817 18.908 83.434 18.8627 83.3148 18.8622C83.0811 18.861 82.8465 18.8558 82.6144 18.8306C81.5572 18.7148 80.7959 17.7998 80.8142 16.6781C80.8312 15.6597 81.6649 14.7759 82.6859 14.6947C82.8805 14.6793 83.0751 14.6669 83.2812 14.6524C83.2812 14.5742 83.2829 14.5182 83.2812 14.4622C83.245 13.4806 83.1918 12.499 83.1769 11.5165C83.1624 10.5781 83.116 9.63147 83.2122 8.70156C83.3731 7.14301 84.874 5.82763 86.4307 5.7725C88.4898 5.69942 90.1286 7.27463 90.1141 9.34002C90.1026 10.9776 90.0605 12.6152 90.0324 14.2528C90.0307 14.3413 90.0324 14.4302 90.0324 14.5272C90.218 14.5272 90.3666 14.5293 90.5148 14.5272C92.1889 14.5003 93.8627 14.458 95.5369 14.4498C97.0356 14.4426 98.1158 15.8524 97.7603 17.3127C97.5027 18.3695 96.6269 19.084 95.5437 19.0828C93.7418 19.0806 91.9394 19.0618 90.1375 19.0409C89.9344 19.0383 89.8706 19.0947 89.8654 19.3003C89.8173 21.2434 89.7458 23.1862 89.7088 25.1293C89.6726 27.0302 89.6606 28.9319 89.6568 30.8336C89.656 31.2285 89.699 31.6323 89.7867 32.0169C90.0464 33.152 90.648 34.0221 91.7913 34.4195C92.3218 34.6041 92.8706 34.6152 93.4288 34.5836C95.3832 34.4721 97.0105 33.693 98.3036 32.2174C99.1777 31.2199 99.7747 30.0614 100.228 28.8238C100.743 27.4174 101.057 25.9622 101.258 24.4802C101.428 23.2174 101.571 21.9511 101.547 20.6751C101.498 18.1263 101.433 15.5781 101.369 13.0298C101.349 12.24 101.308 11.4507 101.283 10.6605C101.229 8.95284 101.158 7.24515 101.132 5.5366C101.108 3.93062 102.217 2.52933 103.773 2.12933C103.978 2.07677 104.186 2.04216 104.393 1.99942C104.534 1.99942 104.677 1.99942 104.818 1.99942L104.817 1.99985ZM46.7457 28.8494H46.7449C46.7117 29.9024 46.6725 30.9558 46.6478 32.0092C46.6282 32.8481 46.641 32.8601 47.3188 33.3558C48.6302 34.3139 50.109 34.6776 51.7099 34.5776C53.4377 34.4695 54.8071 33.6896 55.8272 32.2947C56.6664 31.1477 57.0654 29.8298 57.2668 28.4413C57.423 27.3665 57.449 26.2857 57.3498 25.205C57.2536 24.1558 57.0139 23.143 56.4983 22.2135C55.8515 21.0477 54.9105 20.255 53.5659 20.0802C52.2345 19.9075 50.9414 20.1255 49.7539 20.7622C48.0031 21.7011 47.0191 23.19 46.8696 25.1789C46.7781 26.399 46.7836 27.6259 46.7453 28.8498L46.7457 28.8494ZM132.37 40.9883C132.096 41.04 131.847 41.0832 131.599 41.1349C130.111 41.4477 128.618 41.7426 127.136 42.084C126.286 42.2798 125.459 42.5665 124.732 43.0751C123.886 43.6665 123.547 44.6003 123.85 45.5417C124.113 46.361 124.724 46.8259 125.515 47.0469C126.868 47.4251 128.216 47.3152 129.527 46.8554C130.886 46.3793 131.756 45.4131 132.174 44.0319C132.472 43.046 132.463 42.0422 132.369 40.9883H132.37Z" fill="#9A9A9A"/>
    <path d="M72.8035 11.3517C70.6162 11.3526 68.8505 9.58631 68.8501 7.397C68.8492 5.19828 70.6209 3.42093 72.8124 3.42221C74.9907 3.42349 76.7513 5.19999 76.75 7.39529C76.7488 9.59315 74.9958 11.3508 72.8035 11.3517Z" fill="#9A9A9A"/>
    </g>
    <defs>
    <clipPath id="clip0_2155_9384">
    <rect width="109" height="50" fill="white" transform="translate(35.5 2)"/>
    </clipPath>
    </defs>
    </svg>
    