<svg width="54" height="54" viewBox="0 0 54 54" fill="none" xmlns="http://www.w3.org/2000/svg">
    <g clip-path="url(#clip0_2491_671)">
    <path d="M29.4596 39.8874C29.7728 39.6479 30.4729 39.4084 30.8598 39.2426C30.8414 38.653 30.6019 38.1003 30.7493 37.6029C31.0072 36.7185 31.6152 36.3316 32.2047 36.2579C32.2416 36.2764 32.2784 36.3501 32.2416 36.3685C31.91 36.6817 31.781 37.1239 31.7257 37.6029C31.7073 37.7871 31.6704 38.3582 31.8363 38.7636C32.1863 38.5793 33.0338 38.2845 33.3102 38.2293C33.347 37.6397 33.4391 37.0686 33.6049 36.6448C33.9366 35.8158 34.6735 35.1525 35.4105 35.5394C35.4473 35.5578 35.4842 35.6315 35.4473 35.65C34.9867 35.8158 34.6919 36.2948 34.434 36.8475C34.3603 37.0133 34.1024 37.8976 34.3972 38.0819C34.3972 38.0819 34.4156 38.0819 34.4156 38.1003C34.9499 37.9898 35.042 38.045 35.6131 37.9898C35.7052 37.4186 35.9632 36.9212 36.1843 36.5527C36.5159 35.9079 37.3818 35.392 38.1556 35.8526C38.1925 35.871 38.2293 35.9632 38.174 35.9632C37.6397 36.0737 37.2897 36.4237 37.1055 36.737C37.0133 36.8843 36.5159 37.566 36.7738 37.8424C36.7923 37.8424 36.8291 37.8424 36.8659 37.8424C37.3265 37.824 37.6582 37.9161 38.1372 38.0082C38.2846 37.6581 38.4135 37.6213 38.5609 37.4371C39.0952 36.7922 39.998 36.5711 40.3112 37.1791C40.348 37.216 40.348 37.2897 40.3112 37.2897C40.0348 37.3265 39.5742 37.4739 39.3532 37.7503C39.2979 37.8055 39.1505 37.9713 39.0031 38.2845C39.6295 38.7636 39.9796 39.1505 40.1454 39.7953C40.1822 39.9058 40.2375 40.5691 40.0164 40.2375C39.0031 38.9662 37.6397 38.6899 35.5947 38.8925C33.4023 39.0952 32.389 39.4268 30.1965 40.6059C31.4125 41.6929 29.5886 42.7615 29.2938 41.1587C28.2252 42.7799 27.1014 40.7349 28.5384 40.4401C27.0645 39.0031 29.0727 38.3398 29.4596 39.8874Z" fill="#9A9A9A"/>
    <path d="M33.1997 32.8864C33.9919 32.6284 34.8578 32.3521 35.3 32.26C35.3737 30.9703 36.5896 29.3674 38.0267 29.9202C38.0819 29.9386 38.1188 30.0123 38.0635 30.0307C37.695 30.1412 36.5159 31.2651 36.9212 31.9836C37.216 32.002 38.0267 31.9836 38.2662 32.002C38.5794 30.5834 39.8138 29.5885 41.214 30.2334C41.2693 30.2518 41.3061 30.3439 41.2508 30.3439C40.6981 30.436 39.4453 31.3204 39.5927 32.0757C39.8506 32.0942 40.5507 32.3337 40.9929 32.5732C41.1587 32.2231 41.3429 32.0942 41.5088 31.9099C42.1167 31.2651 43.3696 31.2098 43.738 31.8362C43.7749 31.8731 43.7749 31.9468 43.738 31.9468C43.2037 31.9283 42.7247 32.002 42.2641 32.4074C42.1904 32.4626 42.0431 32.6837 41.8772 32.9969C42.3194 33.2364 42.8168 33.697 42.909 34.1392C42.9827 34.3603 43.0195 34.5445 42.9827 34.7656C42.9642 34.8209 42.8537 34.7656 42.8168 34.7287C41.6562 33.4575 39.0953 32.6653 36.608 32.9785C34.9499 33.1812 33.3286 33.6417 31.9837 34.2313C32.4443 33.826 32.8496 33.3838 33.1997 32.8864ZM29.5518 35.7605C29.4412 35.871 29.3307 35.9631 29.2385 36.0737C29.8281 36.8843 28.8885 37.5292 28.6121 36.7185C27.912 37.4739 27.3593 36.5895 27.8199 36.2211C28.4095 36.129 28.999 35.9816 29.5518 35.7605Z" fill="#9A9A9A"/>
    <path d="M29.1461 46.6305C29.312 46.4463 29.7173 46.0963 29.9199 45.9304C29.2935 44.954 29.6436 43.7012 30.2516 43.6091C30.2884 43.6275 30.3068 43.6827 30.2884 43.7196C30.1226 43.9591 30.0489 45.2488 30.5279 45.5251C30.7674 45.3593 31.228 45.0277 31.4307 44.9724C31.0806 43.7933 31.6886 42.2088 32.8677 42.4668C32.9046 42.4852 32.923 42.5589 32.9046 42.5773C31.9465 43.0748 31.9281 44.5487 32.1861 44.7145C32.573 44.6039 32.9967 44.4381 33.4204 44.4013C33.6047 42.8353 34.9865 42.1352 35.6866 42.5405C35.7234 42.5589 35.7418 42.651 35.7234 42.651C35.3365 42.4299 33.881 43.9223 34.3601 44.3644C34.6917 44.346 35.0786 44.4934 35.4655 44.5855C35.6313 43.7196 36.8473 43.0011 37.3631 43.5538C37.4 43.5906 37.4 43.6643 37.3815 43.6643C36.921 43.7564 36.313 44.1802 36.2209 44.9908C37.1973 45.4514 37.0868 46.4095 36.921 46.1515C35.9998 44.9356 34.0469 45.1382 32.5545 45.4514C31.6886 45.6357 30.4726 46.4647 29.9568 47.0543C31.5228 47.7912 30.1042 49.173 29.4409 47.607C28.3539 49.5231 27.2853 47.7728 28.5566 47.257C27.009 46.0594 28.6118 45.2488 29.1461 46.6305Z" fill="#9A9A9A"/>
    <path d="M13.3756 45.1751C11.828 43.388 10.5199 41.4535 9.46973 39.5005H26.4196V45.1751H13.3756Z" fill="#9A9A9A"/>
    <path d="M34.5811 17.4473H47.0355V22.3296H34.5811V17.4473Z" fill="#9A9A9A"/>
    <path d="M47.0356 10.0409L43.3508 8.73286L39.0581 7.86694L34.2311 6.81679L29.7541 6.46674H26.3457V11.607H47.0171L47.0356 10.0409Z" fill="#9A9A9A"/>
    <path d="M8.67761 4.2743C9.17505 4.10849 9.67249 3.9611 10.1884 3.81371C10.3726 3.75844 10.5568 3.70317 10.7595 3.66632C10.9622 3.62947 11.1648 3.61105 11.3675 3.66632L11.4412 3.70317C11.5149 3.74002 11.5517 3.79529 11.5886 3.86898C11.6438 3.99795 11.6623 4.12691 11.6807 4.2743C11.7175 4.56908 11.7175 4.86386 11.6807 5.15864C11.6623 5.39815 11.6254 5.63766 11.5333 5.84032C11.4964 5.93244 11.4412 6.00614 11.3675 6.07983C11.3122 6.1351 11.2569 6.19037 11.2017 6.22722C11.0727 6.31934 10.9622 6.39303 10.8148 6.44831C10.4831 6.5957 10.1515 6.70624 9.80146 6.81678C9.2119 7.01944 8.62234 7.2221 8.03278 7.42476V8.51177C7.738 8.62231 7.44322 8.75127 7.14844 8.86182V4.77175C7.6643 4.60593 8.16174 4.44012 8.67761 4.2743ZM8.03278 6.68781C8.62234 6.48515 9.2119 6.28249 9.81988 6.07983C10.0041 6.02456 10.1884 5.96929 10.3542 5.89559L10.4831 5.8219L10.5384 5.78505L10.5937 5.72978L10.6489 5.67451L10.6858 5.61924L10.7411 5.50869C10.7595 5.435 10.7779 5.37973 10.7779 5.30603C10.7963 5.1218 10.7963 4.95598 10.7411 4.77175L10.7042 4.67963L10.6674 4.60593L10.6121 4.55066L10.5384 4.51381L10.4647 4.49539H10.391H10.3173C10.1331 4.51381 9.96727 4.56908 9.78303 4.62436C9.19347 4.80859 8.60391 5.01125 8.01435 5.19549L8.03278 6.68781ZM15.5312 2.41351C15.9366 2.33981 16.3235 2.26612 16.7288 2.22927C16.8578 2.21084 16.9867 2.21084 17.1157 2.21084C17.171 2.21084 17.2447 2.22927 17.2999 2.24769C17.3552 2.26612 17.392 2.28454 17.4473 2.32139C17.4842 2.35823 17.521 2.37666 17.5579 2.41351C17.5947 2.45035 17.6131 2.50562 17.6315 2.54247C17.6684 2.61617 17.6868 2.67144 17.6868 2.74513C17.7237 2.98464 17.7421 3.24257 17.7605 3.50051C17.7789 3.79529 17.7789 4.07164 17.7605 4.348C17.7605 4.45854 17.7605 4.58751 17.7421 4.69805C17.7237 4.91913 17.7237 5.14022 17.6684 5.36131C17.65 5.41658 17.6315 5.47185 17.6131 5.50869C17.5763 5.58239 17.5394 5.65609 17.4842 5.72978L17.3736 5.89559L17.2078 6.00614C17.1341 6.04298 17.0788 6.06141 17.0051 6.09825C16.7104 6.19037 16.4156 6.24564 16.1208 6.31934C15.5128 6.44831 14.9048 6.55885 14.2969 6.68781C14.0021 6.74309 13.7073 6.79836 13.4125 6.8352C13.3388 6.85363 13.2467 6.85363 13.173 6.85363L12.9888 6.8352C12.9335 6.81678 12.8966 6.79836 12.8598 6.77993L12.7677 6.70624L12.694 6.5957L12.5834 5.98771V4.348C12.6019 4.16376 12.6203 3.9611 12.6571 3.77686L12.7124 3.61105C12.7493 3.51893 12.7861 3.44524 12.8414 3.37154L12.9703 3.22415L13.0809 3.13203C13.1914 3.05834 13.3204 2.98464 13.4678 2.92937L14.131 2.72671C14.5548 2.59774 15.0338 2.50562 15.5312 2.41351ZM15.0706 3.24257L14.1126 3.46366C14.0389 3.48208 13.9652 3.51893 13.8915 3.53735L13.8178 3.59263L13.7441 3.6479L13.6889 3.70317L13.6336 3.75844L13.5783 3.81371L13.5415 3.88741C13.5046 3.94268 13.4862 4.01637 13.4678 4.07164C13.4125 4.31115 13.4125 4.55066 13.4125 4.79017C13.4125 5.0481 13.4125 5.30603 13.4494 5.54554L13.4862 5.63766L13.5415 5.72978L13.6152 5.80347L13.6889 5.85875L13.781 5.89559L13.8731 5.91402H13.9836C14.0573 5.91402 14.1126 5.91402 14.1679 5.89559C14.5364 5.84032 14.9048 5.76663 15.2733 5.69293C15.5681 5.63766 15.8813 5.56397 16.1761 5.49027C16.2313 5.47185 16.305 5.45342 16.3603 5.435L16.4524 5.37973L16.5445 5.32446L16.6182 5.25076L16.6919 5.17707L16.7472 5.08495L16.7841 4.99283L16.8209 4.90071C16.8762 4.62436 16.8578 4.36642 16.8578 4.09007C16.8578 3.94268 16.8578 3.79529 16.8393 3.66632L16.8209 3.55578C16.8025 3.48208 16.7841 3.40839 16.7472 3.33469L16.7104 3.261L16.6735 3.20573L16.6182 3.15046L16.5814 3.13203L16.5077 3.09518L16.434 3.07676L16.2866 3.05834C16.1208 3.05834 15.9734 3.07676 15.826 3.09518C15.5681 3.15046 15.3102 3.20573 15.0706 3.24257ZM21.1505 1.73183C21.6111 1.69498 22.0717 1.65813 22.5323 1.65813C22.6244 1.65813 22.7349 1.65813 22.827 1.65813C22.9376 1.65813 23.0297 1.67656 23.1218 1.73183C23.1587 1.75025 23.1955 1.76867 23.2139 1.7871C23.2876 1.84237 23.3429 1.89764 23.3798 1.98976C23.4166 2.04503 23.435 2.11873 23.4535 2.174C23.4903 2.32139 23.4903 2.4872 23.4903 2.63459C23.4903 2.83725 23.4903 3.02149 23.4719 3.22415C23.4719 3.29785 23.4535 3.37154 23.435 3.44524L23.3982 3.51893C23.3613 3.5742 23.3429 3.61105 23.3061 3.66632L23.2139 3.74002C23.1771 3.75844 23.1402 3.79529 23.085 3.81371C23.0297 3.83213 22.956 3.85056 22.9007 3.86898L22.4033 3.97952L22.9007 4.25588C22.9744 4.31115 23.0297 4.348 23.085 4.40327L23.1403 4.47696C23.2139 4.58751 23.2692 4.69805 23.3245 4.82702C23.3982 5.0481 23.435 5.26919 23.435 5.49027C23.1402 5.50869 22.8455 5.50869 22.5507 5.52712C22.5323 5.3613 22.5138 5.21392 22.4586 5.0481L22.3849 4.86386L22.348 4.77175L22.2928 4.69805L22.2375 4.62436L22.1638 4.56908L22.0717 4.51381C22.0164 4.49539 21.9611 4.47696 21.9059 4.47696C21.7953 4.45854 21.6663 4.47696 21.5558 4.47696C20.9847 4.51381 20.432 4.56908 19.8608 4.62436L19.6397 4.64278V5.72978C19.345 5.76663 19.0502 5.80347 18.7554 5.8219V1.95291C19.566 1.86079 20.3583 1.7871 21.1505 1.73183ZM19.6582 3.97952C20.2477 3.92425 20.8373 3.86898 21.4268 3.83213C21.6295 3.81371 21.8322 3.79529 22.0348 3.77686C22.0901 3.77686 22.1454 3.75844 22.2006 3.74002L22.2743 3.72159L22.348 3.68474L22.4033 3.6479L22.4586 3.59263L22.4954 3.53735L22.5323 3.48208C22.5507 3.42681 22.5691 3.38996 22.5691 3.33469C22.5875 3.16888 22.5875 3.00307 22.5875 2.83725C22.5875 2.78198 22.5691 2.72671 22.5507 2.65301L22.5138 2.59774L22.477 2.54247L22.4217 2.4872L22.3665 2.45035L22.3112 2.41351L22.2375 2.39508C22.1822 2.37666 22.1269 2.37666 22.0717 2.37666C21.7769 2.37666 21.4821 2.41351 21.2058 2.43193C20.6899 2.46878 20.1924 2.52405 19.6766 2.5609L19.6582 3.97952ZM25.9222 4.88229C26.2539 4.88229 26.5855 4.88229 26.9355 4.88229C27.1566 4.88229 27.3961 4.88229 27.6356 4.86386C27.6909 4.86386 27.7278 4.84544 27.783 4.84544C27.8383 4.82702 27.8752 4.80859 27.912 4.79017L27.9673 4.75332L28.0041 4.69805L28.041 4.64278L28.0594 4.58751L28.0778 4.45854V4.2743L28.041 4.07164L28.0225 4.01637L28.0041 3.9611L27.9673 3.90583L27.912 3.86898L27.8567 3.83213L27.7278 3.79529L27.5067 3.75844H27.2303H25.3695C25.1853 3.75844 25.001 3.75844 24.8352 3.72159C24.78 3.70317 24.7431 3.70317 24.7063 3.68474L24.651 3.6479L24.5957 3.61105L24.5589 3.5742L24.522 3.51893L24.4852 3.46366C24.4483 3.38996 24.4115 3.31627 24.3931 3.24257C24.3562 3.03991 24.3562 2.81883 24.3562 2.61617C24.3562 2.35823 24.3746 2.1003 24.4852 1.86079C24.5036 1.82395 24.5405 1.7871 24.5589 1.75025C24.6878 1.63971 24.8537 1.58444 25.0195 1.54759C25.1853 1.51074 25.3695 1.51074 25.5353 1.51074C25.9407 1.51074 26.346 1.51074 26.7513 1.51074C27.4146 1.51074 28.0962 1.52917 28.7595 1.54759V2.13715C27.8752 2.11873 26.9908 2.1003 26.1065 2.1003C25.9038 2.1003 25.7011 2.1003 25.4985 2.11873C25.4616 2.11873 25.4064 2.13715 25.3695 2.13715L25.2958 2.174L25.2406 2.22927L25.2037 2.30296L25.1853 2.37666L25.1669 2.50562C25.1669 2.61617 25.1669 2.70829 25.1669 2.81883L25.1853 2.89252L25.2037 2.96622L25.259 3.03991L25.3511 3.09518L25.4432 3.11361C26.3644 3.13203 27.304 3.15046 28.2252 3.1873L28.3357 3.20573C28.4831 3.24257 28.6305 3.29785 28.7411 3.40839C28.7963 3.46366 28.8332 3.51893 28.8516 3.5742C28.9437 3.77686 28.9622 4.01637 28.9622 4.23746C28.9622 4.49539 28.9622 4.75332 28.8885 4.99283C28.87 5.02968 28.87 5.06652 28.8516 5.10337L28.7963 5.17707C28.7595 5.23234 28.7226 5.26919 28.6674 5.30603C28.5753 5.3613 28.4831 5.41658 28.391 5.435C28.2436 5.47185 28.0778 5.47185 27.9304 5.49027C27.4698 5.50869 27.0277 5.50869 26.5671 5.50869C25.8485 5.50869 25.13 5.52712 24.4299 5.52712C24.4299 5.32446 24.4299 5.10337 24.4299 4.90071C24.9089 4.88229 25.3879 4.88229 25.867 4.88229H25.9222ZM32.0205 5.69293C31.652 5.65609 31.2651 5.63766 30.8966 5.58239C30.7308 5.56397 30.565 5.52712 30.4176 5.47185C30.3439 5.435 30.2702 5.41658 30.1965 5.36131C30.1413 5.32446 30.1044 5.28761 30.0492 5.25076C30.0123 5.21391 29.9755 5.15864 29.9386 5.1218C29.9018 5.06652 29.8833 5.01125 29.8649 4.95598C29.8096 4.75332 29.7912 4.53224 29.7912 4.31115C29.7728 3.77686 29.7728 3.261 29.7912 2.72671V2.59774C29.8096 2.35823 29.8281 2.11873 29.9755 1.91606C30.0307 1.86079 30.0676 1.80552 30.1413 1.76867C30.3255 1.67656 30.5466 1.63971 30.7493 1.62128C30.9703 1.60286 31.173 1.60286 31.3941 1.62128C31.8178 1.63971 32.26 1.65813 32.6837 1.69498C33.3102 1.75025 33.9181 1.80552 34.5445 1.87922V2.57932C33.7155 2.50562 32.9048 2.43193 32.0758 2.37666C31.8178 2.35823 31.5415 2.33981 31.2651 2.35823L31.1362 2.37666L31.044 2.39508L30.9703 2.43193L30.8966 2.4872L30.823 2.5609L30.7677 2.63459L30.7308 2.72671C30.7124 2.78198 30.694 2.83725 30.694 2.89252C30.6571 3.15046 30.6387 3.42681 30.6571 3.70317C30.6571 3.92425 30.6571 4.14534 30.694 4.36642C30.7124 4.42169 30.7124 4.47697 30.7308 4.53224L30.7677 4.62436L30.823 4.69805L30.8966 4.77175L30.9703 4.82702L31.044 4.86386L31.1362 4.90071C31.2099 4.91914 31.2835 4.93756 31.3572 4.93756C31.5967 4.97441 31.8547 4.99283 32.0942 5.01125C32.9233 5.08495 33.7708 5.15864 34.5998 5.25076C34.5998 5.47185 34.5998 5.67451 34.5998 5.89559V5.96929C34.084 5.91402 33.5497 5.85875 33.0338 5.8219C32.7206 5.7482 32.3705 5.72978 32.0205 5.69293ZM37.6582 3.94268C38.3398 4.07164 39.0215 4.20061 39.7032 4.32958V2.76356C40.0164 2.83725 40.3296 2.91095 40.6612 2.96622V7.00102C40.348 6.92732 40.0348 6.85363 39.7032 6.77993V5.19549C39.1505 5.08495 38.6162 4.97441 38.0635 4.86386C37.566 4.77175 37.0502 4.67963 36.5527 4.58751V6.15353C36.2395 6.09825 35.9263 6.06141 35.5947 6.00614V2.08188C35.9079 2.11873 36.2395 2.15557 36.5527 2.21084V3.75844C36.9212 3.81371 37.2897 3.86898 37.6582 3.94268ZM44.8987 4.20061C45.2303 4.31115 45.5619 4.42169 45.912 4.53224V5.19549C44.9355 4.86386 43.9407 4.55066 42.9458 4.23746L42.6142 4.14534V5.15864C43.3327 5.37973 44.0696 5.60081 44.7882 5.84032C45.1014 5.95086 45.433 6.04298 45.7462 6.15353V6.74309C44.825 6.42988 43.8854 6.1351 42.9458 5.85875L42.6142 5.76663V6.8352C43.3143 7.03787 44.0144 7.25895 44.696 7.48004C45.1014 7.609 45.5067 7.75639 45.9304 7.88536V8.56704C44.6039 8.12487 43.259 7.71954 41.8956 7.33265L41.7482 7.2958V3.24257C42.7984 3.53735 43.8485 3.86898 44.8987 4.20061Z" fill="#9A9A9A"/>
    <path d="M7.09306 33.8444C6.5035 31.8731 6.1903 30.0307 6.17188 28.4463H18.5158C18.5526 30.5282 19.4185 32.4442 20.7819 33.8444H7.09306Z" fill="#9A9A9A"/>
    <path d="M5.61914 4.09009L5.85865 3.99797C12.7491 1.4555 19.6212 0.128986 26.5117 1.99294e-05C33.4022 -0.110523 40.2742 0.976479 47.1647 3.29787L47.4226 3.38999V3.64792C47.3674 11.9202 47.3121 20.1924 47.2568 28.4647C47.2384 32.739 44.9907 38.7452 40.7532 43.9959C37.3448 48.2334 32.6284 51.9918 26.7328 53.9816H26.5301C20.5792 52.4524 15.8812 48.8414 12.4544 44.6223C8.0695 39.1873 5.8218 32.7022 5.80338 28.2989C5.76653 24.3009 5.74811 20.303 5.71126 16.3235L5.61914 4.09009ZM13.6519 44.954H26.18V39.9243H10.1145C10.0593 39.8322 10.004 39.74 9.96714 39.6479C10.8331 41.1955 11.8464 42.7247 13.0071 44.1802C13.2281 44.4381 13.4308 44.696 13.6519 44.954ZM26.1985 45.5804H14.223C17.3182 48.9703 21.3162 51.7892 26.1985 53.1525V45.5804ZM13.9651 45.304C13.9467 45.2856 13.9467 45.2856 13.9467 45.2672C13.9467 45.2856 13.9651 45.304 13.9651 45.304ZM9.76448 39.2794H26.1985V36.3132C26.3274 36.3132 26.4564 36.3132 26.5854 36.3132C26.6775 36.3132 26.7512 36.3132 26.8433 36.3132V53.171C26.8249 53.171 26.8064 53.1894 26.8064 53.1894C32.4073 51.2365 36.9027 47.6254 40.1821 43.5538C44.2537 38.5057 46.4277 32.7574 46.5199 28.6305C46.5199 28.6489 46.5199 28.6489 46.5199 28.6674H34.6734C34.6734 28.5384 34.6918 28.4094 34.6918 28.2805V28.0225H46.5383C46.5567 26.2539 46.5567 24.4852 46.5751 22.7349H34.6918V22.1085H46.5751C46.5936 20.6715 46.5936 19.2528 46.612 17.8342H34.6918V17.2078H34.5997V17.1894H46.612C46.6304 15.4575 46.6304 13.7441 46.6488 12.0123H26.6591V17.2078H26.0142V6.76154C19.4554 6.87208 12.8781 8.18016 6.2824 10.7411L6.26397 10.0778C13.0439 7.46164 19.8239 6.17198 26.5854 6.1167C33.2916 6.06143 39.9794 7.22213 46.6488 9.5251C46.6488 9.74618 46.6488 9.96727 46.6488 10.1884C46.6673 8.08805 46.6857 5.98774 46.6857 3.90585C39.961 1.67658 33.2363 0.626427 26.5301 0.73697C19.7133 0.847512 12.9149 2.1556 6.11658 4.67965L6.44821 16.3235C6.48506 20.2293 6.50348 24.1351 6.54033 28.0594C6.54033 28.0594 6.54033 28.0594 6.54033 28.041H18.5342V28.2989C18.5342 28.4279 18.5342 28.5568 18.5526 28.6858H6.5219C6.55875 30.1597 6.87196 31.8731 7.40624 33.6786C7.40624 33.6602 7.38782 33.6418 7.38782 33.6234H20.5424C20.6529 33.7523 20.7635 33.8813 20.8924 33.9918L21.2977 34.2682H7.59048C8.12477 35.8895 8.8433 37.5845 9.76448 39.2794ZM7.55363 34.1392C7.53521 34.1024 7.53521 34.0655 7.51679 34.0471C7.53521 34.084 7.55363 34.1024 7.55363 34.1392ZM7.47994 33.8997C7.46152 33.8629 7.46152 33.826 7.44309 33.7892C7.46152 33.826 7.47994 33.8629 7.47994 33.8997ZM46.5014 28.2989V28.3173C46.5014 28.3173 46.5014 28.3173 46.5014 28.2989ZM46.5014 28.4094V28.4279C46.5014 28.4279 46.5014 28.4279 46.5014 28.4094ZM46.5014 28.4094C46.5014 28.391 46.5014 28.391 46.5014 28.391V28.4094ZM46.5014 28.3542C46.5014 28.3357 46.5014 28.3357 46.5014 28.3357V28.3542ZM46.5014 28.0778C46.5014 28.0594 46.5014 28.0594 46.5014 28.0594V28.0778ZM26.6591 11.3859H46.6304C46.6304 11.4964 46.6304 11.5886 46.6304 11.6991C46.6304 11.2017 46.6304 10.7042 46.6304 10.2068C39.9794 7.88538 33.3285 6.72469 26.6591 6.76154V11.3859ZM26.6222 53.2446C26.6038 53.2446 26.6038 53.2447 26.5854 53.2631C26.6038 53.2631 26.6038 53.2631 26.6222 53.2446ZM26.3643 53.2078C26.309 53.1894 26.2722 53.1894 26.2169 53.171C26.2722 53.171 26.3274 53.1894 26.3643 53.2078Z" fill="#9A9A9A"/>
    <path d="M9.13812 14.2784C9.48817 14.0573 9.85665 13.8362 10.2251 13.652C10.1698 13.0809 10.1146 12.1965 10.262 11.7175C10.5383 10.8332 11.349 10.1146 12.307 10.2805C12.3623 10.2989 12.3991 10.3542 12.3623 10.3726C11.828 10.6489 11.4042 11.0727 11.1647 11.6622C11.091 11.8281 10.8331 13.0072 11.22 13.0993C11.2569 13.1177 11.2937 13.1177 11.349 13.1177C12.0491 12.8229 12.7676 12.565 13.5045 12.3439C13.5045 11.7728 13.523 10.9806 13.7256 10.5568C14.0941 9.72775 15.0153 9.11977 16.0102 9.41455C16.0654 9.43297 16.1023 9.50667 16.0654 9.52509C15.4759 9.72775 14.9969 10.0778 14.6837 10.6305C14.5915 10.7963 14.2046 11.9202 14.61 12.0676H14.6284C15.3101 11.9202 16.0102 11.7912 16.7655 11.6991C16.8577 11.128 17.0051 10.391 17.263 10.0041C17.8157 9.19346 18.9211 8.64075 19.9529 9.02765C20.0081 9.04607 20.045 9.11977 19.9897 9.13819C19.308 9.304 18.7185 9.61721 18.2947 10.1515C18.1842 10.2989 17.613 11.3306 17.9447 11.5701C17.9815 11.5701 18.0184 11.5701 18.0552 11.5517C18.6448 11.4964 19.3265 11.478 19.9713 11.5149C20.1371 11.1648 20.3029 10.8516 20.4871 10.6489C21.132 9.98568 22.5506 9.74617 22.9744 10.3173C23.0112 10.3542 23.0296 10.4279 22.9744 10.4279C22.3664 10.4463 21.74 10.5384 21.2794 10.9621C21.2057 11.0358 20.9477 11.2938 20.8004 11.5885C21.7768 11.7544 22.6059 12.086 22.8638 12.7124C22.9559 12.9151 23.0112 13.0993 22.9744 13.3204C22.9744 13.3757 22.8454 13.3388 22.8085 13.2835C21.5741 12.1413 19.6028 12.0123 16.9682 12.4729C14.2968 12.9335 12.0675 13.7257 9.67241 14.868C10.6304 15.955 9.1197 16.784 8.62225 15.6418C7.46156 17.0236 6.39298 15.0154 7.97742 14.7759C7.07466 13.3757 8.89861 13.3204 9.13812 14.2784Z" fill="#9A9A9A"/>
    <path d="M9.46977 25.2958C9.78298 25.0563 10.1883 24.8537 10.5199 24.651C10.1883 24.1167 9.98564 23.3429 10.1146 22.8455C10.3357 21.9611 10.8884 21.5374 11.5701 21.5742C11.6254 21.5742 11.6622 21.6479 11.6254 21.6664C11.1463 21.9796 11.0726 22.3849 10.9252 22.9929C10.8516 23.3245 11.0358 23.8772 11.2753 24.0799C11.8833 23.7482 11.8649 23.8035 12.5097 23.564C12.3255 22.9929 12.3623 22.2191 12.6018 21.74C12.9703 20.9663 13.5783 20.6715 14.1863 20.8004C14.2415 20.8189 14.2784 20.8741 14.2231 20.8926C13.7441 21.0952 12.7676 21.869 13.4125 23.3245C14.002 23.1218 14.0389 23.085 14.7942 22.9192C14.8495 22.348 14.8679 21.6664 15.089 21.261C15.5496 20.432 16.6366 20.0451 17.1341 20.2477C17.1893 20.2661 17.2262 20.3398 17.1709 20.3583C16.8945 20.5425 16.5261 20.6899 16.1576 21.2426C15.9549 21.5374 15.6049 22.2191 15.697 22.6797C16.2313 22.606 16.9314 22.5691 17.5394 22.5875C17.6683 22.2375 17.9263 21.8137 18.0921 21.6111C18.2026 21.4821 18.35 21.3716 18.4974 21.3163V23.3798C17.4841 23.3245 16.3603 23.435 15.2917 23.693C12.8782 24.2641 12.2518 24.7063 10.0962 25.867C11.3858 26.6776 10.133 27.912 9.34081 26.696C7.9406 28.2989 7.03784 26.2354 8.49331 25.9222C7.38789 24.5773 9.19342 23.8588 9.46977 25.2958Z" fill="#9A9A9A"/>
    <path d="M8.84315 19.8055C9.21163 19.5844 9.70907 19.4186 10.0775 19.2344C10.0407 18.6632 9.967 18.1474 10.1328 17.6684C10.4276 16.8025 10.8882 16.3603 11.6251 16.434C11.6804 16.4524 11.7173 16.5077 11.6804 16.5445C11.1461 16.8209 11.2751 17.1894 11.0356 17.7605C10.9619 17.9263 10.7776 18.6264 11.1645 18.7369C11.2014 18.7554 11.2382 18.7554 11.2935 18.7554C11.9936 18.479 11.7357 18.4974 12.4542 18.3132C12.4726 17.7605 12.5095 17.0051 12.6937 16.5998C13.0806 15.8076 13.7991 15.4207 14.4624 15.5865C14.5177 15.6049 14.6282 15.7339 14.5729 15.7523C14.0387 15.9181 13.1175 17.0051 13.5044 17.8526C13.965 17.7789 14.2782 17.6315 15.1072 17.521C15.2178 16.9498 15.402 16.3787 15.6784 15.9918C16.2495 15.1996 17.1338 15.0338 17.6497 15.2733C17.705 15.2917 17.7787 15.4391 17.7234 15.4575C17.0417 15.6049 17.0233 15.5312 16.5811 16.0655C16.3416 16.3419 15.8626 17.0972 16.2127 17.4473C16.8022 17.4104 17.2075 17.3367 17.8524 17.392C18.0182 17.0604 18.1471 16.5998 18.3314 16.4156C18.9762 15.7523 20.1001 15.697 20.4685 16.1392C20.5054 16.176 20.5238 16.2497 20.4685 16.2497C19.8606 16.2682 19.6395 16.434 19.1605 16.8577C19.1052 16.8946 18.9946 17.042 18.8657 17.2262H18.5156V18.3685C17.5207 18.2764 16.4337 18.3132 15.4204 18.4606C12.749 18.8659 11.7725 19.4739 9.56168 20.5425C10.5013 21.6479 8.97212 22.4217 8.51153 21.261C7.33241 22.6244 6.28225 20.5793 7.90354 20.3767C7.00078 18.9212 8.58522 18.5343 8.84315 19.8055Z" fill="#9A9A9A"/>
    <path d="M34.2867 17.5947V28.2989C34.2867 32.518 30.8415 35.9448 26.5856 35.9448C22.3481 35.9448 18.8845 32.518 18.8845 28.2989V17.5947H34.2867ZM34.6552 17.2078H18.4976V28.2805C18.4976 32.6838 22.127 36.3132 26.5672 36.3132C31.0257 36.3132 34.6368 32.6838 34.6368 28.2805L34.6552 17.2078Z" fill="#9A9A9A"/>
    <path d="M26.2352 25.0563C26.3089 25.13 26.4747 25.0379 26.53 24.9642C26.659 24.7615 26.6405 24.5036 26.659 24.2457C26.6774 23.9693 26.6774 23.7298 26.5853 23.4719C26.4379 23.0297 26.2352 22.6796 25.7378 22.6059C25.6825 22.5875 25.572 22.6981 25.6088 22.7349C25.9404 23.085 26.0694 23.0665 26.1615 23.6008C26.2536 24.1167 26.1984 25.0194 26.2352 25.0563ZM22.7531 31.4862C22.8268 31.5046 22.9926 31.2835 23.0479 31.1546C23.1032 31.044 23.0848 30.8229 23.0848 30.8045C23.0663 30.7677 22.8821 30.8413 22.79 30.8413C22.6979 30.8413 22.6242 30.8229 22.4952 30.8045C22.3662 30.7861 22.3847 30.4913 22.3662 30.3255C22.3294 29.9017 22.311 29.478 22.3294 29.0542C22.3294 28.9437 22.3662 28.7963 22.4584 28.7226C22.5873 28.6489 22.7716 28.6673 22.9189 28.6858C23.2137 28.741 23.4901 28.8884 23.8033 28.9437C23.9691 28.9806 24.1533 28.9621 24.3192 28.9069C24.4665 28.87 24.5771 28.7595 24.7061 28.7042C24.7797 28.6858 24.8719 28.6673 24.9271 28.7042C25.1666 28.8332 25.3325 29.0727 25.572 29.1648C25.8852 29.2569 26.2168 29.2201 26.5484 29.2385C26.8064 29.2385 27.0643 29.2016 27.3222 29.2385C27.4328 29.2569 27.617 29.2753 27.6539 29.4043C27.6907 29.5701 27.4143 29.7175 27.4512 29.8833C27.5249 30.1412 27.8197 30.2702 27.9486 30.4913C28.0039 30.5834 27.9855 30.694 27.9486 30.7861C27.9118 30.8598 27.7828 30.8782 27.7275 30.9519C27.6538 31.0624 27.6354 31.1914 27.5617 31.3019C27.488 31.4125 27.3775 31.5046 27.267 31.5967C27.0274 31.781 26.7879 31.9652 26.5116 32.1126C26.4195 32.1679 26.2536 32.0573 26.2168 32.1494C26.1431 32.3153 26.0694 32.5179 25.9957 32.6285C25.922 32.739 25.8299 32.7574 25.7746 32.8127C25.7194 32.8864 25.6457 33.0154 25.6825 33.0338C25.7194 33.0522 26.0694 33.0522 26.1984 33.0338C26.3273 33.0154 26.401 32.9969 26.4379 32.9785C26.4747 32.9417 26.4195 32.8311 26.3826 32.61C26.3642 32.3889 26.9722 32.2968 27.267 32.131C27.5802 31.9284 27.8934 31.7073 28.2066 31.523C28.3355 31.4493 28.5198 31.4309 28.6303 31.3204C28.6856 31.2651 28.6672 31.173 28.6672 31.0993C28.6672 30.915 28.6303 30.7308 28.6303 30.5466C28.6303 30.4545 28.6303 30.3439 28.704 30.2886C28.7593 30.2334 28.8698 30.2149 28.9251 30.2518C29.0356 30.3071 29.0541 30.4729 29.1462 30.5466C29.2936 30.6571 29.4778 30.694 29.6436 30.7677C29.791 30.8414 30.0489 30.8414 30.0674 30.9887C30.1042 31.2651 29.92 31.523 29.8094 31.7625C29.7542 31.8915 29.6252 31.9652 29.5515 32.0942C29.5146 32.1679 29.5146 32.26 29.4594 32.3152C29.312 32.4626 29.1093 32.5548 28.9619 32.7021C28.8514 32.8127 28.7593 32.9232 28.704 33.0522C28.6672 33.1259 28.6487 33.1996 28.6119 33.2733C28.5566 33.347 28.4645 33.3654 28.4092 33.4759C28.354 33.5865 28.225 33.8813 28.3355 33.8628C28.4461 33.8444 29.0909 33.7339 29.1093 33.6602C29.1277 33.6049 29.0725 33.4391 29.0356 33.2364C28.9988 33.0338 29.4594 32.8864 29.6805 32.7574C29.8094 32.6837 29.9937 32.7206 30.1042 32.6285C30.1779 32.5732 30.1411 32.4442 30.1595 32.3705C30.2147 32.2416 30.2516 32.0942 30.3621 31.9836C30.4911 31.8362 30.7122 31.781 30.8227 31.6336C30.9333 31.4493 31.0622 31.2282 31.0254 31.0256C30.9885 30.8598 30.7859 30.8045 30.6753 30.6755C30.5832 30.5834 30.4911 30.4729 30.4543 30.3439C30.399 30.1597 30.3621 29.9754 30.4174 29.7912C30.4911 29.5701 30.7122 29.4227 30.8412 29.2385C30.9517 29.0727 31.1175 28.9437 31.1728 28.7595C31.2281 28.5384 31.1175 28.2989 31.0991 28.0778C31.0991 28.0409 31.0622 27.9857 31.0991 27.9488C31.2465 27.8199 31.4123 27.654 31.615 27.6172C31.7992 27.5988 31.9466 27.783 32.1308 27.8199C32.3151 27.8383 32.5361 27.8567 32.7204 27.783C32.7757 27.7646 32.7941 27.6356 32.7572 27.5803C32.6283 27.4698 32.3519 27.5067 32.2966 27.3593C32.2598 27.2303 32.5177 27.1934 32.5914 27.0645C32.6835 26.8987 32.7572 26.7144 32.7572 26.5118C32.7572 26.4381 32.6098 26.4381 32.5546 26.4749C32.4624 26.5302 32.4624 26.6592 32.3888 26.7329C32.3335 26.7881 32.2414 26.8066 32.1677 26.8066C32.094 26.8066 31.9834 26.7697 31.9466 26.7144C31.8913 26.6592 31.8545 26.5302 31.9097 26.4933C32.0571 26.4012 32.2598 26.4381 32.4256 26.4012C32.4993 26.3828 32.5914 26.3644 32.6283 26.3091C32.6835 26.1986 32.6835 26.0696 32.6283 25.9591C32.6098 25.9038 32.5177 25.9038 32.4624 25.9222C32.3888 25.9406 32.3519 26.0512 32.2598 26.0512C32.1492 26.0512 32.0387 25.9959 31.965 25.9222C31.9097 25.8485 31.8913 25.738 31.9282 25.6643C31.9834 25.5353 32.1677 25.4985 32.2229 25.3695C32.2966 25.2037 32.3519 25.001 32.3151 24.8168C32.2966 24.7431 32.1492 24.7062 32.094 24.7615C32.0019 24.8168 32.0203 24.9458 31.965 25.0194C31.8913 25.13 31.8545 25.2958 31.7439 25.3511C31.6702 25.3879 31.5413 25.3142 31.5228 25.2221C31.486 25.0747 31.5781 24.9273 31.615 24.7984C31.6702 24.651 31.7439 24.5036 31.836 24.3746C31.9282 24.2457 32.1124 24.1904 32.1861 24.043C32.2414 23.9324 32.2966 23.7851 32.2229 23.6929C32.1677 23.6192 32.0387 23.6745 31.965 23.7298C31.9097 23.7666 31.9282 23.8956 31.8729 23.9324C31.7071 24.0061 31.5044 23.9509 31.357 24.0246C31.2281 24.0983 31.1728 24.2272 31.0991 24.3562C30.9701 24.5773 30.9517 24.9642 30.8964 25.001C30.8412 25.0563 30.7122 25.0379 30.6753 24.9642C30.6201 24.8721 30.7122 24.7247 30.6385 24.6325C30.5832 24.5773 30.4358 24.5773 30.3806 24.6325C30.3069 24.7062 30.2884 24.8168 30.2884 24.9273C30.2884 25.0931 30.3069 25.259 30.3806 25.4063C30.5095 25.6459 30.7122 25.8301 30.878 26.0512C31.0438 26.2723 31.2465 26.4749 31.3386 26.7329C31.3939 26.8987 31.4123 27.1013 31.3386 27.2487C31.2833 27.3961 31.1359 27.5435 30.9885 27.5435C30.7859 27.5251 30.6385 27.304 30.4727 27.1935C30.3069 27.0829 30.1411 26.9355 29.9568 26.8987C29.5331 26.825 29.0909 26.8987 28.6487 26.8987C28.2618 26.8987 27.8565 26.9539 27.4696 26.8987C27.2854 26.8802 27.0827 26.8066 26.9537 26.6776C26.8248 26.5486 26.7327 26.3644 26.7327 26.1986C26.7142 25.9591 26.8064 25.738 26.8985 25.5169C26.9722 25.3695 27.0827 25.2221 27.2301 25.13C27.3406 25.0563 27.5249 25.0194 27.6354 25.0563C27.7644 25.1116 28.1144 25.5906 28.1881 25.5722C28.2618 25.5537 28.2066 25.13 28.1697 25.001C28.096 24.7984 27.8749 24.6878 27.8197 24.4852C27.8012 24.4299 27.8934 24.3562 27.9486 24.3562C28.0592 24.3562 28.1881 24.4299 28.2803 24.522C28.3355 24.5589 28.575 24.9089 28.6303 24.8905C28.6856 24.8721 28.5935 24.393 28.5382 24.2457C28.4461 24.043 28.1513 23.8956 28.1329 23.8403C28.1144 23.8035 28.1329 23.7666 28.1881 23.7482C28.2987 23.7482 28.4092 23.8035 28.5198 23.8403C28.6119 23.8772 28.7593 23.9877 28.8145 23.9693C28.8698 23.9509 28.8145 23.7851 28.7593 23.7114C28.5566 23.4719 28.2803 23.3245 28.0776 23.1034C27.9671 22.9928 27.8565 22.8454 27.8565 22.6796C27.8565 22.5875 27.9671 22.4954 28.0592 22.4585C28.225 22.3849 28.4461 22.348 28.5935 22.2559C28.6487 22.219 28.6119 22.1822 28.5566 22.1638C28.3171 22.0716 28.0592 22.0348 27.8012 22.0348C27.6538 22.0348 27.5249 22.1269 27.3775 22.1638C27.2854 22.2006 27.1933 22.2559 27.0827 22.2559C26.8985 22.2559 26.6958 22.2743 26.5668 22.1638C26.4932 22.0901 26.5853 21.9427 26.6405 21.8321C26.6958 21.74 26.7879 21.6847 26.8616 21.6111C26.9169 21.5558 27.0827 21.5005 27.0274 21.4821C26.9722 21.4637 26.6774 21.4637 26.5116 21.5189C26.3642 21.5558 26.2352 21.6111 26.1247 21.7216C26.0326 21.8137 26.051 22.0164 25.922 22.0716C25.7009 22.2006 25.5904 22.1638 25.3509 22.2743C25.2956 22.3112 25.1666 22.4585 25.1114 22.477C24.8166 22.5138 24.227 22.3664 24.2086 22.4217C24.1718 22.477 24.6692 22.7533 24.7613 23.0113C24.7982 23.1218 24.5218 22.956 24.4113 22.9744C24.227 22.9928 24.0428 23.0297 23.8954 23.1034C23.748 23.1771 23.619 23.306 23.5085 23.435C23.398 23.5455 23.3427 23.6929 23.2137 23.7851C23.1585 23.8219 23.0295 23.7666 22.9926 23.8219C22.9374 23.8956 22.9189 24.0614 23.0111 24.0614L23.5269 24.0983C23.619 24.0983 23.4348 24.3009 23.4901 24.393C23.5269 24.4483 23.6559 24.4299 23.7112 24.393C23.7849 24.3562 23.8217 24.2457 23.9138 24.1904C24.0059 24.1351 24.0981 24.0614 24.2086 24.0614C24.3376 24.0614 24.5034 24.1167 24.5587 24.2272C24.6139 24.3378 24.485 24.4667 24.4665 24.5773C24.4481 24.7062 24.5218 24.8721 24.4297 24.9642C24.1533 25.2221 24.0612 25.001 23.6559 25.5169C23.3243 25.9222 23.4717 25.7011 23.3611 26.2354C23.3427 26.346 23.3243 26.4565 23.2322 26.5302C23.14 26.5855 22.9926 26.6223 22.9005 26.567C22.7163 26.4749 22.6057 26.2907 22.4768 26.1064C22.4031 26.0143 22.4399 25.8485 22.3478 25.7748C22.2188 25.7011 22.0346 25.7011 21.8872 25.738C21.7767 25.7748 21.7214 25.9038 21.6661 25.9959C21.5187 26.1986 21.4082 26.4381 21.2792 26.6407C21.1687 26.8066 21.0213 26.9539 20.9292 27.1198C20.8739 27.2119 20.9108 27.3224 20.8555 27.4145C20.7449 27.6725 20.6528 27.912 20.5239 28.1515C20.4686 28.2436 20.358 28.2989 20.3212 28.4094C20.3028 28.52 20.3396 28.7595 20.3949 28.7595C20.4502 28.7595 20.6344 28.6305 20.7449 28.5568C20.8739 28.5015 21.1134 28.4278 21.1318 28.391C21.1503 28.3541 21.0029 28.2252 20.9292 28.1331C20.8002 27.9672 21.0766 27.7277 21.1871 27.5435C21.224 27.4698 21.3161 27.4514 21.3529 27.3777C21.4266 27.2303 21.445 27.0461 21.5187 26.8987C21.6109 26.696 21.7214 26.4933 21.8688 26.346C21.9425 26.2723 22.0715 26.217 22.1636 26.2907C22.311 26.3828 22.3294 26.5855 22.4215 26.7513C22.4952 26.8618 22.5873 26.9724 22.6242 27.1013C22.661 27.2119 22.5505 27.3593 22.6242 27.4514C22.7163 27.5619 22.9005 27.5988 23.0479 27.6172L23.3795 27.654L23.4164 28.1146C23.4348 28.2805 23.0663 28.1515 22.9005 28.1883C22.7531 28.2252 22.6057 28.2804 22.4399 28.3173C22.2925 28.3541 22.0162 28.2252 21.9793 28.391C21.8504 29.0358 22.0162 29.6807 22.053 30.3255C22.053 30.4913 21.9609 30.7677 22.1267 30.8413L22.4399 30.9703C22.4952 31.0993 22.532 31.2651 22.6057 31.3572C22.5873 31.4493 22.6794 31.4678 22.7531 31.4862Z" fill="#9A9A9A"/>
    <path d="M32.9046 19.1976C32.9046 19.0686 32.8125 19.0133 32.6467 19.0133H32.0203C31.8545 19.0133 31.7624 19.0686 31.7624 19.1976C31.7624 19.3265 31.8545 19.3818 32.0203 19.3818H32.1493V20.5425C32.1493 20.7452 32.2045 20.8373 32.3335 20.8373C32.4625 20.8373 32.5177 20.7452 32.5177 20.5425V19.3818H32.6467C32.831 19.3818 32.9046 19.3265 32.9046 19.1976ZM31.1175 19.6029C31.1175 19.7503 31.0438 19.824 30.8965 19.824H30.7306V19.3818H30.8965C31.0438 19.3818 31.1175 19.4555 31.1175 19.6029ZM31.5229 20.653C31.5229 20.5793 31.486 20.5057 31.4123 20.4135L31.1175 20.0451C31.3571 19.9898 31.5044 19.8056 31.5044 19.5476C31.5044 19.216 31.2834 18.9765 30.8965 18.9765H30.6201C30.4174 18.9765 30.3622 19.0686 30.3622 19.2713V20.5241C30.3622 20.7267 30.4174 20.8189 30.5464 20.8189C30.6754 20.8189 30.7306 20.7267 30.7306 20.5241V20.0819L31.1544 20.6899C31.2281 20.782 31.2834 20.8373 31.3571 20.8373C31.4492 20.8373 31.5229 20.7636 31.5229 20.653ZM29.5699 20.0819H29.183L29.3857 19.4187L29.5699 20.0819ZM30.0858 20.6346C30.0858 20.5978 30.0858 20.5609 30.0674 20.5057L29.6621 19.216C29.6068 19.0686 29.5147 18.9765 29.3857 18.9765C29.2567 18.9765 29.1646 19.0686 29.1094 19.2344L28.6856 20.5057C28.6672 20.5425 28.6672 20.5793 28.6672 20.6162C28.6672 20.7267 28.7409 20.8189 28.833 20.8189C28.9067 20.8189 28.9804 20.7636 29.0172 20.6346L29.0725 20.4504H29.6621L29.6989 20.6162C29.7358 20.7452 29.791 20.8189 29.8832 20.8189C30.0121 20.8373 30.0858 20.7636 30.0858 20.6346ZM28.4093 19.9898C28.4093 19.7871 28.3356 19.7134 28.1882 19.7134H27.9487C27.8013 19.7134 27.7276 19.7687 27.7276 19.8977C27.7276 20.0266 27.8013 20.0819 27.9487 20.0819H28.0592C28.0592 20.303 27.9487 20.4504 27.7644 20.4504C27.5618 20.4504 27.4144 20.2293 27.4144 19.8792C27.4144 19.5292 27.5618 19.3265 27.7644 19.3265C27.9671 19.3265 28.0592 19.4923 28.1513 19.4923C28.225 19.4923 28.2987 19.4002 28.2987 19.3081C28.2987 19.1239 28.0961 18.9396 27.7828 18.9396C27.3407 18.9396 27.0643 19.3081 27.0643 19.8977C27.0643 20.4688 27.3407 20.8557 27.746 20.8557C28.1513 20.8557 28.4093 20.4872 28.4093 19.9898ZM26.9722 19.1976C26.9722 19.0686 26.8801 19.0133 26.7143 19.0133H26.0879C25.922 19.0133 25.8299 19.0686 25.8299 19.1976C25.8299 19.3265 25.922 19.3818 26.0879 19.3818H26.2168V20.5425C26.2168 20.7452 26.2721 20.8373 26.4011 20.8373C26.53 20.8373 26.5853 20.7452 26.5853 20.5425V19.3818H26.7143C26.8801 19.3818 26.9722 19.3265 26.9722 19.1976ZM25.7562 19.1976C25.7562 19.0686 25.6641 19.0133 25.4983 19.0133H24.8719C24.7061 19.0133 24.614 19.0686 24.614 19.1976C24.614 19.3265 24.7061 19.3818 24.8719 19.3818H25.0009V20.5425C25.0009 20.7452 25.0561 20.8373 25.1851 20.8373C25.3141 20.8373 25.3693 20.7452 25.3693 20.5425V19.3818H25.4983C25.6641 19.3818 25.7562 19.3265 25.7562 19.1976ZM24.3929 20.0266V19.2713C24.3929 19.0686 24.3376 18.9765 24.2086 18.9765C24.0797 18.9765 24.0244 19.0686 24.0244 19.2713V19.9898C24.0244 20.303 23.9139 20.4688 23.7112 20.4688C23.5085 20.4688 23.398 20.303 23.398 19.9898V19.2713C23.398 19.0686 23.3427 18.9765 23.2138 18.9765C23.0848 18.9765 23.0295 19.0686 23.0295 19.2713V20.0266C23.0295 20.5609 23.2875 20.8557 23.7112 20.8557C24.1165 20.8557 24.3929 20.5609 24.3929 20.0266ZM22.8821 19.1976C22.8821 19.0686 22.79 19.0133 22.6242 19.0133H21.9978C21.832 19.0133 21.7399 19.0686 21.7399 19.1976C21.7399 19.3265 21.832 19.3818 21.9978 19.3818H22.1268V20.5425C22.1268 20.7452 22.182 20.8373 22.311 20.8373C22.44 20.8373 22.4952 20.7452 22.4952 20.5425V19.3818H22.6242C22.79 19.3818 22.8821 19.3265 22.8821 19.1976ZM21.6109 20.2477C21.6109 19.9714 21.4635 19.8056 21.1687 19.695C20.9845 19.6213 20.8739 19.6029 20.8739 19.4739C20.8739 19.3818 20.9476 19.3265 21.0582 19.3265C21.1503 19.3265 21.2608 19.3818 21.3345 19.3818C21.4451 19.3818 21.5003 19.3081 21.5003 19.216C21.5003 19.0686 21.3345 18.9581 21.0582 18.9581C20.7081 18.9581 20.487 19.1976 20.487 19.5292C20.487 19.8056 20.6344 19.9345 20.9292 20.0451C21.095 20.1003 21.2056 20.1556 21.2056 20.303C21.2056 20.4135 21.1319 20.4872 21.0213 20.4872C20.8555 20.4872 20.7266 20.3951 20.6344 20.3951C20.5239 20.3951 20.4502 20.4688 20.4502 20.5793C20.4502 20.7267 20.6713 20.8741 20.9661 20.8741C21.3714 20.8557 21.6109 20.5978 21.6109 20.2477Z" fill="#9A9A9A"/>
    </g>
    <defs>
    <clipPath id="clip0_2491_671">
    <rect width="54" height="54" fill="white"/>
    </clipPath>
    </defs>
    </svg>
    