<svg width="87" height="54" viewBox="0 0 87 54" fill="none" xmlns="http://www.w3.org/2000/svg">
    <path d="M55.2025 18.5915C55.8719 17.704 56.5422 16.8535 57.1727 15.9748C59.9757 12.0649 62.7661 8.14528 65.5623 4.2305C67.2056 1.9301 69.4142 0.516188 72.2133 0.0773211C73.1434 -0.0686437 74.0833 -0.0472364 74.9444 0.489914C72.1501 2.42833 70.2519 5.13451 68.3391 7.81442C65.0272 12.4551 61.7562 17.126 58.4687 21.7852C58.385 21.9039 58.3072 22.0265 58.1962 22.1939C58.9006 22.7563 59.6955 23.0707 60.577 23.1631C62.05 23.3188 63.2808 22.7583 64.2041 21.6704C65.1654 20.5367 66.0225 19.3126 66.8826 18.0972C70.0913 13.5615 73.2728 9.00647 76.4855 4.47378C77.8982 2.4799 79.6942 0.959919 82.0954 0.281669C83.4673 -0.105624 84.8372 -0.0871334 86.1681 0.389685C81.7928 4.74138 78.228 9.71586 74.6369 14.667C72.4595 17.67 70.3998 20.7596 68.1679 23.7207C66.0293 26.5582 63.1553 28.0412 59.5214 27.6345C57.3478 27.3912 55.546 26.2867 54.1537 24.6646C52.85 23.1456 51.7262 21.4699 50.5548 19.84C47.3509 15.3812 44.3348 10.7872 40.8906 6.50171C39.5908 4.8854 37.68 4.17115 35.9501 4.72095C34.6668 5.12867 33.7833 6.04728 33.0332 7.11088C29.7729 11.7292 26.5321 16.3611 23.2494 20.9639C22.2365 22.3846 21.2101 23.816 20.0202 25.085C18.5764 26.6254 16.7307 27.5323 14.5795 27.7026C13.6776 27.7746 12.8059 27.6374 12.0801 27.3902C12.5928 26.8142 13.1299 26.2021 13.6747 25.5968C17.2658 21.6003 20.4629 17.2963 23.587 12.9349C25.7099 9.97178 27.7619 6.9581 29.9373 4.03394C31.9474 1.33164 34.6658 -0.120219 38.0944 0.042288C40.304 0.147383 42.1623 1.1633 43.647 2.73777C44.7182 3.87435 45.6356 5.16468 46.5483 6.43944C49.3406 10.3367 52.0969 14.2602 54.8688 18.1721C54.9612 18.3025 55.0673 18.4231 55.2035 18.5925L55.2025 18.5915Z" fill="#9A9A9A"/>
    <path d="M8.32534 42.7545V53.8508H4.56396V35.5234C5.27713 35.5234 6.01462 35.5088 6.75113 35.5371C6.87566 35.5419 7.00603 35.7161 7.11111 35.8319C10.8345 39.9549 14.5541 44.0799 18.2755 48.2048C18.3728 48.3129 18.473 48.417 18.6394 48.487C18.3748 47.9081 18.1588 47.2999 17.8367 46.7559C17.0166 45.3702 16.785 43.896 16.8463 42.2991C16.9309 40.0668 16.8677 37.8297 16.8677 35.5555H20.631V53.8741C19.9033 53.8741 19.1784 53.8984 18.4585 53.8556C18.294 53.8459 18.1257 53.624 17.9895 53.4722C14.9325 50.079 11.8795 46.6819 8.82542 43.2858C8.68921 43.135 8.54716 42.99 8.32534 42.7535V42.7545Z" fill="#9A9A9A"/>
    <path d="M69.3215 42.8791V53.844H65.5894V35.5215C66.2938 35.5215 67.0157 35.5049 67.7347 35.5361C67.8738 35.5419 68.0236 35.7219 68.1375 35.8484C71.2791 39.3185 74.4158 42.7925 77.5555 46.2635C78.2278 47.007 78.9098 47.7416 79.657 48.4452C79.3467 47.764 79.082 47.0566 78.7162 46.4056C78.0546 45.2281 77.8182 44.002 77.8678 42.6485C77.9476 40.4639 77.8892 38.2753 77.8892 36.0878V35.5429H81.6369V53.878C80.9189 53.878 80.2106 53.9014 79.5062 53.8605C79.3408 53.8508 79.1667 53.6425 79.0324 53.4936C75.9404 50.0664 72.8543 46.6343 69.7671 43.2021C69.6523 43.0747 69.5434 42.9404 69.4324 42.809C69.3955 42.8324 69.3575 42.8557 69.3206 42.8791H69.3215Z" fill="#9A9A9A"/>
    <path d="M38.2296 46.2031H31.2945V50.3281H39.2774V53.8459H27.3823V35.5438H39.0274V39.0188H31.2984V42.9014H38.2296V46.2031Z" fill="#9A9A9A"/>
    <path d="M0.5 27.333C4.23802 23.7228 7.27844 19.5609 10.3335 15.4223C13.0742 11.7099 15.6924 7.90801 18.3806 4.15671C20.0171 1.87382 22.2363 0.481321 25.018 0.0804048C25.7165 -0.0198243 26.4579 0.153387 27.1759 0.235127C27.3647 0.256535 27.5398 0.402499 27.7548 0.507593C26.0561 1.53616 24.7884 2.93353 23.6646 4.43405C21.3257 7.55672 19.0548 10.731 16.7869 13.9062C14.5755 17.0026 12.4126 20.134 10.2089 23.2353C8.76314 25.27 6.935 26.8143 4.47055 27.479C3.12985 27.841 1.7979 27.8069 0.5 27.332V27.333Z" fill="#9A9A9A"/>
    <path d="M58.5939 36.7164C57.9595 37.7674 57.3495 38.7765 56.72 39.8177C55.6595 39.0957 54.4929 38.7025 53.2437 38.7298C52.587 38.7444 51.8796 38.8903 51.293 39.1764C50.1021 39.7583 50.0544 41.3124 51.2132 41.9488C52.0392 42.4032 52.9713 42.6699 53.8625 43.0017C54.5289 43.2498 55.2295 43.4152 55.8745 43.7072C58.0442 44.69 58.983 46.4513 58.6863 48.8198C58.3944 51.1446 57.1043 52.6655 54.9454 53.4664C52.1871 54.4891 47.9879 53.9977 45.5264 52.3697C46.1987 51.2623 46.8729 50.152 47.4907 49.1341C48.6213 49.5185 49.6866 49.934 50.7831 50.2386C51.6996 50.4926 52.6453 50.4692 53.5492 50.0917C54.2351 49.8056 54.7469 49.3541 54.8062 48.5678C54.8656 47.7806 54.4569 47.2084 53.7759 46.9009C52.8808 46.4961 51.9468 46.1749 51.0264 45.8266C50.4066 45.5911 49.7664 45.4023 49.1613 45.1357C45.7842 43.6439 45.8834 40.2848 47.0227 38.1946C47.8838 36.6143 49.3052 35.72 51.0196 35.3629C53.6873 34.8082 56.1917 35.3648 58.5948 36.7164H58.5939Z" fill="#9A9A9A"/>
    </svg>
    