<svg width="72" height="32" viewBox="0 0 72 32" fill="none" xmlns="http://www.w3.org/2000/svg">
<g id="FOX_Black 1" clip-path="url(#clip0_1338_1709)">
<g id="Layer 2">
<g id="Layer 1">
<path id="Vector" d="M0.311523 0.519531H18.8801C19.0691 3.31538 19.258 6.09579 19.447 8.89164H9.11874C9.05058 9.12308 9.01651 12.3818 9.07537 12.8848C11.8789 12.9157 14.6856 12.8848 17.4892 12.8848C17.5356 13.0391 17.5573 20.6644 17.5108 21.2353H9.01341V31.1411C8.94836 31.1411 8.89259 31.1411 8.83683 31.1411H0.466416C0.413753 31.1411 0.364187 31.1411 0.311523 31.1411V0.519531Z" fill="#9A9A9A"/>
<path id="Vector_2" d="M48.3899 15.7623C48.3967 17.5346 48.1045 19.2955 47.5256 20.9713C47.1195 22.0916 46.5808 23.1597 45.9209 24.1529C45.1487 25.3544 44.1971 26.4314 43.0987 27.3469C41.1842 28.9492 38.8942 30.0436 36.4414 30.5284C35.2168 30.7599 33.9669 30.8294 32.724 30.7352C31.5884 30.66 30.4656 30.4529 29.3783 30.118C27.9246 29.6653 26.5534 28.9828 25.317 28.0967C23.6479 26.905 22.2427 25.3841 21.1886 23.6285C20.1344 21.873 19.454 19.9202 19.1895 17.8916C19.0445 16.853 19.0092 15.8022 19.0841 14.7563C19.1804 13.5106 19.4301 12.2814 19.8276 11.0964C20.7641 8.23433 22.5603 5.72774 24.9732 3.91545C26.7564 2.56021 28.8339 1.64065 31.0388 1.2307C32.3373 0.979587 33.6652 0.914125 34.9823 1.03628C38.3579 1.32368 41.5222 2.7931 43.9135 5.18376C44.8861 6.13868 45.7258 7.21911 46.4103 8.39621C46.9754 9.38725 47.4254 10.4391 47.7517 11.5315C48.1899 12.8988 48.4053 14.3271 48.3899 15.7623ZM31.2897 15.8672C31.2897 17.8834 31.2897 19.9005 31.2897 21.9187C31.2886 22.0798 31.3 22.2408 31.3238 22.4001C31.4283 23.0227 31.7657 23.5828 32.268 23.9676C32.7704 24.3523 33.4004 24.5332 34.0313 24.4739C34.5366 24.4295 35.0172 24.2361 35.4117 23.9184C35.8062 23.6007 36.0968 23.1731 36.2463 22.6902C36.3292 22.4046 36.3679 22.108 36.3609 21.8107C36.3609 19.342 36.3609 16.8732 36.3609 14.4045V9.85894C36.3757 9.42468 36.2835 8.99343 36.0923 8.60288C35.9011 8.21233 35.6168 7.87437 35.2642 7.61856C35.0056 7.41277 34.7067 7.26287 34.3867 7.17839C34.0667 7.09392 33.7326 7.07672 33.4055 7.12789C32.8836 7.22261 32.4043 7.47716 32.0345 7.85607C31.6647 8.23498 31.4227 8.71937 31.3424 9.24175C31.2942 9.62655 31.2756 10.0144 31.2866 10.4021C31.2711 12.2474 31.2897 14.0496 31.2897 15.8672Z" fill="#9A9A9A"/>
<path id="Vector_3" d="M44.3418 0.571601H54.162L57.7183 7.14153C57.7679 7.05821 57.8082 6.99649 57.8422 6.93477L61.2158 0.827733C61.3986 0.497539 61.2932 0.559257 61.6743 0.559257H70.8037C70.8037 0.587031 70.8223 0.593202 70.8223 0.599374C70.8223 0.605546 70.8223 0.599374 70.8223 0.61789C70.8223 0.636405 70.8223 0.61789 70.8223 0.636405C70.819 0.648489 70.8138 0.659957 70.8068 0.670351C70.8068 0.670351 70.8068 0.670351 70.8068 0.688866L70.7789 0.738241L62.489 15.1495V15.168C62.489 15.168 62.489 15.168 62.489 15.1865C62.49 15.1978 62.49 15.2092 62.489 15.2205C65.5466 20.5036 68.6538 25.7712 71.7299 31.0975H71.5038C68.3873 31.0975 65.273 31.0975 62.1606 31.0975C62.0874 31.1044 62.0139 31.0881 61.9505 31.051C61.8872 31.0139 61.8371 30.9578 61.8075 30.8908C60.4672 28.4591 59.1247 26.0294 57.7803 23.6018C57.7493 23.5401 57.7121 23.4784 57.6595 23.3951C57.6161 23.4722 57.5789 23.5278 57.5448 23.5864C56.3057 25.8494 55.0666 28.1196 53.8274 30.397C53.7283 30.5791 53.6199 30.7581 53.5176 30.9433C53.496 30.9994 53.4563 31.0469 53.4048 31.0782C53.3532 31.1094 53.2926 31.1228 53.2326 31.1161C52.3404 31.1161 51.4514 31.1161 50.5592 31.1161H44.5121H43.8926C43.9359 31.0297 43.9669 30.9679 44.001 30.9093C44.7321 29.6359 45.4642 28.3614 46.1974 27.0858L52.8702 15.5075C52.9012 15.4519 52.929 15.3933 52.9662 15.3223C50.0811 10.4178 47.2063 5.50085 44.3418 0.571601Z" fill="#9A9A9A"/>
</g>
</g>
</g>
<defs>
<clipPath id="clip0_1338_1709">
<rect width="71.3778" height="30.637" fill="white" transform="translate(0.311523 0.519531)"/>
</clipPath>
</defs>
</svg>
