<svg width="60" height="32" viewBox="0 0 60 32" fill="none" xmlns="http://www.w3.org/2000/svg">
    <g clip-path="url(#clip0_2267_16418)">
    <path d="M28.5117 32C28.1478 31.9672 27.7845 31.9278 27.4202 31.903C20.3451 31.4202 14.0188 28.9697 8.45657 24.5161C7.96883 24.1259 7.5047 23.7059 7.02975 23.2993C6.98599 23.262 6.94321 23.2231 6.90241 23.1823C6.70328 22.9823 6.65756 22.7524 6.78195 22.5841C6.90683 22.4149 7.13496 22.3826 7.38375 22.5185C7.95261 22.829 8.51163 23.1585 9.08492 23.461C12.5428 25.286 16.1806 26.6143 19.9827 27.4852C23.0728 28.1929 26.2003 28.5855 29.3711 28.6408C35.6895 28.7512 41.7493 27.5275 47.5809 25.0889C47.7747 25.0078 48.0166 24.9744 48.2216 25.0078C48.7123 25.0879 48.8917 25.6269 48.5756 26.0166C48.489 26.1236 48.376 26.2126 48.2644 26.2948C46.0263 27.939 43.5621 29.1339 40.9567 30.0447C38.4723 30.9131 35.9196 31.4804 33.3088 31.778C32.5856 31.8607 31.8569 31.8905 31.1308 31.9478C31.0103 31.9572 30.8913 31.9821 30.7713 32H28.5117Z" fill="#9A9A9A"/>
    <path d="M59.8047 6.60852C59.6282 7.03253 59.4443 7.45406 59.2766 7.88155C57.9486 11.2662 56.6241 14.6518 55.2976 18.0369C55.1127 18.5087 55.007 18.5799 54.5109 18.5809C54.1013 18.5819 53.6923 18.5819 53.2827 18.5809C52.8024 18.5799 52.6912 18.5053 52.5113 18.0499C51.9955 16.7435 51.4813 15.4361 50.967 14.1293C50.0048 11.6842 49.0431 9.23919 48.0819 6.79365C48.0519 6.71701 48.0229 6.63838 48.0066 6.55776C47.9545 6.30544 48.0475 6.15962 48.2987 6.15564C48.8715 6.14718 49.4443 6.15863 50.0171 6.1641C50.255 6.16659 50.3937 6.30992 50.4704 6.51944C50.7133 7.18681 50.9562 7.85468 51.1897 8.52553C52.0668 11.0467 52.9405 13.5689 53.8162 16.0906C53.8447 16.1727 53.8826 16.2513 53.9406 16.3897C53.9966 16.2498 54.0325 16.1697 54.0615 16.0866C55.1299 13.0105 56.1973 9.93443 57.2652 6.85835C57.2814 6.81157 57.2991 6.76529 57.3168 6.719C57.514 6.21387 57.5922 6.15515 58.133 6.14718C58.5342 6.14121 58.9364 6.13026 59.3361 6.15315C59.4944 6.16211 59.6483 6.25518 59.8042 6.30992V6.60802L59.8047 6.60852Z" fill="#9A9A9A"/>
    <path d="M30.7155 12.8771C29.4957 12.8771 28.2758 12.8836 27.056 12.8722C26.8136 12.8697 26.7335 12.9403 26.7738 13.1822C26.8441 13.6052 26.8672 14.0392 26.967 14.4543C27.3151 15.9035 28.2606 16.7082 29.6943 16.952C31.0892 17.1894 32.4491 17.0033 33.7879 16.5853C33.9521 16.534 34.1168 16.4837 34.283 16.4419C34.6124 16.3593 34.7437 16.4569 34.758 16.8032C34.7678 17.0347 34.7491 17.2676 34.7639 17.4985C34.788 17.8752 34.6267 18.125 34.2796 18.237C33.7274 18.4157 33.1787 18.6167 32.6138 18.7382C31.3291 19.0134 30.0331 19.0547 28.739 18.7859C26.8117 18.3853 25.4802 17.2646 24.8912 15.3585C24.254 13.2957 24.2299 11.203 24.9964 9.16853C25.7624 7.13605 27.295 6.05711 29.4214 5.82271C30.1584 5.74159 30.891 5.76 31.6192 5.91428C33.3607 6.28405 34.5456 7.50731 34.8878 9.27204C35.0874 10.3012 35.0677 11.3294 34.9168 12.3596C34.8509 12.8095 34.7649 12.8766 34.3012 12.8776C33.106 12.8791 31.9107 12.8781 30.7155 12.8781V12.8771ZM26.7925 11.2657C26.8417 11.2752 26.8731 11.2861 26.9041 11.2861C28.8255 11.2876 30.7475 11.2871 32.6689 11.2906C32.8046 11.2906 32.8626 11.2388 32.8597 11.1015C32.8508 10.7222 32.8724 10.34 32.8351 9.9633C32.719 8.78781 32.1035 7.97761 31.0985 7.71783C30.7243 7.62078 30.3222 7.58893 29.9342 7.59789C27.91 7.64467 26.8274 9.15559 26.7925 11.2652V11.2657Z" fill="#9A9A9A"/>
    <path d="M5.55629 8.03434C5.54892 8.1921 5.5381 8.32149 5.5381 8.45138C5.53712 11.5723 5.53712 14.6931 5.53712 17.814C5.53712 17.9051 5.53958 17.9961 5.53466 18.0872C5.51499 18.4684 5.39896 18.5794 5.01546 18.5809C4.56509 18.5829 4.11522 18.5829 3.66485 18.5809C3.28676 18.5789 3.17122 18.4625 3.15991 18.0758C3.15598 17.9434 3.15844 17.811 3.15844 17.6786C3.15844 14.5826 3.15844 11.4867 3.15844 8.39067C3.15844 8.15378 3.04355 8.03517 2.81378 8.03484C2.34719 8.03484 1.8806 8.03732 1.4145 8.03384C1.00002 8.03086 0.868745 7.89649 0.866779 7.48591C0.866287 7.32019 0.865795 7.15496 0.866779 6.98924C0.868745 6.62594 0.987237 6.47813 1.34714 6.42488C1.74342 6.36616 2.14216 6.32187 2.53992 6.2711C2.62105 6.26065 2.70168 6.24473 2.7828 6.23776C3.15745 6.20442 3.15303 6.26464 3.1609 5.78439C3.17466 4.91596 3.15205 4.04355 3.23219 3.18109C3.39788 1.40143 4.53264 0.301089 6.28642 0.104511C7.17929 0.00447974 8.04954 0.106004 8.91241 0.319503C9.33328 0.423515 9.43358 0.55689 9.44538 0.99633C9.45275 1.26109 9.45423 1.52635 9.44144 1.79061C9.42915 2.0484 9.31902 2.1554 9.06532 2.13698C8.66609 2.10812 8.26931 2.03446 7.87008 2.02003C7.52099 2.00709 7.16503 2.02003 6.82037 2.07328C6.04009 2.19372 5.60989 2.63963 5.56809 3.43191C5.52335 4.27397 5.54794 5.1195 5.53614 5.96355C5.53368 6.15565 5.65512 6.14619 5.78148 6.14619C6.72253 6.14619 7.66407 6.14619 8.60512 6.14619C8.69509 6.14619 8.78556 6.1447 8.87504 6.15166C9.17054 6.17456 9.28952 6.28803 9.30033 6.58613C9.31214 6.90862 9.31115 7.2316 9.30329 7.55459C9.29444 7.89897 9.16267 8.02936 8.81506 8.03185C8.09477 8.03733 7.37448 8.03384 6.65468 8.03434C6.29625 8.03434 5.93734 8.03434 5.55629 8.03434Z" fill="#9A9A9A"/>
    <path d="M40.6451 12.0077C40.6451 10.8153 40.6451 9.62289 40.6451 8.43048C40.6451 8.16639 40.5107 8.03434 40.2419 8.03434C39.7999 8.03434 39.3579 8.03832 38.9159 8.03285C38.5353 8.02837 38.4045 7.88952 38.3986 7.50233C38.3962 7.33661 38.3967 7.17089 38.3986 7.00566C38.4031 6.61051 38.5181 6.47515 38.9129 6.4204C39.3102 6.36516 39.7084 6.31988 40.1062 6.26911C40.1873 6.25866 40.268 6.24572 40.3491 6.23378C40.7272 6.17804 40.7183 6.17754 40.7572 5.78439C40.8447 4.90352 40.9381 4.02364 41.0374 3.14376C41.0802 2.76255 41.2179 2.65058 41.6043 2.64908C41.8988 2.64809 42.1938 2.64709 42.4883 2.64908C42.8758 2.65157 43.01 2.77549 43.0129 3.16715C43.0193 4.04504 43.0149 4.92243 43.0159 5.80031C43.0159 6.1447 43.0169 6.14569 43.3473 6.14619C44.248 6.14669 45.1482 6.14519 46.049 6.14719C46.5701 6.14818 46.6695 6.24921 46.6699 6.76877C46.6699 6.98426 46.6699 7.19925 46.6699 7.41474C46.6695 7.92883 46.5637 8.03434 46.045 8.03434C45.1527 8.03484 44.2603 8.03434 43.3679 8.03434C43.0169 8.03434 43.0159 8.03434 43.0159 8.3842C43.0159 10.6033 43.0203 12.8224 43.0139 15.0415C43.01 16.4205 43.5095 16.8326 44.8704 16.8236C45.2844 16.8207 45.6989 16.736 46.1104 16.6704C46.6778 16.5798 46.7673 16.648 46.7678 17.2223C46.7678 17.4208 46.7747 17.6199 46.7653 17.8185C46.7462 18.2151 46.635 18.3659 46.255 18.4774C45.3975 18.7292 44.5194 18.8039 43.631 18.7416C43.3871 18.7247 43.1417 18.6904 42.9043 18.6327C41.6156 18.3186 40.8737 17.4816 40.7075 16.1528C40.6677 15.8333 40.6505 15.5093 40.6485 15.1873C40.6411 14.1273 40.6456 13.0677 40.6456 12.0077H40.6451Z" fill="#9A9A9A"/>
    <path d="M19.3191 7.97512C19.4499 7.81785 19.5689 7.64815 19.7139 7.50582C20.4573 6.77474 21.2996 6.21636 22.3576 6.09891C22.7623 6.05412 23.1748 6.06507 23.5829 6.07851C23.8636 6.08747 23.9791 6.24025 23.9816 6.53785C23.9845 6.95191 23.9841 7.36597 23.9816 7.78003C23.9796 8.13487 23.8621 8.25132 23.5027 8.24784C23.0696 8.24386 22.6354 8.20802 22.2042 8.23142C21.2224 8.28467 20.3393 8.62806 19.5477 9.21978C19.386 9.34072 19.3245 9.47409 19.325 9.67714C19.3309 12.4267 19.329 15.1759 19.3285 17.9255C19.3285 18.0165 19.3294 18.1076 19.324 18.1987C19.3093 18.4336 19.1824 18.5724 18.9509 18.5759C18.4189 18.5844 17.8864 18.5854 17.3544 18.5769C17.1086 18.5729 16.9881 18.4386 16.9675 18.1863C16.9616 18.1121 16.9631 18.0374 16.9631 17.9628C16.9631 14.2363 16.9631 10.5092 16.9631 6.78271C16.9631 6.70009 16.9631 6.61698 16.9685 6.53437C16.9837 6.31291 17.1002 6.16809 17.32 6.16261C17.7615 6.15117 18.2035 6.15266 18.645 6.1646C18.8766 6.17107 18.9941 6.33082 19.0261 6.5498C19.0777 6.90165 19.1195 7.25499 19.1667 7.60734C19.1805 7.71185 19.1996 7.81537 19.2164 7.91938C19.2503 7.93779 19.2842 7.9567 19.3181 7.97512H19.3191Z" fill="#9A9A9A"/>
    <path d="M13.7759 12.3879C13.7759 14.2592 13.7759 16.1304 13.7759 18.0016C13.7759 18.4883 13.6835 18.5809 13.2036 18.5814C12.7778 18.5814 12.3521 18.5829 11.9268 18.5814C11.5344 18.5799 11.4149 18.463 11.414 18.0613C11.411 16.8112 11.4125 15.5611 11.4125 14.3104C11.4125 11.8017 11.4125 9.29295 11.4125 6.78421C11.4125 6.23976 11.5025 6.14868 12.0403 6.14719C12.4494 6.1462 12.859 6.14221 13.268 6.14918C13.6673 6.15615 13.7749 6.27061 13.7749 6.67522C13.7759 8.57979 13.7749 10.4839 13.7749 12.3884L13.7759 12.3879Z" fill="#9A9A9A"/>
    <path d="M47.9783 23.2475C46.7978 23.3655 45.7319 23.472 44.6655 23.578C44.5922 23.5854 44.5175 23.5959 44.4457 23.5879C44.2127 23.5611 44.1114 23.3784 44.2427 23.1803C44.3302 23.048 44.461 22.9335 44.5937 22.8439C45.5731 22.185 46.6666 21.8312 47.819 21.656C49.1569 21.4524 50.4942 21.4375 51.8168 21.7724C52.6674 21.9879 52.8311 22.1661 52.7849 23.0465C52.6501 25.6343 51.7961 27.9241 49.9347 29.767C49.8049 29.8959 49.6357 30.0034 49.4656 30.0666C49.2493 30.1467 49.1131 30.0153 49.1416 29.7824C49.1544 29.6779 49.1952 29.5749 49.2336 29.4753C49.7434 28.1575 50.2666 26.8442 50.5527 25.4522C50.6142 25.1536 50.6584 24.8475 50.6682 24.5434C50.6899 23.8781 50.4844 23.572 49.8432 23.4555C49.1952 23.3376 48.5315 23.3062 47.9788 23.2475H47.9783Z" fill="#9A9A9A"/>
    <path d="M12.6032 3.88629C11.2222 3.92063 10.8883 2.63316 11.2595 1.7498C11.3126 1.62339 11.4006 1.50644 11.4936 1.40442C11.8839 0.97792 12.7119 0.845043 13.3009 1.10483C13.8403 1.34271 14.1353 1.86128 14.1014 2.51223C14.0556 3.39161 13.5158 3.88678 12.6032 3.88579V3.88629Z" fill="#9A9A9A"/>
    </g>
    <defs>
    <clipPath id="clip0_2267_16418">
    <rect width="59" height="32" fill="white" transform="translate(0.804688)"/>
    </clipPath>
    </defs>
    </svg>
    