<svg width="181" height="54" viewBox="0 0 181 54" fill="none" xmlns="http://www.w3.org/2000/svg">
    <rect x="0.5" width="180" height="54" fill="white"/>
    <path d="M149.935 37.7079C149.307 36.2115 148.433 34.1293 147.993 33.0807C146.257 28.9444 145.637 27.4655 144.21 24.0645L142.728 20.5295L138.476 20.509L134.225 20.4884V30.3394V40.1904H129.443H124.661V30.3401V20.4898H120.457H116.252V16.5966V12.7034C127.045 12.6987 137.838 12.7052 148.631 12.7118C150.275 12.7071 150.697 14.1059 151.035 14.9907C151.161 15.3283 152.261 18.3833 153.48 21.7796C154.699 25.1759 155.722 27.9284 155.754 27.8963C155.805 27.8451 156.532 25.8395 159.62 17.233C160.493 15.1936 161.04 12.7232 163.419 12.704L167.264 12.7222C169.77 12.71 171.819 12.7157 171.819 12.7359C171.819 12.7557 171.612 13.2662 171.359 13.8704C171.105 14.4746 170.246 16.5239 169.45 18.4244C168.654 20.325 167.56 22.9345 167.019 24.2234C166.12 26.3652 164.669 29.8286 162.008 36.1788C161.739 36.8218 161.472 37.4421 161.258 37.9281C160.042 40.1664 158.585 40.4833 157.074 40.4154C156.467 40.426 155.68 40.4287 154.635 40.4287H151.077L149.935 37.7079Z" fill="#9A9A9A"/>
    <path d="M54.0151 20.7398C57.3163 20.7397 59.9925 23.3255 59.9926 26.5153C59.9928 29.7054 57.3165 32.2915 54.0151 32.2913C50.7139 32.2912 48.0379 29.7052 48.0381 26.5153C48.0382 23.3256 50.7141 20.7399 54.0151 20.7398ZM54.0403 12.0324C45.7548 12.0325 39.0382 18.5122 39.0383 26.5052C39.0384 34.4979 45.755 40.9773 54.0403 40.9774C62.3258 40.9776 69.0426 34.4981 69.0427 26.5052C69.0429 18.512 62.326 12.0322 54.0403 12.0324ZM94.6519 28.0165C94.6519 20.6768 94.6153 15.7687 94.6627 15.4899C94.7186 13.596 96.6193 12.6959 97.9942 12.7207L106.006 12.7235L114.933 12.7023V16.6359V20.5694H109.615H104.297V22.2773V23.9852H106.977H109.656V27.5997V31.2141H106.977H104.297V35.7023V40.1905H99.4744H94.6514L94.6519 28.0165ZM72.6623 40.075C71.2011 39.9863 70.4529 38.9553 70.3293 37.8191L70.3497 25.233L70.3278 12.6985C72.4014 12.7251 74.4748 12.7188 76.5485 12.7081C78.6991 12.7844 79.6171 13.3409 79.8306 14.792C79.8673 20.8318 79.8811 26.1708 79.8967 32.326H86.6145H93.3323V36.2582V40.1903L83.171 40.1847C75.0094 40.18 72.9414 40.1591 72.6623 40.075ZM23.6667 40.8236C21.2729 40.6054 19.2306 40.0834 17.5103 39.25C15.9164 38.4778 14.0201 36.9953 12.8448 35.6025C11.109 33.5455 10.0223 31.114 9.60533 28.3542C9.43743 27.2429 9.47616 24.8779 9.6795 23.825C10.0831 21.7353 10.9543 19.7571 12.2329 18.0271C12.8935 17.1332 14.6105 15.4978 15.5872 14.8321C17.6461 13.4287 20.2809 12.4558 22.9656 12.1075C24.2962 11.9348 27.3323 11.9772 28.4897 12.1845C31.6282 12.7467 34.0786 13.7964 36.5089 15.6199C36.9357 15.9402 37.1682 16.166 37.131 16.224C36.8894 16.6007 33.47 20.5107 33.1798 20.7421C32.1773 21.4087 30.8576 21.5182 29.9705 21.078C29.7002 20.9429 29.2188 20.7023 28.9008 20.5433C27.2663 19.7267 25.0194 19.656 23.3107 20.3674C22.3217 20.7791 21.7989 21.1106 21.1135 21.7607C19.6692 23.1303 18.9662 24.8732 19.0732 26.8183C19.2596 30.2054 21.8833 32.783 25.4498 33.0828C27.3487 33.2424 28.8921 32.0345 29.0078 30.2983C29.0652 29.4355 28.8538 28.8245 28.2386 28.076C27.2152 26.6445 27.2906 25.1095 28.7277 24.2213C29.1152 23.9431 29.5871 23.8636 29.9962 23.8627L33.7868 23.8433L38.177 23.8207V30.1767V36.5326L37.6205 36.9776C35.5431 38.6389 32.8304 39.8819 30.015 40.4624C28.2587 40.8245 25.4376 40.9851 23.6667 40.8236Z" fill="#9A9A9A"/>
    <path d="M49.1313 29.8461C49.4568 30.2947 49.8611 30.6487 50.2675 31.0274C51.577 33.3322 54.3877 34.8381 56.9722 34.458C58.3084 34.2989 59.4905 33.6852 60.4939 32.6206C62.0413 30.9137 62.167 28.3196 61.0778 26.1736C60.6842 25.4143 60.135 24.6819 59.4495 24.1069C59.1985 23.5498 58.7955 23.0172 58.4434 22.6332C59.6546 22.3411 60.9362 22.1863 62.0318 22.1585C64.7083 22.0906 67.0963 22.7198 68.7247 23.5321C69.0186 24.9016 69.0875 26.3126 69.0039 27.5859C68.8409 31.7529 66.0376 36.2729 62.4114 38.4804C60.3112 39.9422 57.8698 40.7831 55.3092 40.9529C52.6186 41.1628 49.9819 40.6659 47.6016 39.5768C47.2522 37.7536 47.2086 36.0071 47.4898 34.3377C47.7527 32.777 48.3237 31.327 49.1313 29.8461Z" fill="#9A9A9A"/>
    </svg>
    