<svg width="180" height="54" viewBox="0 0 180 54" fill="none" xmlns="http://www.w3.org/2000/svg">
<rect width="180" height="54" fill="white"/>
<g clip-path="url(#clip0_168_7829)">
<path d="M78.6645 34.259L76.8756 39.6739C76.8514 39.761 76.7976 39.8373 76.7231 39.8902C76.6485 39.9431 76.5577 39.9694 76.4658 39.9646H72.1379C71.8782 39.9646 71.8014 39.821 71.8416 39.6057L79.3011 18.495C79.5488 17.7761 79.6725 17.0217 79.6669 16.263C79.6629 16.2003 79.6839 16.1386 79.7256 16.091C79.7673 16.0434 79.8264 16.0137 79.8901 16.0082H85.8569C86.0435 16.0082 86.1167 16.0441 86.1569 16.2271L94.6225 39.6416C94.6956 39.8246 94.6591 39.9681 94.4359 39.9681H89.5958C89.507 39.9831 89.4158 39.9653 89.3395 39.9183C89.2632 39.8713 89.2073 39.7983 89.1824 39.7134L87.2801 34.2625L78.6645 34.259ZM85.9008 29.6837C85.1692 27.2687 83.6656 22.8406 82.9741 20.2425H82.9375C82.3412 22.6934 80.9949 26.7017 80.0108 29.6837H85.9008Z" fill="#9A9A9A"/>
<path d="M95.2188 31.0401C95.2188 25.8081 99.2101 21.4302 106.037 21.4302C106.333 21.4302 106.706 21.4697 107.266 21.5056V14.2821C107.262 14.2477 107.266 14.2128 107.277 14.18C107.289 14.1473 107.308 14.1175 107.333 14.093C107.358 14.0685 107.388 14.0499 107.422 14.0385C107.455 14.0271 107.491 14.0233 107.526 14.0273H112.227C112.413 14.0273 112.45 14.0991 112.45 14.2462V35.8701C112.44 36.7623 112.49 37.6541 112.6 38.5399C112.6 38.7229 112.563 38.7947 112.34 38.87C110.015 39.8362 107.515 40.3329 104.99 40.3305C99.4698 40.3305 95.2188 37.2588 95.2188 31.0401ZM107.266 25.844C106.821 25.7012 106.354 25.6391 105.887 25.661C103.015 25.661 100.553 27.3799 100.553 30.7817C100.553 34.406 102.678 35.9778 105.513 35.9778C106.106 36.0022 106.698 35.9282 107.266 35.7589V25.844Z" fill="#9A9A9A"/>
<path d="M133.811 30.7817C133.811 36.5232 130.006 40.3305 124.636 40.3305C118.259 40.3305 115.424 35.6117 115.424 30.8929C115.424 25.6969 118.965 21.4159 124.709 21.4159C130.716 21.4302 133.811 25.844 133.811 30.7817ZM120.681 30.8212C120.681 34.0508 122.21 36.089 124.705 36.089C126.871 36.089 128.51 34.2589 128.51 30.8929C128.51 28.0222 127.318 25.661 124.486 25.661C122.324 25.661 120.681 27.5629 120.681 30.8212Z" fill="#9A9A9A"/>
<path d="M141.651 14.0273C141.951 14.0273 142.017 14.0632 142.017 14.3216V21.8214C143.041 21.5545 144.096 21.4229 145.156 21.4303C150.643 21.4303 154.108 25.2376 154.108 30.1394C154.108 36.979 148.587 40.3449 142.921 40.3449C140.937 40.358 138.964 40.0749 137.067 39.5052C137.001 39.4696 136.946 39.4178 136.907 39.3549C136.868 39.2919 136.846 39.2201 136.844 39.1464V14.2821C136.844 14.0991 136.917 14.0273 137.104 14.0273H141.651ZM144.212 25.7328C143.47 25.7237 142.73 25.8229 142.017 26.0271V35.9419C142.469 36.0457 142.932 36.0951 143.396 36.089C146.231 36.089 148.803 34.4061 148.803 30.5987C148.811 27.2722 146.835 25.7364 144.223 25.7364L144.212 25.7328Z" fill="#9A9A9A"/>
<path d="M161.385 32.1956C161.571 34.2805 163.064 35.9994 166.718 35.9994C168.29 36.0285 169.851 35.7428 171.306 35.1597C171.42 35.0843 171.529 35.1238 171.529 35.3427V38.8163C171.529 39.0746 171.456 39.1751 171.27 39.2577C169.777 39.9502 168.138 40.3342 165.562 40.3342C158.553 40.3342 156.091 35.6154 156.091 31.0796C156.091 26.0307 159.259 21.4196 165.116 21.4196C170.746 21.4196 172.985 25.7006 172.985 29.3141C173.012 30.1352 172.949 30.9568 172.799 31.765C172.794 31.8407 172.762 31.9122 172.707 31.9658C172.652 32.0194 172.58 32.0514 172.502 32.0557C171.225 32.1758 169.941 32.2249 168.657 32.2028L161.385 32.1956ZM166.236 28.6467C166.858 28.6687 167.482 28.6447 168.101 28.5749V28.3165C168.087 27.9231 167.994 27.5363 167.826 27.1786C167.659 26.8208 167.421 26.4992 167.126 26.2322C166.831 25.9653 166.485 25.7583 166.108 25.6233C165.731 25.4883 165.33 25.428 164.93 25.4458C162.581 25.4458 161.571 27.1646 161.348 28.6754L166.236 28.6467Z" fill="#9A9A9A"/>
<path d="M37.7781 6H55.825V48.383L37.7781 6Z" fill="#9A9A9A"/>
<path d="M25.0615 6H7V48.383L25.0615 6Z" fill="#9A9A9A"/>
<path d="M31.4197 21.6205L42.9181 48.383H35.3818L31.9429 39.8605H23.5286L31.4197 21.6205Z" fill="#9A9A9A"/>
</g>
<defs>
<clipPath id="clip0_168_7829">
<rect width="166" height="42.383" fill="white" transform="translate(7 6)"/>
</clipPath>
</defs>
</svg>
