<svg width="180" height="54" viewBox="0 0 180 54" fill="none" xmlns="http://www.w3.org/2000/svg">
<rect width="180" height="54" fill="white"/>
<path d="M44.9962 0.053122C42.4794 0.259352 39.9626 0.976237 38.2682 1.95824C37.4062 2.45912 36.2468 3.39204 35.4046 4.27586C33.2248 6.53455 32.3726 9.10749 32.759 12.2303C33.0662 14.6757 34.176 17.6119 35.3848 19.193C35.692 19.5858 35.9298 19.9295 35.91 19.9393C35.8901 19.959 35.5533 20.0769 35.1569 20.2143C32.0754 21.2651 29.6973 24.2505 29.0829 27.8054C28.9145 28.8071 29.0136 31.0265 29.2811 31.9692C29.5388 32.9317 30.6881 35.8778 31.0845 36.6339C32.0853 38.5097 33.5319 39.8943 35.583 40.9058C37.6638 41.9271 39.6356 42.3395 42.0236 42.2512C43.6189 42.1824 44.788 41.9664 46.1059 41.4754C47.4039 40.9942 48.3849 40.3657 50.2973 38.8337C51.2088 38.0971 52.0015 37.4686 52.061 37.4294C52.1204 37.3999 52.2988 37.6553 52.4672 38.0186C53.4482 40.1005 55.0831 41.4263 57.263 41.8977C58.4421 42.1628 60.4437 42.1137 61.6227 41.7995C62.7722 41.495 64.1396 40.8763 65.2295 40.1496C66.2104 39.5015 68.7371 37.5865 70.5603 36.1037C71.1053 35.6716 71.5809 35.3082 71.6106 35.3082C71.6502 35.3082 71.8088 35.6323 71.9574 36.0152C73.0474 38.8926 74.5337 40.7781 76.3965 41.7013L77.2188 42.1039L76.5352 44.1759C76.1488 45.3249 75.5938 46.9649 75.2867 47.8292C74.4346 50.2646 74.4643 50.9717 75.4947 52.5233C76.0695 53.3875 76.6343 53.8195 77.2882 53.9177C77.5062 53.9571 79.0816 53.9669 80.7661 53.9472C84.0756 53.9177 84.1449 53.908 84.6404 53.358C84.9773 52.9946 85.0962 52.7099 86.1168 49.695C87.1572 46.6213 89.3172 40.5032 89.3767 40.4443C89.3965 40.4246 89.6145 40.5425 89.8622 40.7094C92.2403 42.3003 95.2625 42.5262 98.2845 41.3379C98.7895 41.1415 99.6021 40.7683 100.088 40.513L100.98 40.0416L101.475 40.4934C102.684 41.5736 103.655 41.9958 105.092 42.0548C106.311 42.1137 107.509 41.8191 109.045 41.0825L110.145 40.562L110.571 40.837C113.386 42.7324 115.951 42.4574 119.578 39.8845L120.747 39.0596L121.193 39.7372C122.273 41.3379 123.938 42.1726 125.85 42.0548C127.426 41.9566 128.793 41.4459 130.388 40.3558L131.161 39.8354L131.776 40.3264C132.559 40.9549 133.946 41.6325 134.956 41.8878C136.968 42.3887 139.702 41.986 141.982 40.8469C144.578 39.5506 147.372 36.6143 149.67 32.804C151.306 30.0837 151.633 29.2294 151.523 27.992C151.365 26.1458 150.235 24.7415 148.501 24.2407C148.165 24.1425 147.897 24.0246 147.897 23.9755C147.897 23.9264 147.986 23.7496 148.085 23.5827C148.402 23.072 148.69 22.09 148.69 21.5008C148.69 20.7839 148.253 19.4778 147.521 18.0244C147.084 17.1503 146.817 16.7576 146.351 16.296C145.549 15.4907 145.123 15.3336 143.903 15.3925C142.982 15.4318 142.942 15.4416 141.744 16.0407C140.277 16.7674 138.999 17.7494 136.73 19.9001L135.194 21.3633L134.263 20.5089C133.322 19.6349 133.252 19.5269 133.044 18.6627C132.905 18.0735 132.677 17.7494 132.231 17.4843C131.915 17.2977 131.716 17.2879 128.526 17.2879C125.454 17.2879 125.117 17.3075 124.76 17.4646C124.235 17.7101 123.948 18.0833 123.611 18.977C123.462 19.3796 123.323 19.7331 123.304 19.7528C123.284 19.7724 123.007 19.4581 122.69 19.0555C121.322 17.3271 121.035 17.2093 118.379 17.2977C117.369 17.337 116.199 17.337 115.783 17.2977L115.03 17.2289L116.041 14.214C116.595 12.5544 117.349 10.4136 117.716 9.46101C118.31 7.88975 118.369 7.6541 118.369 6.98626C118.369 6.08284 118.171 5.51327 117.448 4.37405C116.615 3.03852 116.784 3.08762 112.622 3.11705C109.372 3.14655 109.184 3.15639 108.807 3.35278C108.59 3.47064 108.332 3.69646 108.233 3.86342C108.005 4.24643 108.045 4.1384 105.488 11.6412C104.299 15.1274 103.209 18.2993 103.051 18.702L102.773 19.4287L102.526 19.0948C101.653 17.9655 100.475 17.0816 99.3152 16.7281C98.7303 16.5415 98.3932 16.5022 97.4622 16.5121C96.4515 16.5317 96.1638 16.5709 94.8861 16.9343C93.3203 17.3762 92.7555 17.4155 91.071 17.2388C89.7334 17.0915 87.0581 17.278 86.0871 17.5923L85.334 17.8279L84.789 17.553L84.2341 17.2879L81.1328 17.278C78.5466 17.2584 78.0017 17.2388 77.8134 17.1111C77.6747 17.0227 77.4864 16.7085 77.3576 16.3353C76.8324 14.8917 75.9506 13.8114 74.8904 13.291C74.2959 12.9964 74.1472 12.9669 73.3347 12.9669C72.7303 12.9669 72.2744 13.0258 71.9178 13.1437C71.6403 13.2419 71.353 13.3106 71.3035 13.291C71.244 13.2713 71.4422 12.9276 71.7295 12.5053C72.3835 11.5822 72.8294 10.6395 73.087 9.62797C73.3545 8.58702 73.4437 7.15322 73.2951 6.2694C72.978 4.46249 71.7097 3.03852 70.5504 3.22508C70.3522 3.25458 69.7577 3.50007 69.2227 3.76522C68.0435 4.36422 67.2211 4.52142 65.8042 4.44282C64.0801 4.35446 62.9109 4.03038 59.8095 2.77337C55.1921 0.917313 51.6448 0.112046 47.6715 0.0138441C46.75 -0.0156215 45.5411 0.00402481 44.9962 0.053122ZM48.5137 1.62438C52.17 1.85021 55.2516 2.63584 59.8095 4.50175C60.9688 4.97313 62.5344 5.4936 63.773 5.80785C64.6845 6.04351 65.0016 6.08284 66.2996 6.08284C67.6472 6.07301 67.8652 6.05334 68.5786 5.81769C69.0146 5.6704 69.6487 5.40524 69.9856 5.21861C70.5801 4.90436 70.6 4.90436 70.6495 5.10075C70.7684 5.52303 70.6991 6.52472 70.5206 7.20232C69.946 9.37265 67.8156 11.0618 64.744 11.759C63.545 12.0339 60.7706 12.0635 59.6311 11.8081C59.2348 11.7099 58.8484 11.6412 58.779 11.6412C58.4916 11.6412 57.1045 15.0586 56.2424 17.8771C55.8163 19.2912 55.093 21.8248 54.9146 22.5909L54.8354 22.8855L55.1227 22.6301C57.9467 20.1063 59.4726 19.0849 61.3949 18.4564C62.1876 18.1914 62.3362 18.1815 63.9711 18.1717C65.5565 18.1717 65.7547 18.1914 66.2798 18.3976C67.9643 19.0752 68.7173 20.4795 68.3903 22.3355C68.202 23.3765 67.9147 24.0737 67.34 24.879C66.3194 26.3225 64.9223 27.1377 61.4642 28.2965C60.3743 28.6598 59.4726 29.0134 59.4429 29.0919C59.3438 29.357 59.8194 30.3587 60.2355 30.7712C61.2363 31.7336 62.5145 31.8809 64.4665 31.2622C66.8644 30.4963 68.9254 28.5812 70.5107 25.6351C70.7486 25.2031 70.9666 24.8004 71.0062 24.7513C71.0458 24.6924 71.5115 23.8085 72.0466 22.7774L73.0176 20.8919L72.4132 20.1946C71.6701 19.3403 71.3035 18.6529 71.2341 17.9753C71.1251 16.9539 71.779 15.6871 72.6114 15.2845C73.4536 14.8819 74.5337 15.0979 75.0984 15.7657C75.5839 16.3353 75.6929 16.6986 75.6236 17.6512C75.574 18.3288 75.5839 18.5252 75.7028 18.6431C75.9011 18.8296 79.6564 18.9671 81.8759 18.8591C82.9857 18.81 83.4811 18.8199 83.6991 18.9082C83.9864 19.0358 84.581 19.8608 84.581 20.1455C84.581 20.234 84.2638 20.7642 83.8774 21.3436C82.6091 23.2194 81.7471 25.2522 81.2021 27.5992C80.8157 29.249 80.8057 29.8972 81.1625 30.3882C81.4399 30.8007 81.7174 30.9578 82.2821 31.0462L82.6488 31.1051L83.4316 28.8071C83.8576 27.5501 84.7593 24.879 85.4331 22.8855C86.1168 20.8821 86.7509 19.1734 86.85 19.0752C87.0085 18.918 87.2959 18.8885 89.5848 18.8394L92.1313 18.7805L92.0619 19.2126C92.0223 19.4484 91.9331 19.9001 91.8539 20.2241C91.7746 20.5384 91.7251 20.8232 91.7548 20.8428C91.7845 20.8722 92.0619 20.6759 92.379 20.4107C93.8258 19.1832 94.8462 18.5449 95.7779 18.2797C96.4219 18.0931 98.0464 18.0637 98.6712 18.2208C99.8602 18.535 100.96 19.4581 101.515 20.6169C101.97 21.5597 102.119 22.3257 102.189 24.1326C102.218 25.0459 102.277 25.7825 102.317 25.7825C102.357 25.7825 102.674 24.9084 103.031 23.838C103.387 22.7774 104.022 20.9116 104.447 19.6938C104.864 18.4761 106.142 14.7248 107.282 11.3465C108.421 7.97811 109.422 5.11059 109.511 4.99272L109.65 4.76691H112.672C114.336 4.76691 115.694 4.7865 115.694 4.80617C115.694 4.82584 115.208 6.2498 114.614 7.97811C114.03 9.69673 113.207 12.0929 112.791 13.3106C112.384 14.5283 111.186 18.0146 110.145 21.0687C107.767 27.992 107.46 29.3178 107.975 30.3686C108.213 30.8596 108.579 31.0854 109.144 31.0854C109.838 31.0854 109.957 30.889 110.799 28.4339C111.879 25.2423 113.375 20.7741 113.454 20.45C113.613 19.7822 113.94 19.0948 114.138 18.9867C114.366 18.8591 120.252 18.7904 120.252 18.9082C120.252 18.9475 119.489 21.2258 118.558 23.9755C116.714 29.4061 116.635 29.7204 117.032 30.398C117.468 31.1149 118.428 31.331 119.39 30.9087C119.905 30.6828 120.826 29.8284 121.322 29.1017C122.134 27.9331 122.908 26.0574 124.364 21.7365C124.869 20.2437 125.275 19.1832 125.404 19.0653C125.593 18.869 125.712 18.8591 128.585 18.8591C131.251 18.8493 131.557 18.8591 131.518 18.9966C131.488 19.0849 131.132 20.126 130.706 21.3142C129.031 26.0672 128.248 28.483 128.198 29.0821C128.139 29.8088 128.288 30.2704 128.684 30.6534C129.031 30.9774 129.12 30.9185 129.229 30.2507C129.407 29.1606 129.794 27.668 130.062 26.9904C131.132 24.3388 133.421 22.6891 135.075 23.3765L135.422 23.514L137.423 21.5794C140.733 18.3779 140.991 18.1717 142.863 17.2879C144.052 16.7183 144.885 16.8557 145.469 17.7101C145.826 18.2208 145.806 18.8296 145.43 19.4189C145.013 20.0572 144.647 20.234 143.745 20.2143C143.339 20.2045 142.933 20.234 142.833 20.2928C142.457 20.4893 142.457 20.4795 143.032 26.9118C143.389 30.8105 143.408 30.9872 143.478 31.056C143.577 31.1542 144.647 30.1722 145.231 29.4455C145.549 29.0428 146.193 28.1 146.668 27.3537C147.134 26.5975 147.57 25.9789 147.629 25.9789C147.738 25.9789 148.908 26.2833 148.967 26.3225C149.026 26.3716 147.461 29.0919 146.668 30.3293C145.083 32.8138 143.785 34.3164 142.219 35.4948C139.92 37.2133 137.513 38.0874 135.551 37.9204C133.955 37.7927 132.559 37.125 131.132 35.809C130.666 35.3671 130.24 35.0136 130.19 35.0136C130.141 35.0136 129.923 35.1903 129.715 35.4162C128.873 36.2706 126.495 37.5472 125.325 37.7731C123.799 38.0579 122.293 37.4392 121.58 36.2313C121.173 35.5537 121.024 34.9546 120.956 33.7959L120.896 32.7353L119.826 33.9235C118.538 35.3475 117.358 36.3099 116.09 36.9678C113.366 38.382 111.463 38.1266 110.145 36.1625C109.917 35.8287 109.68 35.5635 109.62 35.5831C109.57 35.6028 109.115 35.8876 108.619 36.2313C106.935 37.3901 105.706 37.8615 104.388 37.8615C102.952 37.8615 101.941 37.2428 101.069 35.8189C100.821 35.4064 100.603 35.0529 100.583 35.0332C100.563 35.0136 100.068 35.318 99.4838 35.7108C97.6604 36.9089 96.2134 37.4785 94.3212 37.7535C92.8943 37.9695 91.834 37.8517 90.8233 37.3901C90.0208 37.0268 89.0002 35.9563 88.4354 34.8859L87.9895 34.0315L87.712 34.7877C87.5634 35.21 86.9095 37.0759 86.2654 38.9417C83.5207 46.8962 82.6091 49.4004 82.3911 49.5771C82.2029 49.7245 81.8957 49.7441 79.27 49.7441C77.6648 49.7441 76.3568 49.7245 76.3568 49.7147C76.3568 49.695 76.8423 48.2318 77.4468 46.474C78.0413 44.7062 79.0222 41.8289 79.6168 40.0711C80.2113 38.3132 80.6868 36.8795 80.6571 36.8795C80.6274 36.8795 80.3995 36.9875 80.1419 37.1151C78.2989 38.0284 76.7333 38.0775 75.4551 37.2624C74.3355 36.5455 73.7806 35.4162 73.7013 33.7075C73.6518 32.5486 73.7508 31.8907 74.1472 30.5944C74.4742 29.5633 75.6533 27.2359 76.7333 25.5271C77.1792 24.8201 77.5657 24.1817 77.5954 24.1032C77.6351 24.005 77.1693 23.6908 76.0794 23.0622C75.2173 22.5614 74.4445 22.1293 74.3652 22.0998C74.2067 22.0409 74.2265 22.0016 72.9285 24.437C71.6403 26.8529 70.0351 29.5044 69.183 30.6337C66.3888 34.336 63.3468 36.683 60.1563 37.616C58.8979 37.9892 57.3125 37.9989 56.2622 37.6356C53.7455 36.7714 52.4771 34.8761 52.1799 31.5274C52.1304 30.948 52.0709 30.4472 52.0412 30.4275C52.0214 30.4078 51.6151 30.9381 51.1494 31.6059C49.9009 33.3834 49.0488 34.3851 48.1371 35.1609C46.6608 36.4277 45.0457 37.2821 43.1928 37.7829C42.1128 38.0775 39.2492 38.0971 38.0602 37.8222C34.929 37.0955 32.5807 35.4555 31.461 33.1968C30.4206 31.0854 30.3017 28.3161 31.1737 26.244C32.7293 22.5221 36.5144 20.5187 39.9626 21.5695C40.6859 21.7954 41.3894 22.1195 41.9939 22.5123L42.3704 22.7676L41.8551 23.1211C40.3193 24.1817 40.1013 25.7235 41.3101 26.9216C41.8254 27.4323 42.5388 27.7465 43.1532 27.7465C44.1638 27.7367 45.6798 27.1475 46.4626 26.4601C47.3049 25.7334 49.1776 22.5024 51.9619 16.9834C52.7248 15.4613 53.5572 13.8802 53.8049 13.4677C54.0526 13.0455 54.2607 12.6821 54.2607 12.6625C54.2607 12.5839 55.5686 10.6591 55.6578 10.6001C55.8262 10.502 55.7371 10.3645 55.3308 10.0993C55.093 9.95205 54.122 9.32355 53.1707 8.69505C48.6425 5.69983 47.9093 5.33648 46.0861 5.19902C45.1844 5.13025 44.3124 5.25788 43.6882 5.56237C42.9748 5.90605 42.2118 6.67201 41.8651 7.39878C41.2408 8.68521 41.5381 10.2565 42.5487 11.0224C43.3315 11.6117 44.5304 11.7295 45.4024 11.2974C46.0068 11.0028 46.2842 10.6395 46.5717 9.79493L46.7896 9.14676L47.1959 9.6869C47.9885 10.718 48.2263 12.2107 47.8597 13.6936C47.1562 16.5218 44.2728 18.4859 41.1318 18.2895C38.9222 18.1422 37.3863 17.4548 36.0586 16.0112C34.6417 14.4792 34.0273 12.3679 34.3444 10.1092C34.6417 8.00761 35.4839 6.38726 37.0297 4.90436C39.2789 2.77337 42.3406 1.6833 46.4824 1.536C46.7005 1.536 47.612 1.57528 48.5137 1.62438Z" fill="#9A9A9A"/>
<path d="M61.4443 20.4205C60.9192 20.6563 60.3346 21.2357 60.0472 21.766C59.7598 22.3257 59.4131 23.4453 59.2644 24.2996C59.1059 25.1834 59.0663 26.9609 59.1951 26.9609C59.2446 26.9609 59.5419 26.8725 59.8688 26.7645C61.8307 26.0967 63.4755 23.8773 63.4755 21.8838C63.4755 21.1178 63.2675 20.6268 62.8414 20.3714C62.4352 20.126 62.0488 20.1358 61.4443 20.4205Z" fill="#9A9A9A"/>
<path d="M138.672 22.5614C137.562 23.8086 136.562 24.9576 136.443 25.1147C136.285 25.3209 136.215 25.5959 136.166 26.2146C136.047 27.7662 135.412 29.1116 134.065 30.6338L133.342 31.4586L133.856 31.6845C134.62 32.0282 135.769 32.0184 136.463 31.655C137.077 31.3309 137.771 30.6533 138.118 30.0248C138.425 29.4651 139.177 27.0493 139.911 24.2603C140.813 20.8035 140.892 20.4697 140.793 20.3715C140.733 20.3126 139.921 21.1571 138.672 22.5614Z" fill="#9A9A9A"/>
<path d="M94.9159 20.9704C94.2519 21.2061 94.0936 21.3141 93.2709 22.1292C92.1809 23.1898 90.982 25.1931 90.2388 27.1867L90.0308 27.7661L90.2983 27.7071C91.091 27.5304 92.2503 27.3635 92.2999 27.4126C92.3296 27.4322 92.29 27.5991 92.2205 27.7759C91.6459 29.19 91.5963 29.8578 92.0521 30.447C92.3494 30.8202 92.9142 31.0363 93.37 30.9283C94.5691 30.6434 95.9363 28.974 96.6498 26.9118C97.1652 25.4289 97.3833 23.6514 97.1851 22.4238C97.0557 21.5792 96.8975 21.2748 96.4812 20.9998C96.0753 20.7249 95.6294 20.7151 94.9159 20.9704Z" fill="#9A9A9A"/>
</svg>
