<svg width="134" height="54" viewBox="0 0 134 54" fill="none" xmlns="http://www.w3.org/2000/svg">
    <g clip-path="url(#clip0_2491_781)">
    <path d="M54.1276 26.9984C54.1276 33.2331 54.1321 39.4694 54.1246 45.7041C54.1231 47.5216 53.7025 49.224 52.61 50.7101C50.9826 52.924 48.7526 53.9788 46.0629 53.9834C33.5637 54.0045 21.0646 54.006 8.5654 53.9849C4.5563 53.9788 1.45179 51.4183 0.68092 47.5594C0.559204 46.9526 0.508114 46.3215 0.508114 45.7026C0.499098 33.2316 0.497596 20.7621 0.503606 8.29106C0.505109 4.11741 3.04011 0.925883 6.94552 0.170751C7.51354 0.061794 8.10108 0.00882896 8.6781 0.00882896C21.1021 -0.000250775 33.5262 -0.00327833 45.9502 0.00428812C50.0435 0.0073147 53.208 2.57234 53.9579 6.49025C54.0781 7.11675 54.1186 7.76596 54.1201 8.40456C54.1321 14.6015 54.1276 20.7999 54.1276 26.9969V26.9984ZM21.0104 41.4987C21.0104 41.5138 21.0104 41.5304 21.0104 41.5457C22.6424 41.5457 24.2758 41.5865 25.9061 41.535C28.1797 41.4639 29.9213 39.8326 30.1752 37.6232C30.4067 35.5969 29.0587 33.5933 26.991 33.0652C26.2443 32.8744 25.4298 32.9335 24.6454 32.9138C23.5184 32.8835 23.1502 32.3524 23.583 31.3022C24.4876 29.1033 25.3997 26.9076 26.3149 24.7133C26.4006 24.506 26.5042 24.2941 26.6469 24.1261C27.0227 23.6843 27.6026 23.7024 27.9543 24.1669C28.0881 24.3441 28.1782 24.5589 28.2669 24.7662C30.2264 29.3864 32.1857 34.0064 34.1377 38.6295C34.4893 39.4618 34.9461 40.2079 35.6915 40.7405C37.2302 41.8392 39.3385 41.7741 40.8351 40.5832C42.3679 39.3634 42.8802 37.4068 42.0733 35.4804C39.2393 28.7099 36.4128 21.9364 33.5066 15.1962C32.3225 12.4496 30.1737 11.009 27.1233 11.0483C24.4456 11.0831 22.0713 12.669 21.0346 15.1447C19.0946 19.7739 17.1441 24.3985 15.2042 29.0277C14.2846 31.2204 13.3318 33.3995 12.4769 35.6181C11.3408 38.5644 13.3318 41.473 16.4484 41.4972C17.9676 41.5093 19.4882 41.4987 21.0089 41.4987H21.0104Z" fill="#9A9A9A"/>
    <path d="M75.0669 21.8505H70.9653L70.0214 24.7017C69.9871 24.8054 69.9356 24.84 69.8327 24.84H68.1165C68.0136 24.84 67.9792 24.7881 67.9964 24.6672L71.5316 14.5411C71.6003 14.3683 71.6518 14.1955 71.6861 13.608C71.6861 13.5389 71.7204 13.487 71.789 13.487H74.1745C74.2603 13.487 74.2774 13.5043 74.2946 13.5907L78.2589 24.6845C78.276 24.7881 78.2589 24.84 78.1559 24.84H76.2338C76.148 24.84 76.0965 24.8054 76.0622 24.7363L75.0669 21.8505ZM71.5145 19.967H74.5177C74.1573 18.8265 73.3507 16.4246 73.0075 15.215H72.9903C72.7158 16.3728 72.0293 18.3945 71.5145 19.967ZM83.2776 25.0128C80.7892 25.0128 78.8843 23.5613 78.8843 20.6582C78.8843 18.1526 80.7377 16.1481 83.7581 16.1481C83.9983 16.1481 84.2043 16.1654 84.496 16.2V12.6576C84.496 12.5712 84.5303 12.5366 84.599 12.5366H86.4696C86.5554 12.5366 86.5554 12.5712 86.5554 12.6403V23.0774C86.5554 23.423 86.5897 23.8723 86.624 24.1833C86.624 24.2697 86.6069 24.3043 86.521 24.3389C85.4056 24.8227 84.3072 25.0128 83.2776 25.0128ZM84.496 23.0774V18.0144C84.2729 17.928 83.9983 17.8934 83.6894 17.8934C82.1621 17.8934 81.0123 18.8784 81.0123 20.5545C81.0123 22.4381 82.1278 23.2157 83.5007 23.2157C83.8439 23.2157 84.1871 23.1811 84.496 23.0774ZM92.3725 16.1481C95.0154 16.1481 96.4569 18.1699 96.4569 20.5373C96.4569 23.2157 94.7579 25.0128 92.3382 25.0128C89.4723 25.0128 88.2023 22.7837 88.2023 20.5891C88.2023 18.1353 89.7983 16.1481 92.3725 16.1481ZM92.2696 17.8934C91.1197 17.8934 90.296 18.9129 90.296 20.5545C90.296 22.1443 91.0683 23.2502 92.3725 23.2502C93.4365 23.2502 94.3461 22.3689 94.3461 20.5891C94.3461 19.1549 93.7283 17.8934 92.2696 17.8934ZM98.1893 12.5366H99.9913C100.111 12.5366 100.146 12.5539 100.146 12.6749L100.163 16.3901C100.626 16.2345 101.158 16.1481 101.725 16.1481C104.196 16.1481 105.775 17.9107 105.775 20.2262C105.775 23.423 103.303 25.0128 100.764 25.0128C99.8711 25.0128 99.0131 24.8918 98.1893 24.6326C98.1206 24.6153 98.0692 24.5289 98.0692 24.4771V12.6576C98.0692 12.5712 98.1206 12.5366 98.1893 12.5366ZM103.664 20.4336C103.664 18.792 102.72 17.928 101.364 17.928C100.764 17.928 100.437 18.0144 100.163 18.1181V23.1638C100.403 23.2329 100.661 23.2502 100.952 23.2502C102.36 23.2502 103.664 22.3517 103.664 20.4336ZM112.566 21.0557H109.083C109.134 22.2653 109.924 23.2329 111.674 23.2329C112.446 23.2329 113.15 23.0947 113.802 22.8182C113.854 22.7837 113.905 22.8009 113.905 22.8873V24.3216C113.905 24.4253 113.871 24.4771 113.802 24.5117C113.15 24.8227 112.395 25.0128 111.228 25.0128C108.105 25.0128 106.989 22.8009 106.989 20.6755C106.989 18.2736 108.431 16.1481 111.022 16.1481C113.562 16.1481 114.54 18.1526 114.54 19.7942C114.54 20.2781 114.523 20.6755 114.471 20.8656C114.454 20.9347 114.42 20.9693 114.334 20.9865C114.094 21.0384 113.407 21.0557 112.566 21.0557ZM109.083 19.5696H111.64C112.292 19.5696 112.515 19.5696 112.584 19.5523C112.584 19.5005 112.584 19.4313 112.584 19.4141C112.584 18.9129 112.24 17.807 110.936 17.807C109.752 17.807 109.22 18.7229 109.083 19.5696ZM76.5942 40.3747L76.3368 41.9817C76.3196 42.1027 76.2853 42.12 76.1823 42.12H69.3521C69.232 42.12 69.1977 42.0681 69.1977 41.9817V30.9053C69.1977 30.8189 69.232 30.767 69.335 30.767H75.9592C76.0622 30.767 76.0965 30.7843 76.1137 30.888L76.3025 32.495C76.3196 32.5814 76.2853 32.6505 76.1823 32.6505H71.2742V35.3981H75.7361C75.8219 35.3981 75.8563 35.4153 75.8563 35.519V37.1606C75.8563 37.247 75.8048 37.2643 75.7361 37.2643H71.2742V40.2365H76.4741C76.5771 40.2365 76.6114 40.2883 76.5942 40.3747ZM80.0534 37.8864L77.4792 33.7565C77.4277 33.6873 77.4449 33.6009 77.565 33.6009H79.6244C79.7445 33.6009 79.7788 33.6182 79.8303 33.7219L81.4606 36.7113H81.4949L83.2111 33.6873C83.2626 33.6009 83.2797 33.6009 83.3655 33.6009H85.1846C85.2876 33.6009 85.3219 33.6528 85.2704 33.7392C84.6698 34.7069 83.3484 36.8323 82.6791 37.7827C83.417 38.9405 84.8414 41.1005 85.442 41.9817C85.5107 42.0509 85.4764 42.12 85.3562 42.12H83.2454C83.1424 42.12 83.0738 42.0681 83.0223 41.9817L81.3062 38.975H81.289L79.5214 42.0163C79.4871 42.0854 79.4527 42.12 79.3326 42.12H77.4964C77.4105 42.12 77.3591 42.0336 77.4106 41.9645C78.1313 40.8758 79.3155 38.975 80.0534 37.8864ZM89.9891 33.4281C92.8207 33.4281 94.228 35.3635 94.228 37.5753C94.228 40.7376 91.6881 42.2928 89.0968 42.2928C88.908 42.2928 88.7364 42.2755 88.5819 42.2582V45.3686C88.5819 45.4377 88.5647 45.4896 88.4618 45.5069C87.8611 45.576 86.7113 45.6797 86.6255 45.6797C86.5226 45.6797 86.5054 45.6624 86.5054 45.576V35.2253C86.5054 35.0179 86.4882 34.4477 86.4539 34.2057C86.4539 34.1885 86.4539 34.1366 86.5226 34.1193C87.2948 33.8601 88.4961 33.4281 89.9891 33.4281ZM89.8004 35.208C89.337 35.208 88.9595 35.2598 88.5819 35.3808V40.4784C88.7707 40.5302 89.0453 40.5302 89.2684 40.5302C90.6069 40.5302 92.1 39.7353 92.1 37.7136C92.1 36.1411 91.2591 35.208 89.8004 35.208ZM95.8742 33.6009H97.4873C97.5903 33.6009 97.6418 33.6355 97.6761 33.7392C97.7619 33.9638 97.8306 34.3958 97.8477 34.776C98.4312 34.0502 99.4094 33.4281 100.594 33.4281C100.696 33.4281 100.731 33.4454 100.731 33.5491V35.3808C100.731 35.4672 100.696 35.5017 100.576 35.5017C99.3579 35.4672 98.3454 35.8992 97.9507 36.4176V41.9817C97.9507 42.0854 97.8992 42.12 97.7962 42.12H96.0115C95.8913 42.12 95.857 42.0681 95.857 41.9817V36.0201C95.857 35.2771 95.8398 34.2749 95.7712 33.7046C95.7712 33.6182 95.7884 33.6009 95.8742 33.6009ZM107.036 38.3357H103.552C103.604 39.5453 104.393 40.5129 106.144 40.5129C106.916 40.5129 107.62 40.3747 108.272 40.0982C108.323 40.0637 108.375 40.0809 108.375 40.1673V41.6016C108.375 41.7053 108.34 41.7571 108.272 41.7917C107.62 42.1027 106.865 42.2928 105.698 42.2928C102.574 42.2928 101.459 40.0809 101.459 37.9555C101.459 35.5536 102.9 33.4281 105.492 33.4281C108.032 33.4281 109.01 35.4326 109.01 37.0742C109.01 37.5581 108.993 37.9555 108.941 38.1456C108.924 38.2147 108.89 38.2493 108.804 38.2665C108.564 38.3184 107.877 38.3357 107.036 38.3357ZM103.552 36.8496H106.109C106.762 36.8496 106.985 36.8496 107.053 36.8323C107.053 36.7805 107.053 36.7113 107.053 36.6941C107.053 36.1929 106.71 35.087 105.406 35.087C104.222 35.087 103.69 36.0029 103.552 36.8496ZM115.542 35.6054C115.01 35.3117 114.152 35.1043 113.397 35.1043C112.487 35.1043 112.178 35.4845 112.178 35.8473C112.178 36.2275 112.436 36.4867 113.534 36.9187C115.49 37.6445 116.16 38.4221 116.16 39.6489C116.16 41.2733 114.89 42.2928 112.779 42.2928C111.766 42.2928 110.874 42.1027 110.359 41.8089C110.273 41.7571 110.239 41.7225 110.239 41.6189V39.9773C110.239 39.8909 110.308 39.8563 110.376 39.8909C111.114 40.3747 112.058 40.5821 112.83 40.5821C113.723 40.5821 114.152 40.271 114.152 39.8217C114.152 39.3897 113.826 39.1133 112.762 38.6813C110.891 37.9901 110.222 37.2125 110.222 35.9683C110.222 34.655 111.286 33.4281 113.431 33.4281C114.426 33.4281 115.181 33.5664 115.593 33.7737C115.679 33.8256 115.696 33.8947 115.696 33.9811V35.5017C115.696 35.5881 115.645 35.64 115.542 35.6054ZM122.648 35.6054C122.116 35.3117 121.258 35.1043 120.502 35.1043C119.593 35.1043 119.284 35.4845 119.284 35.8473C119.284 36.2275 119.541 36.4867 120.64 36.9187C122.596 37.6445 123.265 38.4221 123.265 39.6489C123.265 41.2733 121.995 42.2928 119.885 42.2928C118.872 42.2928 117.98 42.1027 117.465 41.8089C117.379 41.7571 117.345 41.7225 117.345 41.6189V39.9773C117.345 39.8909 117.413 39.8563 117.482 39.8909C118.22 40.3747 119.164 40.5821 119.936 40.5821C120.829 40.5821 121.258 40.271 121.258 39.8217C121.258 39.3897 120.931 39.1133 119.867 38.6813C117.997 37.9901 117.328 37.2125 117.328 35.9683C117.328 34.655 118.392 33.4281 120.537 33.4281C121.532 33.4281 122.287 33.5664 122.699 33.7737C122.785 33.8256 122.802 33.8947 122.802 33.9811V35.5017C122.802 35.5881 122.751 35.64 122.648 35.6054Z" fill="#9A9A9A"/>
    </g>
    <defs>
    <clipPath id="clip0_2491_781">
    <rect width="133" height="54" fill="white" transform="translate(0.5)"/>
    </clipPath>
    </defs>
    </svg>
    