<svg width="60" height="32" viewBox="0 0 60 32" fill="none" xmlns="http://www.w3.org/2000/svg">
    <g clip-path="url(#clip0_2267_13434)">
    <path d="M33.6376 5.61469C28.0312 5.61469 24.501 9.63227 24.501 16.0066C24.501 22.381 28.0295 26.3853 33.6376 26.3853C39.2605 26.3853 42.7882 22.3826 42.7882 16.0066C42.7882 9.63061 39.244 5.61469 33.6376 5.61469ZM33.6376 24.6144C29.2311 24.6144 26.4547 21.2804 26.4547 16.0083C26.4547 10.7213 29.2294 7.38805 33.6376 7.38805C38.0457 7.38805 40.8369 10.7213 40.8369 16.0083C40.8353 21.2804 38.0441 24.6144 33.6376 24.6144Z" fill="#9A9A9A"/>
    <path d="M7.55499 26.0518C7.36052 26.1073 6.57852 26.1346 6.1871 26.1346C3.76083 26.1346 2.78437 25.1027 2.78437 22.4935V13.0921H0.62207V11.5587H2.78437V7.93256H4.62476V11.5587H7.48547V13.0921H4.62476V22.3967C4.62476 23.9036 5.21064 24.53 6.54956 24.53C6.74485 24.53 7.44244 24.5019 7.55499 24.4895V26.0518Z" fill="#9A9A9A"/>
    <path d="M16.6769 26.0659H14.7099L9.31201 11.5587H11.2658L15.6739 24.127H15.7153L20.1376 11.5587H22.0624L16.6769 26.0659Z" fill="#9A9A9A"/>
    <path d="M52.1498 26.3853C47.9377 26.3853 44.9794 24.055 44.77 20.5927H46.6807C46.8893 23.0066 49.1633 24.6475 52.3153 24.6475C55.3291 24.6475 57.4897 23.0016 57.4897 20.7408C57.4897 18.8574 56.1922 17.7419 53.2082 16.988L50.7124 16.3467C46.9886 15.3992 45.3269 13.822 45.3269 11.1731C45.3269 7.92345 48.2572 5.60724 52.2177 5.60724C56.1368 5.60724 59.0115 7.92428 59.1216 11.1177H57.2117C57.0296 8.84448 55.0204 7.33757 52.1639 7.33757C49.3727 7.33757 47.3088 8.88585 47.3088 11.1028C47.3088 12.8331 48.5642 13.8509 51.5209 14.6048L53.6972 15.1634C57.743 16.1812 59.4452 17.7287 59.4452 20.5339C59.4452 24.0699 56.6018 26.3853 52.1498 26.3853Z" fill="#9A9A9A"/>
    </g>
    <defs>
    <clipPath id="clip0_2267_13434">
    <rect width="59.8045" height="32" fill="white"/>
    </clipPath>
    </defs>
    </svg>
    