<svg width="126" height="32" viewBox="0 0 126 32" fill="none" xmlns="http://www.w3.org/2000/svg">
    <g clip-path="url(#clip0_2267_16355)">
    <path d="M25.7103 10.8146C20.5783 14.0705 21.1906 21.1289 26.4938 23.4727C26.1801 24.4694 25.7676 25.4248 25.2697 26.3452C24.4582 27.8458 23.5041 29.2494 22.3244 30.4871C21.634 31.2114 20.8225 31.7667 19.792 31.9091C18.9906 32.0195 18.2149 31.9079 17.46 31.6188C16.758 31.3505 16.0666 31.0373 15.3425 30.8481C13.9804 30.491 12.6486 30.6914 11.3549 31.2221C10.7724 31.461 10.1842 31.7021 9.57804 31.8677C8.18673 32.2484 7.01374 31.7763 5.98442 30.8515C4.97195 29.9419 4.18958 28.8447 3.43977 27.7247C1.99907 25.5733 1.06573 23.2127 0.538164 20.6857C0.281116 19.4547 0.14305 18.213 0.175602 16.9584C0.218818 15.2943 0.516837 13.6792 1.30987 12.1931C2.58388 9.8062 4.51959 8.30332 7.23823 7.8485C8.56725 7.62638 9.80928 7.90876 11.0311 8.38926C11.5154 8.58013 12.0065 8.75425 12.4909 8.94399C13.2126 9.2258 13.9237 9.19289 14.6421 8.92054C15.4852 8.60133 16.3326 8.29272 17.1845 7.99973C18.2554 7.63196 19.3593 7.5929 20.4695 7.75418C21.8681 7.95731 23.1594 8.44507 24.2472 9.35807C24.763 9.79058 25.2068 10.3079 25.7092 10.8135L25.7103 10.8146Z" fill="#9A9A9A"/>
    <path d="M19.7066 0.00459843C19.8443 1.22997 19.5951 2.36284 19.0889 3.44387C18.3003 5.12785 17.0878 6.39166 15.3319 7.04363C14.7819 7.24758 14.1681 7.27879 13.5826 7.38578C13.3584 7.42701 13.284 7.32894 13.2724 7.09991C13.2119 5.92916 13.511 4.84811 14.0488 3.82391C15.0204 1.97276 16.5416 0.796434 18.5163 0.190159C18.8142 0.0987718 19.129 0.061994 19.4369 0.00682738C19.5157 -0.00710358 19.5996 0.00459843 19.7066 0.00459843Z" fill="#9A9A9A"/>
    <path d="M110.488 16.0577C110.544 18.1068 110.136 20.0657 109.264 21.9051C107.398 25.8392 103.465 27.7 99.1235 27.0762C95.1319 26.5034 92.2026 22.8302 91.5965 19.2229C91.178 16.7314 91.1672 14.2802 91.9313 11.8803C92.8654 8.94379 94.6446 6.63522 97.6049 5.51791C100.395 4.46379 103.212 4.61438 105.808 6.14715C108.094 7.49707 109.453 9.60396 110.041 12.164C110.334 13.4386 110.463 14.7496 110.665 16.0444C110.607 16.0484 110.548 16.0536 110.49 16.0577H110.488ZM107.556 16.3535C107.636 14.2479 107.208 12.3361 106.318 10.6272C104.727 7.56564 101.304 6.30984 98.296 7.78077C96.2415 8.78514 95.1899 10.6514 94.6621 12.7596C93.9237 15.7136 94.0236 18.6514 95.441 21.4319C96.5547 23.6168 98.3217 24.8684 100.824 24.9182C103.029 24.9625 104.68 23.9259 105.895 22.1511C107.127 20.3508 107.563 18.3234 107.555 16.355L107.556 16.3535Z" fill="#9A9A9A"/>
    <path d="M38.7778 11.3317H41.1212C41.1671 12.0833 41.2117 12.8067 41.2549 13.5313C41.2954 13.573 41.3359 13.6161 41.3764 13.6578C42.4941 11.9583 44.0073 10.9579 46.0402 10.9848C48.1326 11.0117 49.5905 12.0295 50.4382 14.0409C50.5907 13.8338 50.7136 13.6927 50.8108 13.5353C52.4387 10.884 56.3723 10.127 58.6469 12.0752C59.6566 12.9411 60.1372 14.0773 60.3559 15.3224C60.5165 16.2407 60.5772 17.1859 60.588 18.1203C60.6191 20.8202 60.5907 23.5214 60.6137 26.2212C60.6177 26.7079 60.5192 26.9148 59.9819 26.8543C59.4811 26.7979 58.9614 26.7844 58.466 26.8584C57.9031 26.9431 57.8181 26.7079 57.8235 26.2373C57.8464 24.1936 57.8748 22.1486 57.8451 20.1049C57.8248 18.7254 57.814 17.331 57.6088 15.973C57.3267 14.1081 56.2238 13.292 54.3407 13.3122C53.1272 13.3257 51.7381 14.3032 51.4506 15.6343C51.1806 16.8793 51.1374 18.1861 51.1104 19.4688C51.0618 21.8822 51.0956 24.2984 51.0956 26.8799C50.2681 26.8799 49.5135 26.896 48.7616 26.8745C48.2514 26.8597 48.3297 26.4496 48.331 26.1242C48.3364 24.3602 48.3796 22.5963 48.3513 20.8336C48.3256 19.2309 48.3121 17.62 48.1326 16.0308C47.9584 14.4832 47.0365 13.5246 45.8283 13.3243C44.3745 13.0836 42.9746 13.7706 42.212 15.1017C41.7449 15.9152 41.5627 16.7745 41.5856 17.7264C41.6342 19.6894 41.5816 21.6538 41.5802 23.6182C41.5802 24.4894 41.5951 25.3619 41.6194 26.2332C41.6315 26.6688 41.4965 26.9121 41.0079 26.8879C40.4085 26.8584 39.8037 26.8933 39.2071 26.8369C39.0681 26.8234 38.8629 26.5653 38.8453 26.4026C38.794 25.9387 38.8237 25.4656 38.8224 24.995C38.8075 20.7019 38.7927 16.4073 38.7792 12.1142C38.7792 11.8722 38.7792 11.6302 38.7792 11.3331L38.7778 11.3317Z" fill="#9A9A9A"/>
    <path d="M112.845 23.6933C113.964 24.0496 114.983 24.4462 116.036 24.6909C117.504 25.0311 118.943 24.933 120.36 24.2876C122.424 23.3491 122.872 20.4046 121.366 18.7656C120.562 17.8916 119.496 17.4936 118.478 16.9881C117.362 16.4341 116.223 15.9111 115.163 15.2617C111.402 12.9585 111.919 7.39753 116.021 5.64022C117.743 4.90206 119.507 4.71114 121.329 5.0661C122.114 5.21803 122.884 5.44527 123.655 5.65905C124.091 5.78006 124.171 6.07048 124.01 6.48325C123.802 7.01838 123.634 7.5683 123.457 8.08729C122.597 7.82241 121.808 7.51316 120.992 7.34509C119.626 7.06274 118.234 7.07215 117.001 7.79013C114.727 9.1145 114.875 12.1034 117.273 13.4251C118.423 14.0597 119.653 14.5491 120.82 15.1541C122.034 15.782 123.222 16.4651 124.032 17.62C126.113 20.5861 125.013 25.4022 120.916 26.6472C118.391 27.415 115.882 27.3545 113.408 26.4751C112.158 26.0301 112.13 25.8836 112.527 24.6546C112.636 24.3172 112.749 23.9797 112.844 23.6946L112.845 23.6933Z" fill="#9A9A9A"/>
    <path d="M72.2551 16.9195C72.1876 16.2795 72.1998 15.7323 72.0648 15.2241C71.6666 13.7195 70.3059 12.8483 68.5699 13.0917C67.328 13.2651 66.1131 13.6375 64.7835 13.9454C64.662 13.6039 64.4554 13.0984 64.3137 12.5754C64.28 12.4503 64.4244 12.1868 64.554 12.1209C67.0229 10.8598 69.5904 10.5169 72.2052 11.5683C73.3175 12.0161 74.1234 12.9277 74.477 14.0826C74.7605 15.013 74.9562 15.9958 75.0048 16.9652C75.0858 18.5706 74.9927 20.1827 75.017 21.7908C75.0399 23.2644 75.1047 24.738 75.1857 26.2089C75.21 26.6526 75.1493 26.9189 74.6323 26.8516C74.612 26.8489 74.5891 26.8637 74.5661 26.8651C73.4187 26.9467 72.7339 26.4375 72.5116 25.3377C72.4967 25.261 72.436 25.1925 72.459 25.2355C71.5869 25.7868 70.8013 26.4752 69.8847 26.8234C68.0839 27.5078 65.4341 27.3626 64.1112 25.573C63.7845 25.132 63.4214 24.6426 63.3161 24.1276C62.8032 21.6147 63.4039 19.5172 65.8985 18.1901C67.6439 17.261 69.5661 17.0715 71.4978 16.9585C71.7165 16.9451 71.9352 16.937 72.2524 16.9209L72.2551 16.9195ZM72.2484 20.7017C72.2565 20.7017 72.2659 20.7017 72.274 20.7017C72.274 20.2782 72.2605 19.8533 72.2781 19.4311C72.2929 19.0681 72.189 18.8785 71.7813 18.939C70.7014 19.0977 69.5945 19.1488 68.5416 19.4123C66.186 20.0026 65.7203 21.5542 66.0713 23.3478C66.2427 24.2231 67.3024 24.9572 68.1528 25.0768C70.3342 25.3847 72.5602 23.4069 72.2511 21.3041C72.2227 21.1078 72.247 20.9021 72.247 20.7017H72.2484Z" fill="#9A9A9A"/>
    <path d="M88.968 13.9306C87.012 13.1119 85.1046 12.812 83.2809 13.7935C81.1656 14.9323 80.4056 16.9384 80.4704 19.4002C80.5082 20.8375 80.8997 22.1579 81.8675 23.2227C83.397 24.9048 85.3462 25.1871 87.4763 24.6856C87.7585 24.6197 88.069 24.5928 88.3119 24.453C88.9207 24.1034 89.1219 24.3158 89.2339 24.9384C89.485 26.3394 89.5214 26.3891 87.9947 26.7871C85.6283 27.4042 83.2836 27.3491 81.1103 26.096C79.2596 25.0285 78.235 23.3706 77.8314 21.2758C77.4615 19.3545 77.5695 17.5044 78.3227 15.6933C79.2717 13.4117 80.9726 11.9919 83.3322 11.3142C85.087 10.81 86.8365 10.9055 88.5833 11.3626C89.4904 11.6006 89.5822 11.7714 89.3203 12.6682C89.2029 13.0689 89.0949 13.4708 88.9666 13.9266L88.968 13.9306Z" fill="#9A9A9A"/>
    </g>
    <defs>
    <clipPath id="clip0_2267_16355">
    <rect width="125" height="32" fill="white" transform="translate(0.170898)"/>
    </clipPath>
    </defs>
    </svg>
    