<svg width="91" height="32" viewBox="0 0 91 32" fill="none" xmlns="http://www.w3.org/2000/svg">
    <g clip-path="url(#clip0_2267_16325)">
    <path d="M87.7678 23.2452C87.7545 23.0378 87.739 22.8877 87.7367 22.7399C87.7257 22.2367 87.5151 21.8328 87.136 21.5106C86.839 21.259 86.2803 20.9721 85.7771 20.8154V21.1442C86.1207 21.3252 86.4599 21.4929 86.7835 21.6827C86.9609 21.7864 87.1338 21.9144 87.2712 22.0645C87.6193 22.4463 87.6392 22.8811 87.3377 23.3026C87.0495 23.7065 86.6838 24.0309 86.267 24.3001C86.1252 24.3928 85.9744 24.4745 85.8414 24.5782C85.7239 24.6709 85.7062 24.7967 85.8104 24.96C85.9035 24.9291 86.0143 24.9115 86.1052 24.8607C86.3358 24.7305 86.5552 24.5826 86.7813 24.448C87.0784 24.2715 87.3954 24.1611 87.7478 24.1589C88.0781 24.1589 88.3286 24.2891 88.4971 24.5782C88.6988 24.9247 88.8518 25.291 88.8717 25.6927C88.8939 26.1606 89.0912 26.5115 89.4702 26.7895C89.9823 27.1669 90.0089 27.712 89.9047 28.2704C89.8537 28.5418 89.6476 28.7338 89.4126 28.864C89.1333 29.0207 88.8385 29.1487 88.5481 29.2855C88.1734 29.4643 87.7877 29.6232 87.422 29.8174C86.9542 30.069 86.5353 30.3912 86.1495 30.7575C85.7505 31.1371 85.3094 31.4527 84.7929 31.6668C84.1833 31.9184 83.6069 31.8808 83.0683 31.5123C82.8399 31.3556 82.605 31.2894 82.3345 31.2563C81.0599 31.1018 79.7897 30.8988 78.5129 30.773C77.8589 30.709 77.1917 30.7465 76.5311 30.7796C75.7574 30.8171 74.986 30.8966 74.2146 30.9561C73.7624 30.9915 73.3101 31.029 72.8579 31.0532C72.6761 31.0621 72.5321 31.1393 72.3991 31.2497C71.8959 31.6624 71.3372 31.6955 70.7431 31.4858C70.5303 31.4108 70.3153 31.3357 70.1069 31.2475C68.8367 30.7134 67.5045 30.4684 66.1367 30.389C65.966 30.3801 65.7931 30.3824 65.6291 30.3492C65.0439 30.2345 64.7402 29.7468 64.8798 29.1686C64.8843 29.1509 64.8887 29.131 64.8954 29.1156C65.2101 28.3939 65.219 27.6546 65.0306 26.9043C65.004 26.7961 64.9907 26.6814 64.9929 26.5688C64.9973 26.0127 65.2301 25.5868 65.7444 25.3418C65.9151 25.2601 66.0902 25.1895 66.2697 25.1321C66.7774 24.9732 67.1853 24.6952 67.4313 24.2075C67.5067 24.0574 67.6131 23.925 67.7262 23.7506C67.6397 23.5961 67.5555 23.4306 67.4579 23.2739C67.285 22.9915 67.2119 22.6913 67.2274 22.3603C67.3249 20.3564 67.7638 18.454 68.8323 16.7194C69.5173 15.6093 70.2821 14.5589 71.0734 13.5282C71.304 13.2303 71.5345 12.9302 71.7473 12.619C72.3769 11.6943 72.7271 10.6703 72.7737 9.55362C72.8003 8.8761 72.8114 8.19858 72.8136 7.52106C72.8136 6.56106 72.7914 5.60106 72.7936 4.64106C72.8025 2.47389 74.2656 0.664232 76.3914 0.236094C77.0742 0.0992676 77.7791 0.0595415 78.4796 0.116921C78.7611 0.141197 79.0449 0.163267 79.3286 0.176508C80.7074 0.233887 81.9244 1.12547 82.3722 2.42093C82.8732 3.87306 83.1481 5.36713 83.1481 6.90534C83.1481 7.30037 83.1392 7.69541 83.1348 8.09044C83.1193 9.66617 83.6468 11.0411 84.6754 12.2284C84.7862 12.3564 84.9037 12.48 85.019 12.6058C86.3158 14.0005 87.3333 15.5762 88.1025 17.3153C88.588 18.4143 88.8385 19.5663 88.9028 20.7624C88.9427 21.4995 88.854 22.2279 88.7032 22.9495C88.6434 23.2342 88.5658 23.2916 88.2732 23.2916C88.1269 23.2916 87.9784 23.2629 87.7766 23.2408L87.7678 23.2452ZM85.2606 17.1608C85.2562 17.1475 85.254 17.1321 85.2473 17.1189C85.2429 17.11 85.2318 17.1012 85.2252 17.0924C85.2385 17.1122 85.254 17.1343 85.2673 17.1542C85.3028 17.2667 85.3404 17.3793 85.3759 17.4918C85.4202 17.6927 85.4535 17.8957 85.5111 18.0921C85.6663 18.6173 85.7661 19.1492 85.7528 19.7009C85.7483 19.8929 85.7528 20.0871 85.7528 20.2791C85.806 19.8289 85.8414 19.3765 85.7971 18.9307C85.7461 18.432 85.6685 17.9266 85.3826 17.4874C85.3427 17.3771 85.3028 17.2689 85.2606 17.1586V17.1608ZM75.9525 7.1812C75.906 6.83693 75.8683 6.5412 75.8262 6.24548C75.7774 5.9012 75.6377 5.59886 75.4072 5.33624C75.0614 4.94562 74.3476 4.93679 74.055 5.46424C73.9818 5.59665 73.9109 5.72906 73.8599 5.87031C73.6227 6.52575 73.7003 7.16355 73.9818 7.79031C74.0572 7.95582 74.2101 8.09486 74.1835 8.31775C74.086 8.39499 73.9796 8.47224 73.8798 8.5561C73.5872 8.80548 73.4631 9.12548 73.4808 9.50727C73.4941 9.8052 73.6027 10.0678 73.8266 10.2554C74.055 10.4452 74.0816 10.6549 73.9951 10.9086C73.984 10.944 73.9752 10.9815 73.9663 11.019C73.6271 12.5859 73.1394 14.1064 72.5032 15.5807C72.1375 16.4281 71.7606 17.2689 71.4037 18.1186C71.038 18.9903 70.8207 19.9018 70.6323 20.8264C70.4926 21.5128 70.5902 22.1153 70.9094 22.7266C71.0646 23.0224 71.2286 23.2717 71.5279 23.4284C72.2638 23.8102 72.8335 24.3862 73.3523 25.0152C73.5784 25.291 73.7734 25.5934 73.9619 25.8957C74.1126 26.1385 74.1968 26.4121 74.1702 26.7035C74.1348 27.1073 73.9707 27.4251 73.554 27.5619C73.452 27.595 73.3523 27.6414 73.2281 27.6921C73.401 28.0894 73.605 28.4138 73.9486 28.6411C74.5183 29.0163 75.1146 29.3385 75.7663 29.5526C76.9434 29.941 78.1116 29.952 79.2377 29.3892C80.335 28.8397 81.4101 28.2505 82.4986 27.6833C82.7158 27.5708 82.8532 27.4141 82.8865 27.1669C82.9131 26.9617 82.9752 26.7608 82.9973 26.5556C83.0727 25.8825 83.137 25.2094 83.2057 24.5363C83.2234 24.3708 83.1902 24.1898 83.3409 24.064C83.6934 23.7683 83.7111 23.3975 83.6069 22.9892C83.5515 22.7708 83.4961 22.5501 83.4628 22.3272C83.3875 21.8173 83.516 21.3804 84.017 21.1442C84.2431 21.0383 84.3207 20.8728 84.3207 20.6521C84.3207 20.4844 84.3119 20.3122 84.283 20.1489C84.1234 19.2375 83.8619 18.3525 83.4628 17.5161C82.8577 16.2405 82.237 14.9715 81.6274 13.6982C81.5143 13.462 81.3968 13.2237 81.3126 12.9743C81.0289 12.1379 80.7628 11.2927 80.4791 10.4562C80.3904 10.198 80.3572 9.96189 80.4747 9.69486C80.6609 9.26893 80.5345 8.88493 80.2242 8.5561C80.1355 8.4612 80.0424 8.37072 79.9471 8.27362C80.0313 8.08603 80.1156 7.9161 80.1821 7.74175C80.4614 7.02451 80.4547 6.31168 80.1399 5.60327C79.8562 4.96548 79.0294 4.66975 78.4796 4.84189C77.8811 5.02948 77.5087 5.41127 77.3624 6.00272C77.2959 6.27417 77.2936 6.56106 77.2626 6.83913C77.2515 6.94506 77.2382 7.0532 77.2227 7.19886C76.8037 7.20989 76.4158 7.22755 75.9569 7.1812H75.9525ZM69.5394 20.9566C69.5882 20.555 69.6281 20.1511 69.6902 19.7495C69.8387 18.7586 70.1003 17.803 70.5747 16.9114C70.7786 16.5296 70.9715 16.1434 71.1621 15.755C71.1976 15.6822 71.2907 15.6071 71.2153 15.5034C70.0116 16.6179 69.1471 19.4008 69.5417 20.9589L69.5394 20.9566Z" fill="#9A9A9A"/>
    <path d="M24.6414 12.2129C24.8608 12.6013 24.6702 13.0207 24.8232 13.4333C24.9451 13.4002 25.0692 13.3826 25.1823 13.3362C25.8118 13.0802 26.4347 12.8066 27.0687 12.5638C27.5453 12.3807 28.0463 12.288 28.5562 12.2262C30.385 12.0077 31.8503 13.4135 31.8325 15.1393C31.8104 17.2667 31.8259 19.3942 31.8236 21.5216C31.8236 21.6916 31.8192 21.8615 31.8281 22.0292C31.8503 22.4574 32.0298 22.6472 32.4488 22.6781C32.6372 22.6913 32.8278 22.6803 33.0163 22.6913C33.1271 22.6979 33.2379 22.72 33.3621 22.7354C33.5394 23.0819 33.5106 23.4218 33.3865 23.7749C33.3044 23.7947 33.2335 23.8279 33.1604 23.8279C31.4579 23.8323 29.7554 23.8323 28.0552 23.8323C27.9643 23.8323 27.8734 23.8058 27.7603 23.7881C27.6229 23.435 27.6517 23.093 27.7293 22.7421C27.9421 22.6317 28.1527 22.6736 28.3567 22.6604C28.7756 22.6317 28.933 22.4794 28.9552 22.0712C28.9618 21.9211 28.9596 21.771 28.9596 21.6187C28.9596 19.9812 28.9596 18.3415 28.9596 16.704C28.9596 16.534 28.9574 16.3641 28.953 16.1964C28.9374 15.3644 28.1793 14.3117 26.9778 14.3249C26.6786 14.3293 26.3771 14.3801 26.0801 14.4287C25.67 14.4949 25.2599 14.5611 24.8786 14.7288C24.7367 14.9186 24.7833 15.1327 24.781 15.3335C24.7766 16.2383 24.7788 17.1409 24.7788 18.0458C24.7788 19.2507 24.7788 20.4557 24.7788 21.6607C24.7788 21.8107 24.7744 21.963 24.7855 22.1131C24.8121 22.4883 24.9695 22.6361 25.3596 22.6692C25.5813 22.6891 25.814 22.6317 26.0468 22.7553C26.1798 23.093 26.1621 23.435 26.0113 23.7859C25.9138 23.8036 25.8229 23.8345 25.732 23.8345C24.0118 23.8345 22.2894 23.8345 20.5692 23.8323C20.4983 23.8323 20.4251 23.7992 20.3475 23.7815C20.199 23.4659 20.2278 23.157 20.3054 22.8656C20.465 22.709 20.6446 22.7663 20.8086 22.7465C21.0148 22.72 21.2232 22.7067 21.4227 22.6538C21.6443 22.5964 21.764 22.4287 21.7818 22.197C21.7906 22.0844 21.7884 21.9718 21.7884 21.8593C21.7884 19.5619 21.7884 17.2645 21.7884 14.9671C21.7884 14.7994 21.7729 14.6339 21.764 14.4573C21.2786 14.2411 20.7665 14.464 20.2744 14.294C20.1436 13.9983 20.2057 13.6849 20.2301 13.3539C20.3498 13.2921 20.4584 13.2171 20.5803 13.1751C21.4737 12.8662 22.367 12.566 23.2626 12.2615C23.7237 12.1048 24.187 12.1445 24.6458 12.2107L24.6414 12.2129Z" fill="#9A9A9A"/>
    <path d="M42.6593 14.4089C42.2337 14.2919 41.7704 14.4331 41.3182 14.3162C41.1497 14.0602 41.214 13.7755 41.2406 13.5018C41.2472 13.4378 41.3093 13.3672 41.3669 13.3275C41.4423 13.2723 41.5332 13.2392 41.6219 13.2083C42.4531 12.8993 43.2866 12.5948 44.1179 12.2814C44.5768 12.1071 45.049 12.1689 45.5189 12.1865C45.6475 12.1909 45.7273 12.288 45.7384 12.4094C45.7583 12.6147 45.7627 12.8221 45.7627 13.0296C45.7627 15.8919 45.7627 18.7542 45.7627 21.6166C45.7627 21.8042 45.7583 21.994 45.7738 22.1815C45.8004 22.5081 45.9401 22.6428 46.2792 22.6714C46.4854 22.6891 46.696 22.6759 46.9022 22.6913C47.1593 22.709 47.2347 22.7796 47.2435 23.0422C47.2524 23.2828 47.2324 23.5233 47.2236 23.7837C47.1061 23.8168 47.0196 23.8632 46.931 23.8654C45.6453 23.8698 44.3595 23.8676 43.0738 23.8654C43.0029 23.8654 42.9297 23.8367 42.8411 23.8168C42.697 23.4946 42.8344 23.1393 42.728 22.8325C42.5618 22.7465 42.462 22.8568 42.3512 22.9164C41.7393 23.2585 41.1098 23.5564 40.4425 23.7749C39.8839 23.9581 39.3164 24.0883 38.7201 24.0794C38.3566 24.075 38.0063 24.0088 37.665 23.8941C36.7827 23.5983 36.1886 23.0069 35.8738 22.1374C35.6987 21.6541 35.6366 21.1531 35.6366 20.6389C35.6411 18.7741 35.6389 16.9115 35.6366 15.0467C35.6366 14.8436 35.6632 14.634 35.5746 14.4177C35.1157 14.2764 34.6324 14.4376 34.1647 14.3007C34.0029 13.9962 34.0539 13.6894 34.1182 13.3694C34.2246 13.3142 34.3199 13.2502 34.4241 13.2127C35.2953 12.9038 36.1687 12.5926 37.0443 12.2925C37.4854 12.1424 38.0573 12.1446 38.5561 12.2748C38.6891 12.4293 38.6448 12.6257 38.6448 12.8089C38.6492 13.674 38.647 14.5413 38.647 15.4064C38.647 16.8365 38.6514 18.2687 38.6448 19.6988C38.6448 20.0607 38.678 20.416 38.7911 20.7559C39.0526 21.5548 39.6379 22.0072 40.4758 22.0072C41.143 22.0072 41.7925 21.8947 42.4354 21.738C42.7058 21.6718 42.7546 21.5879 42.7701 21.2944C42.7746 21.1995 42.7701 21.1068 42.7701 21.0119C42.7701 19.0169 42.7701 17.0196 42.7679 15.0246C42.7679 14.8238 42.8256 14.6075 42.6549 14.4111L42.6593 14.4089Z" fill="#9A9A9A"/>
    <path d="M0.410282 8.17872C0.614223 8.15665 0.778262 8.12355 0.944518 8.12355C2.8354 8.11914 4.72628 8.11914 6.61939 8.12355C6.78564 8.12355 6.94968 8.15445 7.12924 8.17431C7.26668 8.56934 7.22013 8.93569 7.17136 9.30424C6.97185 9.44769 6.75682 9.39693 6.5551 9.41017C6.32899 9.42341 6.10067 9.41238 5.87678 9.44989C5.63293 9.48962 5.52431 9.63086 5.49993 9.87803C5.48441 10.0281 5.48884 10.1782 5.48884 10.3304C5.48884 14.1329 5.48884 17.9376 5.48884 21.7401C5.48884 21.9453 5.50214 22.1506 5.51101 22.3801C5.65953 22.4176 5.78146 22.4772 5.90338 22.4772C7.07604 22.4838 8.2487 22.4772 9.42136 22.4861C9.73835 22.4861 9.90904 22.3316 10.0088 22.0557C10.2083 21.5018 10.2881 20.9258 10.3413 20.3431C10.3723 20.0077 10.3746 19.6678 10.4876 19.35C10.9354 19.2463 11.7002 19.2441 12.1768 19.339C12.3142 19.7715 12.3408 20.7823 12.2787 23.2165C12.2743 23.4019 12.3031 23.5961 12.159 23.755C11.9861 23.8587 11.7933 23.8301 11.6071 23.8301C8.08909 23.8301 4.57111 23.8301 1.05314 23.8301C0.940085 23.8301 0.824814 23.8301 0.713976 23.8212C0.483434 23.8014 0.392549 23.7263 0.381465 23.5167C0.365948 23.2585 0.330479 22.9936 0.432449 22.7575C0.62309 22.6163 0.818163 22.667 1.00215 22.6582C1.19058 22.6494 1.38122 22.667 1.56964 22.6494C1.97309 22.6118 2.17482 22.3978 2.20142 21.9939C2.20807 21.8813 2.20585 21.7688 2.20585 21.654C2.20585 17.9067 2.20585 14.1594 2.20585 10.4121C2.20585 10.2797 2.20807 10.1473 2.1992 10.0171C2.1726 9.65514 2.04403 9.52493 1.66496 9.49624C1.42112 9.47638 1.17284 9.483 0.926784 9.47196C0.758311 9.46534 0.583188 9.47858 0.414715 9.33734C0.314962 8.99307 0.345997 8.62452 0.410282 8.17872Z" fill="#9A9A9A"/>
    <path d="M51.3669 22.5081C51.664 22.784 52.0519 22.6472 52.3844 22.8304C52.4997 23.1106 52.4842 23.413 52.3756 23.7506C52.247 23.7749 52.1228 23.8212 51.9965 23.8212C50.7684 23.8257 49.5381 23.8257 48.31 23.8235C48.2347 23.8235 48.1593 23.8168 48.0839 23.8036C47.9576 23.7837 47.88 23.7043 47.86 23.5829C47.8224 23.3401 47.8046 23.0974 47.9088 22.8304C48.0219 22.8083 48.146 22.7818 48.2724 22.7597C48.8155 22.6626 49.2522 22.4155 49.5913 21.963C50.4071 20.8772 51.2472 19.8113 52.0763 18.7365C52.1672 18.6196 52.2448 18.4916 52.3445 18.3437C52.2403 18.1782 52.1472 18.0193 52.043 17.867C51.2228 16.6709 50.3827 15.4858 49.5869 14.272C49.2854 13.8152 48.9019 13.5989 48.3788 13.5592C48.2502 13.5503 48.1238 13.515 47.982 13.4907C47.8467 13.1509 47.8911 12.8198 47.9376 12.4601C48.0418 12.4314 48.146 12.3807 48.2524 12.3807C49.9172 12.3763 51.5797 12.3763 53.2445 12.3807C53.3354 12.3807 53.4241 12.4116 53.5238 12.4292C53.6568 12.7558 53.6147 13.067 53.5593 13.4113C53.4396 13.4532 53.3221 13.4996 53.198 13.5327C53.0893 13.5636 52.9741 13.568 52.8677 13.6011C52.7103 13.6541 52.6416 13.8173 52.7103 13.9674C52.7502 14.0513 52.799 14.133 52.8522 14.2102C53.3354 14.9076 53.8187 15.6049 54.3041 16.3001C54.3462 16.3597 54.4039 16.4083 54.4704 16.4789C54.6987 16.3067 54.8073 16.0596 54.9581 15.8521C55.1243 15.6226 55.2795 15.3887 55.4413 15.1547C55.5898 14.9363 55.7428 14.7222 55.8869 14.4993C56.0265 14.283 56.2172 14.091 56.2726 13.8394C56.0354 13.4952 55.6674 13.6187 55.3526 13.515C55.182 13.1862 55.2795 12.8397 55.2861 12.4601C55.4679 12.4336 55.612 12.3983 55.7583 12.3917C57.4985 12.3255 59.11 12.363 59.5645 12.48C59.6775 12.6742 59.6376 12.9037 59.6354 13.1244C59.6288 13.4576 59.5933 13.4775 59.2497 13.5636C58.9948 13.6276 58.7354 13.696 58.5004 13.8085C58.3187 13.8946 58.1369 14.0248 58.015 14.1837C57.1682 15.2916 56.3391 16.4127 55.5034 17.5316C55.4812 17.5603 55.4746 17.6 55.4435 17.6706C55.4901 17.7611 55.5344 17.8847 55.6076 17.9884C56.5985 19.4118 57.5982 20.8287 58.5825 22.2544C58.7554 22.5059 58.9726 22.6538 59.263 22.7156C59.3561 22.7355 59.447 22.7708 59.5401 22.7708C60.0655 22.7664 60.0765 22.9429 60.0632 23.4174C60.0588 23.5432 60.0123 23.6668 59.9879 23.7793C59.5068 23.8742 56.665 23.9117 54.9204 23.8477C54.7918 23.8433 54.6655 23.8124 54.5524 23.797C54.4786 23.5041 54.477 23.221 54.548 22.9473C54.7408 22.8877 54.9425 22.8392 55.1332 22.7619C55.3438 22.6759 55.3925 22.5037 55.2884 22.2985C55.2551 22.2323 55.213 22.1683 55.1709 22.1065C54.6455 21.3252 54.1201 20.5418 53.5903 19.7627C53.5482 19.7009 53.4928 19.6524 53.4263 19.5752C53.3598 19.6237 53.2866 19.6546 53.249 19.7098C52.6438 20.5749 52.0453 21.4422 51.4467 22.3117C51.4157 22.3559 51.4046 22.4132 51.3692 22.5081H51.3669Z" fill="#9A9A9A"/>
    <path d="M19.2018 22.7994C19.3215 23.1614 19.3193 23.4527 19.2173 23.7749C19.1087 23.797 19.0023 23.8367 18.8959 23.8367C17.1003 23.8411 15.3048 23.8389 13.507 23.8367C13.4139 23.8367 13.323 23.8102 13.2277 23.7948C13.0281 23.4659 13.1102 23.1415 13.1545 22.795C13.3163 22.7663 13.4427 22.7377 13.5713 22.7266C13.702 22.7134 13.835 22.7244 13.9681 22.7134C14.5289 22.6692 14.6641 22.5368 14.6641 21.9829C14.6685 19.648 14.6663 17.3153 14.6641 14.9804C14.6641 14.8348 14.6353 14.6869 14.6198 14.5258C14.1543 14.3603 13.6621 14.5434 13.2232 14.3823C13.1213 14.0557 13.1346 13.7622 13.2033 13.4334C13.3474 13.3672 13.4981 13.2921 13.6533 13.2325C14.4469 12.9302 15.2471 12.6411 16.0363 12.3277C16.4752 12.1534 16.923 12.1644 17.3774 12.1953C17.5924 12.2085 17.6589 12.2902 17.6722 12.5285C17.6833 12.6985 17.6789 12.8662 17.6789 13.0361C17.6789 15.8963 17.6789 18.7586 17.6789 21.6188C17.6789 21.8063 17.6722 21.9961 17.6922 22.1837C17.7365 22.5677 17.9294 22.7465 18.3262 22.773C18.6077 22.7906 18.8892 22.7906 19.1996 22.7994H19.2018Z" fill="#9A9A9A"/>
    <path d="M16.3268 10.5424C15.3071 10.5711 14.5534 9.70596 14.5445 8.80334C14.5356 7.82348 15.3714 7.00472 16.3578 7.02458C17.3354 7.04445 18.109 7.84114 18.1068 8.80555C18.1046 9.70376 17.3509 10.5711 16.3268 10.5424Z" fill="#9A9A9A"/>
    <path d="M60.8611 12.5109C60.932 12.2173 61.0096 11.9503 60.9232 11.67C60.7339 11.8069 60.5536 11.7914 60.3823 11.6237C60.2737 11.9415 60.3512 12.2063 60.5685 12.4513C60.3136 12.6742 60.0764 12.6388 59.7904 12.5131C59.8813 12.2482 60.0609 12.0055 59.9345 11.7031C59.8636 11.7473 59.8015 11.8135 59.7283 11.8245C59.6707 11.8333 59.5687 11.7936 59.5466 11.7473C59.4712 11.5884 59.4756 11.4229 59.5798 11.2353C60.0919 11.0477 60.6372 11.2397 61.1847 11.158C61.3089 11.3302 61.4264 11.4913 61.5682 11.6899C61.6547 11.5884 61.7234 11.5111 61.7877 11.4295C61.8453 11.3566 61.883 11.2617 61.954 11.2132C62.0027 11.1801 62.1003 11.1889 62.1646 11.2132C62.2045 11.2264 62.2288 11.2993 62.2466 11.35C62.2577 11.3809 62.2466 11.4251 62.2355 11.4604C62.1069 11.7936 62.1668 12.1225 62.2621 12.48C62.1867 12.5241 62.1136 12.6013 62.036 12.6036C61.719 12.6168 61.3998 12.608 61.0828 12.6013C61.0318 12.6013 60.9808 12.5594 60.8655 12.5109H60.8611ZM61.4064 12.1865C61.566 12.2571 61.6864 12.2482 61.7678 12.16C61.648 12.1688 61.5283 12.1776 61.4064 12.1865Z" fill="#9A9A9A"/>
    <path d="M85.376 17.4941C85.3405 17.3816 85.3029 17.269 85.2674 17.1565L85.2607 17.1609C85.3006 17.2712 85.3405 17.3794 85.3827 17.4897L85.376 17.4941Z" fill="#9A9A9A"/>
    <path d="M85.2653 17.1564C85.252 17.1365 85.2364 17.1145 85.2231 17.0946C85.232 17.1034 85.2409 17.1101 85.2453 17.1211C85.252 17.1343 85.2542 17.1498 85.2586 17.163L85.2653 17.1586V17.1564Z" fill="#9A9A9A"/>
    <path d="M76.6911 7.61163C76.9305 7.66901 77.161 7.69108 77.3649 7.77936C78.0566 8.07729 78.7393 8.39729 79.4265 8.71288C79.4952 8.74377 79.5595 8.7857 79.6194 8.82984C79.9275 9.06156 80.0117 9.37936 79.8477 9.72805C79.708 10.0238 79.4952 10.2687 79.2071 10.4232C78.5753 10.7587 77.9391 11.0897 77.2918 11.3965C76.875 11.5951 76.4406 11.5686 76.0438 11.3258C75.4297 10.9507 74.8645 10.5115 74.3701 9.99067C74.0243 9.62874 74.0287 9.2337 74.4278 8.91812C74.9287 8.52308 75.4608 8.16115 76.0016 7.82129C76.1989 7.6977 76.4627 7.68005 76.6933 7.61605L76.6911 7.61163Z" fill="#9A9A9A"/>
    <path d="M79.7391 6.95619C79.7413 7.30709 79.6216 7.61606 79.4132 7.89633C79.3024 8.04419 79.1583 8.11923 78.9721 8.05964C78.7925 8.00226 78.6174 7.93826 78.4378 7.88309C78.0832 7.77054 77.928 7.51454 77.9258 7.15923C77.9258 6.87675 77.9479 6.59647 78.0876 6.34047C78.3603 5.84392 78.8701 5.73357 79.3245 6.07564C79.5994 6.28088 79.7413 6.58323 79.7391 6.95619Z" fill="#9A9A9A"/>
    <path d="M74.7666 7.98231C74.4762 7.76383 74.392 7.47693 74.3631 7.17458C74.3321 6.84796 74.4008 6.53458 74.5826 6.25872C74.8353 5.87252 75.2454 5.88134 75.4915 6.27858C75.6888 6.59638 75.7287 6.95169 75.6511 7.31141C75.6289 7.41293 75.558 7.51886 75.4804 7.5939C75.2898 7.77707 75.0769 7.93155 74.7688 7.98231H74.7666Z" fill="#9A9A9A"/>
    </g>
    <defs>
    <clipPath id="clip0_2267_16325">
    <rect width="90" height="32" fill="white" transform="translate(0.170898)"/>
    </clipPath>
    </defs>
    </svg>
    