<svg width="147" height="32" viewBox="0 0 147 32" fill="none" xmlns="http://www.w3.org/2000/svg">
    <path d="M55.6513 25.8893C55.4376 26.0222 55.3045 26.0924 55.1861 26.181C53.677 27.3219 51.9641 27.6308 50.1363 27.4105C45.7752 26.885 42.9341 23.0548 42.8974 18.9613C42.8791 16.9256 43.387 15.0647 44.5958 13.4327C46.0047 11.5324 47.8788 10.4062 50.2438 10.1453C52.1753 9.93115 53.9249 10.3533 55.4511 11.6013C55.4791 11.6247 55.5206 11.6308 55.5841 11.6567C55.7453 11.4831 55.6794 11.2604 55.6806 11.0635C55.6867 9.46715 55.683 7.87084 55.6843 6.27453C55.6843 5.49176 55.6916 5.48561 56.4522 5.48438C57.3789 5.48192 58.3068 5.47946 59.2335 5.48684C59.7878 5.49053 59.8269 5.53607 59.844 6.08253C59.8476 6.19946 59.8452 6.31638 59.8452 6.4333C59.8452 13.013 59.8452 19.5915 59.8452 26.1711C59.8452 27.2136 59.8354 27.1262 58.8929 27.1287C58.0236 27.1312 57.1543 27.1336 56.2849 27.1262C55.7368 27.1213 55.705 27.0807 55.683 26.5231C55.6757 26.3508 55.6647 26.1785 55.6488 25.8905L55.6513 25.8893ZM55.6843 18.6967C55.6843 18.1711 55.6537 17.6444 55.6916 17.1225C55.7368 16.5059 55.4975 16.0247 55.0958 15.6025C53.8236 14.2708 52.2644 13.7995 50.5026 14.2302C48.051 14.8284 46.4211 17.4265 47.3087 20.2856C47.8569 22.053 49.1034 23.1508 50.919 23.4265C52.6918 23.6961 54.1813 23.0635 55.3143 21.6382C55.5634 21.3256 55.7013 20.9785 55.6891 20.5638C55.6708 19.9422 55.6843 19.3195 55.6855 18.6967H55.6843Z" fill="#9A9A9A"/>
    <path d="M108.077 11.669C108.087 11.4327 108.102 11.2284 108.102 11.0241C108.104 9.48688 108.102 7.94842 108.103 6.41119C108.103 6.25488 108.097 6.09857 108.109 5.94472C108.138 5.56688 108.191 5.50903 108.563 5.49057C108.872 5.4758 109.181 5.48442 109.49 5.48442C110.243 5.48442 110.996 5.47703 111.75 5.48934C112.187 5.49672 112.236 5.55949 112.26 6.00626C112.267 6.14165 112.264 6.27826 112.264 6.41488C112.264 13.0143 112.264 19.6124 112.264 26.2118C112.264 26.8223 111.953 27.1279 111.331 27.1287C110.462 27.1287 109.592 27.1336 108.723 27.1263C108.164 27.1226 108.13 27.0807 108.104 26.538C108.095 26.3521 108.082 26.1663 108.066 25.9066C107.9 26.0038 107.8 26.0506 107.712 26.1146C105.414 27.797 102.911 27.9226 100.401 26.8296C97.1193 25.3995 95.5467 22.698 95.3282 19.1595C95.2244 17.4881 95.5785 15.8992 96.3977 14.4407C97.9275 11.7146 100.253 10.2696 103.37 10.1552C105.032 10.0949 106.544 10.5207 107.852 11.5878C107.893 11.6198 107.954 11.626 108.077 11.669ZM108.103 18.8038C108.103 18.2204 108.081 17.6358 108.109 17.0536C108.136 16.5084 107.945 16.0678 107.59 15.6801C106.309 14.2856 104.721 13.7921 102.915 14.2315C100.334 14.8592 98.781 17.6949 99.7858 20.4592C101.056 23.9533 105.324 24.4296 107.561 21.8586C107.931 21.434 108.153 20.9687 108.111 20.3767C108.075 19.8549 108.104 19.3269 108.104 18.8026L108.103 18.8038Z" fill="#9A9A9A"/>
    <path d="M23.5007 27.0868C23.2285 27.1041 23.038 27.125 22.8487 27.125C21.9208 27.1287 20.9929 27.1299 20.0662 27.125C19.4301 27.1225 19.4106 27.0979 19.3874 26.4801C19.3813 26.3127 19.363 26.1453 19.3447 25.9127C19.1884 25.9951 19.0822 26.0321 18.9979 26.0973C17.2288 27.4634 15.2314 27.7379 13.1155 27.2813C9.82142 26.5711 7.3234 23.9164 6.75566 20.5379C6.30514 17.8597 6.76421 15.3674 8.48206 13.2124C10.0461 11.2493 12.1033 10.2339 14.6111 10.149C16.3387 10.0911 17.8942 10.5514 19.2653 11.6825C19.4741 11.4474 19.3642 11.1853 19.3911 10.9527C19.4338 10.5785 19.4802 10.501 19.8465 10.4961C20.9282 10.4838 22.0112 10.4838 23.0929 10.4961C23.458 10.4998 23.5142 10.5773 23.5435 10.9551C23.5557 11.1102 23.5496 11.2665 23.5496 11.4228C23.5496 16.3496 23.5496 21.2776 23.5483 26.2044C23.5483 26.4714 23.5215 26.7385 23.5032 27.0844L23.5007 27.0868ZM19.3862 18.7927C19.3862 18.1896 19.3715 17.5853 19.3911 16.9822C19.4057 16.5281 19.2616 16.1441 18.993 15.7933C18.009 14.5096 16.6342 14.0148 15.1117 14.0874C11.9629 14.2376 9.95328 17.3834 11.0704 20.4579C12.361 24.0074 16.6012 24.3791 18.8099 21.8967C19.1969 21.461 19.4436 20.9859 19.396 20.3693C19.3557 19.8462 19.3874 19.3182 19.3874 18.7927H19.3862Z" fill="#9A9A9A"/>
    <path d="M78.9247 27.4696C74.1607 27.4696 70.2781 23.5693 70.2891 18.7742C70.3001 13.7945 74.3878 10.1465 78.915 10.1391C83.6387 10.1318 87.5982 13.9951 87.5787 18.7927C87.5591 23.5939 83.7083 27.4696 78.9259 27.4696H78.9247ZM78.8918 23.2641C81.3825 23.3674 83.3799 21.1718 83.408 18.8358C83.4336 16.5822 81.6694 14.3041 78.9479 14.2745C76.4963 14.2474 74.4854 16.2844 74.4659 18.7521C74.4439 21.4844 76.7857 23.3625 78.8918 23.2641Z" fill="#9A9A9A"/>
    <path d="M41.2067 21.9779C41.2067 23.4179 41.2067 24.8591 41.2067 26.2991C41.2067 27.1237 41.203 27.125 40.3606 27.1262C39.5303 27.1274 38.6989 27.1287 37.8686 27.1262C37.1312 27.1237 37.1153 27.1114 37.1153 26.3816C37.1129 23.7145 37.1202 21.0474 37.108 18.3804C37.1056 17.9557 37.0763 17.5188 36.9761 17.1077C36.5403 15.3157 35.157 14.288 33.3878 14.3053C31.5186 14.3225 30.0596 15.6419 29.83 17.429C29.7702 17.8905 29.7397 18.3594 29.7385 18.8247C29.7299 21.2382 29.7348 23.653 29.7348 26.0665C29.7348 26.2228 29.7385 26.3779 29.7336 26.5342C29.7165 27.0622 29.6762 27.1164 29.1732 27.1213C28.1879 27.1311 27.2026 27.1299 26.2173 27.1213C25.7033 27.1164 25.6618 27.0647 25.6435 26.5502C25.6398 26.453 25.6422 26.3557 25.6422 26.2585C25.6422 23.5717 25.6361 20.885 25.6447 18.1994C25.652 15.797 26.4932 13.749 28.2697 12.1256C29.6371 10.8751 31.2597 10.224 33.107 10.1539C35.1692 10.0751 36.9957 10.7004 38.545 12.0764C40.1909 13.5373 41.0956 15.3908 41.1908 17.5964C41.2543 19.0536 41.203 20.5157 41.203 21.9754H41.2116L41.2067 21.9779Z" fill="#9A9A9A"/>
    <path d="M123.781 10.5613C123.993 10.5306 124.14 10.4924 124.285 10.4912C125.096 10.485 125.908 10.5047 126.718 10.4813C127.119 10.469 127.303 10.6499 127.436 11.0056C128.049 12.645 128.682 14.2758 129.304 15.9115C130.142 18.1096 130.976 20.309 131.812 22.5072C131.893 22.7176 131.983 22.9244 132.068 23.1324C132.109 23.1312 132.148 23.1299 132.188 23.1275C132.266 22.9379 132.348 22.7496 132.42 22.5589C133.871 18.7435 135.32 14.9256 136.771 11.1102C137.034 10.4186 137.04 10.4198 137.776 10.4161C138.414 10.4136 139.051 10.4124 139.688 10.4173C139.893 10.4198 140.098 10.4469 140.39 10.469C140.305 10.7361 140.255 10.9355 140.178 11.125C138.117 16.2462 136.054 21.3675 133.99 26.4875C133.734 27.1238 133.731 27.125 133.067 27.1287C132.449 27.1312 131.832 27.1287 131.213 27.1287C130.677 27.1287 130.312 26.8867 130.117 26.4026C129.283 24.3287 128.451 22.2536 127.614 20.181C126.423 17.2247 125.229 14.2684 124.038 11.3109C123.947 11.0832 123.877 10.8456 123.778 10.5589L123.781 10.5613Z" fill="#9A9A9A"/>
    <path d="M115.5 13.8487C115.5 11.5718 115.5 9.29361 115.5 7.01669C115.5 6.88007 115.499 6.74469 115.5 6.60807C115.511 5.98899 115.539 5.95823 116.168 5.95207C116.766 5.94715 117.366 5.94469 117.964 5.9533C118.476 5.96192 118.531 6.01238 118.535 6.52561C118.544 7.557 118.539 8.58838 118.539 9.621C118.539 9.7773 118.545 9.93238 118.543 10.0887C118.54 10.3545 118.67 10.4825 118.931 10.4825C119.086 10.4825 119.24 10.4875 119.395 10.4875C120.361 10.4875 121.327 10.4813 122.292 10.4924C122.77 10.4973 122.822 10.5552 122.832 11.0376C122.844 11.5828 122.844 12.1281 122.832 12.6721C122.821 13.1767 122.77 13.2271 122.246 13.2333C121.532 13.2431 120.816 13.2358 120.102 13.237C119.813 13.237 119.522 13.2345 119.233 13.237C118.577 13.2456 118.54 13.2764 118.539 13.9311C118.535 15.9939 118.537 18.0579 118.539 20.1207C118.539 20.4321 118.533 20.7459 118.576 21.0536C118.832 22.9293 120.162 24.1835 122.046 24.2868C123.05 24.3422 122.954 24.3422 122.956 25.3071C122.956 25.8327 122.964 26.3582 122.947 26.8838C122.934 27.2616 122.867 27.3404 122.5 27.3404C119.125 27.3404 116.189 25.5915 115.616 21.8979C115.542 21.4192 115.508 20.9305 115.505 20.4456C115.494 18.2462 115.5 16.0468 115.5 13.8462V13.8487Z" fill="#9A9A9A"/>
    <path d="M61.9394 21.9804C61.9394 20.6179 61.9235 19.2554 61.9443 17.8942C61.9626 16.72 62.1482 15.5717 62.5706 14.469C63.2006 12.8259 64.3092 11.6394 65.9025 10.9194C67.0282 10.4111 68.2199 10.1871 69.4469 10.1613C69.9939 10.149 70.0464 10.2056 70.0513 10.7545C70.0598 11.7268 70.0598 12.7004 70.0513 13.6727C70.0464 14.1933 70.0134 14.2204 69.4896 14.2634C68.8462 14.3164 68.226 14.4628 67.6692 14.7951C66.6693 15.3908 66.2383 16.3397 66.1247 17.4597C66.0857 17.8462 66.0954 18.2376 66.0954 18.6265C66.093 21.1754 66.0954 23.7244 66.0942 26.2733C66.0942 27.1262 66.0918 27.1274 65.2738 27.1287C64.424 27.1299 63.5742 27.1311 62.7245 27.1287C61.9431 27.1262 61.9394 27.125 61.9382 26.3607C61.9357 24.901 61.9382 23.4425 61.9382 21.9828H61.9406L61.9394 21.9804Z" fill="#9A9A9A"/>
    <path d="M89.4006 18.8161C89.4006 16.3053 89.3994 13.7958 89.4006 11.285C89.4006 10.5035 89.4116 10.4936 90.1674 10.4912C91.0562 10.4887 91.9438 10.4863 92.8327 10.4912C93.4505 10.4949 93.4907 10.533 93.492 11.157C93.4969 13.3946 93.4944 15.6333 93.4944 17.8709C93.4944 20.6733 93.4944 23.4758 93.4944 26.277C93.4944 27.1226 93.492 27.1238 92.6691 27.125C91.7998 27.1263 90.9305 27.13 90.0624 27.1238C89.4385 27.1201 89.4031 27.0881 89.4019 26.4629C89.3982 23.914 89.4006 21.3638 89.3994 18.8149L89.4006 18.8161Z" fill="#9A9A9A"/>
    <path d="M91.4236 4.43086C92.7495 4.41978 93.8215 5.48317 93.83 6.81732C93.8386 8.11455 92.7752 9.22347 91.5091 9.23947C90.1843 9.25547 89.0928 8.19578 89.0721 6.87393C89.0513 5.53855 90.1062 4.44193 91.4224 4.43086H91.4236Z" fill="#9A9A9A"/>
    </svg>
    