<svg width="180" height="54" viewBox="0 0 180 54" fill="none" xmlns="http://www.w3.org/2000/svg">
    <rect width="180" height="54" fill="white"/>
    <path d="M91.6307 13.2106H87.5256L86.5808 16.0618C86.5465 16.1655 86.495 16.2 86.3919 16.2H84.6743C84.5712 16.2 84.5368 16.1482 84.554 16.0272L88.0924 5.90115C88.1611 5.72835 88.2126 5.55555 88.247 4.96803C88.247 4.89891 88.2813 4.84707 88.35 4.84707H90.7376C90.8234 4.84707 90.8406 4.86435 90.8578 4.95075L94.8256 16.0445C94.8427 16.1482 94.8256 16.2 94.7225 16.2H92.7987C92.7129 16.2 92.6613 16.1655 92.627 16.0963L91.6307 13.2106ZM88.0752 11.3271H91.0811C90.7204 10.1866 89.9131 7.78467 89.5696 6.57507H89.5524C89.2776 7.73283 88.5905 9.75459 88.0752 11.3271ZM99.8487 16.3728C97.3581 16.3728 95.4515 14.9213 95.4515 12.0183C95.4515 9.51267 97.3066 7.50819 100.33 7.50819C100.57 7.50819 100.776 7.52547 101.068 7.56003V4.01763C101.068 3.93123 101.103 3.89667 101.171 3.89667H103.044C103.129 3.89667 103.129 3.93123 103.129 4.00035V14.4375C103.129 14.7831 103.164 15.2323 103.198 15.5434C103.198 15.6298 103.181 15.6643 103.095 15.6989C101.979 16.1827 100.879 16.3728 99.8487 16.3728ZM101.068 14.4375V9.37443C100.845 9.28803 100.57 9.25347 100.261 9.25347C98.7322 9.25347 97.5814 10.2384 97.5814 11.9146C97.5814 13.7981 98.6979 14.5757 100.072 14.5757C100.416 14.5757 100.759 14.5411 101.068 14.4375ZM108.952 7.50819C111.597 7.50819 113.04 9.52995 113.04 11.8973C113.04 14.5757 111.339 16.3728 108.917 16.3728C106.049 16.3728 104.778 14.1437 104.778 11.9491C104.778 9.49539 106.375 7.50819 108.952 7.50819ZM108.849 9.25347C107.698 9.25347 106.873 10.273 106.873 11.9146C106.873 13.5043 107.646 14.6103 108.952 14.6103C110.017 14.6103 110.927 13.729 110.927 11.9491C110.927 10.5149 110.309 9.25347 108.849 9.25347ZM114.774 3.89667H116.577C116.697 3.89667 116.732 3.91395 116.732 4.03491L116.749 7.75011C117.213 7.59459 117.745 7.50819 118.312 7.50819C120.785 7.50819 122.366 9.27075 122.366 11.5863C122.366 14.7831 119.892 16.3728 117.35 16.3728C116.457 16.3728 115.598 16.2519 114.774 15.9927C114.705 15.9754 114.653 15.889 114.653 15.8371V4.01763C114.653 3.93123 114.705 3.89667 114.774 3.89667ZM120.253 11.7936C120.253 10.152 119.308 9.28803 117.951 9.28803C117.35 9.28803 117.024 9.37443 116.749 9.47811V14.5239C116.989 14.593 117.247 14.6103 117.539 14.6103C118.948 14.6103 120.253 13.7117 120.253 11.7936ZM129.163 12.4157H125.677C125.728 13.6253 126.518 14.593 128.27 14.593C129.043 14.593 129.747 14.4547 130.4 14.1783C130.452 14.1437 130.503 14.161 130.503 14.2474V15.6816C130.503 15.7853 130.469 15.8371 130.4 15.8717C129.747 16.1827 128.992 16.3728 127.824 16.3728C124.698 16.3728 123.581 14.161 123.581 12.0355C123.581 9.63363 125.024 7.50819 127.618 7.50819C130.16 7.50819 131.139 9.51267 131.139 11.1543C131.139 11.6381 131.122 12.0355 131.07 12.2256C131.053 12.2947 131.019 12.3293 130.933 12.3466C130.692 12.3984 130.005 12.4157 129.163 12.4157ZM125.677 10.9296H128.236C128.889 10.9296 129.112 10.9296 129.181 10.9123C129.181 10.8605 129.181 10.7914 129.181 10.7741C129.181 10.273 128.837 9.16707 127.532 9.16707C126.347 9.16707 125.814 10.0829 125.677 10.9296ZM85.7564 33.3245V22.2826C85.7564 22.1962 85.7736 22.1616 85.8766 22.1443C86.3747 22.1271 87.5427 22.0925 89.123 22.0925C93.1594 22.0925 95.1863 24.3907 95.1863 27.6048C95.1863 31.8211 91.9914 33.5146 89.0886 33.5146C88.0065 33.5146 86.4263 33.5146 85.8766 33.48C85.8079 33.48 85.7564 33.4282 85.7564 33.3245ZM87.8347 23.9415V31.6829C88.1783 31.7002 88.5561 31.7002 89.0027 31.7002C91.4246 31.7002 93.0564 30.2832 93.0564 27.6567C93.0564 25.1511 91.4246 23.9069 89.1058 23.9069C88.6248 23.9069 88.247 23.9242 87.8347 23.9415ZM100.598 24.7882C103.244 24.7882 104.686 26.8099 104.686 29.1773C104.686 31.8557 102.986 33.6528 100.564 33.6528C97.6955 33.6528 96.4245 31.4237 96.4245 29.2291C96.4245 26.7754 98.0219 24.7882 100.598 24.7882ZM100.495 26.5335C99.3445 26.5335 98.52 27.553 98.52 29.1946C98.52 30.7843 99.2929 31.8903 100.598 31.8903C101.663 31.8903 102.574 31.009 102.574 29.2291C102.574 27.7949 101.955 26.5335 100.495 26.5335ZM112.292 31.7002V33.2381C112.292 33.3245 112.275 33.3591 112.206 33.3763C111.657 33.601 110.97 33.6528 110.3 33.6528C107.517 33.6528 105.868 31.7347 105.868 29.2464C105.868 26.689 107.758 24.7882 110.592 24.7882C111.451 24.7882 111.914 24.8746 112.206 24.9783C112.275 25.0128 112.292 25.0647 112.292 25.1684L112.275 26.7063C112.275 26.8272 112.206 26.8272 112.138 26.8099C111.777 26.6717 111.33 26.5853 110.66 26.5853C109.097 26.5853 107.998 27.5184 107.998 29.1773C107.998 31.0608 109.355 31.7866 110.678 31.7866C111.296 31.7866 111.828 31.7347 112.172 31.6138C112.258 31.5792 112.292 31.6311 112.292 31.7002ZM120.978 25.0819V31.5792C120.978 32.4778 121.046 32.9962 121.081 33.3591C121.098 33.4455 121.046 33.48 120.943 33.48H119.363C119.243 33.48 119.209 33.4455 119.191 33.3763C119.14 33.2035 119.088 32.9443 119.071 32.7715C118.333 33.4627 117.457 33.6528 116.684 33.6528C115.052 33.6528 113.798 32.7715 113.798 30.3523V25.0819C113.798 24.9783 113.832 24.961 113.935 24.961H115.739C115.842 24.961 115.859 24.9956 115.859 25.0819V30.1104C115.859 31.1818 116.323 31.8384 117.353 31.8384C118.006 31.8384 118.487 31.6138 118.917 31.2163V25.0819C118.917 24.9956 118.951 24.961 119.054 24.961H120.857C120.961 24.961 120.978 24.9956 120.978 25.0819ZM125.099 33.48H123.295C123.192 33.48 123.158 33.4282 123.158 33.3245V26.7927C123.158 26.1187 123.123 25.4103 123.089 25.0819C123.072 24.9956 123.123 24.961 123.226 24.961H124.807C124.893 24.961 124.927 24.9783 124.978 25.0647C125.03 25.2029 125.064 25.4794 125.081 25.7559C125.889 25.0647 126.679 24.7882 127.59 24.7882C128.603 24.7882 129.342 25.1683 129.805 25.9287C130.544 25.2893 131.454 24.7882 132.622 24.7882C134.048 24.7882 135.525 25.5485 135.525 28.1578V33.3418C135.525 33.4455 135.457 33.48 135.371 33.48H133.601C133.481 33.48 133.447 33.4282 133.447 33.3245V28.3479C133.447 27.3629 133.052 26.5853 132.004 26.5853C131.334 26.5853 130.75 26.8791 130.321 27.2938C130.355 27.4839 130.372 27.9504 130.372 28.3133V33.3418C130.372 33.4282 130.355 33.48 130.252 33.48H128.466C128.363 33.48 128.311 33.4455 128.311 33.3245V28.296C128.311 27.1556 127.796 26.6026 126.868 26.6026C126.249 26.6026 125.751 26.8099 125.236 27.2419V33.3418C125.236 33.4455 125.202 33.48 125.099 33.48ZM142.734 29.6957H139.247C139.299 30.9053 140.089 31.873 141.841 31.873C142.614 31.873 143.318 31.7347 143.971 31.4583C144.022 31.4237 144.074 31.441 144.074 31.5274V32.9616C144.074 33.0653 144.039 33.1171 143.971 33.1517C143.318 33.4627 142.562 33.6528 141.394 33.6528C138.268 33.6528 137.152 31.441 137.152 29.3155C137.152 26.9136 138.594 24.7882 141.188 24.7882C143.73 24.7882 144.709 26.7927 144.709 28.4343C144.709 28.9181 144.692 29.3155 144.641 29.5056C144.623 29.5747 144.589 29.6093 144.503 29.6266C144.263 29.6784 143.576 29.6957 142.734 29.6957ZM139.247 28.2096H141.806C142.459 28.2096 142.682 28.2096 142.751 28.1923C142.751 28.1405 142.751 28.0714 142.751 28.0541C142.751 27.553 142.408 26.4471 141.102 26.4471C139.917 26.4471 139.385 27.3629 139.247 28.2096ZM146.306 33.3418V26.9482C146.306 26.3607 146.271 25.4275 146.237 25.0819C146.237 24.9956 146.254 24.961 146.357 24.961H147.92C148.04 24.961 148.092 24.9956 148.126 25.0819C148.178 25.2375 148.212 25.4621 148.247 25.7386C148.985 25.1165 149.81 24.7882 150.737 24.7882C152.025 24.7882 153.606 25.4448 153.606 28.2096V33.3245C153.606 33.4455 153.554 33.48 153.468 33.48H151.682C151.579 33.48 151.527 33.4282 151.527 33.3245V28.3997C151.527 27.2592 151.046 26.6026 150.05 26.6026C149.363 26.6026 148.796 26.8618 148.384 27.3111V33.3418C148.384 33.4282 148.332 33.48 148.247 33.48H146.443C146.34 33.48 146.306 33.4282 146.306 33.3418ZM159.769 31.9594V33.2035C159.769 33.3072 159.752 33.3764 159.666 33.4109C159.202 33.5837 158.772 33.6528 158.206 33.6528C156.797 33.6528 155.956 32.9616 155.956 31.2509V26.7063H154.873C154.788 26.689 154.753 26.6544 154.753 26.5507V25.0992C154.753 24.9955 154.788 24.961 154.891 24.961H155.973C155.99 24.3562 156.059 23.2675 156.144 22.8355C156.162 22.7491 156.196 22.6973 156.282 22.68L158.017 22.4381C158.103 22.4208 158.137 22.4381 158.137 22.5245C158.085 23.0947 158.051 24.1143 158.051 24.961H159.717C159.803 24.961 159.837 24.9956 159.837 25.0819V26.5853C159.837 26.6717 159.803 26.7063 159.717 26.7063H158.034V30.8016C158.034 31.5619 158.274 31.9248 159.013 31.9248C159.236 31.9248 159.425 31.9075 159.666 31.8557C159.717 31.8384 159.769 31.8557 159.769 31.9594ZM93.4858 48.8592V50.3971C93.4858 50.5008 93.4514 50.5872 93.3656 50.6218C92.7987 50.8292 91.9571 50.9328 90.9952 50.9328C87.8176 50.9328 85.1037 49.0493 85.1037 45.1095C85.1037 41.6362 87.5084 39.2343 91.2528 39.2343C92.3693 39.2343 93.0564 39.3379 93.4858 39.528C93.5545 39.5626 93.5889 39.6144 93.5889 39.7181V41.3597C93.5889 41.4979 93.5201 41.4979 93.4514 41.4634C92.9018 41.2042 92.1117 41.0832 91.2185 41.0832C88.7966 41.0832 87.2507 42.6384 87.2507 45.0576C87.2507 48.0471 89.4493 49.0666 91.2528 49.0666C92.0945 49.0666 92.73 48.9975 93.3656 48.7728C93.4343 48.7383 93.4858 48.7556 93.4858 48.8592ZM95.0615 48.7037V38.5949C95.0615 38.5085 95.1129 38.4567 95.2161 38.4567H96.9853C97.0883 38.4567 97.1399 38.5085 97.1399 38.5949V48.5136C97.1399 49.0493 97.3288 49.2221 97.741 49.2221C97.8785 49.2221 97.9128 49.2221 98.0674 49.2048C98.1189 49.1875 98.1361 49.2221 98.1361 49.3085V50.6045C98.1361 50.7255 98.1189 50.7427 98.033 50.7946C97.8441 50.881 97.5349 50.9328 97.054 50.9328C95.9547 50.9328 95.0615 50.5181 95.0615 48.7037ZM103.249 42.0682C105.894 42.0682 107.337 44.0899 107.337 46.4573C107.337 49.1357 105.636 50.9328 103.214 50.9328C100.346 50.9328 99.0747 48.7037 99.0747 46.5091C99.0747 44.0554 100.672 42.0682 103.249 42.0682ZM103.146 43.8135C101.995 43.8135 101.17 44.833 101.17 46.4746C101.17 48.0644 101.943 49.1703 103.249 49.1703C104.314 49.1703 105.224 48.289 105.224 46.5091C105.224 45.0749 104.606 43.8135 103.146 43.8135ZM116.13 42.3619V48.8592C116.13 49.7578 116.199 50.2762 116.233 50.6391C116.25 50.7255 116.199 50.76 116.096 50.76H114.515C114.395 50.76 114.361 50.7255 114.344 50.6563C114.292 50.4835 114.241 50.2243 114.223 50.0515C113.485 50.7427 112.609 50.9328 111.836 50.9328C110.204 50.9328 108.95 50.0515 108.95 47.6323V42.3619C108.95 42.2583 108.985 42.241 109.088 42.241H110.891C110.994 42.241 111.011 42.2755 111.011 42.3619V47.3904C111.011 48.4618 111.475 49.1184 112.506 49.1184C113.159 49.1184 113.639 48.8938 114.069 48.4963V42.3619C114.069 42.2755 114.103 42.241 114.206 42.241H116.01C116.113 42.241 116.13 42.2755 116.13 42.3619ZM122.175 50.9328C119.684 50.9328 117.778 49.4813 117.778 46.5783C117.778 44.0727 119.633 42.0682 122.656 42.0682C122.896 42.0682 123.102 42.0855 123.394 42.12V38.5776C123.394 38.4912 123.429 38.4567 123.497 38.4567H125.37C125.455 38.4567 125.455 38.4912 125.455 38.5603V48.9975C125.455 49.3431 125.49 49.7923 125.524 50.1034C125.524 50.1898 125.507 50.2243 125.421 50.2589C124.305 50.7427 123.205 50.9328 122.175 50.9328ZM123.394 48.9975V43.9344C123.171 43.848 122.896 43.8135 122.587 43.8135C121.058 43.8135 119.907 44.7984 119.907 46.4746C119.907 48.3581 121.024 49.1357 122.398 49.1357C122.742 49.1357 123.085 49.1011 123.394 48.9975Z" fill="#9A9A9A"/>
    <path d="M22.3676 53.6938C19.4032 53.6938 17 51.2761 17 48.2938V5.4C17 2.41766 19.4032 0 22.3676 0H66.3824C69.3468 0 71.75 2.41767 71.75 5.4V48.2938C71.75 51.2761 69.3468 53.6938 66.3824 53.6938H22.3676ZM45.9261 13.7698C45.9346 11.9652 45.7733 10.5176 44.901 9.261C44.1783 8.21922 43.1515 7.77613 41.9096 7.99598C40.7869 8.19385 40.1904 9.00224 39.9298 10.0508C39.7752 10.6731 39.6677 11.3226 39.6576 11.9619C39.6055 14.9434 40.4626 17.7238 41.5634 20.4516C41.6978 20.7831 41.7718 21.2313 41.6642 21.556C40.2038 25.9582 38.5266 30.2759 36.2897 34.3465C36.046 34.7896 35.5721 35.204 35.1083 35.4103C32.5218 36.5603 29.9338 37.7171 27.7087 39.4996C26.8482 40.1896 26.0315 41.0149 25.4348 41.9366C24.4836 43.4029 25.1744 45.0095 26.8499 45.5388C27.9322 45.8804 29.0548 45.8534 30.0229 45.2734C31.0934 44.6307 32.1488 43.9086 33.0496 43.0477C35.3184 40.8779 36.9536 38.2176 38.5568 35.5372C38.7888 35.1499 39.2374 34.7609 39.6593 34.6441C42.807 33.7699 45.9766 32.9733 49.1328 32.1227C49.694 31.9704 50.0655 32.1293 50.4839 32.4896C52.4166 34.1521 54.5594 35.4526 57.0331 36.1376C58.5843 36.5671 60.1574 36.7954 61.7539 36.4081C62.7488 36.1663 63.4933 35.6048 63.6748 34.5308C63.8614 33.4299 63.5018 32.4862 62.5387 31.9231C61.8245 31.5053 61.0363 31.1518 60.2363 30.9608C57.102 30.2132 53.951 30.57 50.8167 31.0114C50.2655 31.0893 49.941 30.9438 49.5798 30.5786C47.558 28.5288 45.8892 26.2169 44.4036 23.7562C44.0692 23.2015 44.0187 22.7229 44.2119 22.1006C45.096 19.2831 45.8422 16.4317 45.9261 13.7731V13.7698Z" fill="#9A9A9A"/>
    <path d="M39.7482 33.6096C40.4444 31.9416 41.1404 30.2737 41.8305 28.6186C42.6247 26.714 45.1705 26.3881 46.4131 28.0321C46.9157 28.6971 47.4202 29.3645 47.9241 30.0316C48.3582 30.6062 48.0709 31.4401 47.3765 31.6212C44.8742 32.2735 42.303 32.9435 39.7482 33.6096Z" fill="#9A9A9A"/>
    <path d="M35.087 36.5045C34.7913 36.9932 34.5423 37.5193 34.1928 37.9658C32.7592 39.7923 31.3442 41.6373 29.8165 43.3826C29.3274 43.9424 28.5477 44.2908 27.8435 44.6037C27.2537 44.8658 26.6268 44.739 26.1714 44.1894C25.7193 43.6447 25.6857 43.0088 26.047 42.4627C26.489 41.7928 26.9915 41.1266 27.5948 40.6057C29.7623 38.7356 32.3214 37.5343 35.087 36.5045Z" fill="#9A9A9A"/>
    <path d="M50.9157 31.7987C50.9153 31.7992 50.9157 31.7999 50.9162 31.7998C53.9573 31.3636 56.7516 31.0171 59.5526 31.6647C60.7508 31.9422 61.2652 32.7117 61.1643 33.7787C61.0735 34.7411 60.3526 35.4108 59.2199 35.5308C58.8081 35.5749 58.3729 35.585 57.9695 35.5021C55.3597 34.9728 53.144 33.6724 50.9157 31.7987C50.9159 31.7985 50.9154 31.7985 50.9157 31.7987Z" fill="#9A9A9A"/>
    <path d="M42.226 19.6299C42.2258 19.6298 42.2261 19.6301 42.226 19.6299C41.1017 17.0154 40.3284 14.3582 40.5335 11.5137C40.5788 10.8828 40.7637 10.2419 40.999 9.65162C41.2326 9.06647 41.7367 8.73161 42.4006 8.77897C43.0644 8.82632 43.5031 9.22714 43.6627 9.84611C43.8089 10.411 43.9097 11.008 43.8996 11.5881C43.8459 14.3677 43.09 17.0087 42.2282 19.6293C42.2278 19.6303 42.2267 19.6305 42.226 19.6299Z" fill="#9A9A9A"/>
    </svg>
    