<svg width="180" height="54" viewBox="0 0 180 54" fill="none" xmlns="http://www.w3.org/2000/svg">
<rect width="180" height="54" fill="white"/>
<g clip-path="url(#clip0_2151_7716)">
<path d="M25.0996 33.2467C23.6642 31.4083 22.2874 29.6448 20.9124 27.8813C18.0024 24.1488 15.0885 20.4202 12.1948 16.6752C11.9982 16.4208 11.8592 16.0483 11.8563 15.7286C11.8304 12.7843 11.8496 9.84 11.8333 6.89568C11.8304 6.4512 11.934 6.28512 12.4153 6.288C16.475 6.30624 20.5337 6.3024 24.5933 6.2928C24.9625 6.2928 25.1322 6.35808 25.1312 6.7872C25.1197 15.5242 25.1226 24.2611 25.1216 32.9981C25.1216 33.0451 25.114 33.0922 25.0996 33.2477V33.2467Z" fill="#9A9A9A"/>
<path d="M26.2436 33.0768C26.2436 32.9194 26.2436 32.7629 26.2436 32.6054C26.2436 24.0643 26.2436 15.5232 26.2436 6.98112C26.2436 6.52608 26.4677 6.29824 26.9158 6.2976C30.9256 6.2976 34.9354 6.30336 38.9452 6.28896C39.3757 6.28704 39.5233 6.38976 39.5205 6.84672C39.5003 9.83808 39.5157 12.8285 39.5003 15.8198C39.4994 16.0541 39.4198 16.3334 39.2779 16.5158C35.014 22.007 30.7386 27.4886 26.4651 32.9722C26.4258 33.0221 26.398 33.0816 26.3644 33.1363L26.2427 33.0758L26.2436 33.0768Z" fill="#9A9A9A"/>
<path d="M102.775 35.5488C101.485 35.5488 100.272 35.5546 99.0595 35.5392C98.956 35.5382 98.8035 35.4192 98.7594 35.3184C97.7124 32.9174 95.7564 32.1062 93.3133 32.2963C90.923 32.4816 89.2076 33.6998 88.338 35.9789C87.3561 38.5507 87.9448 41.2714 89.7647 42.9715C92.039 45.095 97.0844 45.2342 98.7517 41.1005C98.793 40.9997 98.8237 40.8941 98.8783 40.7338H93.4696V37.3536H102.986V47.5094H100.149C100.068 46.6915 99.9867 45.8726 99.8995 44.9885C99.8103 45.0557 99.7585 45.0797 99.7278 45.119C98.4909 46.7424 96.8197 47.5795 94.8244 47.7907C90.9076 48.2045 87.2344 46.4784 85.3292 43.1194C82.4038 37.9622 84.9322 29.8042 92.6277 28.9123C95.58 28.5706 98.2484 29.2694 100.452 31.3565C101.642 32.4835 102.367 33.889 102.774 35.5488H102.775Z" fill="#9A9A9A"/>
<path d="M145.321 18.0864V6.2784H148.953V24.6019C148.048 24.6019 147.143 24.6154 146.239 24.5866C146.108 24.5827 145.968 24.3888 145.858 24.2611C142.799 20.7139 139.744 17.1638 136.688 13.6157C136.567 13.4736 136.44 13.3354 136.229 13.0973V24.5808H132.582V6.2496C133.45 6.2496 134.307 6.23616 135.163 6.264C135.297 6.2688 135.447 6.44352 135.554 6.56928C138.646 10.2134 141.733 13.8624 144.821 17.5104C144.954 17.6678 145.092 17.8224 145.321 18.0864Z" fill="#9A9A9A"/>
<path d="M49.54 6.24576C50.3052 6.24576 51.0377 6.24576 51.7703 6.24576C53.5757 6.24576 55.3812 6.24576 57.1867 6.24576C58.5626 6.24576 59.8925 6.47424 61.1255 7.10688C63.3826 8.2656 64.4747 10.1501 64.4171 12.6691C64.3577 15.2429 63.1007 17.0525 60.7506 18.0826C60.2175 18.3158 59.646 18.4598 59.0314 18.6643C61.0517 20.6285 63.0489 22.5686 65.1161 24.5779C64.8668 24.5914 64.7163 24.6067 64.5658 24.6067C63.2081 24.6086 61.8494 24.5981 60.4917 24.6144C60.1648 24.6182 59.9289 24.5299 59.6911 24.2986C57.9297 22.5782 56.1454 20.8819 54.3917 19.1539C54.0417 18.8083 53.6937 18.6922 53.1884 18.8246V24.575H49.541V6.24576H49.54ZM53.1884 15.3581C54.6602 15.3581 56.0821 15.4195 57.4954 15.3312C58.1723 15.289 58.8828 15.0634 59.4878 14.7475C60.6221 14.1562 61.0766 12.9034 60.6931 11.7197C60.3354 10.6166 59.4859 9.95328 58.4139 9.8448C56.7082 9.672 54.9814 9.70848 53.2632 9.65856C53.2401 9.65856 53.2162 9.69696 53.1874 9.72192V15.3571L53.1884 15.3581Z" fill="#9A9A9A"/>
<path d="M86.731 24.5894V6.288C86.8316 6.2736 86.9218 6.24864 87.0109 6.24864C89.4559 6.2496 91.9038 6.1728 94.345 6.27648C97.6644 6.4176 100.417 7.76352 102.238 10.6339C105.188 15.2851 103.321 22.3526 96.7497 24.1949C95.8532 24.4464 94.8963 24.5645 93.9643 24.5875C91.6651 24.6432 89.3629 24.6077 87.0618 24.6086C86.9678 24.6086 86.8748 24.599 86.7319 24.5904L86.731 24.5894ZM90.4032 21.1498C91.8156 21.1498 93.2078 21.2477 94.5818 21.1296C97.395 20.8877 99.6147 18.5674 99.8448 15.7747C100.063 13.1194 98.2637 10.6531 95.5262 9.89664C93.8646 9.4368 92.1608 9.68352 90.4732 9.65856C90.4493 9.65856 90.4243 9.696 90.4023 9.71328V21.1498H90.4032Z" fill="#9A9A9A"/>
<path d="M82.0672 38.3414C82.072 43.6109 77.8446 47.8301 72.5471 47.8435C67.2285 47.857 62.9608 43.6397 62.9502 38.3606C62.9397 33.0854 67.2026 28.8307 72.5039 28.825C77.8139 28.8192 82.0624 33.047 82.0672 38.3414ZM72.5317 44.4154C75.8167 44.4029 78.3623 41.7379 78.3508 38.3222C78.3393 34.9046 75.7841 32.2598 72.4972 32.2666C69.2123 32.2723 66.6762 34.9296 66.6839 38.3568C66.6915 41.7773 69.2506 44.4278 72.5317 44.4154Z" fill="#9A9A9A"/>
<path d="M131.002 36.5021C129.827 36.5021 128.678 36.5107 127.53 36.4896C127.412 36.4877 127.258 36.3302 127.19 36.2074C127.085 36.0144 127.045 35.7859 126.965 35.5776C125.375 31.4064 120.492 31.6829 118.292 33.551C115.501 35.9213 115.51 40.8384 118.338 43.1568C120.571 44.9875 124.172 44.8397 125.943 42.7565C126.485 42.12 126.764 41.2608 127.175 40.511C127.247 40.3795 127.379 40.1875 127.487 40.1846C128.651 40.1606 129.816 40.1702 131.09 40.1702C130.867 40.896 130.704 41.5757 130.455 42.2218C129.14 45.6298 126.093 47.7811 122.446 47.833C118.317 47.8915 115.124 46.2182 113.367 42.3984C110.922 37.0848 113.525 30.0845 120.453 28.9613C125.473 28.1472 129.953 30.9245 131.01 36.3494C131.016 36.3792 131.007 36.4128 131.003 36.503L131.002 36.5021Z" fill="#9A9A9A"/>
<path d="M65.7067 24.6077C66.2197 23.4192 66.703 22.2922 67.191 21.168C69.2803 16.3478 71.3763 11.5306 73.4531 6.70464C73.6017 6.35808 73.7647 6.2208 74.1501 6.23616C75.0121 6.26976 75.876 6.23328 76.738 6.2592C76.9001 6.264 77.1446 6.3888 77.203 6.5232C79.7928 12.4838 82.3663 18.4522 84.9398 24.4195C84.9571 24.4608 84.959 24.5088 84.9791 24.6077C83.7355 24.6077 82.513 24.6163 81.2905 24.5923C81.1802 24.5904 81.0335 24.3917 80.9741 24.2534C80.5541 23.2694 80.1409 22.2826 79.7516 21.2861C79.6461 21.0163 79.5052 20.9386 79.2262 20.9395C76.6699 20.9501 74.1128 20.953 71.5565 20.9357C71.2181 20.9338 71.0915 21.0614 70.9784 21.3514C70.5939 22.3325 70.1873 23.305 69.7702 24.2726C69.7127 24.407 69.5555 24.5914 69.4404 24.5933C68.2169 24.6163 66.9925 24.6077 65.7048 24.6077H65.7067ZM78.2482 17.6582C77.2817 15.3062 76.3401 13.0186 75.365 10.6454C74.3851 13.0301 73.4435 15.3226 72.4847 17.6582H78.2482Z" fill="#9A9A9A"/>
<path d="M130.836 24.6058C129.577 24.6058 128.354 24.6134 127.129 24.5923C127.027 24.5904 126.887 24.4147 126.834 24.2899C126.416 23.3059 126.004 22.3181 125.615 21.3216C125.507 21.0451 125.377 20.9347 125.066 20.9366C122.51 20.951 119.953 20.9501 117.398 20.9366C117.093 20.9347 116.948 21.0317 116.838 21.312C116.447 22.3075 116.039 23.2963 115.614 24.2774C115.553 24.4166 115.364 24.5904 115.232 24.5933C114.035 24.6173 112.838 24.6077 111.583 24.6077C111.654 24.4128 111.702 24.2534 111.767 24.1027C114.287 18.287 116.811 12.4733 119.32 6.6528C119.458 6.33504 119.621 6.22944 119.956 6.23808C120.834 6.26112 121.714 6.23232 122.592 6.25824C122.752 6.26304 122.993 6.3936 123.052 6.52896C125.635 12.4733 128.203 18.4253 130.771 24.3773C130.795 24.433 130.804 24.4944 130.836 24.6058ZM124.092 17.6506C123.13 15.312 122.187 13.0195 121.211 10.6435C120.231 13.0282 119.29 15.3216 118.333 17.6506H124.092Z" fill="#9A9A9A"/>
<path d="M167.239 6.2832V9.62784H161.051V24.5674H157.346V9.64992H151.141V6.2832H167.239Z" fill="#9A9A9A"/>
<path d="M49.5496 29.1648H53.1567V44.1062H62.8398V47.4979H49.5496V29.1658V29.1648Z" fill="#9A9A9A"/>
<path d="M27.4824 36.2496C27.6838 36.241 27.8372 36.2285 27.9916 36.2275C31.6178 36.2266 35.2451 36.2266 38.8713 36.2275C39.5089 36.2275 39.5109 36.2294 39.5109 36.8544C39.5109 40.1818 39.5013 43.5091 39.5224 46.8355C39.5252 47.329 39.3766 47.4749 38.8972 47.4538C38.1158 47.4182 37.3315 47.4605 36.55 47.4317C36.3544 47.425 36.0955 47.327 35.9805 47.1811C33.1769 43.6118 30.3886 40.0301 27.5984 36.4493C27.563 36.4032 27.54 36.3475 27.4843 36.2496H27.4824Z" fill="#9A9A9A"/>
<path d="M23.8714 36.287C23.2644 37.0694 22.7006 37.799 22.1349 38.5258C19.9536 41.3251 17.7637 44.1187 15.5958 46.9296C15.3014 47.3107 14.9955 47.4787 14.5142 47.4547C13.7807 47.4173 13.0443 47.4326 12.3099 47.449C11.9551 47.4566 11.8362 47.3155 11.8372 46.968C11.8448 43.5437 11.8439 40.1194 11.8381 36.696C11.8381 36.3869 11.9167 36.2246 12.2667 36.2256C16.0541 36.2342 19.8414 36.2323 23.6288 36.2342C23.6748 36.2342 23.7208 36.2544 23.8704 36.288L23.8714 36.287Z" fill="#9A9A9A"/>
<path d="M26.9434 34.1386C31.142 28.753 35.2861 23.4384 39.5107 18.0211C39.5107 18.2621 39.5107 18.3821 39.5107 18.5011C39.5107 21.9245 39.5078 25.3488 39.5145 28.7722C39.5145 29.0717 39.4685 29.2646 39.1415 29.3914C35.172 30.936 31.2101 32.497 27.2454 34.0531C27.1764 34.08 27.1025 34.0934 26.9434 34.1386Z" fill="#9A9A9A"/>
<path d="M11.8793 18.0768C16.0905 23.4778 20.223 28.7779 24.437 34.1808C23.1283 33.6682 21.9345 33.1997 20.7408 32.7322C17.9199 31.6253 15.1 30.5155 12.2753 29.4173C11.9896 29.3059 11.8352 29.1734 11.8362 28.8355C11.8467 25.3642 11.8429 21.8928 11.8439 18.4214C11.8439 18.359 11.8563 18.2957 11.8793 18.0768Z" fill="#9A9A9A"/>
<path d="M109.84 29.183V47.5056H106.223V29.183H109.84Z" fill="#9A9A9A"/>
<path d="M109.826 24.5904H106.227V6.28032H109.826V24.5894V24.5904Z" fill="#9A9A9A"/>
<path d="M27.6809 35.0582C31.6015 33.5213 35.5222 31.9843 39.508 30.4214C39.508 31.9478 39.5147 33.384 39.4936 34.8202C39.4917 34.921 39.2951 35.0842 39.1715 35.1034C38.8905 35.1466 38.599 35.1178 38.3114 35.1178C34.9267 35.1178 31.5411 35.1178 28.1565 35.1178C28.0021 35.1178 27.8487 35.1178 27.6943 35.1178C27.6895 35.0976 27.6857 35.0784 27.6809 35.0582Z" fill="#9A9A9A"/>
<path d="M23.6537 35.1178C19.9009 35.1178 16.149 35.113 12.3962 35.1254C11.9954 35.1264 11.8228 35.04 11.8324 34.5984C11.8583 33.4003 11.8401 32.2003 11.843 31.0013C11.843 30.8477 11.864 30.6941 11.8832 30.4406C15.8623 32.0006 19.7705 33.5318 23.6777 35.064L23.6528 35.1178H23.6537Z" fill="#9A9A9A"/>
</g>
<defs>
<clipPath id="clip0_2151_7716">
<rect width="163" height="48" fill="white" transform="translate(8 3)"/>
</clipPath>
</defs>
</svg>
