<svg width="99" height="26" viewBox="0 0 99 26" fill="none" xmlns="http://www.w3.org/2000/svg">
<g id="android" clip-path="url(#clip0_353_47817)">
<g id="Layer 2">
<g id="AEM Logo - Light">
<g id="f65akf.tif">
<path id="Vector" d="M85.1177 20.7003H72.5977C72.1382 20.7003 72.1238 20.7003 72.1474 20.2244C72.1841 19.5109 72.4021 18.8367 72.622 18.1645C72.8787 17.3646 73.2147 16.5923 73.625 15.8592C73.9248 15.3358 74.2597 14.8334 74.6274 14.3553C75.0869 13.7501 75.612 13.2092 76.1503 12.6775C76.7483 12.0867 77.4283 11.5976 78.1327 11.1355C78.6933 10.7679 78.7983 10.8401 78.3952 10.162C78.0053 9.50561 77.5819 8.87019 77.2137 8.20326C76.9931 7.80218 76.6885 7.44508 76.5573 6.99675C76.4745 6.72695 76.5979 6.55038 76.8047 6.42565C77.0115 6.30093 77.1848 6.36001 77.3482 6.55694C77.5423 6.77666 77.7089 7.01913 77.8445 7.27901C78.2121 8.0234 78.7084 8.68901 79.1147 9.40846C79.246 9.63624 79.3536 9.86795 79.5204 10.08C79.6516 10.2447 79.7777 10.2769 79.9313 10.1975C80.4047 9.96425 80.9004 9.7793 81.4109 9.64542C82.0367 9.471 82.6742 9.34114 83.3184 9.25682C83.9083 9.18005 84.5019 9.13492 85.0967 9.1216C85.5502 9.10323 86.0045 9.12278 86.4548 9.18002C86.9937 9.25879 87.5425 9.27914 88.0696 9.43734C88.6604 9.61589 89.2683 9.75964 89.8341 10.0156C90.031 10.1056 90.249 10.122 90.4479 10.2159C90.6107 10.2933 90.7282 10.1502 90.8089 10.0143C91.0561 9.60341 91.3012 9.19074 91.5441 8.77632C91.9563 8.07328 92.3633 7.36697 92.7788 6.66525C92.8438 6.57167 92.9221 6.48807 93.0112 6.41712C93.1661 6.2773 93.3309 6.17096 93.5403 6.32785C93.8199 6.5379 93.879 6.70201 93.7372 6.9718C93.3486 7.70372 92.9403 8.42382 92.4959 9.12422C92.1953 9.59816 91.9333 10.0957 91.659 10.5854C91.5848 10.7167 91.5933 10.8388 91.7463 10.9195C92.2826 11.1998 92.7663 11.5661 93.2488 11.9219C93.7313 12.2777 94.1402 12.7346 94.5761 13.1527C95.6336 14.1669 96.4056 15.3885 97.0285 16.6974C97.4344 17.5235 97.7335 18.3979 97.9186 19.2995C97.9843 19.6454 98.0204 20.0045 98.1464 20.3425C98.2324 20.573 98.1412 20.6799 97.893 20.697C97.7617 20.7062 97.6305 20.7023 97.4946 20.7023H85.1177V20.7003ZM79.1751 15.1331C78.3874 15.1423 78.0132 15.5926 77.9791 16.3147C77.9528 16.855 78.5698 17.3801 79.1692 17.365C79.7685 17.3499 80.2122 16.8609 80.2267 16.2576C80.2345 16.114 80.2131 15.9703 80.164 15.8352C80.1148 15.7 80.0389 15.5762 79.9406 15.4712C79.8424 15.3661 79.7239 15.282 79.5924 15.2239C79.4608 15.1659 79.3189 15.135 79.1751 15.1331ZM91.08 17.3302C91.8264 17.3624 92.1578 16.9088 92.2025 16.2714C92.2471 15.634 91.739 15.1496 91.1017 15.1305C90.4505 15.1108 89.9601 15.7029 89.9857 16.2366C90.0199 16.8123 90.3638 17.3906 91.08 17.3302Z" fill="#9A9A9A"/>
<path id="Vector_2" d="M33.3094 13.4555C33.3094 15.776 33.3061 18.0971 33.3146 20.4176C33.3146 20.6427 33.249 20.7215 33.0284 20.7162C32.6398 20.7057 32.2492 20.6906 31.8626 20.7162C31.3486 20.7537 31.1517 20.3677 31.1405 19.9397C31.1405 19.8347 31.1727 19.7145 31.0696 19.6561C30.9383 19.5813 30.8957 19.7356 30.8313 19.7966C29.9642 20.6165 28.9277 20.9782 27.7507 20.8836C25.8786 20.7373 24.6097 19.725 23.8384 18.0564C23.4728 17.2687 23.2851 16.4206 23.373 15.5515C23.57 13.5888 24.42 12.0429 26.2941 11.1836C27.1665 10.7839 28.0822 10.7563 28.9855 10.9283C29.6747 11.0662 30.3081 11.4041 30.8064 11.8998C30.872 11.9622 30.9239 12.0724 31.0348 12.035C31.1661 11.991 31.1307 11.8637 31.1313 11.7652C31.134 10.1832 31.1351 8.60126 31.1346 7.01928C31.1346 6.84007 31.1464 6.65956 31.1346 6.48167C31.1182 6.28014 31.214 6.20072 31.3972 6.20006C31.9374 6.20006 32.4777 6.20597 33.0179 6.19546C33.2582 6.19087 33.3166 6.28999 33.3159 6.51908C33.308 8.83036 33.3107 11.1416 33.3107 13.4529L33.3094 13.4555ZM25.6049 15.8843C25.5458 16.3773 25.6705 16.8742 25.899 17.3639C26.5029 18.6557 27.9273 19.2583 29.3715 18.7988C30.3561 18.4864 30.9193 17.7755 31.1976 16.8361C31.4274 16.0672 31.3781 15.2419 31.0585 14.5058C30.6955 13.6433 30.0528 13.0374 29.1496 12.8582C28.2155 12.6731 27.2742 12.7794 26.5363 13.4916C25.8786 14.1218 25.5353 14.8997 25.6049 15.8797V15.8843Z" fill="#9A9A9A"/>
<path id="Vector_3" d="M10.4918 15.8883C10.4918 17.3941 10.4853 18.9 10.4977 20.4058C10.4977 20.6651 10.4176 20.734 10.1695 20.7189C9.80126 20.6992 9.43038 20.7143 9.06081 20.711C8.6256 20.711 8.38206 20.4636 8.36697 20.0349C8.36171 19.8905 8.45033 19.6752 8.30854 19.6181C8.16676 19.561 8.09192 19.7829 7.98033 19.8761C6.85325 20.8325 5.57322 21.1147 4.14418 20.7498C2.82542 20.4137 1.88935 19.5859 1.23752 18.4188C1.03469 18.0545 0.917186 17.6501 0.787213 17.249C0.544336 16.4994 0.671682 15.7491 0.666431 15.0021C0.666431 14.5649 0.856138 14.1415 1.02484 13.7404C1.37675 12.8795 1.97159 12.1396 2.7368 11.611C3.81925 10.864 5.0146 10.6703 6.27231 10.9395C6.97969 11.0913 7.62282 11.4582 8.11358 11.9898C8.16479 12.0442 8.21467 12.1565 8.31051 12.121C8.40635 12.0856 8.37025 11.9727 8.37616 11.8926C8.38206 11.6845 8.38403 11.4758 8.37616 11.2677C8.37025 11.1016 8.42801 11.0274 8.60525 11.0294C9.15468 11.0373 9.70476 11.0406 10.2542 11.0294C10.503 11.0241 10.4964 11.1712 10.4964 11.3438C10.4964 12.8593 10.4964 14.3748 10.4964 15.8902L10.4918 15.8883ZM5.6126 12.8182C5.06252 12.7394 4.51506 12.9206 4.03324 13.2777C3.38929 13.7529 3.02891 14.3936 2.86152 15.1911C2.70135 15.9572 2.81294 16.6635 3.11031 17.3377C3.85601 19.026 6.04256 19.4651 7.4053 18.3663C8.51138 17.4729 8.71815 16.2729 8.41685 14.9358C8.16938 13.8258 7.05805 12.6915 5.6126 12.8182Z" fill="#9A9A9A"/>
<path id="Vector_4" d="M41.8672 15.8719C41.8974 12.9278 44.0846 10.7517 47.0917 10.8016C49.8815 10.8495 52.0043 12.8543 52.0661 15.7452C52.1317 18.8212 49.8342 20.9099 47.0181 20.9309C44.0701 20.9506 41.9066 18.7687 41.8672 15.8719ZM44.0852 15.7662C44.0557 16.7731 44.2822 17.3009 44.6924 17.8116C45.5018 18.8113 46.5416 19.1455 47.796 18.7916C48.8161 18.5041 49.4193 17.8149 49.7318 16.8381C49.9878 16.0379 49.9136 15.2496 49.5841 14.4855C49.4406 14.1468 49.2308 13.8402 48.967 13.5839C48.7032 13.3275 48.3907 13.1265 48.0481 12.9928C47.6175 12.8169 47.1547 12.7958 46.6873 12.8149C46.2384 12.8394 45.8044 12.985 45.4316 13.2363C44.4962 13.8376 44.055 14.7218 44.0852 15.7662Z" fill="#9A9A9A"/>
<path id="Vector_5" d="M12.8877 15.6579C12.8877 14.2275 12.8937 12.7972 12.8818 11.3662C12.8818 11.1036 12.956 11.0196 13.2199 11.0301C13.6932 11.0498 14.1678 11.0301 14.6417 11.0301C15.0901 11.0301 15.0901 11.0301 15.0914 11.464C15.0914 11.5952 15.0914 11.7265 15.0914 11.8618C15.0914 11.9274 15.1052 12.0003 15.1774 12.0265C15.2496 12.0528 15.2804 11.9963 15.3172 11.953C15.7405 11.4646 16.3019 11.116 16.9274 10.9533C17.2932 10.8551 17.6713 10.8109 18.0499 10.822C18.9472 10.843 19.7829 11.076 20.4662 11.7016C20.8998 12.0964 21.2286 12.5926 21.4233 13.1457C21.6911 13.8888 21.7344 14.6516 21.7292 15.4294C21.7173 17.0968 21.7173 18.7641 21.7292 20.4314C21.7292 20.6664 21.6504 20.7268 21.4377 20.7202C21.0778 20.7015 20.7171 20.7015 20.3572 20.7202C19.7868 20.7629 19.5564 20.4275 19.5557 19.9141C19.5557 18.4076 19.5557 16.9011 19.5452 15.3953C19.5443 15.0441 19.5208 14.6932 19.475 14.345C19.3627 13.5094 18.5396 12.8352 17.6921 12.8057C16.976 12.7788 16.3491 12.9495 15.866 13.4864C15.422 13.9703 15.1606 14.5938 15.1268 15.2496C15.0369 16.9248 15.1006 18.6019 15.0855 20.2784C15.0815 20.715 15.0855 20.7143 14.6489 20.7123C14.3168 20.7123 13.9853 20.7123 13.6531 20.7123C13.151 20.7078 12.8858 20.4439 12.8851 19.9476C12.8864 18.5188 12.8873 17.0889 12.8877 15.6579Z" fill="#9A9A9A"/>
<path id="Vector_6" d="M37.8953 12.4552C38.2478 11.8736 38.6955 11.4305 39.3119 11.1541C39.8567 10.9093 40.4186 10.8614 41.0002 10.9323C41.1656 10.9519 41.2208 11.0543 41.2201 11.2073C41.2201 11.7849 41.2155 12.3633 41.2201 12.9409C41.2201 13.1096 41.1413 13.1595 40.9923 13.1438C40.9166 13.143 40.8413 13.132 40.7685 13.1109C40.4015 12.9652 40.0582 13.0033 39.669 13.0965C39.1123 13.2278 38.7309 13.5468 38.4106 13.9656C38.2002 14.2396 38.0573 14.5594 37.9938 14.899C37.6551 16.7213 37.9183 18.5586 37.8474 20.3881C37.8369 20.6585 37.7673 20.7294 37.51 20.7163C37.1509 20.6973 36.7879 20.7163 36.4295 20.7163C35.9182 20.7124 35.7265 20.5194 35.7265 20.0074C35.7265 17.3554 35.7265 14.7034 35.7265 12.0515C35.7265 11.8243 35.7429 11.592 35.7219 11.3701C35.6976 11.1115 35.7777 11.0136 36.0501 11.0235C36.5516 11.0425 37.0551 11.0406 37.5566 11.0235C37.7929 11.0163 37.8467 11.1075 37.8421 11.3228C37.8336 11.6996 37.8133 12.0764 37.8953 12.4552Z" fill="#9A9A9A"/>
<path id="Vector_7" d="M55.9014 15.8834C55.9014 17.3984 55.9014 18.9128 55.9046 20.4271C55.9046 20.6273 55.862 20.7225 55.6381 20.7147C55.2311 20.7002 54.8235 20.7147 54.4159 20.7107C54.3289 20.7131 54.2425 20.6976 54.1618 20.6652C54.0811 20.6327 54.008 20.584 53.947 20.522C53.8859 20.4601 53.8383 20.3862 53.8071 20.3051C53.7758 20.2239 53.7616 20.1372 53.7654 20.0503C53.7654 17.1444 53.7654 14.2384 53.7588 11.3317C53.7588 11.0888 53.8389 11.0212 54.0693 11.0278C54.5896 11.0409 55.1106 11.0409 55.6322 11.0278C55.8475 11.0232 55.9046 11.0993 55.9033 11.3094C55.8948 12.8336 55.8987 14.3572 55.8987 15.8814L55.9014 15.8834Z" fill="#9A9A9A"/>
<path id="Vector_8" d="M53.427 7.47891C53.341 6.66691 54.1832 6.02099 54.8823 6.05184C55.2573 6.06887 55.611 6.23129 55.8683 6.50468C56.1257 6.77806 56.2664 7.14092 56.2607 7.51633C56.2572 7.88882 56.1088 8.2453 55.847 8.51022C55.5851 8.77515 55.2304 8.92769 54.858 8.93553C54.0545 8.95194 53.4217 8.29157 53.427 7.47891Z" fill="#9A9A9A"/>
<path id="Vector_9" d="M67.5058 13.5019C67.5058 15.804 67.5058 18.1067 67.5111 20.4088C67.5111 20.6458 67.4244 20.7022 67.2124 20.6957C66.8711 20.6839 66.5297 20.6917 66.1877 20.6917C65.7092 20.6917 65.4762 20.4594 65.4552 19.9861C65.4492 19.843 65.5477 19.6421 65.3895 19.5679C65.2129 19.4839 65.1506 19.7104 65.0469 19.8042C64.5582 20.2423 63.9736 20.5597 63.3401 20.7311C62.7732 20.8929 62.1765 20.9214 61.5967 20.8145C60.4676 20.6176 59.5152 20.0649 58.8036 19.1452C58.2898 18.4803 57.9409 17.7031 57.7855 16.8772C57.6999 16.4819 57.6625 16.0777 57.6739 15.6734C57.7086 14.8957 57.9101 14.1345 58.2647 13.4415C58.665 12.6244 59.293 11.9405 60.0731 11.4722C61.5829 10.5631 63.7937 10.6491 65.1072 11.9921C65.1729 12.0578 65.2129 12.235 65.3633 12.1562C65.4945 12.0873 65.4571 11.9403 65.4571 11.8208C65.4571 10.6362 65.4571 9.45175 65.4571 8.26756C65.4571 7.68925 65.465 7.11159 65.4571 6.53394C65.4532 6.31207 65.5333 6.22936 65.7551 6.23461C66.21 6.2438 66.6656 6.23461 67.1205 6.23461C67.5104 6.23461 67.5209 6.24117 67.5209 6.62453C67.5209 8.91764 67.5209 11.2105 67.5209 13.5032L67.5058 13.5019ZM59.8729 15.9635C59.7974 16.4854 59.9589 17.0617 60.2668 17.554C60.9757 18.689 62.152 19.2456 63.6106 18.7901C64.8014 18.4179 65.3724 17.5251 65.5346 16.3482C65.5983 15.8224 65.5559 15.2891 65.4099 14.78C65.1571 13.8301 64.1029 12.8107 62.9102 12.8022C62.154 12.7956 61.4661 12.9256 60.895 13.4192C60.1519 14.0612 59.8401 14.9007 59.8729 15.9635Z" fill="#9A9A9A"/>
</g>
</g>
</g>
</g>
<defs>
<clipPath id="clip0_353_47817">
<rect width="98.7633" height="25.384" fill="white" transform="translate(0.236328)"/>
</clipPath>
</defs>
</svg>
