<svg width="164" height="48" viewBox="0 0 164 48" fill="none" xmlns="http://www.w3.org/2000/svg">
<g id="Radiant_Logic_Corporate_Logo 3" clip-path="url(#clip0_2240_211)">
<path id="Vector" d="M17.5998 30.2467C16.1645 28.4083 14.7876 26.6448 13.4127 24.8813C10.5026 21.1488 7.58876 17.4202 4.69503 13.6752C4.49847 13.4208 4.35944 13.0483 4.35657 12.7286C4.33068 9.78432 4.34985 6.84 4.33355 3.89568C4.33068 3.4512 4.43423 3.28512 4.91556 3.288C8.97522 3.30624 13.0339 3.3024 17.0936 3.2928C17.4627 3.2928 17.6324 3.35808 17.6315 3.7872C17.62 12.5242 17.6228 21.2611 17.6219 29.9981C17.6219 30.0451 17.6142 30.0922 17.5998 30.2477V30.2467Z" fill="#9A9A9A"/>
<path id="Vector_2" d="M18.7436 30.0768C18.7436 29.9194 18.7436 29.7629 18.7436 29.6054C18.7436 21.0643 18.7436 12.5232 18.7436 3.98113C18.7436 3.52609 18.9677 3.29825 19.4158 3.29761C23.4256 3.29761 27.4354 3.30337 31.4452 3.28897C31.8757 3.28705 32.0233 3.38977 32.0205 3.84673C32.0003 6.83809 32.0157 9.82849 32.0003 12.8198C31.9994 13.0541 31.9198 13.3334 31.7779 13.5158C27.514 19.007 23.2386 24.4886 18.9651 29.9722C18.9258 30.0221 18.898 30.0816 18.8644 30.1363L18.7427 30.0758L18.7436 30.0768Z" fill="#9A9A9A"/>
<path id="Vector_3" d="M95.2747 32.5488C93.9851 32.5488 92.7722 32.5546 91.5593 32.5392C91.4557 32.5382 91.3033 32.4192 91.2592 32.3184C90.2121 29.9174 88.2561 29.1062 85.8131 29.2963C83.4227 29.4816 81.7074 30.6998 80.8377 32.9789C79.8559 35.5507 80.4446 38.2714 82.2645 39.9715C84.5388 42.095 89.5841 42.2342 91.2515 38.1005C91.2927 37.9997 91.3234 37.8941 91.3781 37.7338H85.9693V34.3536H95.4857V44.5094H92.6485C92.568 43.6915 92.4865 42.8726 92.3992 41.9885C92.31 42.0557 92.2583 42.0797 92.2276 42.119C90.9907 43.7424 89.3195 44.5795 87.3242 44.7907C83.4074 45.2045 79.7341 43.4784 77.8289 40.1194C74.9036 34.9622 77.432 26.8042 85.1275 25.9123C88.0797 25.5706 90.7481 26.2694 92.9515 28.3565C94.1414 29.4835 94.8663 30.889 95.2738 32.5488H95.2747Z" fill="#9A9A9A"/>
<path id="Vector_4" d="M137.821 15.0864V3.27841H141.453V21.6019C140.548 21.6019 139.644 21.6154 138.74 21.5866C138.608 21.5827 138.468 21.3888 138.358 21.2611C135.299 17.7139 132.244 14.1639 129.189 10.6157C129.067 10.4736 128.94 10.3354 128.729 10.0973V21.5808H125.082V3.24961C125.95 3.24961 126.807 3.23617 127.663 3.26401C127.797 3.26881 127.947 3.44353 128.054 3.56929C131.147 7.21345 134.233 10.8624 137.321 14.5104C137.455 14.6679 137.592 14.8224 137.821 15.0864Z" fill="#9A9A9A"/>
<path id="Vector_5" d="M42.04 3.24576C42.8052 3.24576 43.5377 3.24576 44.2703 3.24576C46.0757 3.24576 47.8812 3.24576 49.6867 3.24576C51.0626 3.24576 52.3925 3.47424 53.6255 4.10688C55.8826 5.2656 56.9747 7.15008 56.9171 9.66912C56.8577 12.2429 55.6007 14.0525 53.2506 15.0826C52.7175 15.3158 52.146 15.4598 51.5314 15.6643C53.5517 17.6285 55.5489 19.5686 57.6161 21.5779C57.3668 21.5914 57.2163 21.6067 57.0658 21.6067C55.7081 21.6086 54.3494 21.5981 52.9917 21.6144C52.6648 21.6182 52.4289 21.5299 52.1911 21.2986C50.4297 19.5782 48.6454 17.8819 46.8917 16.1539C46.5417 15.8083 46.1937 15.6922 45.6884 15.8246V21.575H42.041V3.24576H42.04ZM45.6884 12.3581C47.1602 12.3581 48.5821 12.4195 49.9954 12.3312C50.6723 12.289 51.3828 12.0634 51.9878 11.7475C53.1221 11.1562 53.5766 9.90336 53.1931 8.71968C52.8354 7.61664 51.9859 6.95328 50.9139 6.8448C49.2082 6.672 47.4814 6.70848 45.7632 6.65856C45.7401 6.65856 45.7162 6.69696 45.6874 6.72192V12.3571L45.6884 12.3581Z" fill="#9A9A9A"/>
<path id="Vector_6" d="M79.231 21.5894V3.288C79.3316 3.2736 79.4218 3.24864 79.5109 3.24864C81.9559 3.2496 84.4038 3.1728 86.845 3.27648C90.1644 3.4176 92.9172 4.76352 94.738 7.63392C97.6883 12.2851 95.8205 19.3526 89.2497 21.1949C88.3532 21.4464 87.3963 21.5645 86.4643 21.5875C84.1651 21.6432 81.8629 21.6077 79.5618 21.6086C79.4678 21.6086 79.3748 21.599 79.2319 21.5904L79.231 21.5894ZM82.9032 18.1498C84.3156 18.1498 85.7078 18.2477 87.0818 18.1296C89.895 17.8877 92.1147 15.5674 92.3448 12.7747C92.5634 10.1194 90.7637 7.65312 88.0262 6.89664C86.3646 6.4368 84.6608 6.68353 82.9732 6.65857C82.9493 6.65857 82.9243 6.696 82.9023 6.71328V18.1498H82.9032Z" fill="#9A9A9A"/>
<path id="Vector_7" d="M74.5672 35.3414C74.572 40.6109 70.3446 44.8301 65.0471 44.8435C59.7285 44.857 55.4608 40.6397 55.4502 35.3606C55.4397 30.0854 59.7026 25.8307 65.0039 25.825C70.3139 25.8192 74.5624 30.047 74.5672 35.3414ZM65.0317 41.4154C68.3167 41.4029 70.8623 38.7379 70.8508 35.3222C70.8393 31.9046 68.2841 29.2598 64.9972 29.2666C61.7123 29.2723 59.1762 31.9296 59.1839 35.3568C59.1915 38.7773 61.7506 41.4278 65.0317 41.4154Z" fill="#9A9A9A"/>
<path id="Vector_8" d="M123.502 33.5021C122.327 33.5021 121.178 33.5107 120.03 33.4896C119.912 33.4877 119.758 33.3302 119.69 33.2074C119.585 33.0144 119.545 32.7859 119.465 32.5776C117.875 28.4064 112.992 28.6829 110.792 30.551C108.001 32.9213 108.01 37.8384 110.838 40.1568C113.071 41.9875 116.672 41.8397 118.443 39.7565C118.985 39.12 119.264 38.2608 119.675 37.511C119.747 37.3795 119.879 37.1875 119.987 37.1846C121.151 37.1606 122.316 37.1702 123.59 37.1702C123.367 37.896 123.204 38.5757 122.955 39.2218C121.64 42.6298 118.593 44.7811 114.946 44.833C110.817 44.8915 107.624 43.2182 105.867 39.3984C103.422 34.0848 106.025 27.0845 112.953 25.9613C117.973 25.1472 122.453 27.9245 123.51 33.3494C123.516 33.3792 123.507 33.4128 123.503 33.503L123.502 33.5021Z" fill="#9A9A9A"/>
<path id="Vector_9" d="M58.207 21.6077C58.72 20.4192 59.2032 19.2922 59.6913 18.168C61.7805 13.3478 63.8765 8.53057 65.9533 3.70465C66.1019 3.35809 66.2649 3.22081 66.6504 3.23617C67.5124 3.26977 68.3763 3.23329 69.2383 3.25921C69.4003 3.26401 69.6448 3.38881 69.7033 3.52321C72.2931 9.48385 74.8666 15.4522 77.44 21.4195C77.4573 21.4608 77.4592 21.5088 77.4793 21.6077C76.2358 21.6077 75.0133 21.6163 73.7908 21.5923C73.6805 21.5904 73.5338 21.3917 73.4743 21.2535C73.0544 20.2694 72.6411 19.2826 72.2518 18.2861C72.1464 18.0163 72.0054 17.9386 71.7264 17.9395C69.1702 17.9501 66.613 17.953 64.0568 17.9357C63.7183 17.9338 63.5917 18.0615 63.4786 18.3514C63.0941 19.3325 62.6876 20.305 62.2705 21.2726C62.213 21.407 62.0557 21.5914 61.9407 21.5933C60.7172 21.6163 59.4928 21.6077 58.2051 21.6077H58.207ZM70.7484 14.6582C69.7819 12.3062 68.8403 10.0186 67.8652 7.64545C66.8853 10.0301 65.9437 12.3226 64.9849 14.6582H70.7484Z" fill="#9A9A9A"/>
<path id="Vector_10" d="M123.336 21.6058C122.077 21.6058 120.853 21.6135 119.629 21.5923C119.526 21.5904 119.386 21.4147 119.334 21.2899C118.916 20.3059 118.504 19.3181 118.115 18.3216C118.007 18.0451 117.877 17.9347 117.565 17.9367C115.009 17.9511 112.453 17.9501 109.898 17.9367C109.593 17.9347 109.448 18.0317 109.338 18.312C108.947 19.3075 108.539 20.2963 108.113 21.2775C108.053 21.4167 107.864 21.5904 107.732 21.5933C106.535 21.6173 105.338 21.6077 104.083 21.6077C104.153 21.4128 104.201 21.2535 104.267 21.1027C106.786 15.2871 109.311 9.47329 111.82 3.65281C111.957 3.33505 112.12 3.22945 112.456 3.23809C113.334 3.26113 114.213 3.23233 115.092 3.25825C115.252 3.26305 115.493 3.39361 115.552 3.52897C118.135 9.47329 120.703 15.4253 123.27 21.3773C123.294 21.433 123.304 21.4944 123.336 21.6058ZM116.591 14.6506C115.63 12.312 114.687 10.0195 113.711 7.64354C112.731 10.0282 111.79 12.3216 110.833 14.6506H116.591Z" fill="#9A9A9A"/>
<path id="Vector_11" d="M159.738 3.2832V6.62784H153.551V21.5674H149.846V6.64992H143.641V3.2832H159.738Z" fill="#9A9A9A"/>
<path id="Vector_12" d="M42.0498 26.1648H45.6569V41.1062H55.3401V44.4979H42.0498V26.1658V26.1648Z" fill="#9A9A9A"/>
<path id="Vector_13" d="M19.9824 33.2496C20.1838 33.241 20.3372 33.2285 20.4916 33.2275C24.1178 33.2266 27.7451 33.2266 31.3713 33.2275C32.0089 33.2275 32.0109 33.2294 32.0109 33.8544C32.0109 37.1818 32.0013 40.5091 32.0224 43.8355C32.0252 44.329 31.8766 44.4749 31.3972 44.4538C30.6158 44.4182 29.8315 44.4605 29.05 44.4317C28.8544 44.425 28.5955 44.327 28.4805 44.1811C25.6769 40.6118 22.8886 37.0301 20.0984 33.4493C20.063 33.4032 20.04 33.3475 19.9843 33.2496H19.9824Z" fill="#9A9A9A"/>
<path id="Vector_14" d="M16.3716 33.287C15.7647 34.0694 15.2009 34.799 14.6352 35.5258C12.4538 38.3251 10.2639 41.1187 8.096 43.9296C7.80164 44.3107 7.49577 44.4787 7.01444 44.4547C6.28094 44.4173 5.54457 44.4326 4.81011 44.449C4.45534 44.4566 4.33645 44.3155 4.33741 43.968C4.34508 40.5437 4.34412 37.1194 4.33837 33.696C4.33837 33.3869 4.41699 33.2246 4.76696 33.2256C8.55431 33.2342 12.3417 33.2323 16.129 33.2342C16.175 33.2342 16.2211 33.2544 16.3706 33.288L16.3716 33.287Z" fill="#9A9A9A"/>
<path id="Vector_15" d="M19.4434 31.1386C23.642 25.753 27.7861 20.4384 32.0107 15.0211C32.0107 15.2621 32.0107 15.3821 32.0107 15.5011C32.0107 18.9245 32.0078 22.3488 32.0145 25.7722C32.0145 26.0717 31.9685 26.2646 31.6415 26.3914C27.672 27.936 23.7101 29.497 19.7454 31.0531C19.6764 31.08 19.6025 31.0934 19.4434 31.1386Z" fill="#9A9A9A"/>
<path id="Vector_16" d="M4.37958 15.0768C8.59073 20.4778 12.7233 25.7779 16.9373 31.1808C15.6285 30.6682 14.4348 30.1997 13.241 29.7322C10.4202 28.6253 7.60027 27.5155 4.77557 26.4173C4.48984 26.3059 4.33547 26.1735 4.33643 25.8355C4.34698 22.3642 4.34314 18.8928 4.3441 15.4215C4.3441 15.3591 4.35657 15.2957 4.37958 15.0768Z" fill="#9A9A9A"/>
<path id="Vector_17" d="M102.339 26.183V44.5056H98.7227V26.183H102.339Z" fill="#9A9A9A"/>
<path id="Vector_18" d="M102.326 21.5904H98.7266V3.28033H102.326V21.5895V21.5904Z" fill="#9A9A9A"/>
<path id="Vector_19" d="M20.1807 32.0582C24.1013 30.5213 28.0219 28.9843 32.0078 27.4214C32.0078 28.9478 32.0145 30.384 31.9934 31.8202C31.9915 31.921 31.7949 32.0842 31.6712 32.1034C31.3903 32.1466 31.0988 32.1178 30.8111 32.1178C27.4265 32.1178 24.0409 32.1178 20.6562 32.1178C20.5019 32.1178 20.3485 32.1178 20.1941 32.1178C20.1893 32.0976 20.1855 32.0784 20.1807 32.0582Z" fill="#9A9A9A"/>
<path id="Vector_20" d="M16.1537 32.1178C12.4009 32.1178 8.64903 32.113 4.8962 32.1254C4.49541 32.1264 4.32282 32.04 4.33241 31.5984C4.3583 30.4003 4.34008 29.2003 4.34296 28.0013C4.34296 27.8477 4.36405 27.6941 4.38323 27.4406C8.36234 29.0006 12.2705 30.5318 16.1777 32.064L16.1528 32.1178H16.1537Z" fill="#9A9A9A"/>
</g>
<defs>
<clipPath id="clip0_2240_211">
<rect width="163" height="48" fill="white" transform="translate(0.5)"/>
</clipPath>
</defs>
</svg>
