<svg width="40" height="55" viewBox="0 0 40 55" fill="none" xmlns="http://www.w3.org/2000/svg">
    <path fill-rule="evenodd" clip-rule="evenodd" d="M33.7016 0H6.31975C2.19587 0 0.5 2.59581 0.5 5.98724V48.4205C0.5 51.8119 2.19587 54.4077 6.31975 54.4077H33.7016C37.8252 54.4077 39.5 51.8119 39.5 48.4205V5.98724C39.5 2.59581 37.8252 0 33.7016 0Z" fill="#9A9A9A"/>
    <path fill-rule="evenodd" clip-rule="evenodd" d="M38.0351 48.3997C38.0351 51.0791 36.2557 52.9007 33.7016 52.9007H6.3198C3.76578 52.9007 1.98633 51.0791 1.98633 48.3997V6.02902C1.98633 3.34962 3.76578 1.50732 6.3198 1.50732H33.7016C36.2557 1.50732 38.0351 3.34962 38.0351 6.02902V48.3997Z" fill="white"/>
    <path fill-rule="evenodd" clip-rule="evenodd" d="M28.489 20.4947L26.521 21.6878L26.9816 22.4623L27.3794 22.0435C27.7773 21.6042 28.1958 21.0596 28.489 20.4947ZM23.6531 47.9808L22.8156 48.9436C22.7321 49.0483 22.6064 49.0904 22.4603 49.0904L20.6598 48.2112C19.8855 48.9018 19.1109 49.6136 18.5246 50.451C18.2943 50.7652 18.085 51.0788 18.0014 51.4766C17.9804 51.5605 18.0014 51.728 18.0221 51.7908H27.7565C27.6729 51.6862 27.589 51.6441 27.4844 51.5394C27.2751 51.3299 27.2333 51.0162 27.2123 50.7228C27.0658 48.2944 27.4215 45.8451 28.1543 43.5214C26.7934 45.1547 25.0975 46.4317 23.6531 47.9808Z" fill="#9A9A9A"/>
    <path fill-rule="evenodd" clip-rule="evenodd" d="M33.7431 2.55405H6.27765C5.33561 2.55405 4.51925 2.9308 3.95396 3.53788C3.38867 4.16602 3.05371 5.02417 3.05371 6.00801V48.4202C3.05371 49.383 3.40942 50.2417 3.99545 50.8274C4.60253 51.4345 5.41919 51.7906 6.36124 51.7906H17.4776C17.4355 51.6859 17.4355 51.6438 17.4147 51.6231V51.581C17.2265 51.1414 17.1008 50.7436 17.038 50.3461C16.9962 49.9482 17.0172 49.5508 17.1637 49.1319C17.2835 48.829 17.438 48.541 17.6243 48.2737C17.7918 47.9806 18.0011 47.7292 18.2314 47.4989C18.1685 47.3106 18.2103 47.1221 18.2942 46.9546C18.3846 46.7813 18.5135 46.6309 18.671 46.515L19.1734 46.3475L19.6759 46.1593C20.249 45.671 20.8502 45.2166 21.4764 44.7984C22.101 44.3815 22.751 44.004 23.4227 43.6682C23.6855 43.3205 23.9724 42.9916 24.2812 42.684C24.5737 42.3701 24.9087 42.0769 25.2436 41.7841C25.495 41.9308 25.6628 41.8048 25.8303 41.6584C25.9978 41.4912 26.1442 41.3027 26.3745 41.2816C26.2909 41.0723 26.3117 40.842 26.3956 40.6538C26.5002 40.4863 26.6677 40.3396 26.898 40.2978C26.7723 40.0467 26.7723 39.8374 26.8141 39.67C26.8352 39.4817 26.877 39.3142 26.8141 39.1468C26.7095 38.8118 26.4587 38.2047 26.1442 37.5348C25.8303 36.8649 25.4743 36.1114 25.1817 35.5671C25.1607 35.5046 25.0347 35.4625 24.8885 35.3999C24.7629 35.3161 24.6164 35.2322 24.5325 35.0857C24.2815 34.73 24.114 34.3319 23.9883 33.9551C23.8764 33.616 23.8062 33.2645 23.779 32.9085C23.758 32.3435 23.9047 31.7989 24.0093 31.2758C24.135 30.7733 24.2397 30.2709 24.1558 29.7895C24.0929 29.5174 24.0511 29.2242 23.9672 28.9521C23.8837 28.6799 23.7793 28.4078 23.5701 28.1568L22.7116 27.0472L21.8742 25.9584C21.7491 25.791 21.6021 25.477 21.477 25.1421C21.3513 24.8282 21.2467 24.4932 21.2043 24.3047C21.0792 23.6555 20.9746 23.0695 20.995 22.5252C21.016 21.981 21.1625 21.4785 21.4974 21.0389C21.1207 20.8504 20.7439 20.5572 20.4507 20.2223C20.1786 19.8873 19.9694 19.4895 19.9276 19.0292C19.9065 18.5057 20.0533 17.9614 20.3464 17.5218C20.6396 17.0822 21.0792 16.7473 21.6234 16.6634C21.9154 16.6324 22.2095 16.6254 22.5026 16.6426C22.8794 16.6634 23.2772 16.7265 23.5493 16.8519C23.6957 16.9147 23.7586 17.0612 23.7796 17.1869C23.8214 17.3333 23.8214 17.459 23.8214 17.4797C24.136 17.8565 24.3867 18.2335 24.5749 18.6103C24.743 18.966 24.8681 19.3431 24.931 19.7195L28.1549 18.4218C28.5317 18.0868 28.9295 17.7939 29.348 17.5218C29.7672 17.2497 30.1854 16.9776 30.5832 16.6634C30.7297 16.5377 30.8764 16.4123 31.0228 16.2656C31.1661 16.1249 31.2863 15.9624 31.3788 15.7842C31.5045 15.5538 31.6092 15.3235 31.6928 15.0724C31.7974 14.8421 31.8813 14.5911 31.9441 14.3397C32.0064 14.1515 32.0277 13.9629 31.9859 13.7536C31.9649 13.5651 31.902 13.3769 31.8184 13.2512C31.6928 13.0837 31.5671 12.6859 31.5045 12.2671C31.4417 11.8278 31.4621 11.3879 31.6296 11.1157L21.099 4.41709C20.8897 4.62636 20.1155 5.58946 19.9059 5.81947C19.8013 5.92411 19.6545 5.98696 19.5081 6.00801C19.3617 6.02875 19.1942 6.00801 19.0895 5.96621C19.0267 5.90337 18.9431 5.86158 18.8803 5.81947C18.804 5.78097 18.7391 5.72324 18.692 5.65199C18.6502 5.58915 18.6502 5.52661 18.671 5.46377C18.692 5.40092 18.7128 5.31734 18.7549 5.27524C18.9852 5.00312 20.0737 4.06107 20.3876 3.87254C20.4504 3.81 20.5551 3.81 20.639 3.81C20.7226 3.81 20.8065 3.8518 20.8269 3.87254L32.0478 10.8229L32.2782 10.739L32.5079 10.6761C32.5918 10.634 32.6964 10.634 32.801 10.6554C32.9057 10.6761 33.0103 10.7179 33.0732 10.7808C33.1571 10.7597 33.2406 10.7808 33.3245 10.8015C33.4081 10.8226 33.492 10.8854 33.5542 10.9482C33.6171 10.9482 33.7013 10.9483 33.7641 10.99C33.8477 11.0318 33.9316 11.0739 33.9521 11.1365C34.0991 11.1575 34.2034 11.2411 34.2666 11.3668C34.3288 11.4714 34.3712 11.6389 34.3712 11.8275C34.3917 12.0785 34.3502 12.3717 34.2873 12.6649C34.2037 12.9577 34.0994 13.2301 33.9942 13.5023L32.2153 18.4218L31.6918 19.5106C31.6082 19.7198 31.4615 19.9084 31.3151 20.0758C31.1686 20.2433 30.5405 21.1436 30.3935 21.4157C30.247 21.7089 29.3468 23.1323 29.0329 23.5719C28.719 24.0115 28.4047 24.4511 28.0698 24.87L29.3892 29.5802L29.4514 30.3755L30.8755 35.8389L31.2104 37.7651L31.5454 39.67L31.5872 40.2145C31.4197 41.2191 30.8544 45.2386 30.7708 46.2435C30.7284 46.7249 30.6451 48.6301 30.5616 49.1115C30.5616 49.1325 30.5405 49.1536 30.5405 49.1954C30.5195 49.2164 30.5195 49.2375 30.5195 49.2793L29.9334 49.4675L29.3681 49.656V49.8445C29.4938 50.012 29.6403 50.1374 29.8077 50.2841C29.9548 50.4098 30.1216 50.5563 30.2684 50.703C30.3312 50.7658 30.3935 50.8705 30.4359 50.9544C30.4777 51.0383 30.4777 51.1219 30.4148 51.1847C30.2684 51.3311 30.0594 51.4568 29.8706 51.5404C29.6916 51.6294 29.5101 51.7132 29.3263 51.7918H33.722C34.6641 51.7918 35.4597 51.4358 36.0464 50.8287C36.6324 50.2427 36.9884 49.3842 36.9884 48.4214V6.00925C36.9884 5.02541 36.6324 4.16695 36.0668 3.53912C35.4811 2.9308 34.6851 2.55405 33.7431 2.55405Z" fill="#9A9A9A"/>
    <path fill-rule="evenodd" clip-rule="evenodd" d="M6.5503 11.9534H7.17843C7.22022 11.9324 7.28307 11.9113 7.30412 11.8488C7.32486 11.786 7.32486 11.7024 7.32486 11.6185V8.81308C7.32486 8.72919 7.30412 8.66665 7.26202 8.62486C7.22022 8.56201 7.15738 8.56201 7.09454 8.56201H6.5503V7.87135H10.172C10.3606 7.8924 10.5278 7.8924 10.7163 7.95524C10.8209 7.99703 10.9256 8.03914 11.0302 8.10198C11.231 8.23746 11.3904 8.42581 11.4909 8.64622C11.7001 9.08582 11.6373 9.65111 11.3441 10.0279C11.1977 10.2164 11.0091 10.3421 10.7999 10.4467C10.5865 10.5307 10.3592 10.5733 10.1299 10.5724H8.76904V11.7655C8.78978 11.8073 8.81084 11.8702 8.85294 11.912C8.89473 11.9541 8.95758 11.9541 9.02042 11.9541H9.56466V12.6447H6.54999L6.5503 11.9534ZM16.6196 33.9341H15.259V37.8905C15.259 37.9744 15.259 38.0787 15.2383 38.1837C15.2383 38.2883 15.2172 38.3719 15.2172 38.4765C15.1965 38.5812 15.1754 38.6651 15.1544 38.7697C15.1169 38.8643 15.0888 38.9624 15.0705 39.0626C14.9866 39.23 14.903 39.4183 14.8194 39.565C14.7148 39.7325 14.6098 39.9 14.4845 40.0467C14.3588 40.1721 14.2331 40.2978 14.0867 40.4024C13.9402 40.4863 13.7935 40.5906 13.6471 40.6745C13.6263 40.6745 13.6263 40.6745 13.6471 40.6745C13.731 40.6953 13.8356 40.7374 13.9192 40.7584C14.0238 40.8002 14.1077 40.8423 14.1913 40.8841C14.3588 40.9466 14.4845 41.0305 14.6309 41.1352C14.7566 41.2398 14.8823 41.3448 14.9866 41.4701C15.1123 41.5958 15.1959 41.7423 15.2798 41.889C15.3637 42.0357 15.4055 42.2032 15.4473 42.3707C15.5519 42.6846 15.5729 43.0196 15.5312 43.3545C15.4894 43.6895 15.3844 44.0245 15.2169 44.3173C15.1333 44.443 15.0287 44.5898 14.9241 44.7151C14.7984 44.8198 14.6727 44.9455 14.5473 45.0294C14.7148 45.1968 14.8405 45.3643 14.9241 45.5736C15.0287 45.7618 15.0705 45.9714 15.1123 46.2014C15.1333 46.3271 15.1541 46.5156 15.1541 46.7039C15.1541 46.8921 15.1541 47.1017 15.1333 47.2691C15.1333 47.3945 15.1541 47.4784 15.1751 47.5205C15.1909 47.5453 15.2125 47.5659 15.238 47.5805C15.2635 47.5952 15.2922 47.6034 15.3216 47.6044H16.3054V49.886H13.8771C13.7093 49.886 13.3954 49.8235 13.0815 49.7185C12.7672 49.6139 12.4744 49.4464 12.3069 49.2164C12.3069 49.2164 12.2858 49.1953 12.2651 49.1536C12.2233 49.1328 12.2023 49.0907 12.1812 49.0697V49.8235H5.88037V47.5623H7.24097V42.8103H5.88037V40.5495H8.70651C8.60187 40.4866 8.49723 40.4238 8.37154 40.3399C8.26691 40.2773 8.18301 40.1931 8.07837 40.0885C7.94861 39.9588 7.82964 39.8187 7.72267 39.6696C7.61955 39.502 7.52861 39.3271 7.45055 39.1464C7.40845 39.0626 7.38771 38.979 7.36665 38.8951C7.32596 38.8101 7.3045 38.7172 7.30381 38.623L7.28276 38.4762L7.26202 38.3508C7.24097 38.3087 7.24097 38.2669 7.24097 38.2251V33.9335H5.92216V31.6519H8.64366C8.58925 31.6273 8.53331 31.6063 8.47618 31.589C8.43408 31.5683 8.37154 31.5262 8.32944 31.5051C8.16196 31.3794 7.99448 31.2538 7.827 31.1073C7.66313 30.9647 7.50932 30.8109 7.36665 30.647C7.0989 30.3173 6.88024 29.9505 6.71747 29.5582C6.54544 29.1566 6.42589 28.7344 6.36176 28.3022C6.34071 28.0927 6.31997 27.8623 6.29892 27.6323C6.29892 27.402 6.29892 27.1924 6.31997 26.9624C6.36177 26.5228 6.44566 26.0832 6.57104 25.6643C6.71778 25.2458 6.906 24.848 7.15738 24.492C7.28307 24.3037 7.40876 24.157 7.55519 23.9895C7.68088 23.8431 7.84805 23.6967 8.01584 23.5707C8.09943 23.4871 8.20406 23.4242 8.3087 23.3403C8.41334 23.2775 8.51797 23.2146 8.64366 23.1521H8.14122V20.8922H9.46002V16.2238C9.43928 16.2448 9.41823 16.2655 9.39718 16.2655C9.37612 16.2863 9.35538 16.3073 9.31328 16.3284C9.27149 16.3702 9.22938 16.4123 9.18759 16.4748C9.16654 16.5166 9.12475 16.5795 9.1037 16.6423C9.0619 16.7469 9.0198 16.8516 8.99906 16.9562C8.97801 17.0609 8.97801 17.1655 8.97801 17.2701L8.95727 17.7518V18.2122H6.54968V13.8793H15.9912V18.1917H13.6053V17.6054C13.5842 17.3961 13.5635 17.1869 13.5214 16.9983C13.5214 16.9144 13.5006 16.8101 13.4796 16.7262C13.4378 16.6423 13.4167 16.5587 13.3749 16.4959C13.3328 16.433 13.291 16.3912 13.2493 16.3491C13.2282 16.3073 13.1654 16.2652 13.1236 16.2652L13.0818 16.2445L13.0607 16.2234V20.8919H14.3795V23.1527H13.9189C13.961 23.1945 14.0028 23.2156 14.0656 23.2366C14.1074 23.2784 14.1702 23.2995 14.2331 23.3413C14.4006 23.4459 14.5681 23.5926 14.7355 23.718C14.9033 23.8648 15.0498 24.0112 15.1751 24.1787C15.3216 24.3462 15.4473 24.5344 15.5519 24.7229C15.6565 24.9114 15.7404 25.0997 15.824 25.2882C15.9076 25.5185 15.9915 25.7278 16.0543 25.9581C16.1172 26.1884 16.159 26.3977 16.18 26.628C16.2426 27.0884 16.2426 27.5494 16.2008 28.0097C16.159 28.47 16.054 28.931 15.9076 29.3706C15.7599 29.7678 15.5554 30.1416 15.3005 30.4801C15.0702 30.8151 14.7563 31.1293 14.4213 31.3801C14.3374 31.4222 14.2746 31.485 14.191 31.5268C14.1071 31.5689 14.0442 31.6107 13.9607 31.6525H16.619V33.9341H16.6196ZM16.9756 10.76C16.9128 10.76 16.85 10.76 16.7874 10.7811C16.7035 10.8018 16.6407 10.865 16.6407 10.9485V12.6234H15.9708L15.8454 12.2466C15.7615 12.3095 15.6568 12.3934 15.5733 12.4351C15.3219 12.6026 15.029 12.6862 14.7358 12.7073C14.0659 12.7912 13.3753 12.6862 12.8521 12.2887C12.6007 12.1209 12.4125 11.8909 12.2657 11.6395C11.91 11.0953 11.8261 10.4043 11.9308 9.77618C11.9726 9.48332 12.0561 9.19015 12.2239 8.91803C12.369 8.66132 12.5643 8.43638 12.798 8.25658C13.0317 8.07678 13.2992 7.94577 13.5845 7.87135C13.9195 7.76671 14.2545 7.74597 14.5894 7.76671C14.6941 7.78745 14.8408 7.78745 14.9662 7.82955C15.2175 7.91345 15.4689 8.05988 15.6571 8.24841L15.7828 7.87166H16.5367V9.75575H15.741C15.7213 9.52884 15.6792 9.30444 15.6154 9.08582C15.5322 8.91972 15.4102 8.77614 15.2597 8.66727C14.9454 8.458 14.5058 8.41589 14.1709 8.60443C14.0241 8.70906 13.878 8.8558 13.7941 9.02329C13.6684 9.25361 13.6059 9.52573 13.5638 9.79785C13.522 10.1174 13.522 10.4411 13.5638 10.7606C13.6056 11.012 13.6895 11.2841 13.8359 11.4934C13.9233 11.6646 14.0626 11.8038 14.2337 11.8912C14.4219 11.9959 14.6315 12.0169 14.82 11.9959C14.9642 11.9686 15.0919 11.8859 15.1758 11.7655C15.2175 11.7237 15.2386 11.6398 15.2597 11.5773C15.2804 11.368 15.2597 11.1795 15.2597 10.9702C15.2389 10.9284 15.2175 10.8656 15.1758 10.8238C15.134 10.782 15.0919 10.7609 15.0501 10.7609H14.5687V10.1331H17.2273V10.7609H16.9756V10.76ZM19.0272 7.87135H20.7438L21.8951 11.6185C21.9162 11.7231 21.958 11.8488 22.0626 11.8906C22.1044 11.9324 22.1462 11.9534 22.1883 11.9534H22.6069V12.6441H19.8225V11.9742H20.2414C20.325 11.9534 20.4089 11.9324 20.4507 11.8485C20.4611 11.8255 20.4664 11.8005 20.4664 11.7753C20.4664 11.75 20.4611 11.7251 20.4507 11.7021L20.2832 11.095H18.8387L18.6505 11.6813C18.6294 11.7652 18.6294 11.8488 18.6923 11.9116C18.7377 11.9537 18.7978 11.9763 18.8597 11.9745H19.2575V12.6444H17.0385V11.9745H17.3734C17.4573 11.9537 17.562 11.9327 17.6248 11.8699C17.6877 11.807 17.7505 11.6813 17.7713 11.5977L19.0272 7.87135Z" fill="white"/>
    <path fill-rule="evenodd" clip-rule="evenodd" d="M9.8153 9.81797C9.94099 9.75512 10.0456 9.65049 10.0874 9.52511C10.1713 9.35763 10.1713 9.19014 10.1295 9.02266C10.0667 8.79234 9.87815 8.6038 9.64813 8.56201H8.78967V9.90186L9.58529 9.88081C9.64782 9.86007 9.73141 9.86007 9.8153 9.81797ZM11.5948 31.6943H11.909C12.3068 31.6525 12.7253 31.5689 13.1021 31.4429C13.4371 31.3175 13.7928 31.15 14.0859 30.9405C14.3791 30.7104 14.6512 30.4591 14.8605 30.1659C15.3211 29.5381 15.5722 28.7843 15.6561 28.0097C15.7607 27.1723 15.6351 26.2931 15.3211 25.4978C15.1747 25.1628 14.9862 24.8278 14.7559 24.5347C14.5255 24.2415 14.2327 23.9904 13.9185 23.7812C13.6045 23.5716 13.2696 23.4462 12.8928 23.3416C12.5766 23.2568 12.2549 23.1939 11.93 23.1533H11.7208C11.3101 23.1116 10.8962 23.1116 10.4855 23.1533L10.4648 23.1741C9.69024 23.258 8.93641 23.5301 8.35038 23.9904C8.05752 24.2208 7.80614 24.4929 7.61761 24.8071C7.15696 25.4349 6.92694 26.2095 6.8641 27.0051C6.80125 27.8007 6.90589 28.6171 7.2198 29.3499C7.51097 30.0405 7.99876 30.6302 8.6225 31.0457C8.93641 31.255 9.27138 31.3804 9.62739 31.5061C10.276 31.6943 10.9248 31.715 11.5948 31.6943Z" fill="#9A9A9A"/>
    <path fill-rule="evenodd" clip-rule="evenodd" d="M9.62752 27.0051C9.64857 26.5445 9.66932 26.0631 9.795 25.6235C9.85982 25.364 9.96592 25.1167 10.1092 24.891C10.2586 24.7003 10.4526 24.5493 10.6742 24.4514C10.8627 24.3257 11.1138 24.2839 11.3441 24.305C11.5745 24.3257 11.8048 24.4096 12.0141 24.5353C12.2233 24.6399 12.3908 24.8285 12.5165 25.0377C12.6629 25.2888 12.7468 25.582 12.7886 25.8751C12.8725 26.3776 12.9143 26.9008 12.9143 27.4035C12.9143 27.6757 12.8933 27.9478 12.8725 28.2409C12.8518 28.6177 12.8097 29.0155 12.6843 29.413C12.6004 29.6433 12.475 29.8947 12.3075 30.0622C12.0144 30.3343 11.5119 30.5854 10.9048 30.46C10.842 30.4389 10.6745 30.3761 10.5909 30.3133C10.3606 30.2294 10.1721 30.0411 10.0467 29.8108C9.90327 29.5951 9.80365 29.3533 9.75352 29.0991C9.73247 28.9316 9.71173 28.8059 9.69068 28.6592C9.62752 28.1143 9.60647 27.5493 9.62752 27.0051Z" fill="white"/>
    <path fill-rule="evenodd" clip-rule="evenodd" d="M13.8348 21.4367H12.8299C12.7671 21.4367 12.7042 21.4157 12.6414 21.3739C12.5913 21.3474 12.5538 21.3022 12.5368 21.2482C12.5106 21.2195 12.4958 21.1823 12.495 21.1436V15.617C12.7463 15.5959 12.9974 15.617 13.2488 15.7009C13.4388 15.7833 13.6045 15.913 13.7302 16.0776C13.8769 16.2451 13.9816 16.4965 14.023 16.7265C14.1069 17.0404 14.1277 17.3546 14.1277 17.6685H15.4465V14.4235H7.09375V17.6682H8.41256C8.41256 17.3125 8.4333 16.9355 8.51719 16.6005C8.60109 16.3702 8.70573 16.1609 8.85216 15.9934C8.97784 15.8467 9.16607 15.742 9.3546 15.7002C9.56388 15.6164 9.77346 15.6164 10.0035 15.6164V21.1011C10.0035 21.185 9.98243 21.2476 9.91958 21.3104C9.87779 21.3733 9.79389 21.4151 9.68926 21.4361H8.66362V22.6292H13.8345L13.8348 21.4367ZM12.055 33.3898H12.8296C12.9343 33.3898 13.0181 33.3898 13.1017 33.4527C13.2485 33.5363 13.2695 33.7455 13.2695 33.8923V37.9533C13.2695 38.0787 13.2274 38.2254 13.2067 38.3511C13.1649 38.4558 13.1438 38.5604 13.102 38.6232C13.0392 38.7486 12.8089 38.979 12.5996 39.105C12.39 39.2096 12.16 39.2514 11.9297 39.2724H11.5319C11.3851 39.2724 11.2597 39.2303 11.1341 39.1885C10.8409 39.1046 10.7155 39.0207 10.5898 38.8536C10.5059 38.7697 10.4431 38.6653 10.3805 38.5604C10.3177 38.3929 10.2966 38.2047 10.2966 38.0372V33.7458C10.2966 33.662 10.3174 33.5784 10.3595 33.5155C10.4013 33.4737 10.4641 33.4316 10.5477 33.4109C10.6106 33.3901 10.7152 33.3901 10.7991 33.3901H11.5319V32.2178H6.46593V33.3901H7.44977C7.53335 33.3901 7.5962 33.4319 7.65904 33.474C7.70084 33.5158 7.74294 33.5366 7.76368 33.5994C7.78473 33.7044 7.78473 33.788 7.78473 33.8926V38.079C7.78473 38.6657 8.0358 39.2935 8.4754 39.691C8.95679 40.1516 9.60567 40.382 10.2338 40.4866C10.6945 40.5494 11.1341 40.5705 11.5947 40.5494C11.9089 40.5494 12.2228 40.5284 12.5368 40.4655L13.0185 40.3402C13.3221 40.2618 13.6023 40.111 13.8348 39.9006C14.0859 39.7123 14.2952 39.461 14.4208 39.1888C14.5676 38.8957 14.6512 38.5815 14.693 38.2675C14.714 38.079 14.714 37.9118 14.714 37.7233L14.7348 33.7248C14.7348 33.6202 14.7765 33.5363 14.8394 33.4734C14.944 33.3895 15.0697 33.3895 15.1951 33.3895H16.0953V32.1964H12.055V33.3898ZM19.5917 8.87622L19.0682 10.4671H20.0731L19.5917 8.87622ZM12.495 41.0729H6.42414V42.2661H7.32408C7.42872 42.2661 7.5123 42.2868 7.5962 42.3286C7.65904 42.3707 7.70084 42.4125 7.72189 42.4543C7.74263 42.5382 7.74263 42.6214 7.76368 42.7057V47.5413C7.76368 47.688 7.78473 47.8134 7.72189 47.9391L7.5962 48.0644C7.5123 48.0855 7.42872 48.0855 7.36587 48.1062H6.42383V49.2786H11.6362V48.1062H10.6313C10.5056 48.1062 10.401 48.0437 10.3171 47.9598C10.2963 47.897 10.2753 47.8341 10.2753 47.7716V45.5733H11.3848C11.5523 45.5733 11.7408 45.594 11.8873 45.6779C11.9501 45.7407 12.0129 45.8036 12.0547 45.8875C12.1386 46.055 12.1386 46.2432 12.1594 46.4107V47.3945C12.1594 47.667 12.2012 47.9391 12.2851 48.2112C12.3897 48.4412 12.5154 48.6508 12.7039 48.839C12.8714 49.0065 13.0807 49.1532 13.311 49.2368C13.5831 49.2997 13.8552 49.3625 14.1274 49.3832L15.7811 49.3628V48.1276H14.9437C14.8391 48.1276 14.7344 48.0858 14.6923 48.023C14.6295 47.9391 14.6084 47.8555 14.6084 47.7508L14.5667 46.4738C14.5667 46.2435 14.5249 46.0132 14.4199 45.8039C14.3374 45.6139 14.2077 45.4481 14.0432 45.3222C13.8549 45.1755 13.6454 45.0922 13.415 45.0293C13.2793 44.9879 13.1381 44.9667 12.9962 44.9665C13.5407 44.9247 14.1267 44.7362 14.5035 44.3387C14.6917 44.1505 14.8177 43.9198 14.9013 43.6688C14.9849 43.4174 15.0059 43.1663 14.9849 42.8942C14.9638 42.6218 14.922 42.371 14.7967 42.1404C14.692 41.91 14.5035 41.7426 14.3153 41.5751C14.0867 41.4085 13.8319 41.2812 13.5615 41.1983C13.2274 41.1144 12.851 41.0937 12.495 41.0729Z" fill="#9A9A9A"/>
    <path fill-rule="evenodd" clip-rule="evenodd" d="M12.349 44.0665C12.2336 44.2229 12.0727 44.3397 11.8883 44.4012C11.7627 44.464 11.637 44.464 11.5116 44.4851H10.2764V42.266H11.6162C12.0348 42.266 12.3905 42.5381 12.4954 42.9564C12.6001 43.3334 12.579 43.7523 12.349 44.0665Z" fill="white"/>
    <path fill-rule="evenodd" clip-rule="evenodd" d="M10.4225 29.3706C10.5064 29.5173 10.5902 29.6634 10.7156 29.7684C10.8203 29.8523 10.946 29.9151 11.0713 29.9566H11.176C11.3227 29.9566 11.5109 29.9356 11.6366 29.8938C11.9298 29.7684 12.118 29.4542 12.2019 29.0564C12.2858 28.7214 12.3276 28.3657 12.3486 28.0097C12.3694 27.4654 12.3694 26.9419 12.3279 26.4187C12.2858 26.2095 12.2858 26.042 12.244 25.8535C12.2022 25.6442 12.1394 25.4346 12.0137 25.2671C11.9298 25.1414 11.8044 25.0368 11.6995 24.9532C11.4273 24.8275 11.1134 24.8068 10.8621 24.9532C10.7156 25.0371 10.6107 25.1414 10.5064 25.2671C10.4017 25.4557 10.3389 25.6649 10.2971 25.8742C10.1924 26.3138 10.1924 26.7745 10.1714 27.2141C10.1714 27.7165 10.1921 28.1979 10.2553 28.7003C10.276 28.931 10.3178 29.1613 10.4225 29.3706ZM11.5948 42.831L11.5109 42.8103H10.8203V43.9405H11.532C11.6784 43.9198 11.8248 43.8566 11.9087 43.7523C11.9716 43.6684 11.9926 43.5638 12.0134 43.4802C12.0134 43.3545 12.0134 43.2499 11.9716 43.1452C11.909 42.9778 11.783 42.8521 11.5948 42.831ZM11.2809 46.0342H10.6949V47.6459H11.6995V46.4317C11.6995 46.2224 11.5741 46.0342 11.2809 46.0342ZM10.841 34.2901V37.9744C10.841 38.3722 10.9667 38.6235 11.3227 38.7489C11.4691 38.791 11.9926 38.791 12.223 38.7282C12.5579 38.6235 12.7044 38.3307 12.7044 37.9536V34.269C12.7044 34.0597 12.6626 33.8923 12.453 33.8923H11.0921C10.946 33.8923 10.841 33.9969 10.841 34.2901Z" fill="#9A9A9A"/>
    </svg>
    