<svg width="180" height="54" viewBox="0 0 180 54" fill="none" xmlns="http://www.w3.org/2000/svg">
<rect width="180" height="54" fill="white"/>
<path d="M12.4358 37.4808C10.9535 36.9631 9.80852 36.2789 9 35.4288L9.9017 33.6565C10.6893 34.4446 11.7363 35.0818 13.0421 35.5687C14.3482 36.056 15.6956 36.2993 17.0845 36.2993C19.0329 36.2993 20.4939 35.9419 21.4689 35.2266C22.4429 34.5115 22.9302 33.5837 22.9302 32.4438C22.9302 31.5733 22.666 30.8789 22.1375 30.3604C21.6091 29.8426 20.9609 29.4431 20.1942 29.1633C19.427 28.8835 18.3597 28.5779 16.9915 28.246C15.3538 27.8314 14.0477 27.4326 13.0735 27.0489C12.099 26.6655 11.2647 26.0801 10.5703 25.292C9.87541 24.5044 9.52872 23.437 9.52872 22.0893C9.52872 20.9908 9.81873 19.9905 10.3993 19.0888C10.9793 18.1871 11.8711 17.4669 13.0735 16.9277C14.2754 16.389 15.7681 16.1192 17.5511 16.1192C18.7949 16.1192 20.0124 16.2903 21.2047 16.6323C22.3966 16.9744 23.428 17.4462 24.2986 18.0472L23.5212 19.8818C22.6088 19.2808 21.6346 18.8299 20.5983 18.5292C19.5616 18.229 18.5463 18.0783 17.5511 18.0783C15.6436 18.0783 14.2083 18.4465 13.2445 19.1822C12.2808 19.9183 11.7988 20.8667 11.7988 22.0275C11.7988 22.8981 12.063 23.5978 12.5915 24.1263C13.12 24.655 13.7832 25.0591 14.5815 25.339C15.3793 25.6188 16.4521 25.9249 17.7998 26.2562C19.3956 26.6502 20.6862 27.039 21.6708 27.4222C22.655 27.8059 23.4898 28.3859 24.174 29.1633C24.8582 29.9407 25.2003 30.993 25.2003 32.3195C25.2003 33.4186 24.9049 34.4183 24.3139 35.32C23.7234 36.2217 22.8161 36.937 21.5932 37.4655C20.3699 37.994 18.8672 38.2582 17.0847 38.2582C15.4677 38.2582 13.9178 37.9993 12.4358 37.4808Z" fill="#9A9A9A"/>
<path d="M44.4784 21.7163V38.0718H42.3641V35.0869C41.7835 36.0818 40.9852 36.8543 39.9697 37.4035C38.9538 37.9529 37.7933 38.2276 36.4872 38.2276C34.3519 38.2276 32.6672 37.6317 31.4344 36.4395C30.2008 35.2478 29.5842 33.501 29.5842 31.2003V21.7163H31.7918V30.9823C31.7918 32.703 32.2163 34.0091 33.0665 34.9003C33.9163 35.7918 35.129 36.2373 36.7047 36.2373C38.4249 36.2373 39.783 35.7139 40.7779 34.667C41.7728 33.6205 42.2704 32.1638 42.2704 30.2983V21.7163H44.4784Z" fill="#9A9A9A"/>
<path d="M55.0967 22.4314C56.123 21.8718 57.3923 21.5917 58.9057 21.5917V23.7372L58.3772 23.7061C56.6563 23.7061 55.3088 24.2346 54.3349 25.2917C53.3604 26.3489 52.8733 27.8312 52.8733 29.7382V38.0716H50.6658V21.7163H52.7801V24.919C53.2981 23.8205 54.0704 22.991 55.0967 22.4314Z" fill="#9A9A9A"/>
<path d="M76.9711 30.5779H63.2896C63.4139 32.2779 64.067 33.6514 65.2487 34.6981C66.4302 35.7451 67.923 36.2682 69.7261 36.2682C70.7417 36.2682 71.6745 36.0869 72.5247 35.7241C73.3743 35.3616 74.1106 34.8275 74.7322 34.1229L75.976 35.5533C75.2502 36.4239 74.3434 37.0877 73.2553 37.5434C72.167 37.9996 70.9699 38.2276 69.6641 38.2276C67.985 38.2276 66.4974 37.8699 65.202 37.1548C63.9061 36.4395 62.8957 35.4499 62.1701 34.1852C61.4443 32.921 61.0818 31.4906 61.0818 29.8939C61.0818 28.2981 61.4287 26.8677 62.1234 25.6032C62.8178 24.339 63.7713 23.354 64.984 22.6492C66.1969 21.9445 67.5597 21.592 69.0731 21.592C70.5862 21.592 71.9439 21.9445 73.1463 22.6492C74.3485 23.354 75.2918 24.3336 75.976 25.5876C76.6602 26.8421 77.0023 28.2772 77.0023 29.8939L76.9711 30.5779ZM65.1086 24.9966C64.0407 26.0022 63.4343 27.3132 63.2896 28.9299H74.8879C74.7427 27.3132 74.1363 26.0022 73.0689 24.9966C72.0008 23.9912 70.6694 23.4886 69.0733 23.4886C67.4976 23.4886 66.1762 23.9915 65.1086 24.9966Z" fill="#9A9A9A"/>
<path d="M83.3296 37.4808C81.8473 36.9631 80.7023 36.2789 79.8938 35.4288L80.7955 33.6565C81.5831 34.4446 82.6301 35.0818 83.9359 35.5687C85.242 36.056 86.5894 36.2993 87.9782 36.2993C89.9267 36.2993 91.3877 35.9419 92.3627 35.2266C93.3367 34.5115 93.824 33.5837 93.824 32.4438C93.824 31.5733 93.5598 30.8789 93.0313 30.3604C92.5029 29.8426 91.8547 29.4431 91.088 29.1633C90.3208 28.8835 89.2534 28.5779 87.8853 28.246C86.2476 27.8314 84.9415 27.4326 83.9673 27.0489C82.9928 26.6655 82.1585 26.0801 81.4641 25.292C80.7692 24.5044 80.4225 23.437 80.4225 22.0893C80.4225 20.9908 80.7125 19.9905 81.2931 19.0888C81.8731 18.1871 82.7649 17.4669 83.9673 16.9277C85.1692 16.389 86.6619 16.1192 88.4449 16.1192C89.6887 16.1192 90.9062 16.2903 92.0985 16.6323C93.2904 16.9744 94.3218 17.4462 95.1924 18.0472L94.415 19.8818C93.5026 19.2808 92.5284 18.8299 91.4921 18.5292C90.4554 18.229 89.4401 18.0783 88.4449 18.0783C86.5374 18.0783 85.1021 18.4465 84.1383 19.1822C83.1746 19.9183 82.6926 20.8667 82.6926 22.0275C82.6926 22.8981 82.9568 23.5978 83.4853 24.1263C84.0138 24.655 84.677 25.0591 85.4753 25.339C86.2731 25.6188 87.3459 25.9249 88.6936 26.2562C90.2894 26.6502 91.58 27.039 92.5646 27.4222C93.5488 27.8059 94.3836 28.3859 95.0678 29.1633C95.752 29.9407 96.0941 30.993 96.0941 32.3195C96.0941 33.4186 95.7987 34.4183 95.2077 35.32C94.6172 36.2217 93.7099 36.937 92.487 37.4655C91.2637 37.994 89.761 38.2582 87.9785 38.2582C86.3615 38.2582 84.8116 37.9993 83.3296 37.4808Z" fill="#9A9A9A"/>
<path d="M125.866 23.3643C127.037 24.5458 127.623 26.2871 127.623 28.5881V38.0719H125.416V28.8059C125.416 27.1064 125.006 25.8108 124.187 24.919C123.368 24.028 122.213 23.582 120.72 23.582C119.02 23.582 117.683 24.1056 116.709 25.1524C115.735 26.1993 115.248 27.6453 115.248 29.4901V38.0721H113.04V28.8062C113.04 27.1066 112.631 25.811 111.812 24.9193C110.993 24.0283 109.827 23.5823 108.314 23.5823C106.635 23.5823 105.302 24.1059 104.318 25.1526C103.333 26.1996 102.841 27.6456 102.841 29.4903V38.0724H100.634V21.7163H102.748V24.7012C103.328 23.7064 104.136 22.9395 105.173 22.4003C106.21 21.8616 107.401 21.5917 108.749 21.5917C110.117 21.5917 111.304 21.8823 112.31 22.4623C113.315 23.0428 114.066 23.9034 114.564 25.0431C115.165 23.9655 116.03 23.1205 117.16 22.5088C118.29 21.8976 119.58 21.5915 121.031 21.5915C123.083 21.5917 124.695 22.1825 125.866 23.3643Z" fill="#9A9A9A"/>
<path d="M133.593 17.674C133.282 17.363 133.126 16.99 133.126 16.5548C133.126 16.1402 133.282 15.7774 133.593 15.4664C133.904 15.1555 134.287 15 134.743 15C135.199 15 135.583 15.1506 135.894 15.4509C136.205 15.7516 136.36 16.1093 136.36 16.5236C136.36 16.9798 136.205 17.3633 135.894 17.674C135.583 17.9849 135.199 18.1404 134.743 18.1404C134.287 18.1404 133.904 17.9849 133.593 17.674ZM133.624 21.7163H135.831V38.0718H133.624V21.7163Z" fill="#9A9A9A"/>
<path d="M141.988 15H144.196V38.0718H141.988V15Z" fill="#9A9A9A"/>
<path d="M164.594 30.5779H150.912C151.036 32.2779 151.69 33.6514 152.871 34.6981C154.053 35.7451 155.546 36.2682 157.349 36.2682C158.364 36.2682 159.297 36.0869 160.147 35.7241C160.997 35.3616 161.733 34.8275 162.355 34.1229L163.599 35.5533C162.873 36.4239 161.966 37.0877 160.878 37.5434C159.79 37.9996 158.592 38.2276 157.287 38.2276C155.608 38.2276 154.12 37.8699 152.825 37.1548C151.529 36.4395 150.518 35.4499 149.793 34.1852C149.067 32.921 148.704 31.4906 148.704 29.8939C148.704 28.2981 149.051 26.8677 149.746 25.6032C150.44 24.339 151.394 23.354 152.607 22.6492C153.819 21.9445 155.182 21.592 156.696 21.592C158.209 21.592 159.566 21.9445 160.769 22.6492C161.971 23.354 162.914 24.3336 163.599 25.5876C164.283 26.8421 164.625 28.2772 164.625 29.8939L164.594 30.5779ZM152.731 24.9966C151.663 26.0022 151.057 27.3132 150.912 28.9299H162.51C162.365 27.3132 161.759 26.0022 160.691 24.9966C159.623 23.9912 158.292 23.4886 156.696 23.4886C155.12 23.4886 153.799 23.9915 152.731 24.9966Z" fill="#9A9A9A"/>
<path d="M168.841 15.6681C169.332 15.949 169.718 16.3352 169.999 16.8264C170.279 17.3178 170.42 17.8626 170.42 18.4608C170.42 19.059 170.276 19.6068 169.99 20.1044C169.703 20.602 169.312 20.9941 168.818 21.2811C168.323 21.568 167.777 21.7115 167.179 21.7115C166.58 21.7115 166.035 21.568 165.544 21.2811C165.053 20.9944 164.665 20.6035 164.381 20.109C164.098 19.6145 163.956 19.0715 163.956 18.4792C163.956 17.8872 164.098 17.3439 164.381 16.8494C164.665 16.3549 165.054 15.9643 165.549 15.6773C166.043 15.3904 166.593 15.2469 167.197 15.2469C167.801 15.2469 168.349 15.3876 168.841 15.6681ZM168.644 20.9834C169.083 20.724 169.431 20.373 169.687 19.9303C169.944 19.4879 170.072 18.9979 170.072 18.4608C170.072 17.9237 169.947 17.4368 169.697 17.0005C169.446 16.5642 169.103 16.2193 168.667 15.9658C168.23 15.7125 167.74 15.5859 167.197 15.5859C166.654 15.5859 166.161 15.7141 165.718 15.9704C165.276 16.2267 164.928 16.5762 164.674 17.0189C164.421 17.4616 164.294 17.9482 164.294 18.4792C164.294 19.0102 164.421 19.4971 164.674 19.9395C164.928 20.3822 165.274 20.7314 165.714 20.988C166.153 21.2446 166.642 21.3725 167.179 21.3725C167.716 21.3725 168.204 21.243 168.644 20.9834ZM168.602 18.5754C168.459 18.7738 168.256 18.9188 167.994 19.0102L168.854 20.3288H168.36L167.563 19.0927C167.514 19.0988 167.444 19.1019 167.353 19.1019H166.4V20.3288H165.924V16.6296H167.353C167.804 16.6296 168.161 16.7393 168.424 16.9592C168.686 17.179 168.817 17.4782 168.817 17.8565C168.818 18.1373 168.746 18.3771 168.602 18.5754ZM168.081 18.4792C168.261 18.3326 168.351 18.1251 168.351 17.8565C168.351 17.5941 168.261 17.3911 168.081 17.2476C167.9 17.1044 167.649 17.0324 167.325 17.0324H166.391V18.6987H167.325C167.649 18.699 167.9 18.6257 168.081 18.4792Z" fill="#9A9A9A"/>
</svg>
