<svg width="181" height="54" viewBox="0 0 181 54" fill="none" xmlns="http://www.w3.org/2000/svg">
    <rect x="0.5" width="180" height="54" fill="white"/>
    <g clip-path="url(#clip0_2155_9888)">
    <path d="M87.2495 21.8505H83.1046L82.1508 24.7017C82.1161 24.8054 82.0641 24.84 81.96 24.84H80.2258C80.1217 24.84 80.087 24.7881 80.1044 24.6672L83.6769 14.5411C83.7463 14.3683 83.7983 14.1955 83.833 13.608C83.833 13.5389 83.8677 13.487 83.9371 13.487H86.3477C86.4344 13.487 86.4518 13.5043 86.4691 13.5907L90.4753 24.6845C90.4926 24.7881 90.4753 24.84 90.3712 24.84H88.4288C88.3421 24.84 88.2901 24.8054 88.2554 24.7363L87.2495 21.8505ZM83.6596 19.967H86.6946C86.3304 18.8265 85.5153 16.4246 85.1684 15.215H85.1511C84.8736 16.3728 84.1799 18.3945 83.6596 19.967ZM95.547 25.0128C93.0323 25.0128 91.1073 23.5613 91.1073 20.6582C91.1073 18.1526 92.9803 16.1481 96.0326 16.1481C96.2754 16.1481 96.4835 16.1654 96.7783 16.2V12.6576C96.7783 12.5712 96.813 12.5366 96.8824 12.5366H98.7728C98.8595 12.5366 98.8595 12.5712 98.8595 12.6403V23.0774C98.8595 23.423 98.8941 23.8723 98.9288 24.1833C98.9288 24.2697 98.9115 24.3043 98.8248 24.3389C97.6975 24.8227 96.5876 25.0128 95.547 25.0128ZM96.7783 23.0774V18.0144C96.5529 17.928 96.2754 17.8934 95.9632 17.8934C94.4197 17.8934 93.2578 18.8784 93.2578 20.5545C93.2578 22.4381 94.3851 23.2157 95.7725 23.2157C96.1193 23.2157 96.4662 23.1811 96.7783 23.0774ZM104.738 16.1481C107.409 16.1481 108.866 18.1699 108.866 20.5373C108.866 23.2157 107.149 25.0128 104.703 25.0128C101.807 25.0128 100.524 22.7837 100.524 20.5891C100.524 18.1353 102.137 16.1481 104.738 16.1481ZM104.634 17.8934C103.472 17.8934 102.64 18.9129 102.64 20.5545C102.64 22.1443 103.42 23.2502 104.738 23.2502C105.813 23.2502 106.732 22.3689 106.732 20.5891C106.732 19.1549 106.108 17.8934 104.634 17.8934ZM110.616 12.5366H112.437C112.559 12.5366 112.593 12.5539 112.593 12.6749L112.611 16.3901C113.079 16.2345 113.617 16.1481 114.189 16.1481C116.686 16.1481 118.282 17.9107 118.282 20.2262C118.282 23.423 115.784 25.0128 113.218 25.0128C112.316 25.0128 111.449 24.8918 110.616 24.6326C110.547 24.6153 110.495 24.5289 110.495 24.4771V12.6576C110.495 12.5712 110.547 12.5366 110.616 12.5366ZM116.149 20.4336C116.149 18.792 115.195 17.928 113.825 17.928C113.218 17.928 112.888 18.0144 112.611 18.1181V23.1638C112.854 23.2329 113.114 23.2502 113.409 23.2502C114.831 23.2502 116.149 22.3517 116.149 20.4336ZM125.145 21.0557H121.625C121.677 22.2653 122.475 23.2329 124.244 23.2329C125.024 23.2329 125.735 23.0947 126.394 22.8182C126.446 22.7837 126.498 22.8009 126.498 22.8873V24.3216C126.498 24.4253 126.463 24.4771 126.394 24.5117C125.735 24.8227 124.972 25.0128 123.793 25.0128C120.637 25.0128 119.509 22.8009 119.509 20.6755C119.509 18.2736 120.966 16.1481 123.585 16.1481C126.151 16.1481 127.14 18.1526 127.14 19.7942C127.14 20.2781 127.122 20.6755 127.07 20.8656C127.053 20.9347 127.018 20.9693 126.932 20.9865C126.689 21.0384 125.995 21.0557 125.145 21.0557ZM121.625 19.5696H124.209C124.868 19.5696 125.093 19.5696 125.163 19.5523C125.163 19.5005 125.163 19.4313 125.163 19.4141C125.163 18.9129 124.816 17.807 123.498 17.807C122.302 17.807 121.764 18.7229 121.625 19.5696ZM83.4168 30.9053V41.9645C83.4168 42.0854 83.3821 42.12 83.2781 42.12H81.4571C81.353 42.12 81.3183 42.0681 81.3183 41.9645V30.9053C81.3183 30.7843 81.3704 30.767 81.4571 30.767H83.2781C83.3821 30.767 83.4168 30.8016 83.4168 30.9053ZM90.3804 30.1104L86.9813 42.7766C86.9639 42.8457 86.9292 42.863 86.8599 42.863H85.4204C85.3337 42.863 85.3164 42.8285 85.3337 42.7593L88.7502 30.0931C88.7676 30.024 88.7849 30.024 88.8543 30.024H90.3111C90.3804 30.024 90.3978 30.0413 90.3804 30.1104ZM97.0102 30.5942C100.409 30.5942 102.352 33.1862 102.369 36.383C102.386 39.96 100.167 42.2928 97.0102 42.2928C93.6457 42.2928 91.634 39.8045 91.634 36.4349C91.634 33.1171 93.8192 30.5942 97.0102 30.5942ZM93.8018 36.4349C93.8018 38.664 94.9464 40.4438 97.0796 40.4438C99.0393 40.4438 100.219 38.8368 100.201 36.4349C100.201 34.0157 99.0046 32.4432 96.9755 32.4432C95.1372 32.4432 93.8018 33.8774 93.8018 36.4349ZM110.189 42.12H108.403C108.299 42.12 108.264 42.0854 108.264 41.9817V30.9398C108.264 30.8534 108.281 30.7843 108.385 30.7843C109.755 30.7497 110.484 30.7325 111.819 30.7325C114.594 30.7325 116.224 31.9248 116.224 34.1366C116.224 35.64 115.253 36.7113 113.987 37.1779C114.559 37.9728 116.64 41.0659 117.143 41.9299C117.195 42.0336 117.213 42.12 117.109 42.12H114.941C114.802 42.12 114.75 42.0854 114.698 42.0336C114.195 41.256 112.981 39.2688 112.218 38.0592C112.097 37.8518 112.01 37.7654 111.819 37.7654H110.328V41.9817C110.328 42.0854 110.276 42.12 110.189 42.12ZM110.328 35.9856H111.836C113.241 35.9856 114.143 35.3635 114.143 34.2576C114.143 33.1171 113.224 32.5469 111.75 32.5469C111.16 32.5469 110.605 32.5641 110.328 32.5814V35.9856ZM125.213 33.7219V40.2192C125.213 41.1177 125.282 41.6361 125.317 41.999C125.334 42.0854 125.282 42.12 125.178 42.12H123.582C123.461 42.12 123.426 42.0854 123.409 42.0163C123.357 41.8435 123.305 41.5843 123.288 41.4115C122.542 42.1027 121.658 42.2928 120.877 42.2928C119.23 42.2928 117.964 41.4115 117.964 38.9923V33.7219C117.964 33.6182 117.998 33.6009 118.103 33.6009H119.924C120.028 33.6009 120.045 33.6355 120.045 33.7219V38.7504C120.045 39.8217 120.513 40.4784 121.554 40.4784C122.213 40.4784 122.698 40.2537 123.132 39.8563V33.7219C123.132 33.6355 123.167 33.6009 123.271 33.6009H125.091C125.195 33.6009 125.213 33.6355 125.213 33.7219ZM127.414 41.9817V35.5881C127.414 35.0006 127.379 34.0675 127.345 33.7219C127.345 33.6355 127.362 33.6009 127.466 33.6009H129.044C129.166 33.6009 129.218 33.6355 129.252 33.7219C129.304 33.8774 129.339 34.1021 129.374 34.3785C130.119 33.7565 130.952 33.4281 131.888 33.4281C133.189 33.4281 134.785 34.0848 134.785 36.8496V41.9645C134.785 42.0854 134.733 42.12 134.646 42.12H132.842C132.738 42.12 132.686 42.0681 132.686 41.9645V37.0397C132.686 35.8992 132.201 35.2425 131.195 35.2425C130.501 35.2425 129.929 35.5017 129.513 35.951V41.9817C129.513 42.0681 129.46 42.12 129.374 42.12H127.553C127.449 42.12 127.414 42.0681 127.414 41.9817ZM141.007 40.5993V41.8435C141.007 41.9472 140.99 42.0163 140.903 42.0509C140.435 42.2237 140.002 42.2928 139.429 42.2928C138.007 42.2928 137.157 41.6016 137.157 39.8909V35.3462H136.065C135.978 35.3289 135.943 35.2944 135.943 35.1907V33.7392C135.943 33.6355 135.978 33.6009 136.082 33.6009H137.175C137.192 32.9961 137.261 31.9075 137.348 31.4755C137.365 31.3891 137.4 31.3373 137.487 31.32L139.238 31.0781C139.325 31.0608 139.36 31.0781 139.36 31.1645C139.308 31.7347 139.273 32.7542 139.273 33.6009H140.955C141.042 33.6009 141.077 33.6355 141.077 33.7219V35.2253C141.077 35.3117 141.042 35.3462 140.955 35.3462H139.256V39.4416C139.256 40.2019 139.499 40.5648 140.244 40.5648C140.47 40.5648 140.661 40.5475 140.903 40.4957C140.955 40.4784 141.007 40.4957 141.007 40.5993ZM142.538 41.9645V33.7219C142.538 33.6355 142.59 33.6009 142.677 33.6009H144.515C144.619 33.6009 144.654 33.6182 144.654 33.7219V41.9817C144.654 42.0854 144.619 42.12 144.498 42.12H142.711C142.59 42.12 142.538 42.0681 142.538 41.9645ZM143.596 32.4432C142.885 32.4432 142.417 31.9593 142.417 31.2509C142.417 30.5424 142.919 30.0585 143.613 30.0585C144.359 30.0585 144.792 30.5597 144.792 31.2509C144.792 31.9593 144.324 32.4432 143.596 32.4432ZM148.749 42.12H146.928C146.824 42.12 146.789 42.0681 146.789 41.9645V35.4326C146.789 34.7587 146.754 34.0502 146.72 33.7219C146.702 33.6355 146.754 33.6009 146.858 33.6009H148.454C148.541 33.6009 148.575 33.6182 148.627 33.7046C148.679 33.8429 148.714 34.1193 148.731 34.3958C149.547 33.7046 150.344 33.4281 151.263 33.4281C152.287 33.4281 153.032 33.8083 153.501 34.5686C154.246 33.9293 155.166 33.4281 156.345 33.4281C157.784 33.4281 159.276 34.1885 159.276 36.7977V41.9817C159.276 42.0854 159.206 42.12 159.12 42.12H157.333C157.212 42.12 157.177 42.0681 157.177 41.9645V36.9878C157.177 36.0029 156.778 35.2253 155.721 35.2253C155.044 35.2253 154.454 35.519 154.021 35.9337C154.056 36.1238 154.073 36.5904 154.073 36.9533V41.9817C154.073 42.0681 154.056 42.12 153.952 42.12H152.148C152.044 42.12 151.992 42.0854 151.992 41.9645V36.936C151.992 35.7955 151.472 35.2425 150.535 35.2425C149.911 35.2425 149.408 35.4499 148.888 35.8819V41.9817C148.888 42.0854 148.853 42.12 148.749 42.12ZM166.554 38.3357H163.034C163.086 39.5453 163.883 40.5129 165.652 40.5129C166.433 40.5129 167.144 40.3747 167.803 40.0982C167.855 40.0637 167.907 40.0809 167.907 40.1673V41.6016C167.907 41.7053 167.872 41.7571 167.803 41.7917C167.144 42.1027 166.381 42.2928 165.202 42.2928C162.045 42.2928 160.918 40.0809 160.918 37.9555C160.918 35.5536 162.375 33.4281 164.993 33.4281C167.56 33.4281 168.549 35.4326 168.549 37.0742C168.549 37.5581 168.531 37.9555 168.479 38.1456C168.462 38.2147 168.427 38.2493 168.341 38.2665C168.098 38.3184 167.404 38.3357 166.554 38.3357ZM163.034 36.8496H165.618C166.277 36.8496 166.502 36.8496 166.572 36.8323C166.572 36.7805 166.572 36.7113 166.572 36.6941C166.572 36.1929 166.225 35.087 164.907 35.087C163.71 35.087 163.172 36.0029 163.034 36.8496Z" fill="#9A9A9A"/>
    <path d="M61.7762 0H18.4196C15.4264 0 13 2.41766 13 5.4V48.6C13 51.5823 15.4264 54 18.4196 54H61.7762C64.7694 54 67.1958 51.5823 67.1958 48.6V5.4C67.1958 2.41766 64.7694 0 61.7762 0Z" fill="#9A9A9A"/>
    <path d="M29.9741 16.2539H27.2859L26.5706 18.2843C26.5597 18.3383 26.5272 18.3599 26.473 18.3599H25.6059C25.5408 18.3599 25.5192 18.3275 25.5408 18.2735L27.8496 11.7935C27.8821 11.7071 27.9146 11.6099 27.9363 11.2967C27.9363 11.2643 27.958 11.2427 27.9905 11.2427H29.2262C29.2695 11.2427 29.2912 11.2535 29.302 11.2967L31.8276 18.2735C31.8384 18.3275 31.8276 18.3599 31.7734 18.3599H30.7978C30.7545 18.3599 30.722 18.3383 30.7003 18.2951L29.9741 16.2539ZM27.5678 15.2927H29.6814C29.4538 14.5907 28.8359 12.8519 28.63 12.1067H28.6192C28.4349 12.8087 27.9471 14.1803 27.5678 15.2927ZM34.9899 18.4679C33.4507 18.4679 32.2584 17.5607 32.2584 15.7679C32.2584 14.1911 33.4507 12.9815 35.2717 12.9815C35.5102 12.9815 35.6619 12.9923 35.8679 13.0247V10.7027C35.8679 10.6595 35.8895 10.6379 35.9329 10.6379H36.8651C36.9193 10.6379 36.9301 10.6595 36.9301 10.6919V17.3879C36.9301 17.5715 36.9301 17.7875 36.9518 17.9711C36.9518 18.0251 36.9409 18.0467 36.8976 18.0683C36.2472 18.3491 35.6077 18.4679 34.9899 18.4679ZM35.8679 17.4311V13.9643C35.7053 13.8995 35.4776 13.8779 35.2392 13.8779C34.1011 13.8779 33.3532 14.6231 33.3532 15.7139C33.3532 17.0315 34.1769 17.5499 35.0874 17.5499C35.3476 17.5499 35.6402 17.5175 35.8679 17.4311ZM40.5748 12.9815C42.1573 12.9815 43.0786 14.1803 43.0786 15.7031C43.0786 17.3555 42.0489 18.4679 40.5639 18.4679C38.7971 18.4679 38.0167 17.0639 38.0167 15.7247C38.0167 14.2019 39.0139 12.9815 40.5748 12.9815ZM40.5206 13.8779C39.6859 13.8779 39.0898 14.5907 39.0898 15.7031C39.0898 16.7615 39.6426 17.5715 40.5856 17.5715C41.3227 17.5715 42.0055 16.9775 42.0055 15.7355C42.0055 14.7635 41.572 13.8779 40.5206 13.8779ZM44.2512 10.6379H45.1617C45.2267 10.6379 45.2484 10.6487 45.2484 10.7135V13.1651C45.5736 13.0463 45.9421 12.9815 46.3431 12.9815C47.8715 12.9815 48.8578 14.0615 48.8578 15.5087C48.8578 17.4743 47.3403 18.4679 45.7903 18.4679C45.2267 18.4679 44.7389 18.4031 44.2512 18.2411C44.2078 18.2303 44.1862 18.1871 44.1862 18.1439V10.7027C44.1862 10.6595 44.2078 10.6379 44.2512 10.6379ZM47.7739 15.6059C47.7739 14.5259 47.1344 13.8887 46.1697 13.8887C45.7362 13.8887 45.4869 13.9535 45.2484 14.0507V17.4959C45.4327 17.5391 45.6278 17.5715 45.8771 17.5715C46.8634 17.5715 47.7739 16.9235 47.7739 15.6059ZM53.0422 15.9083H50.7443C50.7443 16.8263 51.2971 17.5499 52.4894 17.5499C52.9663 17.5499 53.4107 17.4743 53.8334 17.2799C53.866 17.2583 53.8876 17.2691 53.8876 17.3231V18.0467C53.8876 18.1007 53.8768 18.1331 53.8334 18.1547C53.4541 18.3491 52.9663 18.4679 52.2726 18.4679C50.3541 18.4679 49.6604 17.0963 49.6604 15.7679C49.6604 14.2667 50.56 12.9815 52.1209 12.9815C53.6925 12.9815 54.2778 14.2235 54.2778 15.1847C54.2778 15.4655 54.2562 15.6815 54.2345 15.7895C54.2345 15.8327 54.202 15.8543 54.1586 15.8651C53.996 15.8867 53.5408 15.9083 53.0422 15.9083ZM50.7443 15.1307H52.6086C53.0964 15.1307 53.2264 15.1199 53.2698 15.1091C53.2698 15.0875 53.2698 15.0335 53.2698 15.0119C53.2698 14.6447 53.0313 13.8347 52.0775 13.8347C51.2429 13.8347 50.8418 14.4827 50.7443 15.1307Z" fill="white"/>
    <path d="M28.2508 24.976V42.9472C28.2508 43.1438 28.1945 43.1999 28.0254 43.1999H25.0663C24.8972 43.1999 24.8408 43.1157 24.8408 42.9472V24.976C24.8408 24.7795 24.9254 24.7514 25.0663 24.7514H28.0254C28.1945 24.7514 28.2508 24.8075 28.2508 24.976ZM39.5667 23.6843L34.0431 44.267C34.0149 44.3793 33.9585 44.4074 33.8458 44.4074H31.5067C31.3658 44.4074 31.3376 44.3512 31.3658 44.2389L36.9176 23.6563C36.9458 23.5439 36.974 23.5439 37.0867 23.5439H39.454C39.5667 23.5439 39.5949 23.572 39.5667 23.6843ZM50.3401 24.4706C55.8637 24.4706 59.0201 28.6826 59.0482 33.8774C59.0764 39.6899 55.4691 43.4807 50.3401 43.4807C44.8728 43.4807 41.6037 39.4372 41.6037 33.9616C41.6037 28.5703 45.1546 24.4706 50.3401 24.4706ZM45.1264 33.9616C45.1264 37.5839 46.9864 40.4762 50.4528 40.4762C53.6373 40.4762 55.5537 37.8647 55.5255 33.9616C55.5255 30.0304 53.581 27.4751 50.2837 27.4751C47.2964 27.4751 45.1264 29.8058 45.1264 33.9616Z" fill="white"/>
    </g>
    <defs>
    <clipPath id="clip0_2155_9888">
    <rect width="155" height="54" fill="white" transform="translate(13)"/>
    </clipPath>
    </defs>
    </svg>
    