<svg width="58" height="58" viewBox="0 0 58 58" fill="none" xmlns="http://www.w3.org/2000/svg">
<g id="developer_mode_FILL0_wght100_GRAD0_opsz24 2">
<path id="Vector" d="M20.7837 37.8211L11.9629 29.0003L20.7837 20.1794L21.9921 21.3878L14.3796 29.0003L21.9921 36.6128L20.7837 37.8211ZM15.2254 41.0836H16.9171V45.0711H41.0837V41.0836H42.7754V48.8169C42.7754 49.8641 42.433 50.7301 41.7483 51.4148C41.0636 52.0996 40.1976 52.4419 39.1504 52.4419H18.8504C17.8032 52.4419 16.9372 52.0996 16.2525 51.4148C15.5678 50.7301 15.2254 49.8641 15.2254 48.8169V41.0836ZM16.9171 16.9169H15.2254V9.18359C15.2254 8.13637 15.5678 7.2704 16.2525 6.58568C16.9372 5.90095 17.8032 5.55859 18.8504 5.55859H39.1504C40.1976 5.55859 41.0636 5.90095 41.7483 6.58568C42.433 7.2704 42.7754 8.13637 42.7754 9.18359V16.9169H41.0837V12.9294H16.9171V16.9169ZM16.9171 46.7628V48.8169C16.9171 49.3003 17.1184 49.7433 17.5212 50.1461C17.924 50.5489 18.3671 50.7503 18.8504 50.7503H39.1504C39.6337 50.7503 40.0768 50.5489 40.4796 50.1461C40.8823 49.7433 41.0837 49.3003 41.0837 48.8169V46.7628H16.9171ZM16.9171 11.2378H41.0837V9.18359C41.0837 8.70026 40.8823 8.2572 40.4796 7.85443C40.0768 7.45165 39.6337 7.25026 39.1504 7.25026H18.8504C18.3671 7.25026 17.924 7.45165 17.5212 7.85443C17.1184 8.2572 16.9171 8.70026 16.9171 9.18359V11.2378ZM37.2171 37.8211L36.0087 36.6128L43.6212 29.0003L36.0087 21.3878L37.2171 20.1794L46.0379 29.0003L37.2171 37.8211Z" fill="#52ABD3"/>
</g>
</svg>
