<svg width="58" height="58" viewBox="0 0 58 58" fill="none" xmlns="http://www.w3.org/2000/svg">
<g id="cloud_done_FILL0_wght100_GRAD0_opsz24 1">
<path id="Vector" d="M25.0123 38.9083L36.4914 27.4292L35.2831 26.2208L25.0123 36.4917L19.8164 31.2958L18.6081 32.5042L25.0123 38.9083ZM15.7081 45.1917C12.8887 45.1917 10.4921 44.2049 8.51852 42.2313C6.54491 40.2576 5.55811 37.8611 5.55811 35.0417C5.55811 32.3833 6.50463 30.0271 8.39769 27.9729C10.2907 25.9187 12.6067 24.8917 15.3456 24.8917C15.7484 21.4278 17.2487 18.5479 19.8466 16.2521C22.4446 13.9562 25.4956 12.8083 28.9998 12.8083C32.8262 12.8083 36.0786 14.1476 38.7571 16.826C41.4355 19.5045 42.7748 22.7569 42.7748 26.5833V29.725H44.7081C46.8831 29.725 48.7157 30.4701 50.206 31.9604C51.6963 33.4507 52.4414 35.2833 52.4414 37.4583C52.4414 39.6333 51.6963 41.466 50.206 42.9562C48.7157 44.4465 46.8831 45.1917 44.7081 45.1917H15.7081ZM15.7081 43.5H44.7081C46.3998 43.5 47.8296 42.916 48.9977 41.7479C50.1657 40.5799 50.7498 39.15 50.7498 37.4583C50.7498 35.7667 50.1657 34.3368 48.9977 33.1687C47.8296 32.0007 46.3998 31.4167 44.7081 31.4167H41.0831V26.5833C41.0831 23.2403 39.905 20.3906 37.5487 18.0344C35.1925 15.6781 32.3428 14.5 28.9998 14.5C25.6567 14.5 22.8071 15.6781 20.4508 18.0344C18.0946 20.3906 16.9164 23.2403 16.9164 26.5833H15.7081C13.372 26.5833 11.3782 27.409 9.72686 29.0604C8.07547 30.7118 7.24977 32.7056 7.24977 35.0417C7.24977 37.3778 8.07547 39.3715 9.72686 41.0229C11.3782 42.6743 13.372 43.5 15.7081 43.5Z" fill="#52ABD3"/>
</g>
</svg>
