<svg width="58" height="58" viewBox="0 0 58 58" fill="none" xmlns="http://www.w3.org/2000/svg">
<g id="design_services_FILL0_wght100_GRAD0_opsz24 2">
<path id="Vector" d="M42.1105 22.657L35.2835 15.8904L38.4855 12.7487C39.2105 12.0237 40.0765 11.6612 41.0835 11.6612C42.0904 11.6612 42.9362 12.0237 43.621 12.7487L45.2522 14.4404C45.9369 15.1251 46.2793 15.9709 46.2793 16.9779C46.2793 17.9848 45.9369 18.8306 45.2522 19.5154L42.1105 22.657ZM9.96888 47.9716V41.1445L20.9647 30.1487L8.2168 17.3404L16.1314 9.42578L29.0001 22.2341L35.2835 15.8904L42.1105 22.657L35.8272 29.0008L48.5751 41.8695L40.6605 49.7841L27.7918 36.9758L16.796 47.9716H9.96888ZM22.173 29.0008L27.7918 23.382L22.6564 18.2466L19.8168 21.0862L18.6085 19.8779L21.448 17.0383L16.1314 11.7216L10.5126 17.3404L22.173 29.0008ZM40.6001 47.4279L46.2189 41.8091L40.9022 36.4924L38.0626 39.332L36.8543 38.1237L39.6939 35.2841L34.5585 30.1487L28.9397 35.7674L40.6001 47.4279ZM11.6605 46.2799H16.071L39.6939 22.657L35.2835 18.2466L11.6605 41.8695V46.2799Z" fill="#333333"/>
</g>
</svg>
