<svg width="58" height="58" viewBox="0 0 58 58" fill="none" xmlns="http://www.w3.org/2000/svg">
<g id="nest_farsight_weather_FILL0_wght100_GRAD0_opsz24 1">
<path id="Vector" d="M21.7496 34.3182H36.8538C37.8607 34.3182 38.6965 33.972 39.3611 33.2794C40.0257 32.5869 40.3579 31.7612 40.3579 30.8023C40.3579 29.8435 40.0357 29.0217 39.3913 28.337C38.7468 27.6523 37.9413 27.3099 36.9746 27.3099H34.7392L34.0746 25.0141C33.7455 23.8903 33.1126 22.9851 32.1758 22.2983C31.239 21.6116 30.1757 21.2682 28.9858 21.2682C27.9478 21.2682 27.0059 21.5502 26.16 22.1141C25.3142 22.678 24.6697 23.4231 24.2267 24.3495L23.4413 26.1016H21.5684C20.466 26.1473 19.5359 26.5649 18.7781 27.3542C18.0202 28.1436 17.6413 29.0874 17.6413 30.1856C17.6413 31.3296 18.0407 32.3043 18.8395 33.1099C19.6384 33.9155 20.6084 34.3182 21.7496 34.3182ZM21.7496 32.6266C21.0649 32.6266 20.4909 32.395 20.0277 31.9318C19.5645 31.4686 19.3329 30.8946 19.3329 30.2099C19.3329 29.5252 19.5545 28.9613 19.9975 28.5182C20.4406 28.0752 20.9843 27.8335 21.6288 27.7932H24.5288L25.7371 25.0745C26.0593 24.3898 26.5125 23.8661 27.0965 23.5036C27.6805 23.1411 28.3149 22.9599 28.9996 22.9599C29.8052 22.9599 30.5302 23.1915 31.1746 23.6547C31.8191 24.1179 32.242 24.7523 32.4434 25.5578L33.41 29.0016H36.9142C37.4378 29.0016 37.8607 29.1727 38.1829 29.5151C38.5052 29.8575 38.6663 30.2905 38.6663 30.8141C38.6663 31.2974 38.4951 31.7203 38.1527 32.0828C37.8104 32.4453 37.3774 32.6266 36.8538 32.6266H21.7496ZM29.0101 50.0266C26.1031 50.0266 23.3696 49.4749 20.8096 48.3717C18.2496 47.2684 16.0228 45.7711 14.1291 43.8798C12.2354 41.9885 10.7363 39.7645 9.6316 37.2077C8.52694 34.651 7.97461 31.9191 7.97461 29.0121C7.97461 26.1051 8.52623 23.3716 9.62948 20.8116C10.7328 18.2516 12.2301 16.0247 14.1213 14.1311C16.0127 12.2374 18.2367 10.7382 20.7935 9.63355C23.3502 8.52889 26.0821 7.97656 28.9891 7.97656C31.8961 7.97656 34.6296 8.52819 37.1896 9.63143C39.7496 10.7347 41.9764 12.232 43.8701 14.1233C45.7638 16.0146 47.263 18.2387 48.3676 20.7954C49.4723 23.3522 50.0246 26.084 50.0246 28.991C50.0246 31.8981 49.473 34.6315 48.3697 37.1915C47.2664 39.7515 45.7692 41.9784 43.8779 43.8721C41.9866 45.7658 39.7625 47.2649 37.2058 48.3696C34.649 49.4742 31.9171 50.0266 29.0101 50.0266ZM28.9996 48.3349C34.3968 48.3349 38.9684 46.462 42.7142 42.7161C46.46 38.9703 48.3329 34.3988 48.3329 29.0016C48.3329 23.6043 46.46 19.0328 42.7142 15.287C38.9684 11.5411 34.3968 9.66823 28.9996 9.66823C23.6024 9.66823 19.0309 11.5411 15.285 15.287C11.5392 19.0328 9.66628 23.6043 9.66628 29.0016C9.66628 34.3988 11.5392 38.9703 15.285 42.7161C19.0309 46.46 23.6024 48.3349 28.9996 48.3349Z" fill="#333333"/>
</g>
</svg>
