<svg width="58" height="58" viewBox="0 0 58 58" fill="none" xmlns="http://www.w3.org/2000/svg">
<g id="developer_mode_tv_FILL0_wght100_GRAD0_opsz24 2">
<path id="Vector" d="M7.97461 16.9156V14.0156C7.97461 12.9684 8.31697 12.1024 9.00169 11.4177C9.68641 10.733 10.5524 10.3906 11.5996 10.3906H46.3996C47.4468 10.3906 48.3128 10.733 48.9975 11.4177C49.6822 12.1024 50.0246 12.9684 50.0246 14.0156V16.9156H48.3329V14.0156C48.3329 13.4517 48.1517 12.9885 47.7892 12.626C47.4267 12.2635 46.9635 12.0823 46.3996 12.0823H11.5996C11.0357 12.0823 10.5725 12.2635 10.21 12.626C9.84753 12.9885 9.66628 13.4517 9.66628 14.0156V16.9156H7.97461ZM22.4746 47.6073V42.774H11.5996C10.5524 42.774 9.68641 42.4316 9.00169 41.7469C8.31697 41.0622 7.97461 40.1962 7.97461 39.149V36.249H9.66628V39.149C9.66628 39.7128 9.84753 40.176 10.21 40.5385C10.5725 40.901 11.0357 41.0823 11.5996 41.0823H46.3996C46.9635 41.0823 47.4267 40.901 47.7892 40.5385C48.1517 40.176 48.3329 39.7128 48.3329 39.149V36.249H50.0246V39.149C50.0246 40.1962 49.6822 41.0622 48.9975 41.7469C48.3128 42.4316 47.4468 42.774 46.3996 42.774H35.5246V47.6073H22.4746ZM10.3913 26.5823L16.6746 20.299L15.4663 19.0906L7.97461 26.5823L15.4663 34.074L16.6746 32.8656L10.3913 26.5823ZM47.6079 26.5823L41.3246 32.8656L42.5329 34.074L50.0246 26.5823L42.5329 19.0906L41.3246 20.299L47.6079 26.5823Z" fill="#333333"/>
</g>
</svg>
