<svg width="58" height="58" viewBox="0 0 58 58" fill="none" xmlns="http://www.w3.org/2000/svg">
<g id="cast_FILL0_wght100_GRAD0_opsz24">
<path id="Vector" d="M46.3996 45.1919H34.5579C34.5579 44.91 34.5529 44.628 34.5428 44.3461C34.5328 44.0641 34.5177 43.7822 34.4975 43.5003H46.3996C46.9635 43.5003 47.4267 43.319 47.7892 42.9565C48.1517 42.594 48.3329 42.1308 48.3329 41.5669V16.4336C48.3329 15.8697 48.1517 15.4065 47.7892 15.044C47.4267 14.6815 46.9635 14.5003 46.3996 14.5003H11.5996C11.0357 14.5003 10.5725 14.6815 10.21 15.044C9.84753 15.4065 9.66628 15.8697 9.66628 16.4336V18.669C9.38433 18.6489 9.10239 18.6338 8.82044 18.6237C8.5385 18.6136 8.25655 18.6086 7.97461 18.6086V16.4336C7.97461 15.4367 8.32956 14.5833 9.03945 13.8734C9.74935 13.1635 10.6027 12.8086 11.5996 12.8086H46.3996C47.3965 12.8086 48.2499 13.1635 48.9598 13.8734C49.6697 14.5833 50.0246 15.4367 50.0246 16.4336V41.5669C50.0246 42.5638 49.6697 43.4172 48.9598 44.1271C48.2499 44.837 47.3965 45.1919 46.3996 45.1919ZM7.97461 45.1919V41.3253C9.02183 41.3253 9.92808 41.7079 10.6934 42.4732C11.4586 43.2385 11.8413 44.1447 11.8413 45.1919H7.97461ZM17.8829 45.1919C17.8829 42.453 16.9163 40.1371 14.9829 38.244C13.0496 36.351 10.7135 35.3642 7.97461 35.2836V33.5919C11.1968 33.5919 13.9357 34.7174 16.1913 36.9684C18.4468 39.2193 19.5746 41.9605 19.5746 45.1919H17.8829ZM26.8246 45.1919C26.8246 42.5817 26.3312 40.1368 25.3444 37.8572C24.3576 35.5776 23.0083 33.5819 21.2965 31.8701C19.5847 30.1582 17.589 28.8089 15.3094 27.8221C13.0298 26.8353 10.5849 26.3419 7.97461 26.3419V24.6503C10.8343 24.6503 13.506 25.1858 15.9896 26.2569C18.4732 27.3279 20.6464 28.7948 22.509 30.6575C24.3718 32.5202 25.8386 34.6933 26.9097 37.1769C27.9807 39.6605 28.5163 42.3322 28.5163 45.1919H26.8246Z" fill="#333333"/>
</g>
</svg>
