<svg width="48" height="48" viewBox="0 0 48 48" fill="none" xmlns="http://www.w3.org/2000/svg">
<path d="M37.654 40L36.2385 38.623L40.3885 34.423H30.654V32.423H40.3885L36.2385 28.223L37.654 26.846L44.231 33.423L37.654 40ZM24.3385 27.971C25.5948 27.2853 26.6307 26.372 27.446 25.231C26.4077 24.495 25.2795 23.9392 24.0615 23.5635C22.8435 23.1878 21.5563 23 20.2 23C18.8437 23 17.554 23.1878 16.331 23.5635C15.1077 23.9392 13.9768 24.495 12.9385 25.231C13.7538 26.372 14.7897 27.2853 16.046 27.971C17.3027 28.657 18.6848 29 20.1925 29C21.7002 29 23.0822 28.657 24.3385 27.971ZM20.1925 19C21.0358 19 21.7467 18.7108 22.325 18.1325C22.9033 17.5545 23.1925 16.8437 23.1925 16C23.1925 15.1563 22.9033 14.4455 22.325 13.8675C21.7467 13.2892 21.0358 13 20.1925 13C19.3488 13 18.6378 13.2892 18.0595 13.8675C17.4815 14.4455 17.1925 15.1563 17.1925 16C17.1925 16.8437 17.4815 17.5545 18.0595 18.1325C18.6378 18.7108 19.3488 19 20.1925 19ZM20.1925 42.0385C15.4925 37.8822 11.952 34.0058 9.571 30.4095C7.19033 26.8135 6 23.5412 6 20.5925C6 16.3615 7.3775 12.8717 10.1325 10.123C12.8878 7.37433 16.2412 6 20.1925 6C24.1435 6 27.4967 7.37433 30.252 10.123C33.007 12.8717 34.3845 16.3615 34.3845 20.5925C34.3845 20.8675 34.3827 21.1503 34.379 21.441C34.375 21.7317 34.3397 22.018 34.273 22.3H32.223C32.2897 22.018 32.3333 21.7317 32.354 21.441C32.3743 21.1503 32.3845 20.8675 32.3845 20.5925C32.3845 16.9335 31.2262 13.9135 28.9095 11.5325C26.5928 9.15183 23.6872 7.9615 20.1925 7.9615C16.6975 7.9615 13.7917 9.15183 11.475 11.5325C9.15833 13.9135 8 16.9335 8 20.5925C8 23.0615 9.09233 25.9877 11.277 29.371C13.4617 32.7543 16.4335 36.082 20.1925 39.354C21.0358 38.636 21.8338 37.8988 22.5865 37.1425C23.3392 36.3858 24.054 35.6397 24.731 34.904L24.969 35.104C25.128 35.2373 25.294 35.3892 25.467 35.5595C25.64 35.7302 25.7963 35.8885 25.936 36.0345L26.146 36.254C25.2943 37.1867 24.3693 38.1347 23.371 39.098C22.3723 40.061 21.3128 41.0412 20.1925 42.0385Z" fill="#333333"/>
</svg>
