<svg width="58" height="58" viewBox="0 0 58 58" fill="none" xmlns="http://www.w3.org/2000/svg">
<g id="flowsheet_FILL0_wght100_GRAD0_opsz24">
<path id="Vector" d="M9.66628 29.9669V43.5003V14.5003V29.9669ZM35.6454 48.3336C36.5718 48.3336 37.3673 48.0013 38.0319 47.3367C38.6965 46.6721 39.0288 45.8767 39.0288 44.9503C39.0288 44.0239 38.6965 43.2284 38.0319 42.5638C37.3673 41.8992 36.5718 41.5669 35.6454 41.5669C34.7191 41.5669 33.9236 41.8992 33.259 42.5638C32.5944 43.2284 32.2621 44.0239 32.2621 44.9503C32.2621 45.8767 32.5944 46.6721 33.259 47.3367C33.9236 48.0013 34.7191 48.3336 35.6454 48.3336ZM48.3329 29.7253C49.2593 29.7253 50.0548 29.393 50.7194 28.7284C51.384 28.0638 51.7163 27.2683 51.7163 26.3419C51.7163 25.4155 51.384 24.6201 50.7194 23.9555C50.0548 23.2909 49.2593 22.9586 48.3329 22.9586C47.4066 22.9586 46.6111 23.2909 45.9465 23.9555C45.2819 24.6201 44.9496 25.4155 44.9496 26.3419C44.9496 27.2683 45.2819 28.0638 45.9465 28.7284C46.6111 29.393 47.4066 29.7253 48.3329 29.7253ZM16.0704 25.0128H28.9996V23.3211H16.0704V25.0128ZM16.0704 34.6794H28.9996V32.9878H16.0704V34.6794ZM11.5996 45.1919C10.5524 45.1919 9.68641 44.8496 9.00169 44.1648C8.31697 43.4801 7.97461 42.6142 7.97461 41.5669V16.4336C7.97461 15.3864 8.31697 14.5204 9.00169 13.8357C9.68641 13.151 10.5524 12.8086 11.5996 12.8086H46.3996C47.4468 12.8086 48.3128 13.151 48.9975 13.8357C49.6823 14.5204 50.0246 15.3864 50.0246 16.4336H48.3329C48.3329 15.9503 48.1316 15.5072 47.7288 15.1044C47.326 14.7016 46.8829 14.5003 46.3996 14.5003H11.5996C11.1163 14.5003 10.6732 14.7016 10.2704 15.1044C9.86767 15.5072 9.66628 15.9503 9.66628 16.4336V41.5669C9.66628 42.0503 9.86767 42.4933 10.2704 42.8961C10.6732 43.2989 11.1163 43.5003 11.5996 43.5003H25.7371V45.1919H11.5996ZM35.6454 50.0253C34.2357 50.0253 33.0375 49.5319 32.0507 48.5451C31.0638 47.5582 30.5704 46.36 30.5704 44.9503C30.5704 43.6614 30.9732 42.5537 31.7788 41.6273C32.5843 40.701 33.5913 40.1371 34.7996 39.9357V34.8003H47.4871V31.3565C46.2788 31.1551 45.2718 30.5912 44.4663 29.6648C43.6607 28.7385 43.2579 27.6308 43.2579 26.3419C43.2579 24.9322 43.7513 23.7339 44.7382 22.7471C45.725 21.7603 46.9232 21.2669 48.3329 21.2669C49.7427 21.2669 50.9409 21.7603 51.9277 22.7471C52.9145 23.7339 53.4079 24.9322 53.4079 26.3419C53.4079 27.6308 53.0052 28.7385 52.1996 29.6648C51.3941 30.5912 50.3871 31.1551 49.1788 31.3565V36.4919H36.4913V39.9357C37.6996 40.1371 38.7066 40.701 39.5121 41.6273C40.3177 42.5537 40.7204 43.6614 40.7204 44.9503C40.7204 46.36 40.227 47.5582 39.2402 48.5451C38.2534 49.5319 37.0552 50.0253 35.6454 50.0253Z" fill="#52ABD3"/>
</g>
</svg>
