<svg width="30" height="30" viewBox="0 0 30 30" fill="none" xmlns="http://www.w3.org/2000/svg">
<g id="instagram logo">
<path id="Vector" d="M2.21458 0H27.7854C28.3728 0 28.9361 0.233322 29.3514 0.648637C29.7667 1.06395 30 1.62724 30 2.21458V27.7854C30 28.3728 29.7667 28.9361 29.3514 29.3514C28.9361 29.7667 28.3728 30 27.7854 30H2.21458C1.62724 30 1.06395 29.7667 0.648637 29.3514C0.233322 28.9361 0 28.3728 0 27.7854V2.21458C0 1.62724 0.233322 1.06395 0.648637 0.648637C1.06395 0.233322 1.62724 0 2.21458 0Z" fill="white"/>
<path id="Vector_2" d="M10.4652 4.06663C9.29411 4.12014 8.4939 4.30568 7.79518 4.57773C7.07186 4.85839 6.45864 5.23521 5.84644 5.84635C5.23424 6.4577 4.85843 7.0709 4.57755 7.79501C4.30569 8.49431 4.11994 9.29406 4.06663 10.4649C4.01251 11.638 4 12.0127 4 15C4 17.9873 4.01251 18.3622 4.06663 19.5351C4.11994 20.7061 4.30569 21.5059 4.57755 22.2052C4.85843 22.9285 5.23424 23.5427 5.84644 24.1536C6.45864 24.7648 7.07084 25.141 7.79518 25.4225C8.49534 25.6945 9.29411 25.8801 10.4652 25.9334C11.6387 25.9867 12.0131 26 15.0005 26C17.9879 26 18.3629 25.9877 19.5358 25.9334C20.7069 25.8801 21.5065 25.6945 22.2058 25.4225C22.9292 25.141 23.5424 24.765 24.1546 24.1536C24.7668 23.5425 25.1418 22.9285 25.4233 22.2052C25.6953 21.5059 25.8819 20.7061 25.9344 19.5351C25.9877 18.3614 26 17.9873 26 15C26 12.0127 25.9877 11.638 25.9344 10.4651C25.8811 9.29386 25.6953 8.4939 25.4233 7.79501C25.1418 7.07172 24.7658 6.45873 24.1546 5.84635C23.5432 5.23418 22.9292 4.85839 22.2069 4.57773C21.5065 4.30568 20.7069 4.11911 19.5366 4.06663C18.3635 4.01312 17.9887 4 15.0017 4C12.0148 4 11.6387 4.01251 10.4652 4.06663ZM10.5562 23.954C9.48375 23.905 8.90087 23.7264 8.51338 23.5755C7.99979 23.3756 7.63342 23.1374 7.24818 22.7526C6.86274 22.368 6.6243 22.0018 6.42522 21.4883C6.27432 21.1012 6.09554 20.5179 6.04695 19.4455C5.99364 18.2862 5.98298 17.9376 5.98298 15.0002C5.98298 12.0628 5.99446 11.7155 6.04695 10.5549C6.09575 9.48247 6.27576 8.90064 6.42522 8.51214C6.62532 7.99858 6.86335 7.63222 7.24818 7.247C7.6328 6.86178 7.99897 6.62315 8.51338 6.42408C8.90067 6.27319 9.48375 6.09442 10.5562 6.04583C11.7158 5.99232 12.0642 5.98166 15.0005 5.98166C17.9369 5.98166 18.2854 5.99314 19.446 6.04603C20.5185 6.09483 21.1006 6.27463 21.4889 6.42428C22.0025 6.62335 22.3688 6.8624 22.7543 7.24721C23.1395 7.63181 23.3771 7.99879 23.577 8.51235C23.7279 8.89962 23.9067 9.48268 23.9553 10.5551C24.0086 11.7155 24.0193 12.063 24.0193 15.0004C24.0193 17.938 24.0086 18.2853 23.9553 19.4457C23.9065 20.5181 23.7271 21.1012 23.577 21.4885C23.3771 22.002 23.1389 22.3684 22.7543 22.7528C22.3695 23.1372 22.0025 23.3756 21.4889 23.5757C21.1016 23.7266 20.5185 23.9054 19.446 23.954C18.2864 24.0075 17.9381 24.0181 15.0005 24.0181C12.0627 24.0181 11.7154 24.0075 10.5562 23.954ZM19.5528 9.1278C19.5524 9.85683 20.1433 10.4481 20.8722 10.4483C21.6014 10.4485 22.1925 9.85785 22.1929 9.12882C22.1931 8.3998 21.6023 7.80854 20.8734 7.80833C20.1447 7.80874 19.5533 8.39918 19.5528 9.1278ZM9.35192 15C9.35192 18.1197 11.8807 20.6485 15.0005 20.6485C18.1203 20.6485 20.6491 18.1197 20.6491 15C20.6491 11.8805 18.1203 9.35167 15.0005 9.35167C11.8807 9.35167 9.35192 11.8803 9.35192 15ZM11.3343 15C11.3343 12.9751 12.9755 11.3331 15.0005 11.3331C17.0255 11.3331 18.6676 12.9751 18.6676 15C18.6676 17.0251 17.0255 18.6671 15.0005 18.6671C12.9755 18.6671 11.3343 17.0251 11.3343 15Z" fill="#152a38"/>
</g>
</svg>
