<svg width="30" height="30" viewBox="0 0 30 30" fill="none" xmlns="http://www.w3.org/2000/svg">
<g id="facebook logo">
<path id="Vector" d="M2.21458 0H27.7854C28.3728 0 28.9361 0.233322 29.3514 0.648637C29.7667 1.06395 30 1.62724 30 2.21458V27.7854C30 28.3728 29.7667 28.9361 29.3514 29.3514C28.9361 29.7667 28.3728 30 27.7854 30H2.21458C1.62724 30 1.06395 29.7667 0.648637 29.3514C0.233322 28.9361 0 28.3728 0 27.7854V2.21458C0 1.62724 0.233322 1.06395 0.648637 0.648637C1.06395 0.233322 1.62724 0 2.21458 0Z" fill="white"/>
<path id="Vector_2" d="M20.5851 30.0002V18.3826H24.4847L25.0684 13.8551H20.5851V10.9644C20.5851 9.65336 20.9492 8.76015 22.829 8.76015L25.2264 8.75907V4.70972C24.8116 4.65447 23.3886 4.53125 21.733 4.53125C18.2762 4.53125 15.9097 6.64117 15.9097 10.5161V13.8551H12V18.3826H15.9097V30.0002H20.5851Z" fill="white"/>
</g>
</svg>
